<svg width="32" height="32" viewBox="0 0 32 32" fill="none" xmlns="http://www.w3.org/2000/svg">
<path d="M11.2422 4.45001C7.51388 4.45001 4.45001 7.50978 4.45001 11.2422V20.7578C4.45001 24.4861 7.50978 27.55 11.2422 27.55H20.7578C24.4861 27.55 27.55 24.4902 27.55 20.7578V11.2422C27.55 7.51388 24.4902 4.45001 20.7578 4.45001H11.2422ZM11.2422 6.55001H20.7578C23.3541 6.55001 25.45 8.64591 25.45 11.2422V20.7578C25.45 23.3541 23.3541 25.45 20.7578 25.45H11.2422C8.64591 25.45 6.55001 23.3541 6.55001 20.7578V11.2422C6.55001 8.64591 8.64591 6.55001 11.2422 6.55001ZM22.2016 8.84689C21.6725 8.84689 21.25 9.26935 21.25 9.79845C21.25 10.3276 21.6725 10.75 22.2016 10.75C22.7307 10.75 23.1531 10.3276 23.1531 9.79845C23.1531 9.26935 22.7307 8.84689 22.2016 8.84689ZM16 9.70001C12.5342 9.70001 9.70001 12.5342 9.70001 16C9.70001 19.4658 12.5342 22.3 16 22.3C19.4658 22.3 22.3 19.4658 22.3 16C22.3 12.5342 19.4658 9.70001 16 9.70001ZM16 11.8C18.3338 11.8 20.2 13.6662 20.2 16C20.2 18.3338 18.3338 20.2 16 20.2C13.6662 20.2 11.8 18.3338 11.8 16C11.8 13.6662 13.6662 11.8 16 11.8Z" fill="black"/>
</svg>
