<svg width="32" height="32" viewBox="0 0 32 32" fill="none" xmlns="http://www.w3.org/2000/svg">
<g clip-path="url(#clip0_22_32)">
<path d="M4.45001 4.45001V27.55H27.55V4.45001H4.45001ZM6.55001 6.55001H25.45V25.45H6.55001V6.55001ZM8.65001 11.1376V20.1795H13.0387C14.6767 20.169 16.2215 19.3818 16.2215 17.5443C16.2215 16.3998 15.6752 15.4332 14.5727 15.1182C15.3812 14.7192 15.8011 14.278 15.8011 13.375C15.8011 11.569 14.4676 11.1376 12.9136 11.1376H8.65001ZM18.2477 11.8V12.6921H21.9001V11.8H18.2477ZM10.6454 12.5239H12.5137C13.2172 12.5239 13.8693 12.7239 13.8693 13.5534C13.8693 14.3199 13.3651 14.6342 12.6511 14.6342H10.6454V12.5239ZM20.159 13.3012C18.1745 13.3012 16.8183 14.7828 16.8183 16.7568C16.8183 18.7938 18.0905 20.2 20.159 20.2C21.7235 20.2 22.7419 19.4969 23.2249 17.9954H21.6376C21.4591 18.5519 20.7665 18.8465 20.2205 18.8465C19.16 18.8465 18.6148 18.2269 18.6148 17.1874H23.3295C23.34 17.0824 23.35 16.9563 23.35 16.8408C23.35 14.9088 22.2065 13.3012 20.159 13.3012ZM20.0954 14.6465C21.0089 14.6465 21.4595 15.1818 21.533 16.0533H18.6148C18.6673 15.1923 19.2344 14.6465 20.0954 14.6465ZM10.6352 16.1374H12.809C13.6805 16.1374 14.2363 16.5031 14.2363 17.4376C14.2363 18.3406 13.5744 18.625 12.7659 18.625H10.6352V16.1374Z" fill="black"/>
</g>
<defs>
<clipPath id="clip0_22_32">
<rect width="32" height="32" fill="white"/>
</clipPath>
</defs>
</svg>
