<?xml version="1.0" encoding="UTF-8"?>
<svg id="Layer_1" data-name="Layer 1" xmlns="http://www.w3.org/2000/svg" viewBox="0 0 157.02 127.43">
  <defs>
    <style>
      .cls-1 {
        fill: #0096fa;
      }
    </style>
  </defs>
  <path class="cls-1" d="m135.54,47.32c-2.12,0-4.04.83-5.51,2.17l-15.35-9,15.35-9c1.47,1.33,3.38,2.17,5.51,2.17,4.58,0,8.29-3.77,8.29-8.43s-3.71-8.43-8.29-8.43-8.29,3.77-8.29,8.43c0,.59.06,1.17.18,1.73l-15.32,8.99v-17.73c3.31-1.11,5.71-4.24,5.71-7.97,0-4.66-3.71-8.43-8.29-8.43s-8.29,3.77-8.29,8.43c0,3.73,2.4,6.86,5.71,7.97v17.73l-15.32-8.99c.11-.56.18-1.14.18-1.73,0-4.66-3.71-8.43-8.29-8.43s-8.29,3.77-8.29,8.43,3.71,8.43,8.29,8.43c2.12,0,4.04-.83,5.51-2.17l15.35,9-15.35,9c-1.47-1.33-3.38-2.17-5.51-2.17-4.58,0-8.29,3.77-8.29,8.43s3.71,8.43,8.29,8.43,8.29-3.77,8.29-8.43c0-.59-.06-1.17-.18-1.73l15.32-8.99v17.73c-3.31,1.11-5.71,4.24-5.71,7.97,0,4.66,3.71,8.43,8.29,8.43s8.29-3.77,8.29-8.43c0-3.73-2.4-6.86-5.71-7.97v-17.73l15.32,8.99c-.11.56-.18,1.14-.18,1.73,0,4.66,3.71,8.43,8.29,8.43s8.29-3.77,8.29-8.43-3.71-8.43-8.29-8.43Z"/>
  <path class="cls-1" d="m83.73,109.57c-.29,0-.56.06-.84.09l-9.65-21.94c1.73-1.54,2.85-3.79,2.85-6.31,0-4.66-3.71-8.43-8.29-8.43-.34,0-.67.06-1,.1l-14.47-32.89c1.64-1.54,2.68-3.72,2.68-6.17,0-4.66-3.71-8.43-8.29-8.43s-8.29,3.77-8.29,8.43c0,2.48,1.07,4.68,2.75,6.23l-14.66,32.83c-.31-.04-.62-.1-.95-.1-4.58,0-8.29,3.77-8.29,8.43,0,2.48,1.07,4.68,2.74,6.22l-9.84,22.03c-.3-.03-.58-.09-.89-.09-4.58,0-8.29,3.77-8.29,8.43s3.71,8.43,8.29,8.43,8.29-3.77,8.29-8.43c0-2.45-1.05-4.64-2.7-6.18l9.85-22.07c.28.03.54.08.83.08,3.67,0,6.75-2.44,7.84-5.8h26.54c1.09,3.36,4.17,5.8,7.84,5.8.23,0,.45-.05.68-.07l9.69,22.02c-1.67,1.54-2.73,3.74-2.73,6.21,0,4.66,3.71,8.43,8.29,8.43s8.29-3.77,8.29-8.43-3.71-8.43-8.29-8.43ZM45.91,42.36c.27.03.54.08.82.08.31,0,.61-.06.91-.09l14.49,32.94c-.99.95-1.73,2.15-2.16,3.49h-26.54c-.44-1.36-1.19-2.56-2.2-3.52l14.69-32.9Z"/>
</svg>