<?xml version="1.0" encoding="UTF-8"?>
<svg id="Layer_2" data-name="Layer 2" xmlns="http://www.w3.org/2000/svg" viewBox="0 0 155.76 135.89">
  <defs>
    <style>
      .cls-1 {
        fill: #fff;
      }
    </style>
  </defs>
  <g id="intro">
    <g id="graphic">
      <g>
        <path class="cls-1" d="m146.71,49.63c-2.31,0-4.4.91-6,2.36l-16.74-9.82,16.74-9.82c1.6,1.45,3.69,2.36,6,2.36,5,0,9.05-4.12,9.05-9.19s-4.05-9.19-9.05-9.19-9.05,4.12-9.05,9.19c0,.65.07,1.28.19,1.89l-16.7,9.8v-19.33c3.61-1.21,6.23-4.62,6.23-8.69,0-5.08-4.05-9.19-9.05-9.19s-9.05,4.12-9.05,9.19c0,4.07,2.62,7.48,6.23,8.69v19.33l-16.71-9.8c.13-.61.19-1.24.19-1.89,0-5.08-4.05-9.19-9.05-9.19s-9.04,4.12-9.04,9.19,4.05,9.19,9.04,9.19c2.31,0,4.4-.91,6-2.36l16.74,9.82-16.74,9.82c-1.6-1.45-3.69-2.36-6-2.36-5,0-9.04,4.12-9.04,9.19s4.05,9.19,9.04,9.19,9.05-4.12,9.05-9.19c0-.65-.07-1.28-.19-1.89l16.71-9.8v19.33c-3.61,1.21-6.23,4.62-6.23,8.69,0,5.08,4.05,9.19,9.05,9.19s9.05-4.12,9.05-9.19c0-4.07-2.62-7.48-6.23-8.69v-19.33l16.7,9.8c-.13.61-.19,1.24-.19,1.89,0,5.08,4.05,9.19,9.05,9.19s9.05-4.12,9.05-9.19-4.05-9.19-9.05-9.19Z"/>
        <path class="cls-1" d="m90.22,117.51c-.31,0-.61.06-.92.09l-10.52-23.92c1.89-1.68,3.11-4.13,3.11-6.88,0-5.08-4.05-9.19-9.05-9.19-.37,0-.73.07-1.09.11l-15.78-35.87c1.79-1.68,2.92-4.06,2.92-6.73,0-5.08-4.05-9.19-9.04-9.19s-9.05,4.12-9.05,9.19c0,2.7,1.17,5.11,3,6.79l-15.99,35.8c-.34-.04-.68-.11-1.03-.11-5,0-9.05,4.12-9.05,9.19,0,2.7,1.17,5.1,2.99,6.79l-10.73,24.03c-.32-.04-.64-.1-.97-.1-5,0-9.04,4.12-9.04,9.19s4.05,9.19,9.04,9.19,9.05-4.12,9.05-9.19c0-2.68-1.14-5.06-2.94-6.74l10.74-24.06c.3.03.59.09.9.09,4.01,0,7.36-2.66,8.55-6.33h28.95c1.19,3.67,4.55,6.33,8.55,6.33.26,0,.5-.06.75-.08l10.56,24.01c-1.82,1.68-2.98,4.08-2.98,6.78,0,5.08,4.05,9.19,9.05,9.19s9.05-4.12,9.05-9.19-4.05-9.19-9.05-9.19ZM48.97,44.22c.3.03.59.09.89.09.34,0,.66-.06.99-.1l15.8,35.92c-1.08,1.04-1.88,2.34-2.36,3.8h-28.95c-.48-1.48-1.3-2.8-2.4-3.84l16.02-35.88Z"/>
      </g>
    </g>
  </g>
</svg>