<?xml version="1.0" encoding="UTF-8"?>
<svg id="Layer_2" data-name="Layer 2" xmlns="http://www.w3.org/2000/svg" viewBox="0 0 207.35 15">
  <defs>
    <style>
      .cls-1 {
        fill: #fff;
      }
    </style>
  </defs>
  <g id="intro">
    <g id="Layer_9" data-name="Layer 9">
      <path class="cls-1" d="m205.16,2.2c-2.93-2.93-7.68-2.93-10.61,0-.93.93-1.56,2.04-1.9,3.22H14.7c-.34-1.18-.97-2.29-1.9-3.22C9.87-.73,5.13-.73,2.2,2.2c-2.93,2.93-2.93,7.68,0,10.61s7.68,2.93,10.61,0c.93-.93,1.56-2.04,1.9-3.22h177.95c.34,1.18.97,2.29,1.9,3.22,2.93,2.93,7.68,2.93,10.61,0,2.93-2.93,2.93-7.68,0-10.61Z"/>
    </g>
  </g>
</svg>