<?xml version="1.0" encoding="UTF-8"?>
<svg id="Layer_2" data-name="Layer 2" xmlns="http://www.w3.org/2000/svg" viewBox="0 0 152.67 30.59">
  <defs>
    <style>
      .cls-1 {
        fill: #fff;
      }
    </style>
  </defs>
  <g id="intro">
    <g id="graphic">
      <g>
        <path class="cls-1" d="m.01,15.12c.2,0,.34,0,.48,0,5.85,0,11.71,0,17.56,0q.43,0,.43-.44c0-.96,0-1.92,0-2.88,0-.11,0-.22.02-.38,1.85.3,3.67.6,5.52.91,0-.17.02-.3.02-.43,0-2.79,0-5.58,0-8.37,0-.27.09-.4.34-.5,2.42-.96,4.84-1.93,7.27-2.9.07-.03.14-.05.26-.08,0,.14.02.26.02.38,0,4.27,0,8.55,0,12.82,0,.4,0,.4.39.46,1.43.23,2.86.47,4.29.71.31.05.45.34.31.63-.02.04-.1.08-.16.08-.09.01-.19,0-.29,0-5.85,0-11.71,0-17.56,0q-.4,0-.4.4c0,1,0,1.99,0,2.99,0,.1,0,.21-.02.34-1.86-.3-3.69-.6-5.56-.9v.37c0,2.92,0,5.85,0,8.77,0,.25-.08.36-.31.46-2.42.96-4.84,1.93-7.26,2.9-.1.04-.19.07-.33.12,0-.16,0-.28,0-.4,0-4.37,0-8.74,0-13.11,0-.29-.05-.41-.37-.46-1.44-.21-2.88-.46-4.32-.69-.26-.04-.38-.13-.33-.4.02-.12,0-.24,0-.41Z"/>
        <path class="cls-1" d="m116.39,2.65v.38c0,1.12,0,2.24,0,3.36,0,.22.05.3.29.3.79,0,.79.01.79-.77,0-1,0-1.99,0-2.99,0-.22.05-.3.29-.3.58.02,1.17,0,1.78,0,0,.15.02.28.02.41,0,4.24,0,8.47,0,12.71,0,.66,0,1.32.03,1.98,0,.24-.08.32-.31.31-.49-.01-.98-.02-1.47,0-.26,0-.34-.07-.34-.34,0-2.49,0-4.98,0-7.47,0-.67,0-1.34,0-2.05-.33,0-.64,0-.94,0-.05,0-.11.09-.13.15-.02.08,0,.17,0,.26,0,3.02.02,6.04.03,9.05,0,.39,0,.39-.4.39-.46,0-.92-.01-1.38,0-.25,0-.33-.08-.33-.33,0-1.49,0-2.97,0-4.46,0-.11,0-.23,0-.38-.15,0-.27,0-.39,0-1.8,0-3.61,0-5.41,0-.97,0-1.44-.46-1.44-1.42,0-2.64,0-5.29,0-7.93,0-.11.01-.22.02-.35h5.89c0,.45.01.89-.01,1.33,0,.06-.17.15-.27.15-1,.01-2,0-2.99,0-.11,0-.23,0-.37,0,0,.28,0,.53,0,.79,0,1.84,0,3.68,0,5.52q0,.41.41.41c1.39,0,2.78,0,4.17,0,.11,0,.23,0,.37,0,0-.15.02-.27.02-.39,0-2.65,0-5.31,0-7.96q0-.38.37-.38c.55,0,1.11,0,1.72,0Z"/>
        <path class="cls-1" d="m31.89,30.57c-.49-.19-.92-.37-1.36-.54-2.07-.83-4.13-1.66-6.2-2.48-.22-.09-.3-.19-.3-.44,0-2.94,0-5.88,0-8.83,0-.27.08-.35.35-.4,2.4-.38,4.79-.77,7.18-1.16.1-.02.2-.02.33-.03v13.87Z"/>
        <path class="cls-1" d="m5.04,0c.79.32,1.54.62,2.3.92,1.76.71,3.52,1.41,5.29,2.11.22.09.3.19.3.43,0,2.85,0,5.69,0,8.54,0,.27-.09.35-.34.39-2.41.38-4.82.78-7.24,1.17-.09.02-.19.02-.3.03V0Z"/>
        <path class="cls-1" d="m76.37,4.68v-1.49c.11,0,.21-.02.32-.02,3.06,0,6.12,0,9.18,0,.75,0,1.25.49,1.25,1.24,0,1.4,0,2.8,0,4.2,0,.5-.02.42.44.43.42,0,.84,0,1.31,0,0,.47,0,.93-.01,1.38,0,.04-.18.11-.27.11-1,0-2,0-2.99,0-.79,0-1.57,0-2.36,0-.1,0-.21,0-.34,0v1.94c.1,0,.2.01.3.01.89,0,1.78,0,2.68,0,.74,0,1.24.48,1.24,1.22,0,1.35,0,2.7,0,4.05,0,.22-.06.31-.29.3-.56-.01-1.11-.01-1.67,0-.22,0-.3-.07-.3-.3.01-1.13,0-2.26,0-3.39,0-.11,0-.23,0-.37-.15,0-.27-.02-.39-.02-2.58,0-5.16,0-7.74,0q-.38,0-.38-.37c0-.36,0-.72,0-1.12h4.24v-1.94c-.12,0-.24-.02-.36-.02-1.75,0-3.49,0-5.24,0q-.4,0-.4-.41c0-.35,0-.7,0-1.08h10.25v-4.36h-8.47Z"/>
        <path class="cls-1" d="m96.38,5.98v-1.29c-.12,0-.24-.02-.36-.02-1.52,0-3.03,0-4.55,0-.3,0-.38-.09-.37-.38.02-.36,0-.72,0-1.11.13,0,.24-.02.34-.02,1.99,0,3.97,0,5.96,0,.76,0,1.25.48,1.25,1.23,0,.92,0,1.84,0,2.76,0,.26-.09.32-.33.32-1.53,0-3.05,0-4.58-.01-.28,0-.4.07-.37.37.03.32,0,.65,0,.98,0,.15.04.22.21.22,2.49,0,4.99,0,7.48,0,.04,0,.07-.01.14-.02V2.68h2.24v7.85c-.12,0-.23.02-.35.02-3.58,0-7.16,0-10.73,0-.77,0-1.27-.48-1.27-1.25,0-1,0-1.99,0-2.99,0-.25.07-.33.32-.33,1.53.01,3.05,0,4.58,0,.11,0,.23,0,.38,0Z"/>
        <path class="cls-1" d="m59.8,11.22c0-.47-.01-.91.01-1.34,0-.07.16-.16.25-.2.77-.31,1.56-.57,2.31-.93.65-.3,1.17-.8,1.62-1.36.65-.79.91-1.64.81-2.7-.11,0-.22-.01-.33-.01-1.45,0-2.9,0-4.35,0-.26,0-.36-.07-.34-.34.02-.38,0-.76,0-1.17h.36c1.88,0,3.76,0,5.64,0,.75,0,1.21.39,1.29,1.14.02.17.09.21.23.21.73,0,1.46,0,2.19,0,.2,0,.24-.09.24-.26,0-.52,0-1.03,0-1.57h2.22v8.46c-.14,0-.28.02-.42.02-.49,0-.98-.01-1.47,0-.26,0-.35-.06-.35-.34.02-.67,0-1.34,0-2.05h-3.1v-1.51h3.1c0-.39,0-.75,0-1.11,0-.05-.13-.13-.19-.14-.79,0-1.57-.01-2.36,0-.08,0-.21.1-.23.18-.46,1.68-1.55,2.85-3.04,3.7-1.2.68-2.48,1.11-3.84,1.32-.07.01-.15,0-.27,0Z"/>
        <path class="cls-1" d="m44.64,5.21c-.5,0-.92-.01-1.34,0-.22,0-.29-.07-.28-.28.01-.32.02-.63,0-.95-.01-.22.08-.28.29-.28.94,0,1.88,0,2.82,0,.26,0,.36-.07.34-.34-.02-.34,0-.68,0-1.05h2.26c0,.35.02.7,0,1.05-.02.27.09.34.34.34.92-.01,1.84,0,2.76-.01.25,0,.34.08.32.33-.02.31-.01.61,0,.92,0,.2-.07.26-.27.26-.44-.01-.88,0-1.36,0,.05.08.06.13.09.16,1.62,1.91.84,4.84-1.74,5.7-2.01.67-4.22-.29-4.95-2.16-.47-1.22-.28-2.37.5-3.42.06-.07.11-.15.21-.28Zm4.55,2.43c0-.7-.24-1.31-.66-1.72-.58-.55-1.36-.55-1.93,0-.87.85-.89,2.52-.04,3.4.58.6,1.4.61,1.99.01.46-.47.64-1.05.64-1.7Z"/>
        <path class="cls-1" d="m129.71,5.21c.46.53.75,1.05.89,1.65.34,1.51-.33,3.01-1.69,3.84-1.87,1.13-4.37.57-5.48-1.22-.78-1.25-.69-2.82.22-3.98.06-.07.11-.15.22-.28-.47,0-.87-.01-1.28,0-.25.01-.35-.07-.33-.32.02-.3.02-.59,0-.89-.01-.23.08-.3.3-.3.94,0,1.88,0,2.82,0,.25,0,.34-.06.33-.32-.02-.34,0-.69,0-1.05.09-.01.16-.03.23-.03.58,0,1.17,0,1.75,0,.2,0,.28.05.27.26-.01.28.01.56,0,.83-.02.26.09.32.33.32.91-.01,1.82,0,2.73-.01.3,0,.39.09.36.38-.02.27-.02.54,0,.8.02.28-.09.34-.34.33-.41-.02-.82,0-1.31,0Zm-1.29,2.43c0-.59-.16-1.13-.54-1.59-.58-.7-1.48-.73-2.11-.07-.81.85-.8,2.49.02,3.34.61.63,1.49.61,2.07-.06.4-.46.56-1.01.57-1.62Z"/>
        <path class="cls-1" d="m95.77,11.63c0,.48,0,.91,0,1.34,0,.2.04.29.27.29,1.64,0,3.28,0,4.92,0,.22,0,.28-.07.28-.28-.02-.37-.01-.75,0-1.12,0-.08.09-.21.14-.21.69-.01,1.38,0,2.09,0,0,.12.02.21.02.31,0,1.94,0,3.87,0,5.81,0,.26-.09.32-.33.32-2.78,0-5.56,0-8.34,0-.82,0-1.3-.49-1.3-1.31,0-1.6,0-3.2,0-4.8,0-.26.07-.33.32-.32.63.02,1.26,0,1.94,0Zm0,4.91h5.46c0-.45,0-.88,0-1.31,0-.48.08-.45-.44-.45-1.29,0-2.57,0-3.86,0-.32,0-.63,0-.95,0-.07,0-.2.1-.2.16-.02.52,0,1.05,0,1.59Z"/>
        <path class="cls-1" d="m147.12,9.11v.4c0,1.52,0,3.05,0,4.57,0,.25.07.33.32.33,1.62-.01,3.24,0,4.86-.01.29,0,.39.07.37.37-.03.3-.01.61,0,.92,0,.16-.06.23-.22.22-.07,0-.13,0-.2,0-4.48,0-8.96,0-13.44,0h-.41c0-.47,0-.91.01-1.34,0-.06.16-.15.24-.15.68-.01,1.36,0,2.04,0q.38,0,.38-.37c0-1.51,0-3.03,0-4.54,0-.11,0-.23,0-.37h2.26v.33c0,1.53,0,3.07,0,4.6,0,.31.1.38.38.36.3-.02.6-.02.89,0,.26.02.27-.12.27-.32,0-1.53,0-3.07,0-4.6v-.38h2.26Z"/>
        <path class="cls-1" d="m67.27,18.42c-1.62,0-3.19-.98-3.81-2.46-.67-1.59-.13-3.36,1.34-4.42,1.82-1.31,4.45-1.02,5.94.64,1.6,1.8,1.03,4.56-1.18,5.72-.68.35-1.39.53-2.29.52Zm2.12-3.7c0-.73-.19-1.3-.53-1.74-.76-.97-2.04-1-2.83-.07-.82.96-.77,2.54.1,3.45.66.69,1.65.76,2.39.16.61-.49.84-1.17.87-1.79Z"/>
        <path class="cls-1" d="m150.88,12.6h-2.22v-7.93h-8.49v-1.49c.1,0,.2-.02.3-.02,3.06,0,6.12,0,9.18,0,.74,0,1.25.48,1.25,1.21,0,2.66,0,5.33,0,7.99,0,.07-.01.13-.02.23Z"/>
        <path class="cls-1" d="m53.43,14.12c0-.14-.02-.26-.02-.37,0-3.58,0-7.17,0-10.75,0-.27.06-.37.35-.36.63.02,1.26,0,1.91,0,0,.14.02.26.02.37,0,1.02,0,2.05,0,3.07,0,.24.08.31.31.31.55-.01,1.09,0,1.64,0,.2,0,.27.06.26.26-.01.4,0,.8,0,1.24h-1.45q-.75,0-.75.74c0,1.71,0,3.41,0,5.12,0,.29-.07.38-.37.37-.62-.02-1.24,0-1.89,0Z"/>
        <path class="cls-1" d="m124.14,12.49h.36c3.04,0,6.08,0,9.12,0,.79,0,1.27.48,1.27,1.27,0,1.32,0,2.65,0,3.97,0,.27-.09.34-.35.34-.52-.02-1.04-.02-1.55,0-.27.01-.36-.07-.36-.35.02-1.11,0-2.22,0-3.34v-.37c-.15,0-.27-.02-.39-.02-2.58,0-5.16,0-7.74,0q-.38,0-.38-.37c0-.36,0-.72,0-1.13Z"/>
        <path class="cls-1" d="m47.94,13.01v3.55h7.86v1.52h-.34c-2.81,0-5.62,0-8.43,0-.86,0-1.34-.47-1.34-1.33,0-1.13,0-2.26,0-3.39,0-.27.06-.37.35-.36.62.02,1.24,0,1.91,0Z"/>
        <path class="cls-1" d="m132.69,2.67h2.19c0,.12.02.23.02.35,0,.99,0,1.97,0,2.96q0,.43.44.43c.55,0,1.09,0,1.64,0,.03,0,.05.01.1.03v1.47c-.23,0-.47,0-.7,0-.4,0-.81.01-1.21,0-.22,0-.28.06-.28.28,0,.88,0,1.76,0,2.64,0,.26-.06.36-.34.35-.56-.02-1.11,0-1.67,0-.16,0-.25-.03-.25-.22,0-2.72,0-5.44,0-8.16,0-.03.01-.05.03-.11Z"/>
        <path class="cls-1" d="m84.54,22.64c0,.1,0,.2,0,.3,0,1.61-.01,3.22,0,4.83,0,.34-.17.33-.4.33-.25,0-.38-.02-.38-.33.01-1.96,0-3.93,0-5.89,0-.09,0-.17.01-.3.37,0,.73-.01,1.09.01.07,0,.16.14.21.24.73,1.58,1.45,3.17,2.17,4.76.06.13.12.25.24.37v-5.36h.76c0,.12.02.23.02.34,0,1.93,0,3.87,0,5.8,0,.29-.08.34-.37.38-.62.08-.92-.15-1.16-.73-.64-1.54-1.36-3.04-2.06-4.55-.03-.07-.07-.13-.1-.19h-.05Z"/>
        <path class="cls-1" d="m46.54,21.57v2.81c.21,0,.4,0,.59,0,.46,0,.92-.01,1.38,0,.23,0,.3-.07.3-.29-.01-.73,0-1.46,0-2.18,0-.1.01-.21.02-.32h.83c0,.11.02.21.02.31,0,1.95,0,3.91,0,5.86,0,.29-.1.35-.36.34-.56-.02-.51.07-.51-.51,0-.72,0-1.44,0-2.15,0-.24-.07-.32-.31-.31-.55.01-1.09.01-1.64,0-.23,0-.32.06-.31.3.01.77,0,1.53,0,2.3,0,.1,0,.21,0,.36-.26,0-.49,0-.72,0-.05,0-.11-.09-.12-.15-.02-.08,0-.17,0-.26,0-1.87,0-3.73,0-5.6,0-.59-.05-.49.51-.5.1,0,.21,0,.34,0Z"/>
        <path class="cls-1" d="m116.26,21.59h.87v.34c0,1.28-.01,2.57,0,3.85,0,.37.06.75.17,1.1.13.45.46.63.98.63.61,0,.93-.15,1.08-.61.1-.32.16-.67.17-1.01.02-1.3,0-2.61,0-3.91,0-.11,0-.23,0-.39.26,0,.51,0,.75,0,.04,0,.11.12.11.18,0,1.55.03,3.11-.06,4.65-.1,1.63-1.93,2.43-3.28,1.49-.51-.35-.67-.89-.74-1.47-.04-.34-.05-.69-.06-1.03,0-1.15,0-2.3,0-3.45v-.37Z"/>
        <path class="cls-1" d="m77.24,28.58c.23,0,.45-.01.67,0,.07,0,.15.09.18.16.14.37.34.5.75.48.35-.02.63-.23.67-.56.04-.33,0-.66,0-1.05-.32.36-.67.5-1.1.48-.56-.03-.97-.28-1.15-.8-.34-.98-.35-1.98-.03-2.96.33-1,1.56-1.24,2.27-.39.01-.14.03-.26.04-.4h.73c0,.12.02.23.02.35,0,1.54,0,3.08,0,4.62,0,.78-.3,1.17-1.08,1.26-.4.05-.83.03-1.22-.06-.55-.12-.81-.56-.75-1.14Zm2.33-2.8c-.03-.35-.04-.69-.1-1.02-.09-.46-.38-.69-.79-.69-.37,0-.66.23-.75.67-.14.7-.14,1.41.04,2.11.11.44.36.61.76.61.39,0,.65-.21.74-.64.07-.34.08-.7.11-1.04Z"/>
        <path class="cls-1" d="m60.87,25.71c0,.69-.01,1.38,0,2.07,0,.25-.06.36-.32.32-.06,0-.12,0-.17,0-.24.03-.31-.07-.31-.31,0-1.25,0-2.49,0-3.74,0-.69,0-1.38,0-2.07q0-.41.43-.41c.1,0,.21,0,.37,0v3.77s.04.02.05.03c.08-.11.16-.22.24-.33.3-.42.61-.84.89-1.27.13-.19.27-.27.5-.25.19.02.37,0,.63,0-.38.49-.71.92-1.04,1.35q-.48.62-.03,1.27c.38.54.75,1.09,1.12,1.63.06.08.11.17.19.31-.33,0-.6.02-.87,0-.08,0-.16-.12-.22-.2-.42-.65-.84-1.31-1.25-1.96-.05-.08-.11-.15-.16-.23-.02,0-.03.01-.05.02Z"/>
        <path class="cls-1" d="m133.03,26.07c-.04.41,0,.78.16,1.12.15.3.41.38.72.37.31,0,.53-.15.66-.43.06-.13.09-.27.14-.42h.76c.13.54-.22,1.16-.79,1.36-.52.19-1.06.18-1.58,0-.36-.12-.6-.39-.71-.75-.31-.99-.32-2-.01-2.99.19-.63.77-.92,1.57-.91.96.02,1.41.4,1.55,1.35.06.41.06.83.08,1.29h-2.55Zm1.68-.6c.08-.65-.09-1.19-.41-1.36-.27-.14-.71-.12-.93.06-.28.23-.44.9-.31,1.3h1.64Z"/>
        <path class="cls-1" d="m90.5,24.82h-.75c-.08-.69.32-1.16.76-1.29.47-.14.95-.15,1.42-.02.57.16.83.56.84,1.25,0,.85,0,1.7.02,2.56,0,.24.03.48.05.74h-.81c0-.16-.01-.31-.02-.53-.39.64-.94.75-1.57.6-.32-.07-.55-.26-.68-.57-.18-.46-.21-.93-.07-1.41.11-.36.37-.62.73-.72.34-.1.69-.14,1.04-.19.16-.02.32,0,.47,0,.18-.57-.01-1.09-.43-1.2-.54-.14-.86.09-.99.76Zm1.51,1.48c-.09-.18.09-.45-.19-.45-.34,0-.69.04-1.01.14-.34.1-.5.47-.44.87.05.4.26.64.58.69.37.06.7-.11.85-.48.1-.25.14-.53.21-.76Z"/>
        <path class="cls-1" d="m107.77,24.84c-.01-.83.37-1.29,1.11-1.37.27-.03.56-.03.83,0,.7.08,1.08.5,1.09,1.21.01.57,0,1.15,0,1.72,0,.54,0,1.09,0,1.68-.17,0-.41,0-.64,0-.04,0-.1-.1-.11-.16-.02-.1,0-.21,0-.4-.41.67-.96.77-1.6.61-.13-.03-.27-.11-.38-.19-.78-.65-.51-2.21.45-2.52.35-.11.73-.12,1.1-.16.12-.01.25,0,.44,0-.05-.31-.06-.59-.14-.86-.08-.28-.41-.41-.74-.37-.34.05-.56.22-.58.53-.02.25-.12.31-.34.29-.16-.01-.32,0-.49,0Zm2.24.95c-.39.06-.77.08-1.13.19-.37.11-.51.45-.45.92.04.36.25.6.56.65.36.06.71-.12.87-.47.17-.38.21-.79.16-1.28Z"/>
        <path class="cls-1" d="m51.17,24.84c-.11-.59.2-1.13.74-1.3.46-.15.93-.16,1.39-.03.54.15.84.53.85,1.12.01.55,0,1.09,0,1.64,0,.3,0,.59.02.89.01.3.04.59.06.94-.23,0-.46.01-.68,0-.05,0-.12-.1-.14-.16-.03-.09-.02-.19-.02-.36-.29.48-.67.64-1.14.64-.71,0-1.13-.37-1.21-1.08-.02-.19-.02-.38-.02-.57.02-.55.3-.95.84-1.11.34-.1.69-.13,1.04-.17.15-.02.3,0,.49,0,0-.2.01-.37,0-.54-.04-.44-.27-.67-.69-.7-.41-.02-.66.19-.75.63-.01.07-.1.17-.16.18-.21.02-.42,0-.62,0Zm2.28,1.06s-.08-.07-.11-.11c-.37.06-.75.09-1.11.2-.36.11-.51.49-.44.93.06.35.27.58.58.63.37.05.72-.11.85-.49.12-.37.16-.77.23-1.16Z"/>
        <path class="cls-1" d="m102.07,25.92c-.04.31-.06.74-.15,1.14-.17.73-.62,1.08-1.36,1.13-.03,0-.06,0-.09,0-1.23.05-1.81-.46-1.88-1.68-.03-.56-.04-1.13.04-1.69.14-1.01.73-1.45,1.76-1.4,1,.05,1.47.49,1.6,1.49.04.29.05.59.08,1Zm-.81-.12c-.04-.37-.04-.69-.1-1-.09-.5-.37-.73-.84-.74-.47-.01-.76.21-.87.7-.16.73-.13,1.47.05,2.19.11.43.37.6.8.6.44,0,.71-.18.81-.62.09-.39.11-.79.16-1.14Z"/>
        <path class="cls-1" d="m71.5,25.91c-.04.32-.07.76-.17,1.17-.14.63-.54,1.03-1.21,1.08-.34.03-.69.02-1.03-.04-.51-.09-.82-.45-.95-.94-.24-.89-.24-1.8-.02-2.7.15-.6.56-.95,1.18-1.02.31-.03.63-.03.94.01.66.1,1.07.58,1.17,1.35.04.32.06.65.09,1.08Zm-.8-.17s-.02,0-.03,0c-.01-.23-.02-.46-.04-.69,0-.11-.04-.23-.07-.34-.13-.44-.39-.65-.83-.65-.45,0-.74.2-.85.66-.18.75-.14,1.5.04,2.25.11.43.37.59.8.59.43,0,.7-.17.8-.6.09-.4.12-.81.17-1.22Z"/>
        <path class="cls-1" d="m149.68,27.19c.19-.64.36-1.2.53-1.76.16-.53.32-1.06.46-1.6.06-.22.15-.33.39-.3.16.02.32,0,.53,0-.12.36-.22.68-.32,1.01-.54,1.63-1.08,3.25-1.6,4.88-.1.33-.25.46-.58.41-.1-.02-.21,0-.36,0,.15-.51.3-.97.41-1.44.04-.18.05-.4,0-.57-.42-1.3-.87-2.59-1.31-3.89-.04-.12-.07-.23-.12-.39.27,0,.51-.02.75.01.08.01.18.15.21.25.3,1,.59,2,.89,3,.03.11.07.22.13.4Z"/>
        <path class="cls-1" d="m63.53,23.53c.27,0,.5-.03.73.01.09.02.2.16.23.26.3,1,.59,2,.89,3,.03.1.06.2.12.38.08-.28.15-.47.2-.66.27-.91.54-1.82.8-2.73.06-.21.15-.28.36-.26.17.02.34,0,.56,0-.19.57-.36,1.1-.53,1.62-.48,1.45-.96,2.91-1.43,4.37-.07.23-.17.34-.42.31-.15-.02-.3,0-.49,0,.16-.52.31-1,.43-1.48.04-.16.04-.36-.01-.52-.44-1.33-.89-2.65-1.34-3.97-.03-.09-.05-.18-.1-.32Z"/>
        <path class="cls-1" d="m140.38,26.69c.03.15.04.26.07.37.07.3.29.47.63.49.38.02.68-.13.79-.4.11-.28.05-.52-.23-.7-.27-.17-.56-.29-.83-.45-.28-.16-.58-.31-.81-.53-.55-.52-.45-1.42.21-1.8.62-.35,1.29-.35,1.93-.04.42.2.6.63.51,1.11-.21,0-.43.02-.65-.01-.07,0-.16-.14-.18-.22-.07-.26-.22-.42-.49-.47-.29-.06-.56-.02-.76.22-.19.22-.18.5.06.69.19.15.42.26.64.38.33.18.67.34.97.55.42.29.53.72.45,1.22-.08.48-.34.81-.79.97-.51.18-1.04.19-1.55.01-.51-.17-.84-.65-.81-1.2,0-.07.11-.17.17-.18.21-.02.42,0,.66,0Z"/>
        <path class="cls-1" d="m55.58,23.54h.75c.01.17.02.32.04.56.34-.57.81-.71,1.36-.66.67.06,1.04.38,1.07,1.05.04,1.14.02,2.28.02,3.42,0,.06-.11.17-.18.18-.56.07-.57.05-.58-.51,0-.9,0-1.8,0-2.7-.01-.65-.53-.98-1.13-.74-.36.14-.49.45-.52.8-.04.48-.04.96-.05,1.43,0,.48-.01.96,0,1.44,0,.22-.05.31-.29.3-.56-.02-.48.04-.48-.48,0-1.35,0-2.7,0-4.08Z"/>
        <path class="cls-1" d="m105.66,28.09c0-1,0-1.95,0-2.89,0-.13,0-.27,0-.4-.03-.42-.23-.65-.61-.72-.41-.07-.79.09-.93.45-.1.26-.15.56-.15.84-.02.79-.02,1.59,0,2.39,0,.25-.06.38-.33.34-.13-.02-.27,0-.44,0v-4.54h.74c.01.15.02.31.04.55.33-.57.8-.7,1.33-.67.69.05,1.07.37,1.09,1.06.04,1.14.03,2.28.02,3.42,0,.06-.09.17-.15.18-.19.02-.38,0-.61,0Z"/>
        <path class="cls-1" d="m124.2,28.1v-.98c0-.73,0-1.46,0-2.18,0-.53-.21-.79-.66-.86-.48-.07-.84.17-.96.66-.06.23-.08.47-.08.71,0,.79-.01,1.59,0,2.38,0,.22-.07.3-.28.27-.09,0-.17,0-.26,0-.18.01-.23-.07-.23-.24,0-.46,0-.92,0-1.38,0-.97,0-1.93,0-2.93h.75c0,.15.02.3.03.55.34-.58.81-.72,1.36-.67.66.05,1.04.36,1.07,1.01.05,1.16.03,2.32.03,3.47,0,.06-.1.15-.17.16-.18.02-.36,0-.6,0Z"/>
        <path class="cls-1" d="m72.61,28.1v-4.54h.76c0,.16.02.31.03.54.29-.47.67-.64,1.13-.67.76-.03,1.25.29,1.28,1.04.06,1.19.02,2.39.02,3.61h-.74c0-.13,0-.24,0-.35,0-.94,0-1.88,0-2.82,0-.66-.45-.98-1.08-.8-.26.08-.44.25-.51.5-.06.24-.11.49-.11.73-.01.82-.01,1.65,0,2.47,0,.21-.06.3-.28.28-.15-.01-.3,0-.5,0Z"/>
        <path class="cls-1" d="m129.62,27.26c.2-.72.41-1.43.61-2.15.13-.44.26-.88.37-1.33.05-.21.15-.28.36-.26.16.02.32,0,.53,0-.11.36-.21.68-.31,1-.35,1.1-.7,2.21-1.03,3.32-.06.19-.14.26-.34.26-.74,0-.74,0-.95-.7-.35-1.17-.7-2.35-1.04-3.52-.03-.09-.05-.18-.09-.34.28,0,.54-.01.8.01.05,0,.1.15.12.23.29,1.08.58,2.16.86,3.25.02.07.04.15.06.22.02,0,.03,0,.05.01Z"/>
        <path class="cls-1" d="m146.62,22.32v1.21h.95c.02.06.04.09.04.13.04.46.04.46-.43.46-.17,0-.34,0-.55,0,0,.12-.02.22-.02.32,0,.78,0,1.55,0,2.33,0,.63.15.77.79.74.06,0,.11,0,.22,0,0,.15.02.29,0,.43-.01.06-.09.15-.15.16-.33.02-.67.06-1,.02-.42-.06-.62-.34-.62-.8,0-.95,0-1.9,0-2.85,0-.1,0-.21,0-.34h-.73v-.57c.23-.01.45-.02.73-.03,0-.19.02-.38,0-.56-.02-.23.06-.36.28-.43.15-.05.3-.12.49-.2Z"/>
        <path class="cls-1" d="m94.23,23.54c0-.14.01-.23.02-.31,0-.64.07-.71.77-.87v1.17h.96v.58h-.94c0,.13-.02.23-.02.33,0,.79,0,1.59,0,2.38,0,.56.17.72.73.7.08,0,.15,0,.23,0,.18.47.11.59-.37.62-.18.01-.36.02-.55,0-.54-.04-.8-.3-.8-.85,0-.94,0-1.88,0-2.82,0-.11,0-.22-.02-.36h-.7v-.58h.71Z"/>
        <path class="cls-1" d="m112.21,28.1v-6.47s.03-.03.04-.03c.7-.11.71-.09.71.59,0,1.82,0,3.64,0,5.46q0,.45-.45.45c-.09,0-.19,0-.3,0Z"/>
        <path class="cls-1" d="m136.84,23.54h.7c.01.16.02.32.04.52.06-.07.11-.12.15-.18.27-.4.69-.45,1.12-.45.05,0,.13.09.13.14.02.21,0,.41,0,.63-.1,0-.15,0-.21,0-.74-.08-1.18.27-1.2,1.03-.02.82,0,1.65-.01,2.47,0,.12-.03.35-.07.36-.2.04-.42.02-.62,0-.03,0-.06-.11-.06-.17,0-1.42,0-2.83,0-4.25,0-.03.02-.05.03-.11Z"/>
        <path class="cls-1" d="m126.97,23.53c0,.13.02.21.02.3,0,1.32-.01,2.64,0,3.96,0,.34-.18.3-.39.31-.23,0-.39,0-.39-.32.02-1.3.02-2.6,0-3.91,0-.28.07-.39.35-.35.12.02.25,0,.4,0Z"/>
        <path class="cls-1" d="m143.78,23.56q.75-.1.75.6c0,1.21-.01,2.41,0,3.62,0,.32-.15.33-.39.32-.22,0-.4.03-.39-.31.02-1.32,0-2.64,0-3.96,0-.08,0-.17.02-.27Z"/>
        <path class="cls-1" d="m96.69,23.54h.71c0,.09.02.17.02.26,0,1.34,0,2.68,0,4.02,0,.31-.17.29-.36.28-.18-.01-.41.1-.41-.26.01-1.36,0-2.72,0-4.08,0-.06.01-.13.02-.22Z"/>
        <path class="cls-1" d="m127.01,22.39c-.23,0-.45.01-.67,0-.06,0-.15-.1-.16-.17-.02-.2,0-.4,0-.62h.83v.79Z"/>
        <path class="cls-1" d="m96.63,22.39v-.79h.84c0,.21,0,.43,0,.64,0,.05-.07.13-.1.14-.24.01-.49,0-.73,0Z"/>
        <path class="cls-1" d="m144.52,22.38h-.78v-.78c.09,0,.16-.02.23-.02.64-.01.74.13.55.8Z"/>
      </g>
    </g>
  </g>
</svg>