<?xml version="1.0" encoding="UTF-8"?>
<svg id="Layer_1" data-name="Layer 1" xmlns="http://www.w3.org/2000/svg" viewBox="0 0 560.98 129.44">
  <defs>
    <style>
      .cls-1 {
        fill: #fff;
      }
    </style>
  </defs>
  <path class="cls-1" d="m134.54,36.66c4.58,0,8.29-3.77,8.29-8.43s-3.71-8.43-8.29-8.43-8.29,3.77-8.29,8.43c0,.59.06,1.17.18,1.73l-15.32,8.99v-17.73c3.31-1.11,5.71-4.24,5.71-7.97,0-4.66-3.71-8.43-8.29-8.43s-8.29,3.77-8.29,8.43c0,3.73,2.4,6.86,5.71,7.97v17.73l-15.32-8.99c.11-.56.18-1.14.18-1.73,0-4.66-3.71-8.43-8.29-8.43s-8.29,3.77-8.29,8.43,3.71,8.43,8.29,8.43c2.12,0,4.04-.83,5.51-2.17l15.35,9-15.35,9c-1.47-1.33-3.38-2.17-5.51-2.17-4.58,0-8.29,3.77-8.29,8.43s3.71,8.43,8.29,8.43,8.29-3.77,8.29-8.43c0-.59-.06-1.17-.18-1.73l15.32-8.99v17.73c-3.31,1.11-5.71,4.24-5.71,7.97,0,4.66,3.71,8.43,8.29,8.43s8.29-3.77,8.29-8.43c0-3.73-2.4-6.86-5.71-7.97v-17.73l15.32,8.99c-.11.56-.18,1.14-.18,1.73,0,4.66,3.71,8.43,8.29,8.43s8.29-3.77,8.29-8.43-3.71-8.43-8.29-8.43c-2.12,0-4.04.83-5.51,2.17l-15.35-9,15.35-9c1.47,1.33,3.38,2.17,5.51,2.17Z"/>
  <path class="cls-1" d="m82.73,112.58c-.29,0-.56.06-.84.09l-9.65-21.94c1.73-1.54,2.85-3.79,2.85-6.31,0-4.66-3.71-8.43-8.29-8.43-.34,0-.67.06-1,.1l-14.47-32.89c1.64-1.54,2.68-3.72,2.68-6.17,0-4.66-3.71-8.43-8.29-8.43s-8.29,3.77-8.29,8.43c0,2.48,1.07,4.68,2.75,6.23l-14.66,32.83c-.31-.04-.62-.1-.95-.1-4.58,0-8.29,3.77-8.29,8.43,0,2.48,1.07,4.68,2.74,6.22l-9.84,22.03c-.3-.03-.58-.09-.89-.09C3.71,112.58,0,116.35,0,121.01s3.71,8.43,8.29,8.43,8.29-3.77,8.29-8.43c0-2.45-1.05-4.64-2.7-6.18l9.85-22.07c.28.03.54.08.83.08,3.67,0,6.75-2.44,7.84-5.8h26.54c1.09,3.36,4.17,5.8,7.84,5.8.23,0,.45-.05.68-.07l9.69,22.02c-1.67,1.54-2.73,3.74-2.73,6.21,0,4.66,3.71,8.43,8.29,8.43s8.29-3.77,8.29-8.43-3.71-8.43-8.29-8.43Zm-23.78-30.79h-26.54c-.44-1.36-1.19-2.56-2.2-3.52l14.69-32.9c.27.03.54.08.82.08.31,0,.61-.06.91-.09l14.49,32.94c-.99.95-1.73,2.15-2.16,3.49Z"/>
  <path class="cls-1" d="m558.22,87.64l-13.52-26.49c1.34-1.39,2.17-3.27,2.17-5.35,0-4.25-3.45-7.7-7.7-7.7s-7.7,3.45-7.7,7.7,3.45,7.7,7.7,7.7c.37,0,.73-.03,1.08-.08l12.94,25.36-12.91,25.05c-.36-.05-.73-.09-1.11-.09-4.25,0-7.7,3.45-7.7,7.7s3.45,7.7,7.7,7.7,7.7-3.45,7.7-7.7c0-2.07-.82-3.94-2.15-5.33l13.49-26.19v-2.28Z"/>
  <path class="cls-1" d="m195.46,113.73c-.38,0-.75.04-1.11.09l-12.91-25.05,12.94-25.36c.35.05.71.08,1.08.08,4.25,0,7.7-3.45,7.7-7.7s-3.45-7.7-7.7-7.7-7.7,3.45-7.7,7.7c0,2.08.83,3.96,2.17,5.35l-13.52,26.49v2.28s13.5,26.19,13.5,26.19c-1.33,1.38-2.15,3.26-2.15,5.33,0,4.25,3.45,7.7,7.7,7.7s7.7-3.45,7.7-7.7-3.45-7.7-7.7-7.7Z"/>
  <path class="cls-1" d="m268.12,61.78c0-4.25-3.45-7.7-7.7-7.7s-7.7,3.45-7.7,7.7c0,3.31,2.09,6.12,5.02,7.21v14.46l-18.61-17.71c.7-1.16,1.1-2.51,1.1-3.96,0-4.25-3.45-7.7-7.7-7.7s-7.7,3.45-7.7,7.7c0,.89.16,1.75.44,2.54l-17.58,17.58c-.75-.24-1.55-.38-2.38-.38-4.25,0-7.7,3.45-7.7,7.7s3.45,7.7,7.7,7.7c1.24,0,2.4-.3,3.44-.82l16.63,16.63c-.46.99-.73,2.09-.73,3.25,0,4.25,3.45,7.7,7.7,7.7s7.7-3.45,7.7-7.7c0-.9-.16-1.76-.44-2.56l18.13-18.13v13.41c-3.03,1.04-5.2,3.9-5.2,7.28,0,4.25,3.45,7.7,7.7,7.7s7.7-3.45,7.7-7.7c0-3.38-2.18-6.24-5.2-7.28v-39.6c3.12-.98,5.39-3.9,5.39-7.35Zm-31.65,47.73c-1.19-.76-2.61-1.21-4.13-1.21-1.26,0-2.45.31-3.5.85l-16.6-16.6c.48-1.01.76-2.13.76-3.32,0-1.58-.48-3.05-1.3-4.28l16.69-16.69c1.2.77,2.61,1.21,4.14,1.21.97,0,1.89-.19,2.74-.51l21.38,20.36-20.18,20.18Z"/>
  <path class="cls-1" d="m351.63,82.19c4.25,0,7.7-3.45,7.7-7.7s-3.45-7.7-7.7-7.7c-1.96,0-3.74.74-5.1,1.94l-8.21-5.53c.08-.46.13-.93.13-1.41,0-4.25-3.45-7.7-7.7-7.7s-7.56,3.32-7.69,7.46l-10.87,6.78c-1.13-.65-2.44-1.03-3.84-1.03-4.25,0-7.7,3.45-7.7,7.7s3.45,7.7,7.7,7.7c1.28,0,2.49-.32,3.56-.88l32.37,18.66c-.23.73-.36,1.51-.36,2.32,0,.98.19,1.92.53,2.78l-8.03,5.23c-1.41-1.54-3.43-2.51-5.67-2.51s-4.32,1-5.73,2.57l-9.36-5.66c.25-.76.39-1.57.39-2.42,0-4.25-3.45-7.7-7.7-7.7s-7.7,3.45-7.7,7.7,3.45,7.7,7.7,7.7c1.58,0,3.04-.47,4.26-1.29l10.46,6.33c0,.16-.02.31-.02.47,0,4.25,3.45,7.7,7.7,7.7s7.7-3.45,7.7-7.7c0-.18-.01-.36-.03-.54l9.29-6.05c1.15.68,2.48,1.08,3.92,1.08,4.25,0,7.7-3.45,7.7-7.7s-3.45-7.7-7.7-7.7c-1.61,0-3.11.5-4.35,1.35l-31.87-18.37c.41-.94.64-1.98.64-3.08,0-1.01-.2-1.96-.55-2.84l9.13-5.7c1.41,1.84,3.62,3.04,6.12,3.04,1.96,0,3.74-.74,5.1-1.94l8.21,5.54c-.08.46-.13.92-.13,1.4,0,4.25,3.45,7.7,7.7,7.7Z"/>
  <path class="cls-1" d="m477.95,61.78c0-4.25-3.45-7.7-7.7-7.7s-7.7,3.45-7.7,7.7c0,3.34,2.13,6.18,5.11,7.25v14.42l-18.05-17.18c.91-1.27,1.45-2.81,1.45-4.49,0-4.25-3.45-7.7-7.7-7.7s-7.7,3.45-7.7,7.7c0,.64.09,1.25.23,1.85l-18.09,18.09c-.54-.12-1.1-.19-1.67-.19-4.25,0-7.7,3.45-7.7,7.7s3.45,7.7,7.7,7.7c.99,0,1.94-.19,2.82-.54l16.99,16.99c-.3.82-.46,1.69-.46,2.61,0,4.25,3.45,7.7,7.7,7.7s7.7-3.45,7.7-7.7c0-1.14-.26-2.23-.7-3.2l17.49-17.49v13.37c-3.07,1.01-5.3,3.9-5.3,7.31,0,4.25,3.45,7.7,7.7,7.7s7.7-3.45,7.7-7.7c0-3.34-2.13-6.18-5.11-7.25v-39.66c3.07-1.01,5.3-3.9,5.3-7.31Zm-31.22,47.4c-1.06-.56-2.27-.87-3.56-.87-1.5,0-2.9.44-4.08,1.18l-16.34-16.34c.68-1.15,1.07-2.48,1.07-3.91,0-1.81-.63-3.48-1.68-4.8l16.54-16.54c1.3.99,2.91,1.59,4.67,1.59.72,0,1.41-.11,2.07-.29l21.15,20.13-19.85,19.85Z"/>
  <path class="cls-1" d="m525.32,80.8c-1.21,0-2.34.28-3.36.78l-8.85-8.85h-3.54l-11.93,11.93v-15.59c3.03-1.04,5.2-3.9,5.2-7.28,0-4.25-3.45-7.7-7.7-7.7s-7.7,3.45-7.7,7.7c0,3.38,2.18,6.24,5.2,7.28v39.66c-3.03,1.04-5.2,3.9-5.2,7.28,0,4.25,3.45,7.7,7.7,7.7s7.7-3.45,7.7-7.7c0-3.38-2.18-6.24-5.2-7.28v-17.01l13.7-13.7,7.07,7.07c-.51,1.03-.8,2.18-.8,3.4,0,4.25,3.45,7.7,7.7,7.7s7.7-3.45,7.7-7.7-3.45-7.7-7.7-7.7Z"/>
  <path class="cls-1" d="m406.86,108.98c-3.38,0-6.24,2.18-7.28,5.2h-13.26v-49.9h9.21c1.04,3.03,3.9,5.2,7.28,5.2,4.25,0,7.7-3.45,7.7-7.7s-3.45-7.7-7.7-7.7c-3.38,0-6.24,2.18-7.28,5.2h-9.21v-12.12c3.03-1.04,5.2-3.9,5.2-7.28,0-4.25-3.45-7.7-7.7-7.7s-7.7,3.45-7.7,7.7c0,3.38,2.18,6.24,5.2,7.28v12.12h-7.81c-1.04-3.03-3.9-5.2-7.28-5.2-4.25,0-7.7,3.45-7.7,7.7s3.45,7.7,7.7,7.7c3.38,0,6.24-2.18,7.28-5.2h7.81v52.4l2.5,2.5h15.76c1.04,3.03,3.9,5.2,7.28,5.2,4.25,0,7.7-3.45,7.7-7.7s-3.45-7.7-7.7-7.7Z"/>
</svg>