<?xml version="1.0" encoding="UTF-8"?>
<svg id="intro" xmlns="http://www.w3.org/2000/svg" viewBox="0 0 726.59 1039.82">
  <defs>
    <style>
      .cls-1 {
        stroke: #000;
        stroke-width: 4px;
      }

      .cls-1, .cls-2, .cls-3, .cls-4, .cls-5 {
        stroke-miterlimit: 10;
      }

      .cls-1, .cls-3, .cls-4 {
        fill: none;
      }

      .cls-6 {
        fill: #fff;
      }

      .cls-2, .cls-3 {
        stroke: #fff;
        stroke-width: 3px;
      }

      .cls-2, .cls-5, .cls-7 {
        fill: #0096fa;
      }

      .cls-4, .cls-5 {
        stroke: #0096fa;
        stroke-width: 4.17px;
      }
    </style>
  </defs>
  <g id="bck">
    <rect class="cls-7" width="726.59" height="1039.82"/>
  </g>
  <g id="graphic">
    <path class="cls-6" d="m624.66,123.83V35.46h-337.58C253.73,0,145.41,0,145.41,0v35.46H0v281.57h291.1v-67.58h220.93v-57.01l31.73-16.75c-1.47,3.96-2.28,8.25-2.28,12.72,0,20.16,16.34,36.5,36.5,36.5s36.5-16.34,36.5-36.5c0-18.58-13.89-33.91-31.85-36.2v-28.38h42.02Z"/>
    <rect class="cls-6" x="332.33" y="304.24" width="245.2" height="131.22" rx="65.61" ry="65.61"/>
    <polygon class="cls-6" points="726.59 687.12 396.33 687.12 396.33 948.44 272.89 948.44 272.89 1039.82 636.81 1039.82 636.81 994.13 726.59 994.13 726.59 687.12"/>
    <polygon class="cls-6" points="272.89 870.97 0 870.97 53.96 735.56 326.84 735.56 272.89 870.97"/>
    <polygon class="cls-6" points="181.32 441.41 1.4 544.84 181.32 648.27 361.24 544.84 181.32 441.41"/>
    <g>
      <g>
        <circle class="cls-6" cx="691.82" cy="391.81" r="4.64"/>
        <circle class="cls-6" cx="664.18" cy="366.87" r="4.64"/>
        <circle class="cls-6" cx="720.2" cy="366.67" r="4.64"/>
        <circle class="cls-6" cx="691.82" cy="7.91" r="4.64"/>
      </g>
      <g>
        <line class="cls-2" x1="691.82" y1="392.74" x2="691.82" y2="7.91"/>
        <polyline class="cls-3" points="664.18 366.87 691.83 392.92 719.67 366.67"/>
      </g>
    </g>
    <g>
      <g>
        <circle class="cls-6" cx="297.48" cy="392.18" r="4.64"/>
        <circle class="cls-6" cx="272.53" cy="419.82" r="4.64"/>
        <circle class="cls-6" cx="272.33" cy="363.8" r="4.64"/>
        <circle class="cls-6" cx="7.38" cy="392.18" r="4.64"/>
      </g>
      <g>
        <line class="cls-2" x1="298.4" y1="392.18" x2="7.38" y2="392.18"/>
        <polyline class="cls-3" points="272.53 419.82 298.58 392.17 272.33 364.33"/>
      </g>
    </g>
    <g>
      <g>
        <circle class="cls-6" cx="249.36" cy="997.03" r="4.64"/>
        <circle class="cls-6" cx="224.41" cy="1024.68" r="4.64"/>
        <circle class="cls-6" cx="224.21" cy="968.66" r="4.64"/>
        <circle class="cls-6" cx="6.26" cy="997.03" r="4.64"/>
        <circle class="cls-6" cx="6.26" cy="910.2" r="4.64"/>
      </g>
      <g>
        <polyline class="cls-3" points="250.28 997.03 6.26 997.03 6.26 907.69"/>
        <polyline class="cls-3" points="224.41 1024.68 250.46 997.03 224.21 969.19"/>
      </g>
    </g>
    <rect class="cls-6" x="601.2" y="431.41" width="125.39" height="186.25"/>
    <polygon class="cls-6" points="568.92 481.56 424.92 481.56 496.92 606.12 568.92 481.56"/>
  </g>
  <g id="Layer_9" data-name="Layer 9">
    <g>
      <circle class="cls-7" cx="522.78" cy="92.53" r="7.5"/>
      <circle class="cls-7" cx="492.9" cy="124.71" r="7.5"/>
      <circle class="cls-7" cx="492.84" cy="59.85" r="7.5"/>
      <circle class="cls-7" cx="189.44" cy="92.53" r="7.5"/>
      <g>
        <line class="cls-5" x1="523.63" y1="92.53" x2="189.44" y2="92.53"/>
        <polyline class="cls-4" points="492.9 124.71 523.78 92.52 492.84 60.28"/>
      </g>
    </g>
  </g>
  <g id="text">
    <g>
      <path class="cls-6" d="m146.95,712.25v2.52c0,.34.1.64.31.9l1.56,2c.08.09.11.21.11.38,0,.21-.07.37-.2.49s-.29.18-.48.18c-.19,0-.34-.07-.45-.2l-1.58-2.02c-.4-.49-.59-1.02-.59-1.59v-2.8c0-.55.2-1.08.59-1.59l1.58-2.02c.11-.14.25-.2.44-.2s.34.06.48.18c.14.12.21.29.21.5,0,.16-.04.28-.12.37l-1.56,1.99c-.2.26-.31.57-.31.91Z"/>
      <path class="cls-6" d="m157.28,712.37v4.37l.38.64h.55l.4-.66v-7.74c0-.18.07-.34.2-.47s.29-.2.47-.2.33.07.46.2.2.28.2.46v7.97c0,.1-.05.24-.16.41l-.61,1.01c-.12.22-.32.34-.57.34h-1.23c-.39,0-.64-.18-.75-.53-.12.35-.36.53-.72.53h-1.16c-.33,0-.57-.12-.72-.37l-.56-.95c-.1-.17-.16-.32-.16-.45v-7.95c0-.18.07-.34.2-.47s.29-.2.47-.2c.17,0,.32.07.45.2s.19.29.19.47v7.77l.38.62h.56l.41-.66v-4.35c0-.18.06-.34.19-.46s.28-.19.46-.19.34.06.46.19.19.28.19.46Z"/>
      <path class="cls-6" d="m169.59,713.62v1.59c0,.18-.07.33-.2.46s-.28.2-.46.2h-4.64v.38c0,.22.1.41.29.57l.38.32c.21.16.41.24.59.24h3.38c.18,0,.33.06.46.19s.2.28.2.46-.07.33-.2.46-.29.2-.46.2h-3.46c-.23,0-.47-.05-.72-.14s-.44-.2-.56-.3l-.59-.52c-.18-.15-.33-.35-.46-.61s-.18-.5-.18-.72v-3.01c0-.17.07-.4.2-.7s.3-.52.5-.68l.55-.43c.36-.29.76-.44,1.2-.44h1.84c.46,0,.9.19,1.31.58l.49.47c.35.32.53.79.53,1.42Zm-5.28-.1v1.02h3.98v-.91c0-.25-.08-.43-.23-.56l-.38-.34c-.2-.16-.38-.24-.53-.24h-1.65c-.2,0-.39.07-.55.21l-.38.32c-.17.13-.26.3-.26.51Z"/>
      <path class="cls-6" d="m184.26,713.96h2.57c.14,0,.34.03.61.09l-.02-.93c0-.18-.06-.34-.19-.46-.13-.13-.28-.19-.47-.19h-2.5c-.18,0-.33-.07-.46-.2-.13-.13-.2-.28-.2-.46s.06-.34.19-.46.28-.19.47-.19h2.5c.54,0,1,.19,1.39.57s.58.85.6,1.4l.16,4.91c0,.18-.07.34-.2.46s-.28.19-.46.19c-.19,0-.35-.06-.48-.19s-.2-.28-.2-.46l-1.11.66h-2.22c-.55,0-1.02-.19-1.41-.58s-.58-.85-.58-1.41v-.77c0-.55.19-1.01.58-1.4s.86-.58,1.4-.58Zm3.28,2.55l-.04-.55c0-.19-.07-.34-.2-.47s-.28-.19-.46-.19h-2.59c-.18,0-.34.06-.47.19s-.19.28-.19.46v.73c0,.18.07.33.2.46.13.13.28.2.46.2h1.85l1.43-.84Z"/>
      <path class="cls-6" d="m191.97,718.04v-6.23c0-.18.06-.34.19-.47s.28-.2.46-.2.34.07.46.2.19.29.19.48v.82l1.07-.91c.44-.38.88-.56,1.3-.56h.96c.54,0,1,.19,1.39.58s.58.85.58,1.39v.35c0,.19-.06.35-.19.48s-.28.2-.46.2-.34-.06-.46-.19-.19-.28-.19-.46v-.37c0-.18-.06-.34-.19-.46s-.28-.19-.46-.19h-.85c-.18,0-.39.1-.61.29l-1.87,1.62v3.66c0,.18-.07.34-.2.46s-.28.19-.46.19-.34-.06-.46-.19-.19-.28-.19-.46Z"/>
      <path class="cls-6" d="m208.24,713.62v1.59c0,.18-.07.33-.2.46s-.28.2-.46.2h-4.64v.38c0,.22.1.41.29.57l.38.32c.21.16.41.24.59.24h3.38c.18,0,.33.06.46.19s.2.28.2.46-.07.33-.2.46-.29.2-.46.2h-3.46c-.23,0-.47-.05-.72-.14s-.44-.2-.56-.3l-.59-.52c-.18-.15-.33-.35-.46-.61s-.18-.5-.18-.72v-3.01c0-.17.07-.4.2-.7s.3-.52.5-.68l.55-.43c.36-.29.76-.44,1.2-.44h1.84c.46,0,.9.19,1.31.58l.49.47c.35.32.53.79.53,1.42Zm-5.28-.1v1.02h3.98v-.91c0-.25-.08-.43-.23-.56l-.38-.34c-.2-.16-.38-.24-.53-.24h-1.65c-.2,0-.39.07-.55.21l-.38.32c-.17.13-.26.3-.26.51Z"/>
      <path class="cls-6" d="m222.29,717.94v2.91c0,.19-.06.35-.19.48s-.28.2-.46.2-.34-.07-.47-.2-.2-.29-.2-.48v-9.36c0-.18.07-.33.2-.46s.29-.2.48-.2c.18,0,.33.07.46.2s.2.28.2.46v.42c.64-.71,1.26-1.06,1.88-1.06h.3c.46,0,.89.17,1.28.52l1.09.95c.48.42.72.95.72,1.59v2.05c0,.65-.26,1.19-.77,1.63l-1.07.92c-.35.32-.8.48-1.34.48h-.29c-.51,0-.94-.18-1.3-.53l-.51-.51Zm1.85-.29h.34c.16,0,.33-.08.52-.24l1.02-.9c.17-.14.26-.32.26-.55v-2.12c0-.21-.1-.39-.29-.55l-1.1-.95c-.12-.11-.26-.16-.41-.16h-.38c-.15,0-.34.12-.57.36l-.98.97c-.17.17-.26.36-.26.58v1.68c0,.2.1.4.29.59l.95.95c.23.23.44.35.62.35Z"/>
      <path class="cls-6" d="m232.58,713.96h2.57c.14,0,.34.03.61.09l-.02-.93c0-.18-.06-.34-.19-.46-.13-.13-.28-.19-.47-.19h-2.5c-.18,0-.33-.07-.46-.2-.13-.13-.2-.28-.2-.46s.06-.34.19-.46.28-.19.47-.19h2.5c.54,0,1,.19,1.39.57s.58.85.6,1.4l.16,4.91c0,.18-.07.34-.2.46s-.28.19-.46.19c-.19,0-.35-.06-.48-.19s-.2-.28-.2-.46l-1.11.66h-2.22c-.55,0-1.02-.19-1.41-.58s-.58-.85-.58-1.41v-.77c0-.55.19-1.01.58-1.4s.86-.58,1.4-.58Zm3.28,2.55l-.04-.55c0-.19-.07-.34-.2-.47s-.28-.19-.46-.19h-2.59c-.18,0-.34.06-.47.19s-.19.28-.19.46v.73c0,.18.07.33.2.46.13.13.28.2.46.2h1.85l1.43-.84Z"/>
      <path class="cls-6" d="m244.9,718.69h-1.31c-.54,0-1.01-.19-1.4-.58s-.59-.85-.59-1.39v-4.26h-.67c-.18,0-.34-.06-.46-.19s-.19-.28-.19-.47.06-.34.19-.46.28-.19.46-.19h.69v-1.61c0-.18.06-.34.19-.46s.28-.19.46-.19c.17,0,.32.07.46.2s.2.28.2.46v1.61h2.64c.18,0,.33.07.46.2s.2.28.2.46-.07.34-.2.46-.28.19-.46.19h-2.66v4.26c0,.18.07.33.2.46s.29.2.47.2h1.28c.35,0,.58-.19.7-.57s.34-.57.66-.57c.19,0,.35.06.47.19s.18.29.18.48c0,.4-.19.79-.56,1.18s-.85.59-1.43.59Z"/>
      <path class="cls-6" d="m249.94,718.04v-9.07c0-.18.06-.33.19-.45s.28-.19.46-.19.34.06.46.19.19.28.19.46v3.31l1.05-.69c.48-.3.91-.45,1.28-.45h.81c.54,0,1,.19,1.38.57s.59.85.6,1.39l.16,4.91c0,.18-.06.34-.19.46s-.29.19-.47.19-.34-.07-.46-.2-.19-.29-.2-.46l-.16-4.93c0-.18-.07-.33-.2-.46s-.29-.2-.47-.2h-.73c-.17,0-.35.07-.55.2l-1.87,1.22v4.17c0,.18-.06.34-.19.46s-.28.19-.46.19-.34-.06-.46-.19-.19-.28-.19-.46Z"/>
      <path class="cls-6" d="m262.61,712.47v5.57c0,.18-.07.34-.2.46s-.28.19-.46.19c-.19,0-.35-.06-.48-.19s-.2-.28-.2-.46v-5.57h-.67c-.18,0-.34-.07-.46-.2s-.19-.28-.19-.46.06-.32.18-.46.28-.2.48-.2h.69v-.51c0-.67.23-1.23.69-1.67s1.04-.66,1.72-.66h1.54c.18,0,.34.07.46.2s.19.29.19.48c0,.18-.07.33-.2.46s-.28.2-.46.2h-1.54c-.31,0-.57.09-.78.28s-.31.43-.31.73v.51h1.31c.18,0,.33.06.46.19s.2.29.2.47-.07.33-.2.46-.28.2-.46.2h-1.33Z"/>
      <path class="cls-6" d="m274.58,718.68h-4c-.18,0-.34-.06-.46-.19s-.19-.28-.19-.46.06-.33.19-.46.28-.2.46-.2h1.34v-4.9h-1.33c-.18,0-.34-.07-.46-.2s-.19-.28-.19-.46.06-.34.19-.47.28-.2.46-.2h2c.18,0,.34.07.46.2s.19.29.19.47v5.55h1.31c.18,0,.34.06.47.19s.2.28.2.46-.07.34-.2.46-.28.19-.46.19Zm-2.67-10.95h.69c.18,0,.34.06.46.19s.19.28.19.46v.56c0,.18-.06.34-.19.47s-.28.2-.46.2h-.7c-.19,0-.34-.07-.47-.2s-.19-.29-.18-.45l.02-.58c0-.18.06-.34.19-.46s.28-.19.46-.19Z"/>
      <path class="cls-6" d="m282.05,712.68l-1.79,1.16v4.2c0,.18-.07.33-.2.46s-.28.2-.46.2-.33-.07-.46-.2-.2-.28-.2-.46v-6.23c0-.18.06-.34.19-.47s.28-.2.46-.2.33.07.46.2.2.29.2.47v.44l1.2-.73c.4-.25.86-.38,1.36-.38h.61c.52,0,.97.18,1.35.55s.58.83.6,1.37l.18,4.98c0,.18-.06.33-.19.46s-.29.2-.47.2c-.17,0-.32-.06-.45-.18s-.2-.28-.2-.48l-.2-4.9c-.02-.46-.26-.69-.72-.69h-.64c-.2,0-.41.08-.64.23Z"/>
      <path class="cls-6" d="m293.89,712.07v-3.1c0-.18.06-.34.19-.46s.28-.19.45-.19.34.06.47.19.2.28.2.46v9.07c0,.18-.07.34-.2.46s-.28.19-.46.19c-.19,0-.34-.06-.47-.19s-.19-.28-.19-.46v-.29c-.64.63-1.24.95-1.8.95h-1.12c-.45,0-.9-.19-1.34-.58l-.55-.46c-.12-.12-.24-.32-.36-.6s-.17-.54-.17-.79v-2.67c0-.3.06-.58.19-.86s.27-.49.44-.63l.54-.46c.39-.33.84-.5,1.36-.5h.95c.52,0,.98.18,1.41.55l.45.38Zm-1.91.4h-.91c-.19,0-.37.07-.52.21l-.42.37c-.15.13-.22.3-.22.5v2.78c0,.18.09.35.26.49l.43.37c.14.12.28.18.43.18h1.07c.14,0,.31-.08.5-.24l1.04-.86c.17-.15.26-.34.26-.56v-1.42c0-.32-.09-.55-.27-.7l-1.07-.91c-.14-.13-.33-.2-.56-.2Z"/>
      <path class="cls-6" d="m304.89,713.62v1.59c0,.18-.07.33-.2.46s-.28.2-.46.2h-4.64v.38c0,.22.1.41.29.57l.38.32c.21.16.41.24.59.24h3.38c.18,0,.33.06.46.19s.2.28.2.46-.07.33-.2.46-.29.2-.46.2h-3.46c-.23,0-.47-.05-.72-.14s-.44-.2-.56-.3l-.59-.52c-.18-.15-.33-.35-.46-.61s-.18-.5-.18-.72v-3.01c0-.17.07-.4.2-.7s.3-.52.5-.68l.55-.43c.36-.29.76-.44,1.2-.44h1.84c.46,0,.9.19,1.31.58l.49.47c.35.32.53.79.53,1.42Zm-5.28-.1v1.02h3.98v-.91c0-.25-.08-.43-.23-.56l-.38-.34c-.2-.16-.38-.24-.53-.24h-1.65c-.2,0-.39.07-.55.21l-.38.32c-.17.13-.26.3-.26.51Z"/>
      <path class="cls-6" d="m307.94,718.04v-6.23c0-.18.06-.34.19-.47s.28-.2.46-.2.34.07.46.2.19.29.19.48v.82l1.07-.91c.44-.38.88-.56,1.3-.56h.96c.54,0,1,.19,1.39.58s.58.85.58,1.39v.35c0,.19-.06.35-.19.48s-.28.2-.46.2-.34-.06-.46-.19-.19-.28-.19-.46v-.37c0-.18-.06-.34-.19-.46s-.28-.19-.46-.19h-.85c-.18,0-.39.1-.61.29l-1.87,1.62v3.66c0,.18-.07.34-.2.46s-.28.19-.46.19-.34-.06-.46-.19-.19-.28-.19-.46Z"/>
      <path class="cls-6" d="m319.44,711.15h3.01c.47,0,.88.14,1.24.42s.54.55.54.82c0,.19-.07.34-.2.46s-.28.18-.44.18c-.21,0-.4-.09-.57-.28s-.35-.28-.54-.28h-2.97c-.29,0-.44.12-.44.36,0,.17.1.3.29.39l3.49,1.55c.35.16.64.41.87.75s.34.73.34,1.15c0,.56-.2,1.04-.6,1.43s-.85.59-1.36.59h-2.66c-.46,0-.88-.14-1.28-.41s-.59-.54-.59-.8c0-.17.06-.32.19-.46s.29-.2.5-.2c.17,0,.34.09.54.28s.46.28.82.28h2.45c.19,0,.35-.07.48-.22s.2-.32.2-.51c0-.3-.15-.51-.44-.64l-3.52-1.59c-.34-.15-.6-.37-.78-.66s-.27-.58-.27-.88c0-.47.16-.88.49-1.22s.73-.52,1.21-.52Z"/>
      <path class="cls-6" d="m330.67,714.77v-2.54c0-.33-.11-.63-.32-.9l-1.57-1.99c-.08-.1-.11-.22-.11-.37,0-.2.07-.37.21-.49.14-.13.3-.19.47-.19s.33.07.44.2l1.6,2.02c.39.48.58,1.01.58,1.59v2.8c0,.58-.19,1.11-.58,1.59l-1.6,2.02c-.11.14-.26.2-.45.2-.18,0-.33-.06-.47-.19-.14-.12-.2-.29-.2-.5,0-.16.04-.28.11-.37l1.57-1.99c.21-.26.32-.56.32-.9Z"/>
    </g>
    <g>
      <path class="cls-7" d="m460.63,802.18l-6.59,11.18c-.1.17-.27.25-.49.25-.21,0-.41-.07-.59-.22-.18-.14-.28-.33-.28-.56,0-.2.06-.41.19-.64l6.6-11.17c.11-.18.28-.26.51-.26.21,0,.4.07.58.21.18.14.27.32.27.55,0,.21-.07.43-.2.66Z"/>
      <path class="cls-7" d="m472.58,802.18l-6.59,11.18c-.1.17-.27.25-.49.25-.21,0-.41-.07-.59-.22-.18-.14-.28-.33-.28-.56,0-.2.06-.41.19-.64l6.6-11.17c.11-.18.28-.26.51-.26.21,0,.4.07.58.21.18.14.27.32.27.55,0,.21-.07.43-.2.66Z"/>
      <path class="cls-7" d="m476.43,812.48l3.27-11.11c.13-.4.4-.6.82-.6s.66.17.76.51l3.24,11.28c.03.08.04.17.04.24,0,.23-.08.42-.23.58-.15.16-.33.24-.53.24-.42,0-.7-.2-.81-.59l-.64-2.2h-3.72l-.71,2.36c-.02.1-.1.2-.24.29-.14.09-.3.14-.47.14-.24,0-.44-.08-.59-.24s-.23-.36-.23-.59c0-.1.02-.2.05-.3Zm4.08-7.95l-1.39,4.65h2.75l-1.35-4.65Z"/>
      <path class="cls-7" d="m495.72,813.62h-3.47c-.61,0-1.13-.18-1.57-.55l-1.58-1.37c-.5-.42-.75-.99-.75-1.7v-2.12c-.03-.69.26-1.29.85-1.8l1.42-1.23c.46-.37.95-.56,1.47-.56h3.64c.23,0,.42.08.57.24.16.16.24.35.24.58s-.08.42-.24.58c-.16.16-.35.23-.57.23h-3.49c-.22,0-.43.09-.63.26l-1.3,1.11c-.21.18-.32.42-.32.72v1.98c0,.21.08.39.25.54l1.43,1.22c.18.16.42.24.71.24h3.32c.22,0,.41.08.57.24.16.16.24.35.24.58s-.08.42-.24.58c-.16.16-.35.24-.58.24Z"/>
      <path class="cls-7" d="m500.27,812.8v-11.22c0-.22.08-.41.24-.56.16-.15.35-.23.58-.23s.42.08.57.24c.16.16.24.35.24.58v4.1l1.3-.85c.59-.37,1.12-.56,1.58-.56h1c.66,0,1.23.24,1.71.71s.72,1.05.74,1.72l.2,6.08c0,.23-.07.42-.23.58-.16.16-.35.24-.58.24s-.42-.08-.57-.25c-.16-.17-.24-.35-.24-.57l-.2-6.1c0-.22-.09-.41-.25-.57-.16-.16-.35-.24-.58-.24h-.91c-.21,0-.43.08-.68.24l-2.31,1.51v5.16c0,.23-.08.42-.24.58s-.35.24-.57.24-.42-.08-.58-.24-.24-.35-.24-.58Z"/>
      <path class="cls-7" d="m518.8,813.6h-4.95c-.23,0-.42-.08-.58-.24s-.24-.35-.24-.58.08-.41.24-.57.35-.24.58-.24h1.66v-6.06h-1.64c-.23,0-.42-.08-.58-.24-.16-.16-.24-.35-.24-.57s.08-.42.24-.58c.16-.16.35-.25.58-.25h2.47c.22,0,.42.08.57.25.16.16.24.36.24.58v6.87h1.62c.23,0,.42.08.58.24.16.16.25.35.25.58s-.08.42-.24.58-.35.24-.57.24Zm-3.3-13.54h.85c.22,0,.42.08.57.24.16.16.24.35.24.58v.7c0,.23-.08.42-.24.58-.16.16-.35.25-.57.25h-.87c-.23,0-.43-.08-.58-.25-.16-.17-.23-.35-.23-.56l.02-.71c0-.23.08-.42.24-.58s.35-.24.58-.24Z"/>
      <path class="cls-7" d="m532.37,807.34v1.96c0,.22-.08.41-.24.57s-.35.24-.57.24h-5.74v.47c0,.28.12.51.36.71l.47.4c.26.2.5.3.73.3h4.17c.22,0,.41.08.57.24.16.16.24.35.24.58s-.08.41-.25.57-.35.24-.57.24h-4.28c-.28,0-.58-.06-.89-.18s-.54-.24-.69-.37l-.72-.64c-.23-.18-.41-.43-.57-.75s-.23-.62-.23-.89v-3.72c0-.21.08-.5.25-.86.16-.36.37-.64.62-.84l.68-.53c.44-.36.94-.54,1.48-.54h2.28c.57,0,1.11.24,1.62.72l.61.58c.44.39.66.98.66,1.76Zm-6.53-.12v1.26h4.93v-1.13c0-.3-.09-.53-.28-.7l-.47-.42c-.25-.2-.46-.3-.66-.3h-2.04c-.25,0-.48.09-.69.26l-.47.4c-.21.16-.32.37-.32.63Z"/>
      <path class="cls-7" d="m544.34,805.1v1.55l-2.82,6.4c-.18.38-.42.57-.71.57h-1.04c-.38,0-.66-.2-.83-.59l-2.8-6.36v-1.57c0-.23.08-.42.24-.58.16-.16.35-.24.58-.24s.42.08.57.24c.16.16.24.35.24.57v1.24s2.48,5.57,2.48,5.57l2.46-5.59v-1.23c0-.22.08-.42.24-.57s.36-.24.59-.24.42.08.58.24c.16.16.24.35.24.58Z"/>
      <path class="cls-7" d="m556.28,807.34v1.96c0,.22-.08.41-.24.57s-.35.24-.57.24h-5.74v.47c0,.28.12.51.36.71l.47.4c.26.2.5.3.73.3h4.17c.22,0,.41.08.57.24.16.16.24.35.24.58s-.08.41-.25.57-.35.24-.57.24h-4.28c-.28,0-.58-.06-.89-.18s-.54-.24-.69-.37l-.72-.64c-.23-.18-.41-.43-.57-.75s-.23-.62-.23-.89v-3.72c0-.21.08-.5.25-.86.16-.36.37-.64.62-.84l.68-.53c.44-.36.94-.54,1.48-.54h2.28c.57,0,1.11.24,1.62.72l.61.58c.44.39.66.98.66,1.76Zm-6.53-.12v1.26h4.93v-1.13c0-.3-.09-.53-.28-.7l-.47-.42c-.25-.2-.46-.3-.66-.3h-2.04c-.25,0-.48.09-.69.26l-.47.4c-.21.16-.32.37-.32.63Z"/>
      <path class="cls-7" d="m559.86,812.8v-7.7c0-.23.08-.42.24-.58.16-.16.35-.24.58-.24.42,0,.68.21.79.62.45-.43.95-.64,1.5-.64.65,0,1.18.28,1.6.83.51-.55,1.08-.83,1.7-.83.5,0,.94.18,1.31.54s.57.81.59,1.37l.23,6.63c0,.22-.08.41-.24.57s-.35.24-.57.24-.42-.08-.58-.24c-.16-.16-.25-.35-.25-.57l-.19-6.37c-.01-.35-.12-.52-.32-.52-.11,0-.22.05-.34.14l-.97.81v5.93c0,.22-.08.41-.24.56-.16.15-.35.23-.58.23s-.41-.08-.57-.24-.24-.35-.24-.58v-6.46c0-.28-.12-.42-.36-.42-.12,0-.22.04-.32.12l-1.16.99v5.78c0,.22-.08.41-.23.57-.15.16-.34.24-.56.24s-.42-.08-.58-.24-.25-.35-.25-.57Z"/>
      <path class="cls-7" d="m580.19,807.34v1.96c0,.22-.08.41-.24.57s-.35.24-.57.24h-5.74v.47c0,.28.12.51.36.71l.47.4c.26.2.5.3.73.3h4.17c.22,0,.41.08.57.24.16.16.24.35.24.58s-.08.41-.25.57-.35.24-.57.24h-4.28c-.28,0-.58-.06-.89-.18s-.54-.24-.69-.37l-.72-.64c-.23-.18-.41-.43-.57-.75s-.23-.62-.23-.89v-3.72c0-.21.08-.5.25-.86.16-.36.37-.64.62-.84l.68-.53c.44-.36.94-.54,1.48-.54h2.28c.57,0,1.11.24,1.62.72l.61.58c.44.39.66.98.66,1.76Zm-6.53-.12v1.26h4.93v-1.13c0-.3-.09-.53-.28-.7l-.47-.42c-.25-.2-.46-.3-.66-.3h-2.04c-.25,0-.48.09-.69.26l-.47.4c-.21.16-.32.37-.32.63Z"/>
      <path class="cls-7" d="m587.8,806.18l-2.22,1.44v5.19c0,.22-.08.41-.24.57s-.35.24-.57.24-.41-.08-.57-.24c-.16-.16-.24-.35-.24-.57v-7.7c0-.23.08-.42.24-.58.16-.16.35-.25.57-.25s.41.08.57.25.24.36.24.58v.54l1.48-.9c.5-.32,1.06-.47,1.68-.47h.75c.65,0,1.2.23,1.67.69.47.46.72,1.02.75,1.69l.22,6.16c0,.22-.07.41-.23.57s-.35.24-.58.24c-.21,0-.4-.07-.56-.22-.16-.14-.25-.34-.25-.59l-.24-6.06c-.02-.57-.32-.85-.89-.85h-.79c-.25,0-.51.09-.79.28Z"/>
      <path class="cls-7" d="m601.62,813.62h-1.62c-.67,0-1.25-.24-1.73-.71-.48-.48-.72-1.05-.72-1.72v-5.27h-.83c-.23,0-.42-.08-.58-.23-.16-.15-.24-.35-.24-.58s.08-.42.24-.58c.16-.16.35-.24.58-.24h.85v-1.99c0-.23.08-.42.24-.58s.35-.24.58-.24c.21,0,.4.08.56.24.17.16.25.35.25.57v1.99h3.27c.22,0,.41.08.57.24s.24.35.24.57-.08.42-.24.57c-.16.16-.35.24-.57.24h-3.29v5.27c0,.22.08.41.25.57s.36.24.58.24h1.58c.43,0,.72-.23.86-.7.14-.47.42-.7.82-.7.24,0,.43.08.58.24.15.16.23.36.23.59,0,.49-.23.98-.69,1.46s-1.05.73-1.76.73Z"/>
      <path class="cls-7" d="m619.82,812.8v-12.03h5.76c.66,0,1.23.24,1.71.72.48.48.72,1.06.72,1.73v3.04c0,.67-.24,1.24-.71,1.72s-1.05.71-1.72.71h-4.12v4.1c0,.23-.08.42-.24.58-.16.16-.35.24-.58.24s-.43-.08-.59-.24c-.16-.16-.24-.35-.24-.58Zm1.64-5.72h4.12c.22,0,.41-.08.57-.24.16-.16.24-.35.24-.58v-3.04c0-.23-.08-.42-.24-.58-.16-.16-.35-.24-.57-.24h-4.12v4.67Z"/>
      <path class="cls-7" d="m639.95,807.22v3.43c0,.73-.34,1.4-1.03,2.02-.69.62-1.39.93-2.12.93h-1.9c-.74,0-1.45-.31-2.13-.94-.68-.63-1.01-1.3-1.01-2v-3.43c0-.71.33-1.38.99-2.01.66-.63,1.38-.94,2.15-.94h1.9c.73-.01,1.43.29,2.12.91.69.62,1.03,1.3,1.03,2.04Zm-6.55.07v3.29c0,.3.11.53.32.71l.61.52c.14.12.33.17.57.17h1.88c.28,0,.53-.1.75-.3l.49-.43c.2-.15.3-.37.3-.65v-3.29c0-.32-.1-.56-.3-.72l-.57-.45c-.19-.16-.42-.24-.68-.24h-1.68c-.37,0-.65.09-.85.26l-.55.47c-.2.17-.3.39-.3.66Z"/>
      <path class="cls-7" d="m650.28,813.6h-4.95c-.23,0-.42-.08-.58-.24s-.24-.35-.24-.58.08-.41.24-.57.35-.24.58-.24h1.66v-6.06h-1.64c-.23,0-.42-.08-.58-.24-.16-.16-.24-.35-.24-.57s.08-.42.24-.58c.16-.16.35-.25.58-.25h2.47c.22,0,.42.08.57.25.16.16.24.36.24.58v6.87h1.62c.23,0,.42.08.58.24.16.16.25.35.25.58s-.08.42-.24.58-.35.24-.57.24Zm-3.3-13.54h.85c.22,0,.42.08.57.24.16.16.24.35.24.58v.7c0,.23-.08.42-.24.58-.16.16-.35.25-.57.25h-.87c-.23,0-.43-.08-.58-.25-.16-.17-.23-.35-.23-.56l.02-.71c0-.23.08-.42.24-.58s.35-.24.58-.24Z"/>
      <path class="cls-7" d="m659.52,806.18l-2.22,1.44v5.19c0,.22-.08.41-.24.57s-.35.24-.57.24-.41-.08-.57-.24c-.16-.16-.24-.35-.24-.57v-7.7c0-.23.08-.42.24-.58.16-.16.35-.25.57-.25s.41.08.57.25.24.36.24.58v.54l1.48-.9c.5-.32,1.06-.47,1.68-.47h.75c.65,0,1.2.23,1.67.69.47.46.72,1.02.75,1.69l.22,6.16c0,.22-.07.41-.23.57s-.35.24-.58.24c-.21,0-.4-.07-.56-.22-.16-.14-.25-.34-.25-.59l-.24-6.06c-.02-.57-.32-.85-.89-.85h-.79c-.25,0-.51.09-.79.28Z"/>
      <path class="cls-7" d="m673.34,813.62h-1.62c-.67,0-1.25-.24-1.73-.71-.48-.48-.72-1.05-.72-1.72v-5.27h-.83c-.23,0-.42-.08-.58-.23-.16-.15-.24-.35-.24-.58s.08-.42.24-.58c.16-.16.35-.24.58-.24h.85v-1.99c0-.23.08-.42.24-.58s.35-.24.58-.24c.21,0,.4.08.56.24.17.16.25.35.25.57v1.99h3.27c.22,0,.41.08.57.24s.24.35.24.57-.08.42-.24.57c-.16.16-.35.24-.57.24h-3.29v5.27c0,.22.08.41.25.57s.36.24.58.24h1.58c.43,0,.72-.23.86-.7.14-.47.42-.7.82-.7.24,0,.43.08.58.24.15.16.23.36.23.59,0,.49-.23.98-.69,1.46s-1.05.73-1.76.73Z"/>
    </g>
    <g>
      <path class="cls-7" d="m61.53,147.18l-6.59,11.18c-.1.17-.27.25-.49.25-.21,0-.41-.07-.59-.22-.18-.14-.28-.33-.28-.56,0-.2.06-.41.19-.64l6.6-11.17c.11-.18.28-.26.51-.26.21,0,.4.07.58.21.18.14.27.32.27.55,0,.21-.07.43-.2.66Z"/>
      <path class="cls-7" d="m73.48,147.18l-6.59,11.18c-.1.17-.27.25-.49.25-.21,0-.41-.07-.59-.22-.18-.14-.28-.33-.28-.56,0-.2.06-.41.19-.64l6.6-11.17c.11-.18.28-.26.51-.26.21,0,.4.07.58.21.18.14.27.32.27.55,0,.21-.07.43-.2.66Z"/>
      <path class="cls-7" d="m78.08,145.77h3.21c.42,0,.83.14,1.22.41.4.26.69.58.88.96l1.6,3.25c.3.59.46,1.2.46,1.84,0,.59-.16,1.2-.48,1.83l-1.61,3.21c-.21.41-.5.74-.89.99s-.82.37-1.29.37h-3.1c-.23,0-.42-.08-.58-.24s-.24-.35-.24-.57.08-.42.24-.58.35-.25.58-.25h.85v-9.56h-.83c-.23,0-.42-.08-.58-.25-.16-.17-.24-.36-.24-.58s.08-.41.24-.57c.16-.16.35-.24.58-.24Zm2.45,1.64v9.58h.57c.36,0,.63-.18.81-.53l1.6-3.19c.2-.42.3-.77.3-1.05,0-.35-.08-.69-.24-1l-1.66-3.31c-.17-.33-.46-.49-.85-.49h-.53Z"/>
      <path class="cls-7" d="m89.24,157.8v-7.7c0-.23.08-.42.24-.58.16-.16.35-.25.57-.25s.42.08.58.24.24.36.24.59v1.01l1.32-1.13c.55-.46,1.08-.7,1.6-.7h1.19c.67,0,1.24.24,1.72.72s.71,1.05.71,1.72v.43c0,.23-.08.43-.24.59-.16.16-.35.24-.58.24s-.42-.08-.58-.24c-.16-.16-.24-.35-.24-.58v-.45c0-.23-.08-.42-.24-.58-.16-.16-.35-.24-.58-.24h-1.05c-.23,0-.48.12-.75.36l-2.31,2v4.53c0,.23-.08.42-.24.58-.16.16-.35.24-.57.24s-.42-.08-.57-.24-.24-.35-.24-.58Z"/>
      <path class="cls-7" d="m109.37,152.34v1.96c0,.22-.08.41-.24.57s-.35.24-.57.24h-5.74v.47c0,.28.12.51.36.71l.47.4c.26.2.5.3.73.3h4.17c.22,0,.41.08.57.24.16.16.24.35.24.58s-.08.41-.25.57-.35.24-.57.24h-4.28c-.28,0-.58-.06-.89-.18s-.54-.24-.69-.37l-.72-.64c-.23-.18-.41-.43-.57-.75s-.23-.62-.23-.89v-3.72c0-.21.08-.5.25-.86.16-.36.37-.64.62-.84l.68-.53c.44-.36.94-.54,1.48-.54h2.28c.57,0,1.11.24,1.62.72l.61.58c.44.39.66.98.66,1.76Zm-6.53-.12v1.26h4.93v-1.13c0-.3-.09-.53-.28-.7l-.47-.42c-.25-.2-.46-.3-.66-.3h-2.04c-.25,0-.48.09-.69.26l-.47.4c-.21.16-.32.37-.32.63Z"/>
      <path class="cls-7" d="m115.57,152.76h3.18c.17,0,.43.04.75.12l-.02-1.15c0-.23-.08-.42-.24-.58-.16-.16-.35-.24-.58-.24h-3.09c-.22,0-.41-.08-.57-.24-.16-.16-.24-.35-.24-.57s.08-.42.24-.58.35-.24.58-.24h3.09c.67,0,1.24.24,1.72.71.47.47.72,1.05.74,1.73l.2,6.08c0,.23-.08.42-.24.58-.16.16-.35.24-.57.24-.23,0-.43-.08-.59-.24-.16-.16-.24-.35-.24-.58l-1.37.81h-2.75c-.68,0-1.26-.24-1.74-.71s-.72-1.06-.72-1.74v-.95c0-.68.24-1.25.72-1.73s1.06-.72,1.74-.72Zm4.06,3.16l-.05-.69c0-.23-.09-.43-.24-.58-.15-.15-.34-.23-.57-.23h-3.2c-.23,0-.42.08-.58.24-.16.16-.24.35-.24.58v.91c0,.22.08.41.24.57s.35.24.57.24h2.29l1.77-1.03Z"/>
      <path class="cls-7" d="m124.9,157.8v-7.7c0-.23.08-.42.24-.58.16-.16.35-.24.58-.24.42,0,.68.21.79.62.45-.43.95-.64,1.5-.64.65,0,1.18.28,1.6.83.51-.55,1.08-.83,1.7-.83.5,0,.94.18,1.31.54s.57.81.59,1.37l.23,6.63c0,.22-.08.41-.24.57s-.35.24-.57.24-.42-.08-.58-.24c-.16-.16-.25-.35-.25-.57l-.19-6.37c-.01-.35-.12-.52-.32-.52-.11,0-.22.05-.34.14l-.97.81v5.93c0,.22-.08.41-.24.56-.16.15-.35.23-.58.23s-.41-.08-.57-.24-.24-.35-.24-.58v-6.46c0-.28-.12-.42-.36-.42-.12,0-.22.04-.32.12l-1.16.99v5.78c0,.22-.08.41-.23.57-.15.16-.34.24-.56.24s-.42-.08-.58-.24-.25-.35-.25-.57Z"/>
      <path class="cls-7" d="m157.18,154.63v.72c0,.9-.32,1.66-.95,2.3-.63.64-1.4.96-2.29.96h-4.97v-12.84h4.97c.89,0,1.66.32,2.29.96.63.64.95,1.41.95,2.31v.69c0,.96-.37,1.78-1.11,2.45.74.69,1.11,1.51,1.11,2.45Zm-1.66-4.93v-.67c0-.45-.16-.84-.48-1.16-.32-.32-.7-.48-1.15-.48h-3.3v3.93h3.3c.44,0,.82-.16,1.14-.48.32-.32.48-.7.48-1.14Zm0,5.64v-.68c0-.45-.16-.84-.48-1.16-.32-.32-.7-.48-1.15-.48h-3.29v3.94h3.29c.44,0,.82-.16,1.14-.48.32-.32.48-.7.48-1.14Z"/>
      <path class="cls-7" d="m169.13,152.34v1.96c0,.22-.08.41-.24.57s-.35.24-.57.24h-5.74v.47c0,.28.12.51.36.71l.47.4c.26.2.5.3.73.3h4.17c.22,0,.41.08.57.24.16.16.24.35.24.58s-.08.41-.25.57-.35.24-.57.24h-4.28c-.28,0-.58-.06-.89-.18s-.54-.24-.69-.37l-.72-.64c-.23-.18-.41-.43-.57-.75s-.23-.62-.23-.89v-3.72c0-.21.08-.5.25-.86.16-.36.37-.64.62-.84l.68-.53c.44-.36.94-.54,1.48-.54h2.28c.57,0,1.11.24,1.62.72l.61.58c.44.39.66.98.66,1.76Zm-6.53-.12v1.26h4.93v-1.13c0-.3-.09-.53-.28-.7l-.47-.42c-.25-.2-.46-.3-.66-.3h-2.04c-.25,0-.48.09-.69.26l-.47.4c-.21.16-.32.37-.32.63Z"/>
      <path class="cls-7" d="m178.01,162.09h-3.52c-.23,0-.42-.08-.58-.23-.16-.16-.24-.35-.24-.58s.08-.42.24-.57c.16-.15.35-.23.58-.23h3.52c.21,0,.41-.08.6-.24l.55-.47c.19-.14.28-.33.28-.56v-2.47c-.76.77-1.5,1.15-2.22,1.15h-1.25c-.64,0-1.22-.22-1.74-.67l-.61-.54c-.2-.17-.37-.41-.52-.73-.14-.32-.22-.64-.22-.95v-2.69c0-.38.07-.74.22-1.08.15-.34.32-.6.52-.76l.67-.57c.48-.41,1.04-.62,1.68-.62h1.17c.64,0,1.22.23,1.74.68l.56.47-.02-.32c0-.22.08-.41.24-.57s.35-.24.57-.24.42.08.58.24.25.35.25.58v9.1c0,.69-.28,1.28-.83,1.77l-.66.57c-.17.15-.4.28-.71.39-.31.11-.59.16-.85.16Zm-.93-11.2h-1.09c-.24,0-.47.09-.69.28l-.5.42c-.19.16-.29.38-.29.66v2.71c0,.22.11.42.32.62l.53.47c.17.14.34.21.53.21h1.32c.19,0,.41-.1.64-.29l1.29-1.09c.2-.17.3-.39.3-.64v-1.23c0-.3-.11-.54-.34-.72l-1.32-1.13c-.19-.17-.42-.26-.7-.26Z"/>
      <path class="cls-7" d="m191.42,158.59h-4.95c-.23,0-.42-.08-.58-.24s-.24-.35-.24-.58.08-.41.24-.57.35-.24.58-.24h1.66v-6.06h-1.64c-.23,0-.42-.08-.58-.24-.16-.16-.24-.35-.24-.57s.08-.42.24-.58c.16-.16.35-.25.58-.25h2.47c.22,0,.42.08.57.25.16.16.24.36.24.58v6.87h1.62c.23,0,.42.08.58.24.16.16.25.35.25.58s-.08.42-.24.58-.35.24-.57.24Zm-3.3-13.54h.85c.22,0,.42.08.57.24.16.16.24.35.24.58v.7c0,.23-.08.42-.24.58-.16.16-.35.25-.57.25h-.87c-.23,0-.43-.08-.58-.25-.16-.17-.23-.35-.23-.56l.02-.71c0-.23.08-.42.24-.58s.35-.24.58-.24Z"/>
      <path class="cls-7" d="m200.66,151.17l-2.22,1.44v5.19c0,.22-.08.41-.24.57s-.35.24-.57.24-.41-.08-.57-.24c-.16-.16-.24-.35-.24-.57v-7.7c0-.23.08-.42.24-.58.16-.16.35-.25.57-.25s.41.08.57.25.24.36.24.58v.54l1.48-.9c.5-.32,1.06-.47,1.68-.47h.75c.65,0,1.2.23,1.67.69.47.46.72,1.02.75,1.69l.22,6.16c0,.22-.07.41-.23.57s-.35.24-.58.24c-.21,0-.4-.07-.56-.22-.16-.14-.25-.34-.25-.59l-.24-6.06c-.02-.57-.32-.85-.89-.85h-.79c-.25,0-.51.09-.79.28Z"/>
      <path class="cls-7" d="m220.72,157.8v-12.03h5.76c.66,0,1.23.24,1.71.72.48.48.72,1.06.72,1.73v3.04c0,.67-.24,1.24-.71,1.72s-1.05.71-1.72.71h-4.12v4.1c0,.23-.08.42-.24.58-.16.16-.35.24-.58.24s-.43-.08-.59-.24c-.16-.16-.24-.35-.24-.58Zm1.64-5.72h4.12c.22,0,.41-.08.57-.24.16-.16.24-.35.24-.58v-3.04c0-.23-.08-.42-.24-.58-.16-.16-.35-.24-.57-.24h-4.12v4.67Z"/>
      <path class="cls-7" d="m240.85,152.21v3.43c0,.73-.34,1.4-1.03,2.02-.69.62-1.39.93-2.12.93h-1.9c-.74,0-1.45-.31-2.13-.94-.68-.63-1.01-1.3-1.01-2v-3.43c0-.71.33-1.38.99-2.01.66-.63,1.38-.94,2.15-.94h1.9c.73-.01,1.43.29,2.12.91.69.62,1.03,1.3,1.03,2.04Zm-6.55.07v3.29c0,.3.11.53.32.71l.61.52c.14.12.33.17.57.17h1.88c.28,0,.53-.1.75-.3l.49-.43c.2-.15.3-.37.3-.65v-3.29c0-.32-.1-.56-.3-.72l-.57-.45c-.19-.16-.42-.24-.68-.24h-1.68c-.37,0-.65.09-.85.26l-.55.47c-.2.17-.3.39-.3.66Z"/>
      <path class="cls-7" d="m251.18,158.59h-4.95c-.23,0-.42-.08-.58-.24s-.24-.35-.24-.58.08-.41.24-.57.35-.24.58-.24h1.66v-6.06h-1.64c-.23,0-.42-.08-.58-.24-.16-.16-.24-.35-.24-.57s.08-.42.24-.58c.16-.16.35-.25.58-.25h2.47c.22,0,.42.08.57.25.16.16.24.36.24.58v6.87h1.62c.23,0,.42.08.58.24.16.16.25.35.25.58s-.08.42-.24.58-.35.24-.57.24Zm-3.3-13.54h.85c.22,0,.42.08.57.24.16.16.24.35.24.58v.7c0,.23-.08.42-.24.58-.16.16-.35.25-.57.25h-.87c-.23,0-.43-.08-.58-.25-.16-.17-.23-.35-.23-.56l.02-.71c0-.23.08-.42.24-.58s.35-.24.58-.24Z"/>
      <path class="cls-7" d="m260.42,151.17l-2.22,1.44v5.19c0,.22-.08.41-.24.57s-.35.24-.57.24-.41-.08-.57-.24c-.16-.16-.24-.35-.24-.57v-7.7c0-.23.08-.42.24-.58.16-.16.35-.25.57-.25s.41.08.57.25.24.36.24.58v.54l1.48-.9c.5-.32,1.06-.47,1.68-.47h.75c.65,0,1.2.23,1.67.69.47.46.72,1.02.75,1.69l.22,6.16c0,.22-.07.41-.23.57s-.35.24-.58.24c-.21,0-.4-.07-.56-.22-.16-.14-.25-.34-.25-.59l-.24-6.06c-.02-.57-.32-.85-.89-.85h-.79c-.25,0-.51.09-.79.28Z"/>
      <path class="cls-7" d="m274.24,158.61h-1.62c-.67,0-1.25-.24-1.73-.71-.48-.48-.72-1.05-.72-1.72v-5.27h-.83c-.23,0-.42-.08-.58-.23-.16-.15-.24-.35-.24-.58s.08-.42.24-.58c.16-.16.35-.24.58-.24h.85v-1.99c0-.23.08-.42.24-.58s.35-.24.58-.24c.21,0,.4.08.56.24.17.16.25.35.25.57v1.99h3.27c.22,0,.41.08.57.24s.24.35.24.57-.08.42-.24.57c-.16.16-.35.24-.57.24h-3.29v5.27c0,.22.08.41.25.57s.36.24.58.24h1.58c.43,0,.72-.23.86-.7.14-.47.42-.7.82-.7.24,0,.43.08.58.24.15.16.23.36.23.59,0,.49-.23.98-.69,1.46s-1.05.73-1.76.73Z"/>
    </g>
    <g>
      <path class="cls-7" d="m146.04,526.15l-6.59,11.18c-.1.17-.27.25-.49.25-.21,0-.41-.07-.59-.22-.18-.14-.28-.33-.28-.56,0-.2.06-.41.19-.64l6.6-11.17c.11-.18.28-.26.51-.26.21,0,.4.07.58.21.18.14.27.32.27.55,0,.21-.07.43-.2.66Z"/>
      <path class="cls-7" d="m157.99,526.15l-6.59,11.18c-.1.17-.27.25-.49.25-.21,0-.41-.07-.59-.22-.18-.14-.28-.33-.28-.56,0-.2.06-.41.19-.64l6.6-11.17c.11-.18.28-.26.51-.26.21,0,.4.07.58.21.18.14.27.32.27.55,0,.21-.07.43-.2.66Z"/>
      <path class="cls-7" d="m162.59,524.74h3.21c.42,0,.83.14,1.22.41.4.26.69.58.88.96l1.6,3.25c.3.59.46,1.2.46,1.84,0,.59-.16,1.2-.48,1.83l-1.61,3.21c-.21.41-.5.74-.89.99s-.82.37-1.29.37h-3.1c-.23,0-.42-.08-.58-.24s-.24-.35-.24-.57.08-.42.24-.58.35-.25.58-.25h.85v-9.56h-.83c-.23,0-.42-.08-.58-.25-.16-.17-.24-.36-.24-.58s.08-.41.24-.57c.16-.16.35-.24.58-.24Zm2.45,1.64v9.58h.57c.36,0,.63-.18.81-.53l1.6-3.19c.2-.42.3-.77.3-1.05,0-.35-.08-.69-.24-1l-1.66-3.31c-.17-.33-.46-.49-.85-.49h-.53Z"/>
      <path class="cls-7" d="m181.92,531.31v1.96c0,.22-.08.41-.24.57s-.35.24-.57.24h-5.74v.47c0,.28.12.51.36.71l.47.4c.26.2.5.3.73.3h4.17c.22,0,.41.08.57.24.16.16.24.35.24.58s-.08.41-.25.57-.35.24-.57.24h-4.28c-.28,0-.58-.06-.89-.18s-.54-.24-.69-.37l-.72-.64c-.23-.18-.41-.43-.57-.75s-.23-.62-.23-.89v-3.72c0-.21.08-.5.25-.86.16-.36.37-.64.62-.84l.68-.53c.44-.36.94-.54,1.48-.54h2.28c.57,0,1.11.24,1.62.72l.61.58c.44.39.66.98.66,1.76Zm-6.53-.12v1.26h4.93v-1.13c0-.3-.09-.53-.28-.7l-.47-.42c-.25-.2-.46-.3-.66-.3h-2.04c-.25,0-.48.09-.69.26l-.47.4c-.21.16-.32.37-.32.63Z"/>
      <path class="cls-7" d="m187.97,528.25h3.72c.58,0,1.09.17,1.54.52.45.34.67.68.67,1.01,0,.23-.08.42-.25.57-.16.15-.35.22-.55.22-.26,0-.49-.12-.71-.35-.21-.23-.43-.35-.67-.35h-3.67c-.36,0-.54.15-.54.45,0,.21.12.37.36.48l4.32,1.92c.44.19.8.5,1.08.93.28.43.42.9.42,1.42,0,.7-.25,1.29-.74,1.77-.49.48-1.05.72-1.68.72h-3.29c-.57,0-1.09-.17-1.58-.51-.49-.34-.73-.67-.73-1,0-.21.08-.4.24-.56.16-.17.36-.25.61-.25.21,0,.43.12.66.35.24.23.58.35,1.02.35h3.02c.24,0,.44-.09.6-.28.16-.18.24-.39.24-.63,0-.37-.18-.63-.54-.79l-4.36-1.96c-.42-.19-.74-.46-.97-.81-.23-.35-.34-.71-.34-1.08,0-.58.2-1.08.6-1.51.4-.43.9-.64,1.49-.64Z"/>
      <path class="cls-7" d="m204.21,537.56h-4.95c-.23,0-.42-.08-.58-.24s-.24-.35-.24-.58.08-.41.24-.57.35-.24.58-.24h1.66v-6.06h-1.64c-.23,0-.42-.08-.58-.24-.16-.16-.24-.35-.24-.57s.08-.42.24-.58c.16-.16.35-.25.58-.25h2.47c.22,0,.42.08.57.25.16.16.24.36.24.58v6.87h1.62c.23,0,.42.08.58.24.16.16.25.35.25.58s-.08.42-.24.58-.35.24-.57.24Zm-3.3-13.54h.85c.22,0,.42.08.57.24.16.16.24.35.24.58v.7c0,.23-.08.42-.24.58-.16.16-.35.25-.57.25h-.87c-.23,0-.43-.08-.58-.25-.16-.17-.23-.35-.23-.56l.02-.71c0-.23.08-.42.24-.58s.35-.24.58-.24Z"/>
      <path class="cls-7" d="m214.71,541.06h-3.52c-.23,0-.42-.08-.58-.23-.16-.16-.24-.35-.24-.58s.08-.42.24-.57c.16-.15.35-.23.58-.23h3.52c.21,0,.41-.08.6-.24l.55-.47c.19-.14.28-.33.28-.56v-2.47c-.76.77-1.5,1.15-2.22,1.15h-1.25c-.64,0-1.22-.22-1.74-.67l-.61-.54c-.2-.17-.37-.41-.52-.73-.14-.32-.22-.64-.22-.95v-2.69c0-.38.07-.74.22-1.08.15-.34.32-.6.52-.76l.67-.57c.48-.41,1.04-.62,1.68-.62h1.17c.64,0,1.22.23,1.74.68l.56.47-.02-.32c0-.22.08-.41.24-.57s.35-.24.57-.24.42.08.58.24.25.35.25.58v9.1c0,.69-.28,1.28-.83,1.77l-.66.57c-.17.15-.4.28-.71.39-.31.11-.59.16-.85.16Zm-.93-11.2h-1.09c-.24,0-.47.09-.69.28l-.5.42c-.19.16-.29.38-.29.66v2.71c0,.22.11.42.32.62l.53.47c.17.14.34.21.53.21h1.32c.19,0,.41-.1.64-.29l1.29-1.09c.2-.17.3-.39.3-.64v-1.23c0-.3-.11-.54-.34-.72l-1.32-1.13c-.19-.17-.42-.26-.7-.26Z"/>
      <path class="cls-7" d="m225.4,530.14l-2.22,1.44v5.19c0,.22-.08.41-.24.57s-.35.24-.57.24-.41-.08-.57-.24c-.16-.16-.24-.35-.24-.57v-7.7c0-.23.08-.42.24-.58.16-.16.35-.25.57-.25s.41.08.57.25.24.36.24.58v.54l1.48-.9c.5-.32,1.06-.47,1.68-.47h.75c.65,0,1.2.23,1.67.69.47.46.72,1.02.75,1.69l.22,6.16c0,.22-.07.41-.23.57s-.35.24-.58.24c-.21,0-.4-.07-.56-.22-.16-.14-.25-.34-.25-.59l-.24-6.06c-.02-.57-.32-.85-.89-.85h-.79c-.25,0-.51.09-.79.28Z"/>
      <path class="cls-7" d="m161.8,556.17v-12.03h5.76c.66,0,1.23.24,1.71.72.48.48.72,1.06.72,1.73v3.04c0,.67-.24,1.24-.71,1.72s-1.05.71-1.72.71h-4.12v4.1c0,.23-.08.42-.24.58-.16.16-.35.24-.58.24s-.43-.08-.59-.24c-.16-.16-.24-.35-.24-.58Zm1.64-5.72h4.12c.22,0,.41-.08.57-.24.16-.16.24-.35.24-.58v-3.04c0-.23-.08-.42-.24-.58-.16-.16-.35-.24-.57-.24h-4.12v4.67Z"/>
      <path class="cls-7" d="m181.92,550.58v3.43c0,.73-.34,1.4-1.03,2.02-.69.62-1.39.93-2.12.93h-1.9c-.74,0-1.45-.31-2.13-.94-.68-.63-1.01-1.3-1.01-2v-3.43c0-.71.33-1.38.99-2.01.66-.63,1.38-.94,2.15-.94h1.9c.73-.01,1.43.29,2.12.91.69.62,1.03,1.3,1.03,2.04Zm-6.55.07v3.29c0,.3.11.53.32.71l.61.52c.14.12.33.17.57.17h1.88c.28,0,.53-.1.75-.3l.49-.43c.2-.15.3-.37.3-.65v-3.29c0-.32-.1-.56-.3-.72l-.57-.45c-.19-.16-.42-.24-.68-.24h-1.68c-.37,0-.65.09-.85.26l-.55.47c-.2.17-.3.39-.3.66Z"/>
      <path class="cls-7" d="m192.25,556.96h-4.95c-.23,0-.42-.08-.58-.24s-.24-.35-.24-.58.08-.41.24-.57.35-.24.58-.24h1.66v-6.06h-1.64c-.23,0-.42-.08-.58-.24-.16-.16-.24-.35-.24-.57s.08-.42.24-.58c.16-.16.35-.25.58-.25h2.47c.22,0,.42.08.57.25.16.16.24.36.24.58v6.87h1.62c.23,0,.42.08.58.24.16.16.25.35.25.58s-.08.42-.24.58-.35.24-.57.24Zm-3.3-13.54h.85c.22,0,.42.08.57.24.16.16.24.35.24.58v.7c0,.23-.08.42-.24.58-.16.16-.35.25-.57.25h-.87c-.23,0-.43-.08-.58-.25-.16-.17-.23-.35-.23-.56l.02-.71c0-.23.08-.42.24-.58s.35-.24.58-.24Z"/>
      <path class="cls-7" d="m201.5,549.54l-2.22,1.44v5.19c0,.22-.08.41-.24.57s-.35.24-.57.24-.41-.08-.57-.24c-.16-.16-.24-.35-.24-.57v-7.7c0-.23.08-.42.24-.58.16-.16.35-.25.57-.25s.41.08.57.25.24.36.24.58v.54l1.48-.9c.5-.32,1.06-.47,1.68-.47h.75c.65,0,1.2.23,1.67.69.47.46.72,1.02.75,1.69l.22,6.16c0,.22-.07.41-.23.57s-.35.24-.58.24c-.21,0-.4-.07-.56-.22-.16-.14-.25-.34-.25-.59l-.24-6.06c-.02-.57-.32-.85-.89-.85h-.79c-.25,0-.51.09-.79.28Z"/>
      <path class="cls-7" d="m215.31,556.98h-1.62c-.67,0-1.25-.24-1.73-.71-.48-.48-.72-1.05-.72-1.72v-5.27h-.83c-.23,0-.42-.08-.58-.23-.16-.15-.24-.35-.24-.58s.08-.42.24-.58c.16-.16.35-.24.58-.24h.85v-1.99c0-.23.08-.42.24-.58s.35-.24.58-.24c.21,0,.4.08.56.24.17.16.25.35.25.57v1.99h3.27c.22,0,.41.08.57.24s.24.35.24.57-.08.42-.24.57c-.16.16-.35.24-.57.24h-3.29v5.27c0,.22.08.41.25.57s.36.24.58.24h1.58c.43,0,.72-.23.86-.7.14-.47.42-.7.82-.7.24,0,.43.08.58.24.15.16.23.36.23.59,0,.49-.23.98-.69,1.46s-1.05.73-1.76.73Z"/>
    </g>
    <g>
      <path class="cls-7" d="m124.42,789.31l-6.59,11.18c-.1.17-.27.25-.49.25-.21,0-.41-.07-.59-.22-.18-.14-.28-.33-.28-.56,0-.2.06-.41.19-.64l6.6-11.17c.11-.18.28-.26.51-.26.21,0,.4.07.58.21.18.14.27.32.27.55,0,.21-.07.43-.2.66Z"/>
      <path class="cls-7" d="m136.38,789.31l-6.59,11.18c-.1.17-.27.25-.49.25-.21,0-.41-.07-.59-.22-.18-.14-.28-.33-.28-.56,0-.2.06-.41.19-.64l6.6-11.17c.11-.18.28-.26.51-.26.21,0,.4.07.58.21.18.14.27.32.27.55,0,.21-.07.43-.2.66Z"/>
      <path class="cls-7" d="m144.64,799.12h2.93c.23,0,.42.08.58.24.17.16.25.35.25.58s-.08.42-.25.58c-.17.16-.36.24-.58.24h-3.03c-.39,0-.79-.12-1.2-.37s-.7-.52-.86-.82l-1.87-3.62c-.25-.52-.38-1.06-.38-1.6,0-.61.12-1.13.36-1.58l1.89-3.58c.18-.33.46-.63.84-.88.38-.25.75-.38,1.1-.38h3.21c.23,0,.42.08.58.24s.24.35.24.57-.08.42-.24.58c-.16.16-.35.25-.57.25h-3.09c-.26,0-.47.15-.63.46l-1.8,3.36c-.14.26-.21.58-.21.94,0,.38.08.72.23,1.01l1.72,3.31c.16.34.42.51.79.51Z"/>
      <path class="cls-7" d="m154.56,794.89h3.18c.17,0,.43.04.75.12l-.02-1.15c0-.23-.08-.42-.24-.58-.16-.16-.35-.24-.58-.24h-3.09c-.22,0-.41-.08-.57-.24-.16-.16-.24-.35-.24-.57s.08-.42.24-.58.35-.24.58-.24h3.09c.67,0,1.24.24,1.72.71.47.47.72,1.05.74,1.73l.2,6.08c0,.23-.08.42-.24.58-.16.16-.35.24-.57.24-.23,0-.43-.08-.59-.24-.16-.16-.24-.35-.24-.58l-1.37.81h-2.75c-.68,0-1.26-.24-1.74-.71s-.72-1.06-.72-1.74v-.95c0-.68.24-1.25.72-1.73s1.06-.72,1.74-.72Zm4.06,3.16l-.05-.69c0-.23-.09-.43-.24-.58-.15-.15-.34-.23-.57-.23h-3.2c-.23,0-.42.08-.58.24-.16.16-.24.35-.24.58v.91c0,.22.08.41.24.57s.35.24.57.24h2.29l1.77-1.03Z"/>
      <path class="cls-7" d="m164.09,799.93v-7.7c0-.23.08-.42.24-.58.16-.16.35-.25.57-.25s.42.08.58.24.24.36.24.59v1.01l1.32-1.13c.55-.46,1.08-.7,1.6-.7h1.19c.67,0,1.24.24,1.72.72s.71,1.05.71,1.72v.43c0,.23-.08.43-.24.59-.16.16-.35.24-.58.24s-.42-.08-.58-.24c-.16-.16-.24-.35-.24-.58v-.45c0-.23-.08-.42-.24-.58-.16-.16-.35-.24-.58-.24h-1.05c-.23,0-.48.12-.75.36l-2.31,2v4.53c0,.23-.08.42-.24.58-.16.16-.35.24-.57.24s-.42-.08-.57-.24-.24-.35-.24-.58Z"/>
      <path class="cls-7" d="m184.22,794.47v1.96c0,.22-.08.41-.24.57s-.35.24-.57.24h-5.74v.47c0,.28.12.51.36.71l.47.4c.26.2.5.3.73.3h4.17c.22,0,.41.08.57.24.16.16.24.35.24.58s-.08.41-.25.57-.35.24-.57.24h-4.28c-.28,0-.58-.06-.89-.18s-.54-.24-.69-.37l-.72-.64c-.23-.18-.41-.43-.57-.75s-.23-.62-.23-.89v-3.72c0-.21.08-.5.25-.86.16-.36.37-.64.62-.84l.68-.53c.44-.36.94-.54,1.48-.54h2.28c.57,0,1.11.24,1.62.72l.61.58c.44.39.66.98.66,1.76Zm-6.53-.12v1.26h4.93v-1.13c0-.3-.09-.53-.28-.7l-.47-.42c-.25-.2-.46-.3-.66-.3h-2.04c-.25,0-.48.09-.69.26l-.47.4c-.21.16-.32.37-.32.63Z"/>
      <path class="cls-7" d="m196.17,794.47v1.96c0,.22-.08.41-.24.57s-.35.24-.57.24h-5.74v.47c0,.28.12.51.36.71l.47.4c.26.2.5.3.73.3h4.17c.22,0,.41.08.57.24.16.16.24.35.24.58s-.08.41-.25.57-.35.24-.57.24h-4.28c-.28,0-.58-.06-.89-.18s-.54-.24-.69-.37l-.72-.64c-.23-.18-.41-.43-.57-.75s-.23-.62-.23-.89v-3.72c0-.21.08-.5.25-.86.16-.36.37-.64.62-.84l.68-.53c.44-.36.94-.54,1.48-.54h2.28c.57,0,1.11.24,1.62.72l.61.58c.44.39.66.98.66,1.76Zm-6.53-.12v1.26h4.93v-1.13c0-.3-.09-.53-.28-.7l-.47-.42c-.25-.2-.46-.3-.66-.3h-2.04c-.25,0-.48.09-.69.26l-.47.4c-.21.16-.32.37-.32.63Z"/>
      <path class="cls-7" d="m199.95,799.93v-7.7c0-.23.08-.42.24-.58.16-.16.35-.25.57-.25s.42.08.58.24.24.36.24.59v1.01l1.32-1.13c.55-.46,1.08-.7,1.6-.7h1.19c.67,0,1.24.24,1.72.72s.71,1.05.71,1.72v.43c0,.23-.08.43-.24.59-.16.16-.35.24-.58.24s-.42-.08-.58-.24c-.16-.16-.24-.35-.24-.58v-.45c0-.23-.08-.42-.24-.58-.16-.16-.35-.24-.58-.24h-1.05c-.23,0-.48.12-.75.36l-2.31,2v4.53c0,.23-.08.42-.24.58-.16.16-.35.24-.57.24s-.42-.08-.57-.24-.24-.35-.24-.58Z"/>
      <path class="cls-7" d="m140.18,819.33v-12.03h5.76c.66,0,1.23.24,1.71.72.48.48.72,1.06.72,1.73v3.04c0,.67-.24,1.24-.71,1.72s-1.05.71-1.72.71h-4.12v4.1c0,.23-.08.42-.24.58-.16.16-.35.24-.58.24s-.43-.08-.59-.24c-.16-.16-.24-.35-.24-.58Zm1.64-5.72h4.12c.22,0,.41-.08.57-.24.16-.16.24-.35.24-.58v-3.04c0-.23-.08-.42-.24-.58-.16-.16-.35-.24-.57-.24h-4.12v4.67Z"/>
      <path class="cls-7" d="m160.31,813.75v3.43c0,.73-.34,1.4-1.03,2.02-.69.62-1.39.93-2.12.93h-1.9c-.74,0-1.45-.31-2.13-.94-.68-.63-1.01-1.3-1.01-2v-3.43c0-.71.33-1.38.99-2.01.66-.63,1.38-.94,2.15-.94h1.9c.73-.01,1.43.29,2.12.91.69.62,1.03,1.3,1.03,2.04Zm-6.55.07v3.29c0,.3.11.53.32.71l.61.52c.14.12.33.17.57.17h1.88c.28,0,.53-.1.75-.3l.49-.43c.2-.15.3-.37.3-.65v-3.29c0-.32-.1-.56-.3-.72l-.57-.45c-.19-.16-.42-.24-.68-.24h-1.68c-.37,0-.65.09-.85.26l-.55.47c-.2.17-.3.39-.3.66Z"/>
      <path class="cls-7" d="m170.64,820.12h-4.95c-.23,0-.42-.08-.58-.24s-.24-.35-.24-.58.08-.41.24-.57.35-.24.58-.24h1.66v-6.06h-1.64c-.23,0-.42-.08-.58-.24-.16-.16-.24-.35-.24-.57s.08-.42.24-.58c.16-.16.35-.25.58-.25h2.47c.22,0,.42.08.57.25.16.16.24.36.24.58v6.87h1.62c.23,0,.42.08.58.24.16.16.25.35.25.58s-.08.42-.24.58-.35.24-.57.24Zm-3.3-13.54h.85c.22,0,.42.08.57.24.16.16.24.35.24.58v.7c0,.23-.08.42-.24.58-.16.16-.35.25-.57.25h-.87c-.23,0-.43-.08-.58-.25-.16-.17-.23-.35-.23-.56l.02-.71c0-.23.08-.42.24-.58s.35-.24.58-.24Z"/>
      <path class="cls-7" d="m179.88,812.7l-2.22,1.44v5.19c0,.22-.08.41-.24.57s-.35.24-.57.24-.41-.08-.57-.24c-.16-.16-.24-.35-.24-.57v-7.7c0-.23.08-.42.24-.58.16-.16.35-.25.57-.25s.41.08.57.25.24.36.24.58v.54l1.48-.9c.5-.32,1.06-.47,1.68-.47h.75c.65,0,1.2.23,1.67.69.47.46.72,1.02.75,1.69l.22,6.16c0,.22-.07.41-.23.57s-.35.24-.58.24c-.21,0-.4-.07-.56-.22-.16-.14-.25-.34-.25-.59l-.24-6.06c-.02-.57-.32-.85-.89-.85h-.79c-.25,0-.51.09-.79.28Z"/>
      <path class="cls-7" d="m193.7,820.14h-1.62c-.67,0-1.25-.24-1.73-.71-.48-.48-.72-1.05-.72-1.72v-5.27h-.83c-.23,0-.42-.08-.58-.23-.16-.15-.24-.35-.24-.58s.08-.42.24-.58c.16-.16.35-.24.58-.24h.85v-1.99c0-.23.08-.42.24-.58s.35-.24.58-.24c.21,0,.4.08.56.24.17.16.25.35.25.57v1.99h3.27c.22,0,.41.08.57.24s.24.35.24.57-.08.42-.24.57c-.16.16-.35.24-.57.24h-3.29v5.27c0,.22.08.41.25.57s.36.24.58.24h1.58c.43,0,.72-.23.86-.7.14-.47.42-.7.82-.7.24,0,.43.08.58.24.15.16.23.36.23.59,0,.49-.23.98-.69,1.46s-1.05.73-1.76.73Z"/>
    </g>
    <g>
      <path class="cls-6" d="m14.92,335.58v2.52c0,.34.1.64.31.9l1.56,2c.08.09.11.21.11.38,0,.21-.07.37-.2.49-.14.12-.29.18-.48.18-.19,0-.34-.07-.45-.2l-1.58-2.02c-.4-.49-.59-1.02-.59-1.59v-2.8c0-.55.2-1.08.59-1.59l1.58-2.02c.11-.14.25-.2.44-.2s.34.06.48.18c.14.12.21.29.21.5,0,.16-.04.28-.12.37l-1.56,1.99c-.2.27-.31.57-.31.91Z"/>
      <path class="cls-6" d="m21.28,341.37v-9.73h5.95c.17,0,.32.07.46.2.13.13.2.28.2.46s-.07.34-.2.47-.28.2-.46.2h-4.64v2.06h3.33c.18,0,.34.06.46.19.13.13.19.28.19.46s-.06.34-.19.46c-.13.13-.28.19-.46.19h-3.33v5.02c0,.18-.06.34-.19.46-.13.13-.28.19-.46.19s-.34-.06-.46-.19c-.13-.13-.19-.28-.19-.46Z"/>
      <path class="cls-6" d="m36.24,342.01h-4c-.18,0-.34-.06-.46-.19-.13-.13-.19-.28-.19-.46s.06-.33.19-.46c.13-.13.28-.2.46-.2h1.34v-4.9h-1.33c-.18,0-.34-.06-.46-.2-.13-.13-.19-.28-.19-.46s.06-.34.19-.47.28-.2.46-.2h2c.18,0,.34.07.46.2s.19.29.19.47v5.55h1.31c.18,0,.34.06.47.19.13.13.2.28.2.46s-.07.34-.2.46c-.13.13-.28.19-.46.19Zm-2.67-10.95h.69c.18,0,.34.06.46.19.13.13.19.28.19.46v.56c0,.18-.06.34-.19.47s-.28.2-.46.2h-.7c-.19,0-.34-.07-.47-.2-.13-.14-.19-.29-.18-.45l.02-.58c0-.18.06-.34.19-.46.13-.13.28-.19.46-.19Z"/>
      <path class="cls-6" d="m43.72,336.01l-1.79,1.16v4.2c0,.18-.07.33-.2.46-.13.13-.28.2-.46.2s-.33-.06-.46-.2c-.13-.13-.2-.28-.2-.46v-6.23c0-.18.06-.34.19-.47s.28-.2.46-.2.33.07.46.2.2.29.2.47v.44l1.2-.73c.4-.25.86-.38,1.36-.38h.61c.52,0,.97.19,1.35.55.38.37.58.83.6,1.37l.18,4.98c0,.18-.06.33-.19.46-.13.13-.29.2-.47.2-.17,0-.32-.06-.45-.18s-.2-.28-.2-.48l-.2-4.9c-.02-.46-.26-.69-.72-.69h-.64c-.2,0-.41.08-.64.23Z"/>
      <path class="cls-6" d="m55.56,335.4v-3.1c0-.18.06-.34.19-.46.12-.13.28-.19.45-.19s.34.06.47.19c.13.13.2.28.2.46v9.07c0,.18-.07.34-.2.46-.13.13-.28.19-.46.19-.19,0-.34-.06-.47-.19-.12-.13-.19-.28-.19-.46v-.29c-.64.63-1.24.95-1.8.95h-1.12c-.45,0-.9-.19-1.34-.58l-.55-.46c-.12-.12-.24-.32-.36-.6s-.17-.54-.17-.79v-2.67c0-.3.06-.58.19-.86.12-.28.27-.49.44-.63l.54-.46c.39-.33.84-.5,1.36-.5h.95c.52,0,.98.18,1.41.55l.45.38Zm-1.91.4h-.91c-.19,0-.37.07-.52.21l-.42.37c-.15.13-.22.3-.22.5v2.78c0,.18.09.35.26.49l.43.37c.14.12.28.18.43.18h1.07c.14,0,.31-.08.5-.24l1.04-.86c.17-.15.26-.34.26-.56v-1.42c0-.32-.09-.55-.27-.7l-1.07-.91c-.14-.13-.33-.2-.56-.2Z"/>
      <path class="cls-6" d="m65.24,342.01h-4c-.18,0-.34-.06-.46-.19-.13-.13-.19-.28-.19-.46s.06-.33.19-.46c.13-.13.28-.2.46-.2h1.34v-4.9h-1.33c-.18,0-.34-.06-.46-.2-.13-.13-.19-.28-.19-.46s.06-.34.19-.47.28-.2.46-.2h2c.18,0,.34.07.46.2s.19.29.19.47v5.55h1.31c.18,0,.34.06.47.19.13.13.2.28.2.46s-.07.34-.2.46c-.13.13-.28.19-.46.19Zm-2.67-10.95h.69c.18,0,.34.06.46.19.13.13.19.28.19.46v.56c0,.18-.06.34-.19.47s-.28.2-.46.2h-.7c-.19,0-.34-.07-.47-.2-.13-.14-.19-.29-.18-.45l.02-.58c0-.18.06-.34.19-.46.13-.13.28-.19.46-.19Z"/>
      <path class="cls-6" d="m72.71,336.01l-1.79,1.16v4.2c0,.18-.07.33-.2.46-.13.13-.28.2-.46.2s-.33-.06-.46-.2c-.13-.13-.2-.28-.2-.46v-6.23c0-.18.06-.34.19-.47s.28-.2.46-.2.33.07.46.2.2.29.2.47v.44l1.2-.73c.4-.25.86-.38,1.36-.38h.61c.52,0,.97.19,1.35.55.38.37.58.83.6,1.37l.18,4.98c0,.18-.06.33-.19.46-.13.13-.29.2-.47.2-.17,0-.32-.06-.45-.18s-.2-.28-.2-.48l-.2-4.9c-.02-.46-.26-.69-.72-.69h-.64c-.2,0-.41.08-.64.23Z"/>
      <path class="cls-6" d="m83.39,344.84h-2.84c-.18,0-.34-.06-.46-.19s-.19-.28-.19-.47.06-.34.19-.46.28-.19.46-.19h2.84c.17,0,.33-.07.48-.2l.45-.38c.15-.11.23-.27.23-.45v-2c-.61.62-1.21.93-1.8.93h-1.01c-.52,0-.99-.18-1.41-.54l-.49-.44c-.16-.14-.3-.33-.42-.59-.12-.26-.18-.52-.18-.77v-2.17c0-.31.06-.6.18-.88.12-.28.26-.48.42-.62l.54-.46c.39-.33.84-.5,1.36-.5h.95c.52,0,.98.18,1.41.55l.45.38-.02-.26c0-.18.07-.33.2-.46.13-.13.28-.2.46-.2s.34.06.47.19c.13.13.2.28.2.46v7.36c0,.56-.22,1.03-.67,1.43l-.53.46c-.14.12-.33.22-.57.31-.25.09-.48.13-.69.13Zm-.75-9.05h-.88c-.19,0-.38.08-.55.23l-.41.34c-.16.13-.23.31-.23.53v2.19c0,.18.09.34.26.5l.43.38c.14.11.28.17.43.17h1.07c.16,0,.33-.08.52-.23l1.04-.88c.16-.14.24-.31.24-.52v-.99c0-.24-.09-.43-.27-.59l-1.07-.91c-.15-.14-.34-.21-.56-.21Z"/>
      <path class="cls-6" d="m105.21,336.85v2.77c0,.59-.28,1.13-.83,1.63s-1.13.75-1.71.75h-1.54c-.6,0-1.17-.25-1.72-.76s-.82-1.05-.82-1.62v-2.77c0-.57.27-1.11.8-1.62s1.11-.76,1.74-.76h1.54c.59-.01,1.16.23,1.71.73s.83,1.05.83,1.65Zm-5.3.05v2.66c0,.24.09.43.26.57l.49.42c.11.09.26.14.46.14h1.52c.22,0,.43-.08.61-.24l.4-.35c.16-.12.24-.3.24-.52v-2.66c0-.26-.08-.45-.24-.58l-.46-.37c-.16-.13-.34-.2-.55-.2h-1.36c-.3,0-.53.07-.69.21l-.45.38c-.16.14-.24.31-.24.53Z"/>
      <path class="cls-6" d="m111.37,336.01l-1.79,1.16v4.2c0,.18-.07.33-.2.46-.13.13-.28.2-.46.2s-.33-.06-.46-.2c-.13-.13-.2-.28-.2-.46v-6.23c0-.18.06-.34.19-.47s.28-.2.46-.2.33.07.46.2.2.29.2.47v.44l1.2-.73c.4-.25.86-.38,1.36-.38h.61c.52,0,.97.19,1.35.55.38.37.58.83.6,1.37l.18,4.98c0,.18-.06.33-.19.46-.13.13-.29.2-.47.2-.17,0-.32-.06-.45-.18s-.2-.28-.2-.48l-.2-4.9c-.02-.46-.26-.69-.72-.69h-.64c-.2,0-.41.08-.64.23Z"/>
      <path class="cls-6" d="m124.53,336.95v1.59c0,.18-.07.33-.2.46-.13.13-.28.2-.46.2h-4.64v.38c0,.22.1.41.29.57l.38.32c.21.16.41.24.59.24h3.38c.18,0,.33.06.46.19.13.13.2.28.2.46s-.07.33-.2.46c-.13.13-.29.2-.46.2h-3.46c-.23,0-.47-.05-.72-.14-.25-.1-.44-.2-.56-.3l-.59-.52c-.18-.15-.33-.35-.46-.61-.12-.26-.18-.5-.18-.72v-3.01c0-.17.07-.4.2-.7.13-.29.3-.52.5-.68l.55-.43c.36-.29.76-.44,1.2-.44h1.84c.46,0,.9.19,1.31.58l.49.47c.35.32.53.79.53,1.42Zm-5.28-.1v1.02h3.98v-.91c0-.24-.08-.43-.23-.56l-.38-.34c-.2-.16-.38-.24-.53-.24h-1.65c-.2,0-.39.07-.55.21l-.38.32c-.17.13-.26.3-.26.51Z"/>
      <path class="cls-6" d="m132.87,335.72c0,.18-.06.34-.19.46-.13.13-.28.19-.46.19s-.34-.06-.46-.19c-.13-.13-.19-.28-.19-.46v-2.75h-2c-.18,0-.34-.07-.46-.2s-.19-.29-.19-.47.07-.33.2-.46c.13-.13.28-.2.46-.2h2.66c.18,0,.34.07.46.2.13.13.19.29.19.48v3.41Z"/>
      <path class="cls-6" d="m139.09,334.48h3.01c.47,0,.88.14,1.24.42.36.28.54.55.54.82,0,.19-.07.34-.2.46-.13.12-.28.18-.44.18-.21,0-.4-.09-.57-.28s-.35-.28-.54-.28h-2.97c-.29,0-.44.12-.44.36,0,.17.1.3.29.39l3.49,1.55c.35.16.64.41.87.75.23.35.34.73.34,1.15,0,.56-.2,1.04-.6,1.43s-.85.59-1.36.59h-2.66c-.46,0-.88-.14-1.28-.41-.39-.28-.59-.54-.59-.8,0-.17.06-.32.19-.46s.29-.2.5-.2c.17,0,.34.09.54.28s.46.28.82.28h2.45c.19,0,.35-.07.48-.22s.2-.32.2-.51c0-.3-.15-.51-.44-.64l-3.52-1.59c-.34-.15-.6-.37-.78-.66-.18-.29-.27-.58-.27-.88,0-.47.16-.88.49-1.22s.73-.52,1.21-.52Z"/>
      <path class="cls-6" d="m157.91,341.27v2.91c0,.19-.06.35-.19.48-.13.13-.28.2-.46.2s-.34-.07-.47-.2c-.13-.13-.2-.29-.2-.48v-9.36c0-.18.07-.33.2-.46.13-.13.29-.2.48-.2.18,0,.33.07.46.2.13.13.2.28.2.46v.42c.64-.71,1.26-1.06,1.88-1.06h.3c.46,0,.89.17,1.28.52l1.09.95c.48.42.72.95.72,1.59v2.05c0,.65-.26,1.19-.77,1.63l-1.07.92c-.35.32-.8.48-1.34.48h-.29c-.51,0-.94-.18-1.3-.53l-.51-.51Zm1.85-.29h.34c.16,0,.33-.08.52-.24l1.02-.9c.17-.14.26-.32.26-.55v-2.12c0-.21-.1-.39-.29-.55l-1.1-.95c-.12-.11-.26-.16-.41-.16h-.38c-.15,0-.34.12-.57.36l-.98.97c-.17.17-.26.36-.26.58v1.68c0,.2.1.4.29.59l.95.95c.23.23.44.35.62.35Z"/>
      <path class="cls-6" d="m168.2,337.29h2.57c.14,0,.34.03.61.09l-.02-.93c0-.18-.06-.34-.19-.46-.13-.13-.28-.19-.47-.19h-2.5c-.18,0-.33-.06-.46-.2-.13-.13-.2-.28-.2-.46s.06-.34.19-.46c.13-.13.28-.19.47-.19h2.5c.54,0,1,.19,1.39.57.38.38.58.85.6,1.4l.16,4.91c0,.18-.07.34-.2.46-.13.13-.28.19-.46.19-.19,0-.35-.06-.48-.19-.13-.13-.2-.28-.2-.46l-1.11.66h-2.22c-.55,0-1.02-.19-1.41-.58-.39-.39-.58-.85-.58-1.41v-.77c0-.55.19-1.01.58-1.4.39-.39.86-.58,1.4-.58Zm3.28,2.55l-.04-.55c0-.19-.07-.34-.2-.47s-.28-.19-.46-.19h-2.59c-.18,0-.34.06-.47.19-.13.13-.19.28-.19.46v.73c0,.18.07.33.2.46.13.13.28.2.46.2h1.85l1.43-.84Z"/>
      <path class="cls-6" d="m180.52,342.02h-1.31c-.54,0-1.01-.19-1.4-.58-.39-.39-.59-.85-.59-1.39v-4.26h-.67c-.18,0-.34-.06-.46-.19s-.19-.28-.19-.47.06-.34.19-.46c.13-.13.28-.19.46-.19h.69v-1.61c0-.18.06-.34.19-.46.13-.13.28-.19.46-.19.17,0,.32.07.46.2.13.13.2.28.2.46v1.61h2.64c.18,0,.33.07.46.2.13.13.2.28.2.46s-.07.34-.2.46c-.13.13-.28.19-.46.19h-2.66v4.26c0,.18.07.33.2.46.13.13.29.2.47.2h1.28c.35,0,.58-.19.7-.57.11-.38.34-.57.66-.57.19,0,.35.06.47.19.12.13.18.29.18.48,0,.4-.19.79-.56,1.18-.37.39-.85.59-1.43.59Z"/>
      <path class="cls-6" d="m185.56,341.37v-9.07c0-.18.06-.33.19-.45s.28-.19.46-.19.34.06.46.19c.13.13.19.28.19.46v3.31l1.05-.69c.48-.3.91-.45,1.28-.45h.81c.54,0,1,.19,1.38.57s.59.85.6,1.39l.16,4.91c0,.18-.06.34-.19.46-.13.13-.29.19-.47.19s-.34-.07-.46-.2-.19-.29-.2-.46l-.16-4.93c0-.18-.07-.33-.2-.46-.13-.13-.29-.2-.47-.2h-.73c-.17,0-.35.07-.55.2l-1.87,1.22v4.17c0,.18-.06.34-.19.46-.13.13-.28.19-.46.19s-.34-.06-.46-.19c-.13-.13-.19-.28-.19-.46Z"/>
      <path class="cls-6" d="m198.64,338.1v-2.54c0-.33-.11-.63-.32-.9l-1.57-1.99c-.08-.1-.11-.22-.11-.37,0-.2.07-.37.21-.49.14-.13.3-.19.47-.19s.33.07.44.2l1.6,2.02c.39.48.58,1.01.58,1.59v2.8c0,.58-.19,1.11-.58,1.59l-1.6,2.02c-.11.14-.26.2-.45.2-.18,0-.33-.06-.47-.19-.14-.12-.2-.29-.2-.5,0-.16.04-.28.11-.37l1.57-1.99c.21-.26.32-.56.32-.9Z"/>
    </g>
  </g>
  <g id="Layer_6" data-name="Layer 6">
    <circle cx="210.59" cy="232.9" r="15.86"/>
    <circle cx="438.66" cy="171.65" r="15.86"/>
    <circle cx="454.93" cy="368.67" r="15.86"/>
    <circle cx="276.2" cy="543.84" r="15.86"/>
    <circle cx="530.68" cy="739.85" r="15.86"/>
    <circle cx="236.18" cy="801.74" r="15.86"/>
    <circle cx="90.56" cy="801.74" r="15.86"/>
    <circle cx="323.84" cy="994.6" r="15.86"/>
    <circle cx="665.19" cy="927.43" r="15.86"/>
    <circle cx="96.99" cy="543.84" r="15.86"/>
    <circle cx="667.46" cy="464.9" r="15.86"/>
    <circle cx="667.46" cy="580.13" r="15.86"/>
  </g>
  <g id="network">
    <line class="cls-1" x1="210.18" y1="232.9" x2="438.25" y2="168.57"/>
    <line class="cls-1" x1="454.93" y1="368.67" x2="210.18" y2="232.9"/>
    <line class="cls-1" x1="438.25" y1="168.57" x2="454.93" y2="368.67"/>
    <line class="cls-1" x1="530.28" y1="739.85" x2="667.05" y2="580.13"/>
    <line class="cls-1" x1="235.77" y1="801.74" x2="665.19" y2="927.43"/>
    <line class="cls-1" x1="323.84" y1="994.6" x2="236.18" y2="803.27"/>
    <line class="cls-1" x1="663.89" y1="927.1" x2="323.84" y2="994.6"/>
    <line class="cls-1" x1="273.33" y1="543.84" x2="530.28" y2="739.85"/>
    <line class="cls-1" x1="667.46" y1="458.97" x2="667.05" y2="580.13"/>
    <line class="cls-1" x1="273.33" y1="543.84" x2="661.19" y2="464.9"/>
    <line class="cls-1" x1="667.05" y1="580.13" x2="275.8" y2="543.28"/>
    <line class="cls-1" x1="96.99" y1="543.84" x2="90.56" y2="801.74"/>
  </g>
  <g id="number">
    <path class="cls-6" d="m215.23,227.04v3.66c0,.85-.26,1.54-.79,2.07.54.6.81,1.26.81,1.97v3.81c0,.53-.19.99-.58,1.38-.39.38-.85.57-1.39.57h-6.9c-.27,0-.5-.09-.69-.28-.19-.19-.29-.42-.29-.69s.09-.5.29-.69c.19-.19.42-.28.69-.28h6.88v-3.81c0-.27-.09-.51-.28-.7-.19-.2-.42-.3-.69-.3h-3.93c-.27,0-.5-.09-.69-.28-.19-.19-.29-.42-.29-.7s.09-.5.29-.69c.19-.19.42-.28.69-.28h3.95c.26,0,.49-.09.68-.28.19-.19.29-.42.29-.69v-3.78h-6.97c-.27,0-.5-.09-.69-.28-.19-.19-.28-.42-.28-.69s.09-.5.28-.69c.19-.19.42-.28.69-.28h6.97c.54,0,1,.19,1.38.57.38.38.57.84.57,1.38Z"/>
    <path class="cls-6" d="m443.3,165.79v3.66c0,.85-.26,1.54-.79,2.07.54.6.81,1.26.81,1.97v3.81c0,.53-.19.99-.58,1.38-.39.38-.85.57-1.39.57h-6.9c-.27,0-.5-.09-.69-.28-.19-.19-.29-.42-.29-.69s.09-.5.29-.69c.19-.19.42-.28.69-.28h6.88v-3.81c0-.27-.09-.51-.28-.7-.19-.2-.42-.3-.69-.3h-3.93c-.27,0-.5-.09-.69-.28-.19-.19-.29-.42-.29-.7s.09-.5.29-.69c.19-.19.42-.28.69-.28h3.95c.26,0,.49-.09.68-.28.19-.19.29-.42.29-.69v-3.78h-6.97c-.27,0-.5-.09-.69-.28-.19-.19-.28-.42-.28-.69s.09-.5.28-.69c.19-.19.42-.28.69-.28h6.97c.54,0,1,.19,1.38.57.38.38.57.84.57,1.38Z"/>
    <path class="cls-6" d="m459.57,362.81v3.66c0,.85-.26,1.54-.79,2.07.54.6.81,1.26.81,1.97v3.81c0,.53-.19.99-.58,1.38-.39.38-.85.57-1.39.57h-6.9c-.27,0-.5-.09-.69-.28-.19-.19-.29-.42-.29-.69s.09-.5.29-.69c.19-.19.42-.28.69-.28h6.88v-3.81c0-.27-.09-.51-.28-.7-.19-.2-.42-.3-.69-.3h-3.93c-.27,0-.5-.09-.69-.28-.19-.19-.29-.42-.29-.7s.09-.5.29-.69c.19-.19.42-.28.69-.28h3.95c.26,0,.49-.09.68-.28.19-.19.29-.42.29-.69v-3.78h-6.97c-.27,0-.5-.09-.69-.28-.19-.19-.28-.42-.28-.69s.09-.5.28-.69c.19-.19.42-.28.69-.28h6.97c.54,0,1,.19,1.38.57.38.38.57.84.57,1.38Z"/>
    <path class="cls-6" d="m280.84,537.98v3.66c0,.85-.26,1.54-.79,2.07.54.6.81,1.26.81,1.97v3.81c0,.53-.19.99-.58,1.38-.39.38-.85.58-1.39.58h-6.9c-.27,0-.5-.09-.69-.28s-.29-.42-.29-.69.09-.5.29-.69c.19-.19.42-.28.69-.28h6.88v-3.81c0-.27-.09-.5-.28-.7-.19-.2-.42-.3-.69-.3h-3.93c-.27,0-.5-.09-.69-.28-.19-.19-.29-.42-.29-.7s.09-.5.29-.69.42-.28.69-.28h3.95c.26,0,.49-.09.68-.29.19-.19.29-.42.29-.69v-3.78h-6.97c-.27,0-.5-.09-.69-.28-.19-.19-.28-.42-.28-.69s.09-.5.28-.69.42-.28.69-.28h6.97c.54,0,1,.19,1.38.57.38.38.57.84.57,1.38Z"/>
    <path class="cls-6" d="m535.32,733.99v3.66c0,.85-.26,1.54-.79,2.07.54.6.81,1.26.81,1.97v3.81c0,.53-.19.99-.58,1.38-.39.38-.85.57-1.39.57h-6.9c-.27,0-.5-.09-.69-.28-.19-.19-.29-.42-.29-.69s.09-.5.29-.69c.19-.19.42-.29.69-.29h6.88v-3.81c0-.27-.09-.51-.28-.7-.19-.2-.42-.3-.69-.3h-3.93c-.27,0-.5-.09-.69-.28-.19-.19-.29-.42-.29-.7s.09-.5.29-.69c.19-.19.42-.29.69-.29h3.95c.26,0,.49-.09.68-.28.19-.19.29-.42.29-.69v-3.78h-6.97c-.27,0-.5-.09-.69-.28s-.28-.42-.28-.69.09-.5.28-.69c.19-.19.42-.29.69-.29h6.97c.54,0,1,.19,1.38.58.38.38.57.84.57,1.38Z"/>
    <path class="cls-6" d="m240.82,795.88v3.66c0,.85-.26,1.54-.79,2.07.54.6.81,1.26.81,1.97v3.81c0,.53-.19.99-.58,1.38-.39.38-.85.57-1.39.57h-6.9c-.27,0-.5-.09-.69-.28-.19-.19-.29-.42-.29-.69s.09-.5.29-.69c.19-.19.42-.29.69-.29h6.88v-3.81c0-.27-.09-.51-.28-.7-.19-.2-.42-.3-.69-.3h-3.93c-.27,0-.5-.09-.69-.28-.19-.19-.29-.42-.29-.7s.09-.5.29-.69c.19-.19.42-.29.69-.29h3.95c.26,0,.49-.09.68-.28.19-.19.29-.42.29-.69v-3.78h-6.97c-.27,0-.5-.09-.69-.28s-.28-.42-.28-.69.09-.5.28-.69c.19-.19.42-.29.69-.29h6.97c.54,0,1,.19,1.38.58.38.38.57.84.57,1.38Z"/>
    <path class="cls-6" d="m95.2,795.88v3.66c0,.85-.26,1.54-.79,2.07.54.6.81,1.26.81,1.97v3.81c0,.53-.19.99-.58,1.38-.39.38-.85.57-1.39.57h-6.9c-.27,0-.5-.09-.69-.28-.19-.19-.29-.42-.29-.69s.09-.5.29-.69c.19-.19.42-.29.69-.29h6.88v-3.81c0-.27-.09-.51-.28-.7-.19-.2-.42-.3-.69-.3h-3.93c-.27,0-.5-.09-.69-.28-.19-.19-.29-.42-.29-.7s.09-.5.29-.69c.19-.19.42-.29.69-.29h3.95c.26,0,.49-.09.68-.28.19-.19.29-.42.29-.69v-3.78h-6.97c-.27,0-.5-.09-.69-.28s-.28-.42-.28-.69.09-.5.28-.69c.19-.19.42-.29.69-.29h6.97c.54,0,1,.19,1.38.58.38.38.57.84.57,1.38Z"/>
    <path class="cls-6" d="m328.49,988.74v3.66c0,.85-.26,1.54-.79,2.07.54.6.81,1.26.81,1.97v3.81c0,.53-.19.99-.58,1.38-.39.38-.85.58-1.39.58h-6.9c-.27,0-.5-.09-.69-.28s-.29-.42-.29-.69.09-.5.29-.69c.19-.19.42-.28.69-.28h6.88v-3.81c0-.27-.09-.5-.28-.7-.19-.2-.42-.3-.69-.3h-3.93c-.27,0-.5-.09-.69-.28-.19-.19-.29-.42-.29-.7s.09-.5.29-.69.42-.28.69-.28h3.95c.26,0,.49-.09.68-.29.19-.19.29-.42.29-.69v-3.78h-6.97c-.27,0-.5-.09-.69-.28-.19-.19-.28-.42-.28-.69s.09-.5.28-.69.42-.28.69-.28h6.97c.54,0,1,.19,1.38.57.38.38.57.84.57,1.38Z"/>
    <path class="cls-6" d="m669.83,921.57v3.66c0,.85-.26,1.54-.79,2.07.54.6.81,1.26.81,1.97v3.81c0,.53-.19.99-.58,1.38-.39.38-.85.57-1.39.57h-6.9c-.27,0-.5-.09-.69-.28-.19-.19-.29-.42-.29-.69s.09-.5.29-.69c.19-.19.42-.29.69-.29h6.88v-3.81c0-.27-.09-.51-.28-.7-.19-.2-.42-.3-.69-.3h-3.93c-.27,0-.5-.09-.69-.28-.19-.19-.29-.42-.29-.7s.09-.5.29-.69c.19-.19.42-.29.69-.29h3.95c.26,0,.49-.09.68-.28.19-.19.29-.42.29-.69v-3.78h-6.97c-.27,0-.5-.09-.69-.28s-.28-.42-.28-.69.09-.5.28-.69c.19-.19.42-.29.69-.29h6.97c.54,0,1,.19,1.38.58.38.38.57.84.57,1.38Z"/>
    <path class="cls-6" d="m101.63,537.98v3.66c0,.85-.26,1.54-.79,2.07.54.6.81,1.26.81,1.97v3.81c0,.53-.19.99-.58,1.38-.39.38-.85.58-1.39.58h-6.9c-.27,0-.5-.09-.69-.28s-.29-.42-.29-.69.09-.5.29-.69c.19-.19.42-.28.69-.28h6.88v-3.81c0-.27-.09-.5-.28-.7-.19-.2-.42-.3-.69-.3h-3.93c-.27,0-.5-.09-.69-.28-.19-.19-.29-.42-.29-.7s.09-.5.29-.69.42-.28.69-.28h3.95c.26,0,.49-.09.68-.29.19-.19.29-.42.29-.69v-3.78h-6.97c-.27,0-.5-.09-.69-.28-.19-.19-.28-.42-.28-.69s.09-.5.28-.69.42-.28.69-.28h6.97c.54,0,1,.19,1.38.57.38.38.57.84.57,1.38Z"/>
    <path class="cls-6" d="m672.1,459.05v3.66c0,.85-.26,1.54-.79,2.07.54.6.81,1.26.81,1.97v3.81c0,.53-.19.99-.58,1.38-.39.38-.85.58-1.39.58h-6.9c-.27,0-.5-.09-.69-.28s-.29-.42-.29-.69.09-.5.29-.69c.19-.19.42-.28.69-.28h6.88v-3.81c0-.27-.09-.5-.28-.7-.19-.2-.42-.3-.69-.3h-3.93c-.27,0-.5-.09-.69-.28-.19-.19-.29-.42-.29-.7s.09-.5.29-.69.42-.28.69-.28h3.95c.26,0,.49-.09.68-.29.19-.19.29-.42.29-.69v-3.78h-6.97c-.27,0-.5-.09-.69-.28-.19-.19-.28-.42-.28-.69s.09-.5.28-.69.42-.28.69-.28h6.97c.54,0,1,.19,1.38.57.38.38.57.84.57,1.38Z"/>
    <path class="cls-6" d="m672.1,574.27v3.66c0,.85-.26,1.54-.79,2.07.54.6.81,1.26.81,1.97v3.81c0,.53-.19.99-.58,1.38-.39.38-.85.57-1.39.57h-6.9c-.27,0-.5-.09-.69-.28-.19-.19-.29-.42-.29-.69s.09-.5.29-.69c.19-.19.42-.29.69-.29h6.88v-3.81c0-.27-.09-.51-.28-.7-.19-.2-.42-.3-.69-.3h-3.93c-.27,0-.5-.09-.69-.28-.19-.19-.29-.42-.29-.7s.09-.5.29-.69c.19-.19.42-.29.69-.29h3.95c.26,0,.49-.09.68-.28.19-.19.29-.42.29-.69v-3.78h-6.97c-.27,0-.5-.09-.69-.28s-.28-.42-.28-.69.09-.5.28-.69c.19-.19.42-.29.69-.29h6.97c.54,0,1,.19,1.38.58.38.38.57.84.57,1.38Z"/>
    <g>
      <circle cx="329.66" cy="299.18" r="9.27"/>
      <path class="cls-7" d="m327.72,295.28h4.49v.63l-3.62,6.17h3.12c.14,0,.25.05.35.14s.14.21.14.35-.05.25-.15.35-.21.15-.35.15h-4.48v-.65l3.61-6.14h-3.13c-.13,0-.25-.05-.34-.15s-.14-.22-.14-.35.05-.25.14-.35.21-.15.34-.15Z"/>
    </g>
    <g>
      <circle cx="496.92" cy="502.07" r="9.27"/>
      <path class="cls-7" d="m497.36,498.18h1.63c.14,0,.25.05.35.14s.14.21.14.35c0,.14-.05.26-.16.36s-.22.14-.34.14h-1.56c-.15,0-.29.07-.4.21l-1.38,1.78c-.12.14-.18.34-.17.59v2.73c0,.14.05.26.14.36s.21.15.35.15h2c.13,0,.25-.05.35-.15s.15-.21.15-.35v-1.07h-1.02c-.14,0-.26-.05-.35-.14s-.14-.21-.14-.35.05-.25.14-.35.21-.14.35-.14h2v2.05c0,.41-.14.75-.43,1.04s-.64.43-1.04.43h-2c-.41,0-.76-.14-1.05-.43s-.44-.64-.44-1.04v-2.72c0-.49.13-.9.39-1.24l1.45-1.85c.11-.14.25-.26.44-.36s.39-.15.59-.15Z"/>
    </g>
    <g>
      <circle cx="499.94" cy="562.65" r="9.27"/>
      <path class="cls-7" d="m498.01,558.75h3.98c.13,0,.24.05.34.15s.15.21.15.35-.05.25-.15.35-.21.15-.35.15h-1.49v5.81h1.49c.14,0,.25.05.35.14s.14.21.14.35-.05.25-.15.35-.21.14-.35.14h-3.98c-.14,0-.25-.05-.35-.14s-.14-.21-.14-.35.05-.25.14-.35.21-.14.35-.14h1.51v-5.81h-1.51c-.14,0-.25-.05-.35-.15s-.14-.21-.14-.35c0-.14.05-.26.14-.36s.21-.15.35-.15Z"/>
    </g>
    <g>
      <circle cx="402.8" cy="642.84" r="9.27"/>
      <path class="cls-7" d="m400.38,646.25v-6.79c0-.14.05-.26.14-.36s.21-.15.35-.15.25.05.35.14.14.21.14.35v2.33l3.15-2.69c.11-.09.23-.13.37-.13.14,0,.25.05.35.15.09.1.14.22.14.35,0,.14-.06.25-.16.34l-3.57,3.04,3.58,3.09c.1.08.15.19.14.32,0,.13-.05.25-.14.35s-.21.16-.35.16c-.13,0-.25-.04-.36-.13l-3.14-2.7v2.35c0,.14-.05.25-.14.35-.1.1-.21.14-.35.14s-.25-.05-.35-.14-.15-.21-.15-.35Z"/>
    </g>
    <g>
      <circle cx="450.48" cy="863.47" r="9.27"/>
      <path class="cls-6" d="m448.1,866.68l1.98-6.74c.08-.24.25-.37.5-.37s.4.1.46.31l1.96,6.84c.02.05.02.1.02.15,0,.14-.05.25-.14.35s-.2.14-.32.14c-.26,0-.42-.12-.49-.36l-.39-1.34h-2.25l-.43,1.43c-.01.06-.06.12-.15.18-.09.06-.18.08-.28.08-.15,0-.27-.05-.36-.15-.09-.1-.14-.22-.14-.36,0-.06,0-.12.03-.18Zm2.47-4.82l-.84,2.82h1.67l-.82-2.82Z"/>
    </g>
    <g>
      <circle cx="487.33" cy="962.15" r="9.27"/>
      <path class="cls-6" d="m489.87,963.63v.43c0,.54-.19,1.01-.58,1.4s-.85.58-1.39.58h-3.01v-7.79h3.01c.54,0,1.01.19,1.39.58s.58.85.58,1.4v.42c0,.58-.22,1.08-.67,1.49.45.42.67.91.67,1.49Zm-1.01-2.99v-.4c0-.27-.1-.51-.29-.7s-.42-.29-.69-.29h-2v2.38h2c.27,0,.5-.1.69-.29s.29-.42.29-.69Zm0,3.42v-.41c0-.27-.1-.51-.29-.7s-.42-.29-.69-.29h-1.99v2.39h1.99c.27,0,.5-.1.69-.29s.29-.42.29-.69Z"/>
    </g>
    <g>
      <circle cx="283.05" cy="905.57" r="9.27"/>
      <path class="cls-7" d="m282.34,908.48h1.78c.14,0,.25.05.35.14s.15.21.15.35-.05.25-.15.35-.22.14-.35.14h-1.84c-.23,0-.48-.07-.73-.22s-.42-.31-.52-.5l-1.14-2.2c-.15-.32-.23-.64-.23-.97,0-.37.07-.69.22-.96l1.15-2.17c.11-.2.28-.38.51-.54s.45-.23.67-.23h1.95c.14,0,.25.05.35.15s.14.21.14.35-.05.25-.14.35-.21.15-.35.15h-1.87c-.16,0-.28.09-.38.28l-1.09,2.04c-.09.16-.13.35-.13.57,0,.23.05.43.14.61l1.04,2c.1.21.26.31.48.31Z"/>
    </g>
    <g>
      <circle cx="93.78" cy="675.68" r="9.27"/>
      <path class="cls-7" d="m91.85,671.78h3.98c.13,0,.24.05.34.15s.15.21.15.35-.05.25-.15.35-.21.15-.35.15h-1.49v5.81h1.49c.14,0,.25.05.35.14s.14.21.14.35-.05.25-.15.35-.21.14-.35.14h-3.98c-.14,0-.25-.05-.35-.14s-.14-.21-.14-.35.05-.25.14-.35.21-.14.35-.14h1.51v-5.81h-1.51c-.14,0-.25-.05-.35-.15s-.14-.21-.14-.35c0-.14.05-.26.14-.36s.21-.15.35-.15Z"/>
    </g>
    <g>
      <circle cx="598.66" cy="659.99" r="9.27"/>
      <path class="cls-7" d="m596.73,662.39v-1.56c0-.14.05-.25.14-.35s.21-.14.35-.14.25.05.35.14.14.21.14.35v1.57c0,.13.05.25.15.34s.22.14.36.14h1c.14,0,.25-.05.35-.14s.15-.21.15-.35v-5.81c0-.14.05-.25.14-.35s.21-.14.34-.14.25.05.35.16.15.22.15.36v5.78c0,.41-.15.77-.45,1.05s-.65.43-1.04.43h-1c-.41,0-.76-.15-1.05-.44s-.44-.64-.44-1.05Z"/>
    </g>
    <g>
      <circle cx="667.25" cy="522.51" r="9.27"/>
      <path class="cls-6" d="m664.81,525.92v-6.8c0-.13.05-.25.14-.35s.21-.15.35-.15.25.05.35.15.15.21.15.35v2.9h3v-2.9c0-.13.05-.25.14-.35s.21-.15.35-.15.25.05.35.15.14.22.14.36v6.79c0,.13-.05.25-.15.35s-.21.15-.34.15c-.14,0-.26-.05-.35-.14s-.14-.21-.14-.35v-2.92h-2.99v2.92c0,.13-.05.25-.15.35s-.22.15-.35.15-.25-.05-.35-.14-.15-.21-.15-.35Z"/>
    </g>
    <g>
      <circle cx="326.41" cy="200.74" r="9.27"/>
      <path class="cls-6" d="m326.57,201.72l-1.57,2.68c-.09.16-.23.23-.42.23-.14,0-.26-.05-.36-.15s-.15-.21-.15-.33c0-.09.03-.19.09-.29l1.84-3.12-1.8-3.08c-.07-.12-.11-.23-.11-.33,0-.12.05-.24.15-.33.1-.1.21-.14.34-.14.19,0,.33.08.42.24l1.59,2.66,1.56-2.65c.1-.16.24-.25.42-.25.14,0,.26.05.36.14.1.09.15.21.15.34,0,.09-.03.18-.08.27l-1.85,3.15,1.84,3.15c.05.08.07.16.07.25,0,.14-.05.26-.14.35s-.21.14-.35.14c-.19,0-.33-.08-.43-.23l-1.56-2.68Z"/>
    </g>
    <g>
      <circle cx="446.59" cy="268.57" r="9.27"/>
      <path class="cls-7" d="m447.16,268.73v3.24c0,.14-.05.25-.15.35s-.21.14-.35.14c-.14,0-.26-.05-.36-.14s-.15-.21-.15-.35v-3.24l-1.98-2.51v-1.04c0-.14.05-.26.14-.36s.21-.15.35-.15.25.05.35.15.15.22.15.36v.68l1.48,1.9,1.5-1.9v-.68c0-.14.05-.25.15-.35.1-.1.21-.15.35-.15s.24.05.34.14.15.21.15.37v1.03l-1.98,2.51Z"/>
    </g>
  </g>
</svg>