<svg version="1.1" xmlns="http://www.w3.org/2000/svg" xmlns:xlink="http://www.w3.org/1999/xlink" width="1800" height="930" viewBox="-277.90918,-103.72729,1800,930"><defs><clipPath id="clip-1"><rect x="-277.90918" y="-103.72729" width="1800" height="930" id="clip-1" fill="none" stroke="none" stroke-width="1"/></clipPath></defs><g id="document" fill="#ffffff" fill-rule="nonzero" stroke="#000000" stroke-width="0" stroke-linecap="butt" stroke-linejoin="miter" stroke-miterlimit="10" stroke-dasharray="" stroke-dashoffset="0" font-family="none" font-weight="none" font-size="none" text-anchor="none" style="mix-blend-mode: normal"><rect x="272" y="7.85714" transform="scale(1,1.4)" width="700" height="500" id="Shape 1 1" vector-effect="non-scaling-stroke"/></g><g fill="none" fill-rule="nonzero" stroke="none" stroke-width="none" stroke-linecap="butt" stroke-linejoin="miter" stroke-miterlimit="10" stroke-dasharray="" stroke-dashoffset="0" font-family="none" font-weight="none" font-size="none" text-anchor="none" style="mix-blend-mode: normal"><g><g id="stage"><g id="layer1 1"><g clip-path="url(#clip-1)" id="Group 1"><g id="Group 1" fill="#0096fa" stroke="none" stroke-width="0"><rect x="-277.90918" y="-103.72729" width="1800" height="930" id="Shape 1"/></g><g id="Group 1" fill="#ffffff" stroke="none" stroke-width="0"><path d="M537.94082,262.30271v-115.26h-440.31c-43.49,-46.24 -184.78,-46.24 -184.78,-46.24v46.24h-189.65v367.26h379.69v-88.14h288.15v-74.36l41.39,-21.85c-1.92,5.17 -2.98,10.75 -2.98,16.59c0,26.29 21.32,47.61 47.61,47.61c26.29,0 47.61,-21.32 47.61,-47.61c0,-24.24 -18.12,-44.23 -41.54,-47.21v-37.02h54.81z" id="Path 1"/><rect x="725.32082" y="334.98271" width="387.62" height="207.44" rx="103.72" ry="103.72" id="Shape 1"/><rect x="-277.90918" y="618.83271" width="387.62" height="207.44" rx="103.72" ry="103.72" id="Shape 1"/><path d="M1522.42082,-103.85729h-340.08v269.09h-127.11v94.1h374.74v-47.05h92.45z" id="Path 1"/><path d="M936.92082,62.84271h-332.14l65.68,-164.81h332.14z" id="Path 1"/><path d="M1094.93082,826.27271h-511.99l81.47,-204.44h511.99z" id="Path 1"/><path d="M1345.74082,358.32271l-175.04,100.63l175.04,100.62l175.04,-100.62z" id="Path 1"/><rect x="1279.98082" y="657.47271" width="242.11" height="168.8" id="Shape 1"/><path d="M205.73082,551.31271v142.29c26.96,59.47 141.92,60.85 171.17,-1.42c26.24,-55.85 137.64,-59.43 166.19,-2.08v-138.79h-337.37z" id="Path 1"/></g><g id="Group 1" fill="none" stroke="#000000" stroke-width="5"><path d="M-76.60918,722.28271l140.16,-359.28" id="Path 1"/><path d="M-76.60918,724.05271l444.55,-111.43" id="Path 1"/><path d="M368.48082,613.23271l547.52,-102.35" id="Path 1"/><path d="M877.71082,724.05271l38.29,-217.84" id="Path 1"/><path d="M1406.81082,738.54271l-61.07,-279.84" id="Path 1"/><path d="M879.67082,724.05271l527.14,14.49" id="Path 1"/><path d="M367.94082,612.51271l-54.52,-249.51" id="Path 1"/><path d="M365.77082,612.51271l514.44,111.55" id="Path 1"/></g><g id="Group 1"><path d="M1490.55082,-18.35729h-182.73" id="Path 1" fill="none" stroke="#0096fa" stroke-width="6.71"/><path d="M1446.80082,-71.60729l43.75,53.11l-43.75,55.27" id="Path 1" fill="none" stroke="#0096fa" stroke-width="6.71"/><circle cx="1304.74082" cy="-18.35729" r="9.21" id="Shape 1" fill="#0096fa" stroke="none" stroke-width="0"/><circle cx="1447.71082" cy="-70.17729" r="9.21" id="Shape 1" fill="#0096fa" stroke="none" stroke-width="0"/><circle cx="1447.71082" cy="35.56271" r="9.21" id="Shape 1" fill="#0096fa" stroke="none" stroke-width="0"/><circle cx="1488.88082" cy="-18.35729" r="9.21" id="Shape 1" fill="#0096fa" stroke="none" stroke-width="0"/><g id="Group 1"><circle cx="990.80082" cy="222.88271" r="7.5" id="Shape 1" fill="#ffffff" stroke="none" stroke-width="0"/><circle cx="960.93082" cy="255.07271" r="7.5" id="Shape 1" fill="#ffffff" stroke="none" stroke-width="0"/><circle cx="960.87082" cy="190.21271" r="7.5" id="Shape 1" fill="#ffffff" stroke="none" stroke-width="0"/><circle cx="794.55082" cy="222.88271" r="7.5" id="Shape 1" fill="#ffffff" stroke="none" stroke-width="0"/><circle cx="524.37082" cy="492.49271" r="7.5" id="Shape 1" fill="#ffffff" stroke="none" stroke-width="0"/><g id="Group 1" stroke="#ffffff" stroke-width="4.17"><path d="M991.66082,222.88271h-197.11" id="Path 1" fill="#0096fa"/><path d="M795.01082,221.86271l-268.5,268.5" id="Path 1" fill="#0096fa"/><path d="M960.93082,255.07271l30.87,-32.19l-30.93,-32.24" id="Path 1" fill="none"/></g></g><g id="Group 1"><circle cx="227.23082" cy="199.48271" r="7.5" id="Shape 1" fill="#0096fa" stroke="none" stroke-width="0"/><circle cx="228.86082" cy="243.36271" r="7.5" id="Shape 1" fill="#0096fa" stroke="none" stroke-width="0"/><circle cx="182.95082" cy="197.54271" r="7.5" id="Shape 1" fill="#0096fa" stroke="none" stroke-width="0"/><circle cx="-8.46918" cy="435.18271" r="7.5" id="Shape 1" fill="#0096fa" stroke="none" stroke-width="0"/><circle cx="-200.82918" cy="435.18271" r="7.5" id="Shape 1" fill="#0096fa" stroke="none" stroke-width="0"/><g id="Group 1" stroke="#0096fa" stroke-width="4.17"><path d="M227.83082,198.87271l-236.3,236.31" id="Path 1" fill="#0096fa"/><path d="M-8.46918,435.18271h-192.36" id="Path 1" fill="#0096fa"/><path d="M228.86082,243.36271l-0.93,-44.59l-44.67,-0.92" id="Path 1" fill="none"/></g></g><g id="Group 1" fill="#ffffff" stroke="none" stroke-width="0"><path d="M984.84082,581.35271v4.36c0,0.58 0.18,1.1 0.54,1.55l2.7,3.46c0.13,0.15 0.19,0.37 0.19,0.65c0,0.36 -0.12,0.65 -0.35,0.86c-0.23,0.21 -0.51,0.31 -0.83,0.31c-0.33,0 -0.59,-0.12 -0.77,-0.35l-2.73,-3.49c-0.69,-0.85 -1.03,-1.77 -1.03,-2.76v-4.85c0,-0.96 0.34,-1.87 1.03,-2.74l2.73,-3.49c0.19,-0.23 0.44,-0.35 0.76,-0.35c0.32,0 0.59,0.1 0.83,0.31c0.24,0.21 0.36,0.49 0.36,0.86c0,0.27 -0.07,0.48 -0.21,0.65l-2.69,3.44c-0.35,0.46 -0.53,0.99 -0.53,1.58z" id="Path 1"/><path d="M1002.72082,581.57271v7.56l0.66,1.11h0.95l0.69,-1.14v-13.39c0,-0.32 0.12,-0.59 0.34,-0.82c0.23,-0.23 0.5,-0.34 0.82,-0.34c0.32,0 0.57,0.11 0.8,0.34c0.23,0.23 0.34,0.49 0.34,0.8v13.79c0,0.17 -0.09,0.41 -0.28,0.72l-1.05,1.74c-0.22,0.39 -0.54,0.58 -0.99,0.58h-2.14c-0.68,0 -1.11,-0.31 -1.3,-0.92c-0.21,0.61 -0.62,0.92 -1.24,0.92h-2c-0.58,0 -0.99,-0.21 -1.24,-0.64l-0.97,-1.63c-0.18,-0.3 -0.27,-0.55 -0.27,-0.77v-13.76c0,-0.32 0.12,-0.59 0.34,-0.82c0.23,-0.23 0.5,-0.34 0.82,-0.34c0.3,0 0.56,0.12 0.78,0.34c0.22,0.23 0.33,0.5 0.33,0.82v13.45l0.66,1.08h0.97l0.72,-1.14v-7.53c0,-0.32 0.11,-0.58 0.33,-0.8c0.22,-0.22 0.49,-0.33 0.8,-0.33c0.31,0 0.58,0.11 0.8,0.33c0.22,0.22 0.33,0.49 0.33,0.8z" id="Path 1"/><path d="M1024.01082,583.73271v2.74c0,0.31 -0.11,0.57 -0.34,0.8c-0.23,0.22 -0.49,0.34 -0.8,0.34h-8.03v0.66c0,0.39 0.17,0.72 0.5,0.99l0.66,0.55c0.36,0.28 0.7,0.42 1.03,0.42h5.84c0.31,0 0.57,0.11 0.8,0.33c0.22,0.22 0.34,0.49 0.34,0.8c0,0.31 -0.12,0.57 -0.34,0.8c-0.23,0.23 -0.49,0.34 -0.79,0.34h-5.99c-0.4,0 -0.81,-0.08 -1.25,-0.25c-0.44,-0.17 -0.76,-0.34 -0.97,-0.52l-1.01,-0.89c-0.32,-0.25 -0.58,-0.6 -0.79,-1.05c-0.21,-0.45 -0.32,-0.87 -0.32,-1.24v-5.2c0,-0.3 0.12,-0.7 0.34,-1.2c0.23,-0.5 0.52,-0.9 0.87,-1.18l0.95,-0.74c0.62,-0.5 1.31,-0.76 2.07,-0.76h3.19c0.8,0 1.56,0.33 2.27,1l0.85,0.81c0.61,0.55 0.92,1.37 0.92,2.46zM1014.87082,583.55271v1.76h6.89v-1.58c0,-0.42 -0.13,-0.75 -0.39,-0.97l-0.66,-0.58c-0.34,-0.28 -0.65,-0.42 -0.92,-0.42h-2.85c-0.35,0 -0.67,0.12 -0.96,0.37l-0.66,0.55c-0.3,0.22 -0.45,0.52 -0.45,0.88z" id="CompoundPath 1"/><path d="M1049.40082,584.31271h4.45c0.24,0 0.59,0.05 1.06,0.16l-0.03,-1.61c0,-0.32 -0.11,-0.58 -0.33,-0.8c-0.22,-0.22 -0.49,-0.33 -0.81,-0.33h-4.32c-0.31,0 -0.57,-0.11 -0.8,-0.34c-0.23,-0.23 -0.34,-0.49 -0.34,-0.8c0,-0.31 0.11,-0.58 0.33,-0.8c0.22,-0.22 0.49,-0.33 0.81,-0.33h4.32c0.94,0 1.74,0.33 2.4,0.99c0.66,0.66 1.01,1.46 1.04,2.42l0.28,8.5c0,0.32 -0.11,0.58 -0.34,0.8c-0.22,0.22 -0.49,0.33 -0.8,0.33c-0.32,0 -0.6,-0.11 -0.83,-0.33c-0.22,-0.22 -0.34,-0.49 -0.34,-0.8l-1.92,1.14h-3.84c-0.96,0 -1.77,-0.33 -2.44,-1c-0.67,-0.67 -1,-1.48 -1,-2.43v-1.32c0,-0.95 0.34,-1.75 1.01,-2.43c0.67,-0.67 1.48,-1.01 2.43,-1.01zM1055.08082,588.73271l-0.07,-0.96c0,-0.33 -0.12,-0.59 -0.34,-0.81c-0.22,-0.22 -0.48,-0.32 -0.8,-0.32h-4.48c-0.32,0 -0.58,0.11 -0.8,0.33c-0.22,0.22 -0.33,0.49 -0.33,0.8v1.27c0,0.31 0.11,0.57 0.34,0.8c0.23,0.23 0.49,0.34 0.8,0.34h3.21l2.48,-1.45z" id="CompoundPath 1"/><path d="M1062.73082,591.37271v-10.77c0,-0.32 0.11,-0.59 0.33,-0.82c0.22,-0.23 0.49,-0.34 0.8,-0.34c0.31,0 0.58,0.11 0.8,0.34c0.22,0.23 0.33,0.5 0.33,0.82v1.42l1.85,-1.58c0.77,-0.65 1.51,-0.97 2.24,-0.97h1.66c0.94,0 1.74,0.33 2.41,1c0.67,0.67 1,1.47 1,2.41v0.61c0,0.32 -0.11,0.6 -0.33,0.83c-0.22,0.22 -0.49,0.34 -0.8,0.34c-0.31,0 -0.58,-0.11 -0.8,-0.33c-0.22,-0.22 -0.33,-0.49 -0.33,-0.8v-0.64c0,-0.32 -0.11,-0.58 -0.33,-0.8c-0.22,-0.22 -0.49,-0.33 -0.8,-0.33h-1.47c-0.32,0 -0.67,0.17 -1.05,0.5l-3.23,2.8v6.34c0,0.32 -0.11,0.58 -0.34,0.8c-0.22,0.22 -0.49,0.33 -0.8,0.33c-0.31,0 -0.58,-0.11 -0.8,-0.33c-0.22,-0.22 -0.33,-0.49 -0.33,-0.8z" id="Path 1"/><path d="M1090.89082,583.73271v2.74c0,0.31 -0.11,0.57 -0.34,0.8c-0.23,0.22 -0.49,0.34 -0.8,0.34h-8.03v0.66c0,0.39 0.17,0.72 0.5,0.99l0.66,0.55c0.36,0.28 0.7,0.42 1.03,0.42h5.84c0.31,0 0.57,0.11 0.8,0.33c0.22,0.22 0.34,0.49 0.34,0.8c0,0.31 -0.12,0.57 -0.34,0.8c-0.23,0.23 -0.49,0.34 -0.79,0.34h-5.99c-0.4,0 -0.81,-0.08 -1.25,-0.25c-0.44,-0.17 -0.76,-0.34 -0.97,-0.52l-1.01,-0.89c-0.32,-0.25 -0.58,-0.6 -0.79,-1.05c-0.21,-0.45 -0.32,-0.87 -0.32,-1.24v-5.2c0,-0.3 0.12,-0.7 0.34,-1.2c0.23,-0.5 0.52,-0.9 0.87,-1.18l0.95,-0.74c0.62,-0.5 1.31,-0.76 2.07,-0.76h3.19c0.8,0 1.56,0.33 2.27,1l0.85,0.81c0.61,0.55 0.92,1.37 0.92,2.46zM1081.75082,583.55271v1.76h6.89v-1.58c0,-0.42 -0.13,-0.75 -0.39,-0.97l-0.66,-0.58c-0.34,-0.28 -0.65,-0.42 -0.92,-0.42h-2.85c-0.35,0 -0.67,0.12 -0.96,0.37l-0.66,0.55c-0.3,0.22 -0.45,0.52 -0.45,0.88z" id="CompoundPath 1"/><path d="M1115.19082,591.21271v5.03c0,0.32 -0.11,0.6 -0.33,0.82c-0.22,0.23 -0.49,0.34 -0.8,0.34c-0.31,0 -0.59,-0.11 -0.82,-0.34c-0.23,-0.22 -0.34,-0.5 -0.34,-0.82v-16.19c0,-0.31 0.11,-0.57 0.34,-0.8c0.23,-0.23 0.5,-0.34 0.82,-0.34c0.31,0 0.57,0.11 0.8,0.34c0.23,0.23 0.34,0.49 0.34,0.8v0.73c1.1,-1.23 2.19,-1.84 3.26,-1.84h0.53c0.8,0 1.54,0.3 2.22,0.89l1.89,1.64c0.83,0.72 1.24,1.64 1.24,2.74v3.54c0,1.12 -0.45,2.06 -1.34,2.83l-1.85,1.59c-0.61,0.56 -1.39,0.84 -2.33,0.84h-0.5c-0.88,0 -1.63,-0.31 -2.24,-0.92l-0.88,-0.88zM1118.39082,590.71271h0.58c0.28,0 0.58,-0.14 0.89,-0.42l1.77,-1.55c0.3,-0.23 0.45,-0.55 0.45,-0.96v-3.66c0,-0.36 -0.17,-0.68 -0.5,-0.96l-1.91,-1.64c-0.22,-0.19 -0.45,-0.28 -0.7,-0.28h-0.66c-0.25,0 -0.58,0.21 -0.99,0.62l-1.69,1.68c-0.3,0.3 -0.45,0.63 -0.45,1v2.91c0,0.35 0.17,0.69 0.5,1.03l1.64,1.63c0.41,0.41 0.76,0.61 1.07,0.61z" id="CompoundPath 1"/><path d="M1133.00082,584.31271h4.45c0.24,0 0.59,0.05 1.06,0.16l-0.03,-1.61c0,-0.32 -0.11,-0.58 -0.33,-0.8c-0.22,-0.22 -0.49,-0.33 -0.81,-0.33h-4.32c-0.31,0 -0.57,-0.11 -0.8,-0.34c-0.23,-0.23 -0.34,-0.49 -0.34,-0.8c0,-0.31 0.11,-0.58 0.33,-0.8c0.22,-0.22 0.49,-0.33 0.81,-0.33h4.32c0.94,0 1.74,0.33 2.4,0.99c0.66,0.66 1.01,1.46 1.04,2.42l0.28,8.5c0,0.32 -0.11,0.58 -0.34,0.8c-0.22,0.22 -0.49,0.33 -0.8,0.33c-0.32,0 -0.6,-0.11 -0.83,-0.33c-0.22,-0.22 -0.34,-0.49 -0.34,-0.8l-1.92,1.14h-3.84c-0.96,0 -1.77,-0.33 -2.44,-1c-0.67,-0.67 -1,-1.48 -1,-2.43v-1.32c0,-0.95 0.34,-1.75 1.01,-2.43c0.67,-0.67 1.48,-1.01 2.43,-1.01zM1138.68082,588.73271l-0.07,-0.96c0,-0.33 -0.12,-0.59 -0.34,-0.81c-0.22,-0.22 -0.48,-0.32 -0.8,-0.32h-4.48c-0.32,0 -0.58,0.11 -0.8,0.33c-0.22,0.22 -0.33,0.49 -0.33,0.8v1.27c0,0.31 0.11,0.57 0.34,0.8c0.23,0.23 0.49,0.34 0.8,0.34h3.21l2.48,-1.45z" id="CompoundPath 1"/><path d="M1154.31082,592.51271h-2.27c-0.94,0 -1.74,-0.33 -2.42,-1c-0.68,-0.67 -1.01,-1.47 -1.01,-2.41v-7.37h-1.16c-0.32,0 -0.58,-0.11 -0.8,-0.32c-0.22,-0.22 -0.33,-0.49 -0.33,-0.81c0,-0.32 0.11,-0.58 0.33,-0.8c0.22,-0.22 0.49,-0.33 0.8,-0.33h1.19v-2.78c0,-0.32 0.11,-0.58 0.33,-0.8c0.22,-0.22 0.49,-0.33 0.8,-0.33c0.3,0 0.56,0.11 0.79,0.34c0.23,0.22 0.34,0.49 0.34,0.8v2.78h4.57c0.31,0 0.57,0.11 0.8,0.34c0.23,0.23 0.34,0.49 0.34,0.8c0,0.31 -0.11,0.58 -0.34,0.8c-0.23,0.22 -0.49,0.33 -0.8,0.33h-4.6v7.37c0,0.31 0.11,0.57 0.34,0.8c0.23,0.22 0.5,0.34 0.82,0.34h2.22c0.6,0 1,-0.33 1.2,-0.98c0.2,-0.65 0.58,-0.98 1.15,-0.98c0.33,0 0.61,0.11 0.82,0.33c0.21,0.22 0.32,0.5 0.32,0.83c0,0.68 -0.32,1.37 -0.97,2.05c-0.65,0.68 -1.47,1.02 -2.47,1.02z" id="Path 1"/><path d="M1163.03082,591.37271v-15.69c0,-0.31 0.11,-0.57 0.33,-0.78c0.22,-0.22 0.49,-0.32 0.8,-0.32c0.31,0 0.58,0.11 0.8,0.33c0.22,0.22 0.33,0.49 0.33,0.8v5.73l1.82,-1.19c0.83,-0.52 1.57,-0.78 2.22,-0.78h1.41c0.93,0 1.73,0.33 2.39,0.99c0.67,0.66 1.01,1.47 1.04,2.41l0.28,8.5c0,0.32 -0.1,0.58 -0.32,0.8c-0.23,0.22 -0.5,0.33 -0.81,0.33c-0.31,0 -0.58,-0.12 -0.8,-0.34c-0.22,-0.23 -0.33,-0.49 -0.34,-0.79l-0.28,-8.53c0,-0.31 -0.13,-0.57 -0.35,-0.8c-0.23,-0.22 -0.5,-0.34 -0.81,-0.34h-1.27c-0.29,0 -0.6,0.11 -0.95,0.34l-3.23,2.11v7.22c0,0.32 -0.11,0.58 -0.33,0.8c-0.22,0.22 -0.49,0.33 -0.8,0.33c-0.31,0 -0.58,-0.11 -0.8,-0.33c-0.22,-0.22 -0.33,-0.49 -0.33,-0.8z" id="Path 1"/><path d="M1184.95082,581.73271v9.64c0,0.32 -0.11,0.58 -0.34,0.8c-0.23,0.22 -0.49,0.33 -0.8,0.33c-0.33,0 -0.6,-0.11 -0.83,-0.33c-0.23,-0.22 -0.34,-0.49 -0.34,-0.8v-9.64h-1.16c-0.32,0 -0.58,-0.11 -0.8,-0.34c-0.22,-0.23 -0.33,-0.49 -0.33,-0.8c0,-0.31 0.1,-0.56 0.3,-0.79c0.2,-0.23 0.48,-0.34 0.83,-0.34h1.19v-0.88c0,-1.16 0.4,-2.13 1.2,-2.89c0.8,-0.77 1.79,-1.15 2.98,-1.15h2.66c0.32,0 0.58,0.11 0.8,0.34c0.22,0.23 0.33,0.5 0.33,0.83c0,0.31 -0.11,0.57 -0.34,0.8c-0.23,0.23 -0.49,0.34 -0.8,0.34h-2.66c-0.54,0 -0.99,0.16 -1.34,0.49c-0.36,0.32 -0.53,0.74 -0.53,1.26v0.88h2.27c0.31,0 0.57,0.1 0.8,0.33c0.23,0.23 0.34,0.5 0.34,0.81c0,0.31 -0.11,0.57 -0.34,0.8c-0.23,0.22 -0.49,0.34 -0.8,0.34h-2.3z" id="Path 1"/><path d="M1205.66082,592.48271h-6.92c-0.32,0 -0.58,-0.11 -0.8,-0.33c-0.22,-0.22 -0.33,-0.49 -0.33,-0.8c0,-0.31 0.11,-0.57 0.33,-0.8c0.22,-0.22 0.49,-0.34 0.8,-0.34h2.32v-8.47h-2.3c-0.32,0 -0.58,-0.11 -0.8,-0.34c-0.22,-0.23 -0.33,-0.49 -0.33,-0.8c0,-0.31 0.11,-0.59 0.33,-0.82c0.22,-0.23 0.49,-0.34 0.8,-0.34h3.46c0.32,0 0.58,0.11 0.8,0.34c0.22,0.23 0.33,0.5 0.33,0.82v9.61h2.27c0.31,0 0.59,0.11 0.82,0.33c0.23,0.22 0.34,0.49 0.34,0.8c0,0.31 -0.11,0.58 -0.34,0.8c-0.23,0.22 -0.49,0.33 -0.8,0.33zM1201.04082,573.54271h1.19c0.32,0 0.58,0.11 0.8,0.33c0.22,0.22 0.33,0.49 0.33,0.8v0.97c0,0.32 -0.11,0.59 -0.33,0.82c-0.22,0.23 -0.49,0.34 -0.8,0.34h-1.22c-0.32,0 -0.6,-0.12 -0.82,-0.35c-0.22,-0.23 -0.33,-0.5 -0.32,-0.78l0.03,-1c0,-0.32 0.11,-0.58 0.33,-0.8c0.22,-0.22 0.49,-0.33 0.8,-0.33z" id="CompoundPath 1"/><path d="M1218.59082,582.10271l-3.1,2.01v7.26c0,0.31 -0.11,0.57 -0.34,0.8c-0.22,0.23 -0.49,0.34 -0.8,0.34c-0.31,0 -0.57,-0.11 -0.8,-0.34c-0.23,-0.23 -0.34,-0.49 -0.34,-0.8v-10.77c0,-0.32 0.11,-0.59 0.33,-0.82c0.22,-0.23 0.49,-0.34 0.8,-0.34c0.31,0 0.57,0.11 0.8,0.34c0.23,0.23 0.34,0.5 0.34,0.82v0.76l2.07,-1.26c0.7,-0.44 1.48,-0.66 2.36,-0.66h1.06c0.9,0 1.68,0.32 2.34,0.96c0.66,0.64 1.01,1.43 1.04,2.37l0.31,8.61c0,0.31 -0.1,0.57 -0.32,0.8c-0.22,0.23 -0.5,0.34 -0.81,0.34c-0.3,0 -0.56,-0.1 -0.78,-0.3c-0.23,-0.2 -0.34,-0.48 -0.35,-0.83l-0.34,-8.47c-0.03,-0.79 -0.44,-1.19 -1.25,-1.19h-1.11c-0.34,0 -0.71,0.13 -1.11,0.39z" id="Path 1"/><path d="M1239.07082,581.04271v-5.37c0,-0.32 0.11,-0.58 0.32,-0.8c0.22,-0.22 0.48,-0.33 0.78,-0.33c0.3,0 0.59,0.11 0.82,0.33c0.23,0.22 0.34,0.49 0.34,0.8v15.69c0,0.32 -0.11,0.58 -0.34,0.8c-0.23,0.22 -0.49,0.33 -0.8,0.33c-0.32,0 -0.59,-0.11 -0.81,-0.33c-0.22,-0.22 -0.32,-0.49 -0.32,-0.8v-0.5c-1.11,1.09 -2.15,1.64 -3.11,1.64h-1.93c-0.78,0 -1.55,-0.33 -2.33,-1l-0.95,-0.8c-0.22,-0.21 -0.42,-0.55 -0.61,-1.04c-0.19,-0.49 -0.29,-0.94 -0.29,-1.37v-4.62c0,-0.51 0.11,-1.01 0.32,-1.49c0.22,-0.48 0.47,-0.84 0.76,-1.09l0.93,-0.8c0.67,-0.58 1.45,-0.87 2.35,-0.87h1.63c0.89,0 1.7,0.32 2.43,0.95l0.78,0.66zM1235.77082,581.73271h-1.58c-0.33,0 -0.64,0.12 -0.91,0.36l-0.73,0.64c-0.25,0.23 -0.38,0.51 -0.38,0.87v4.81c0,0.32 0.15,0.6 0.45,0.85l0.74,0.64c0.23,0.21 0.48,0.31 0.74,0.31h1.85c0.24,0 0.53,-0.14 0.87,-0.42l1.8,-1.49c0.3,-0.26 0.45,-0.58 0.45,-0.97v-2.46c0,-0.55 -0.16,-0.96 -0.47,-1.22l-1.85,-1.58c-0.24,-0.23 -0.57,-0.34 -0.97,-0.34z" id="CompoundPath 1"/><path d="M1258.09082,583.73271v2.74c0,0.31 -0.11,0.57 -0.34,0.8c-0.23,0.22 -0.49,0.34 -0.8,0.34h-8.03v0.66c0,0.39 0.17,0.72 0.5,0.99l0.66,0.55c0.36,0.28 0.7,0.42 1.03,0.42h5.84c0.31,0 0.57,0.11 0.8,0.33c0.22,0.22 0.34,0.49 0.34,0.8c0,0.31 -0.12,0.57 -0.34,0.8c-0.23,0.23 -0.49,0.34 -0.79,0.34h-5.99c-0.4,0 -0.81,-0.08 -1.25,-0.25c-0.44,-0.17 -0.76,-0.34 -0.97,-0.52l-1.01,-0.89c-0.32,-0.25 -0.58,-0.6 -0.79,-1.05c-0.21,-0.45 -0.32,-0.87 -0.32,-1.24v-5.2c0,-0.3 0.12,-0.7 0.34,-1.2c0.23,-0.5 0.52,-0.9 0.87,-1.18l0.95,-0.74c0.62,-0.5 1.31,-0.76 2.07,-0.76h3.19c0.8,0 1.56,0.33 2.27,1l0.85,0.81c0.61,0.55 0.92,1.37 0.92,2.46zM1248.95082,583.55271v1.76h6.89v-1.58c0,-0.42 -0.13,-0.75 -0.39,-0.97l-0.66,-0.58c-0.34,-0.28 -0.65,-0.42 -0.92,-0.42h-2.85c-0.35,0 -0.67,0.12 -0.96,0.37l-0.66,0.55c-0.3,0.22 -0.45,0.52 -0.45,0.88z" id="CompoundPath 1"/><path d="M1263.37082,591.37271v-10.77c0,-0.32 0.11,-0.59 0.33,-0.82c0.22,-0.23 0.49,-0.34 0.8,-0.34c0.31,0 0.58,0.11 0.8,0.34c0.22,0.23 0.33,0.5 0.33,0.82v1.42l1.85,-1.58c0.77,-0.65 1.51,-0.97 2.24,-0.97h1.66c0.94,0 1.74,0.33 2.41,1c0.67,0.67 1,1.47 1,2.41v0.61c0,0.32 -0.11,0.6 -0.33,0.83c-0.22,0.22 -0.49,0.34 -0.8,0.34c-0.31,0 -0.58,-0.11 -0.8,-0.33c-0.22,-0.22 -0.33,-0.49 -0.33,-0.8v-0.64c0,-0.32 -0.11,-0.58 -0.33,-0.8c-0.22,-0.22 -0.49,-0.33 -0.8,-0.33h-1.47c-0.32,0 -0.67,0.17 -1.05,0.5l-3.23,2.8v6.34c0,0.32 -0.11,0.58 -0.34,0.8c-0.22,0.22 -0.49,0.33 -0.8,0.33c-0.31,0 -0.58,-0.11 -0.8,-0.33c-0.22,-0.22 -0.33,-0.49 -0.33,-0.8z" id="Path 1"/><path d="M1283.27082,579.46271h5.2c0.81,0 1.53,0.24 2.15,0.72c0.62,0.48 0.93,0.95 0.93,1.41c0,0.33 -0.11,0.59 -0.34,0.8c-0.23,0.21 -0.48,0.31 -0.76,0.31c-0.36,0 -0.69,-0.16 -0.99,-0.49c-0.3,-0.32 -0.61,-0.49 -0.93,-0.49h-5.14c-0.5,0 -0.76,0.21 -0.76,0.63c0,0.29 0.17,0.52 0.5,0.67l6.04,2.69c0.61,0.27 1.12,0.71 1.51,1.3c0.39,0.6 0.59,1.26 0.59,1.99c0,0.97 -0.34,1.8 -1.03,2.47c-0.69,0.67 -1.47,1.01 -2.35,1.01h-4.6c-0.79,0 -1.53,-0.24 -2.21,-0.72c-0.68,-0.48 -1.02,-0.94 -1.02,-1.39c0,-0.3 0.11,-0.56 0.33,-0.79c0.22,-0.23 0.51,-0.34 0.86,-0.34c0.29,0 0.6,0.16 0.93,0.49c0.33,0.33 0.8,0.49 1.43,0.49h4.23c0.33,0 0.61,-0.13 0.84,-0.39c0.23,-0.26 0.34,-0.55 0.34,-0.88c0,-0.51 -0.25,-0.88 -0.76,-1.11l-6.1,-2.74c-0.59,-0.26 -1.04,-0.64 -1.35,-1.14c-0.32,-0.5 -0.47,-1 -0.47,-1.51c0,-0.81 0.28,-1.51 0.84,-2.11c0.56,-0.59 1.26,-0.89 2.09,-0.89z" id="Path 1"/><path d="M1302.71082,585.72271v-4.4c0,-0.57 -0.18,-1.09 -0.55,-1.55l-2.71,-3.44c-0.13,-0.17 -0.2,-0.38 -0.2,-0.63c0,-0.35 0.12,-0.63 0.36,-0.86c0.24,-0.22 0.51,-0.33 0.82,-0.33c0.31,0 0.57,0.12 0.76,0.35l2.77,3.49c0.67,0.84 1,1.75 1,2.74v4.85c0,1.01 -0.33,1.93 -1,2.76l-2.77,3.49c-0.19,0.23 -0.45,0.35 -0.77,0.35c-0.31,0 -0.58,-0.11 -0.81,-0.32c-0.23,-0.21 -0.35,-0.5 -0.35,-0.86c0,-0.27 0.07,-0.49 0.19,-0.65l2.71,-3.44c0.37,-0.45 0.55,-0.97 0.55,-1.56z" id="Path 1"/></g><g id="Group 1" fill="#ffffff" stroke="none" stroke-width="0"><path d="M209.56082,768.58271v4.36c0,0.58 0.18,1.1 0.54,1.55l2.7,3.46c0.13,0.15 0.19,0.37 0.19,0.65c0,0.36 -0.12,0.65 -0.35,0.86c-0.23,0.21 -0.51,0.31 -0.83,0.31c-0.33,0 -0.59,-0.12 -0.77,-0.35l-2.73,-3.49c-0.69,-0.85 -1.03,-1.77 -1.03,-2.76v-4.85c0,-0.96 0.34,-1.87 1.03,-2.74l2.73,-3.49c0.19,-0.23 0.44,-0.35 0.76,-0.35c0.32,0 0.59,0.1 0.83,0.31c0.24,0.21 0.36,0.49 0.36,0.86c0,0.27 -0.07,0.48 -0.21,0.65l-2.69,3.44c-0.35,0.46 -0.53,0.99 -0.53,1.58z" id="Path 1"/><path d="M220.57082,778.60271v-16.83h10.3c0.3,0 0.56,0.11 0.79,0.34c0.23,0.23 0.34,0.49 0.34,0.8c0,0.31 -0.11,0.59 -0.34,0.82c-0.23,0.23 -0.49,0.34 -0.8,0.34h-8.03v3.57h5.76c0.32,0 0.58,0.11 0.8,0.33c0.22,0.22 0.33,0.49 0.33,0.8c0,0.31 -0.11,0.58 -0.33,0.8c-0.22,0.22 -0.49,0.33 -0.8,0.33h-5.76v8.69c0,0.32 -0.11,0.58 -0.33,0.8c-0.22,0.22 -0.49,0.33 -0.8,0.33c-0.31,0 -0.58,-0.11 -0.8,-0.33c-0.22,-0.22 -0.33,-0.49 -0.33,-0.8z" id="Path 1"/><path d="M246.46082,779.71271h-6.92c-0.32,0 -0.58,-0.11 -0.8,-0.33c-0.22,-0.22 -0.33,-0.49 -0.33,-0.8c0,-0.31 0.11,-0.57 0.33,-0.8c0.22,-0.22 0.49,-0.34 0.8,-0.34h2.32v-8.47h-2.3c-0.32,0 -0.58,-0.11 -0.8,-0.34c-0.22,-0.23 -0.33,-0.49 -0.33,-0.8c0,-0.31 0.11,-0.59 0.33,-0.82c0.22,-0.23 0.49,-0.34 0.8,-0.34h3.46c0.32,0 0.58,0.11 0.8,0.34c0.22,0.23 0.33,0.5 0.33,0.82v9.61h2.27c0.31,0 0.59,0.11 0.82,0.33c0.23,0.22 0.34,0.49 0.34,0.8c0,0.31 -0.11,0.58 -0.34,0.8c-0.23,0.22 -0.49,0.33 -0.8,0.33zM241.84082,760.77271h1.19c0.32,0 0.58,0.11 0.8,0.33c0.22,0.22 0.33,0.49 0.33,0.8v0.97c0,0.32 -0.11,0.59 -0.33,0.82c-0.22,0.23 -0.49,0.34 -0.8,0.34h-1.22c-0.32,0 -0.6,-0.12 -0.82,-0.35c-0.22,-0.23 -0.33,-0.5 -0.32,-0.78l0.03,-1c0,-0.32 0.11,-0.58 0.33,-0.8c0.22,-0.22 0.49,-0.33 0.8,-0.33z" id="CompoundPath 1"/><path d="M259.39082,769.33271l-3.1,2.01v7.26c0,0.31 -0.11,0.57 -0.34,0.8c-0.22,0.23 -0.49,0.34 -0.8,0.34c-0.31,0 -0.57,-0.11 -0.8,-0.34c-0.23,-0.23 -0.34,-0.49 -0.34,-0.8v-10.77c0,-0.32 0.11,-0.59 0.33,-0.82c0.22,-0.23 0.49,-0.34 0.8,-0.34c0.31,0 0.57,0.11 0.8,0.34c0.23,0.23 0.34,0.5 0.34,0.82v0.76l2.07,-1.26c0.7,-0.44 1.48,-0.66 2.36,-0.66h1.06c0.9,0 1.68,0.32 2.34,0.96c0.66,0.64 1.01,1.43 1.04,2.37l0.31,8.61c0,0.31 -0.1,0.57 -0.32,0.8c-0.22,0.23 -0.5,0.34 -0.81,0.34c-0.3,0 -0.56,-0.1 -0.78,-0.3c-0.23,-0.2 -0.34,-0.48 -0.35,-0.83l-0.34,-8.47c-0.03,-0.79 -0.44,-1.19 -1.25,-1.19h-1.11c-0.34,0 -0.71,0.13 -1.11,0.39z" id="Path 1"/><path d="M279.87082,768.27271v-5.37c0,-0.32 0.11,-0.58 0.32,-0.8c0.22,-0.22 0.48,-0.33 0.78,-0.33c0.3,0 0.59,0.11 0.82,0.33c0.23,0.22 0.34,0.49 0.34,0.8v15.69c0,0.32 -0.11,0.58 -0.34,0.8c-0.23,0.22 -0.49,0.33 -0.8,0.33c-0.32,0 -0.59,-0.11 -0.81,-0.33c-0.22,-0.22 -0.32,-0.49 -0.32,-0.8v-0.5c-1.11,1.09 -2.15,1.64 -3.11,1.64h-1.93c-0.78,0 -1.55,-0.33 -2.33,-1l-0.95,-0.8c-0.22,-0.21 -0.42,-0.55 -0.61,-1.04c-0.19,-0.49 -0.29,-0.94 -0.29,-1.37v-4.62c0,-0.51 0.11,-1.01 0.32,-1.49c0.22,-0.48 0.47,-0.84 0.76,-1.09l0.93,-0.8c0.67,-0.58 1.45,-0.87 2.35,-0.87h1.63c0.89,0 1.7,0.32 2.43,0.95l0.78,0.66zM276.57082,768.96271h-1.58c-0.33,0 -0.64,0.12 -0.91,0.36l-0.73,0.64c-0.25,0.23 -0.38,0.51 -0.38,0.87v4.81c0,0.32 0.15,0.6 0.45,0.85l0.74,0.64c0.23,0.21 0.48,0.31 0.74,0.31h1.85c0.24,0 0.53,-0.14 0.87,-0.42l1.8,-1.49c0.3,-0.26 0.45,-0.58 0.45,-0.97v-2.46c0,-0.55 -0.16,-0.96 -0.47,-1.22l-1.85,-1.58c-0.24,-0.23 -0.57,-0.34 -0.97,-0.34z" id="CompoundPath 1"/><path d="M296.62082,779.71271h-6.92c-0.32,0 -0.58,-0.11 -0.8,-0.33c-0.22,-0.22 -0.33,-0.49 -0.33,-0.8c0,-0.31 0.11,-0.57 0.33,-0.8c0.22,-0.22 0.49,-0.34 0.8,-0.34h2.32v-8.47h-2.3c-0.32,0 -0.58,-0.11 -0.8,-0.34c-0.22,-0.23 -0.33,-0.49 -0.33,-0.8c0,-0.31 0.11,-0.59 0.33,-0.82c0.22,-0.23 0.49,-0.34 0.8,-0.34h3.46c0.32,0 0.58,0.11 0.8,0.34c0.22,0.23 0.33,0.5 0.33,0.82v9.61h2.27c0.31,0 0.59,0.11 0.82,0.33c0.23,0.22 0.34,0.49 0.34,0.8c0,0.31 -0.11,0.58 -0.34,0.8c-0.23,0.22 -0.49,0.33 -0.8,0.33zM292.00082,760.77271h1.19c0.32,0 0.58,0.11 0.8,0.33c0.22,0.22 0.33,0.49 0.33,0.8v0.97c0,0.32 -0.11,0.59 -0.33,0.82c-0.22,0.23 -0.49,0.34 -0.8,0.34h-1.22c-0.32,0 -0.6,-0.12 -0.82,-0.35c-0.22,-0.23 -0.33,-0.5 -0.32,-0.78l0.03,-1c0,-0.32 0.11,-0.58 0.33,-0.8c0.22,-0.22 0.49,-0.33 0.8,-0.33z" id="CompoundPath 1"/><path d="M309.55082,769.33271l-3.1,2.01v7.26c0,0.31 -0.11,0.57 -0.34,0.8c-0.22,0.23 -0.49,0.34 -0.8,0.34c-0.31,0 -0.57,-0.11 -0.8,-0.34c-0.23,-0.23 -0.34,-0.49 -0.34,-0.8v-10.77c0,-0.32 0.11,-0.59 0.33,-0.82c0.22,-0.23 0.49,-0.34 0.8,-0.34c0.31,0 0.57,0.11 0.8,0.34c0.23,0.23 0.34,0.5 0.34,0.82v0.76l2.07,-1.26c0.7,-0.44 1.48,-0.66 2.36,-0.66h1.06c0.9,0 1.68,0.32 2.34,0.96c0.66,0.64 1.01,1.43 1.04,2.37l0.31,8.61c0,0.31 -0.1,0.57 -0.32,0.8c-0.22,0.23 -0.5,0.34 -0.81,0.34c-0.3,0 -0.56,-0.1 -0.78,-0.3c-0.23,-0.2 -0.34,-0.48 -0.35,-0.83l-0.34,-8.47c-0.03,-0.79 -0.44,-1.19 -1.25,-1.19h-1.11c-0.34,0 -0.71,0.13 -1.11,0.39z" id="Path 1"/><path d="M328.03082,784.60271h-4.92c-0.32,0 -0.58,-0.11 -0.8,-0.32c-0.22,-0.22 -0.33,-0.49 -0.33,-0.81c0,-0.32 0.11,-0.58 0.33,-0.8c0.22,-0.22 0.49,-0.32 0.8,-0.32h4.92c0.3,0 0.58,-0.11 0.84,-0.34l0.77,-0.66c0.26,-0.2 0.39,-0.46 0.39,-0.78v-3.46c-1.06,1.07 -2.1,1.61 -3.11,1.61h-1.74c-0.9,0 -1.71,-0.31 -2.43,-0.93l-0.85,-0.76c-0.28,-0.23 -0.52,-0.58 -0.72,-1.03c-0.2,-0.45 -0.3,-0.89 -0.3,-1.32v-3.76c0,-0.53 0.1,-1.04 0.3,-1.51c0.2,-0.48 0.44,-0.83 0.72,-1.07l0.93,-0.8c0.67,-0.58 1.45,-0.87 2.35,-0.87h1.63c0.89,0 1.7,0.32 2.43,0.95l0.78,0.66l-0.03,-0.45c0,-0.31 0.11,-0.57 0.34,-0.8c0.23,-0.23 0.49,-0.34 0.8,-0.34c0.31,0 0.59,0.11 0.82,0.33c0.23,0.22 0.34,0.49 0.34,0.8v12.73c0,0.96 -0.39,1.79 -1.16,2.47l-0.92,0.8c-0.23,0.21 -0.57,0.39 -0.99,0.54c-0.42,0.15 -0.83,0.23 -1.2,0.23zM326.73082,768.93271h-1.53c-0.33,0 -0.65,0.13 -0.96,0.39l-0.7,0.58c-0.27,0.22 -0.41,0.53 -0.41,0.92v3.78c0,0.31 0.15,0.59 0.45,0.87l0.74,0.66c0.23,0.2 0.48,0.3 0.74,0.3h1.85c0.27,0 0.57,-0.14 0.89,-0.41l1.8,-1.53c0.28,-0.24 0.42,-0.54 0.42,-0.89v-1.72c0,-0.41 -0.16,-0.75 -0.47,-1.01l-1.85,-1.58c-0.26,-0.24 -0.59,-0.37 -0.97,-0.37z" id="CompoundPath 1"/><path d="M365.77082,770.79271v4.8c0,1.02 -0.48,1.96 -1.44,2.83c-0.96,0.86 -1.95,1.3 -2.97,1.3h-2.66c-1.04,0 -2.03,-0.44 -2.97,-1.32c-0.95,-0.88 -1.42,-1.81 -1.42,-2.8v-4.8c0,-0.99 0.46,-1.93 1.39,-2.8c0.92,-0.88 1.93,-1.32 3.01,-1.32h2.66c1.02,-0.02 2.01,0.41 2.97,1.27c0.96,0.87 1.44,1.82 1.44,2.85zM356.60082,770.88271v4.6c0,0.42 0.15,0.74 0.45,0.99l0.85,0.73c0.19,0.16 0.46,0.24 0.8,0.24h2.64c0.39,0 0.74,-0.14 1.05,-0.42l0.69,-0.61c0.28,-0.22 0.42,-0.52 0.42,-0.91v-4.6c0,-0.45 -0.14,-0.78 -0.42,-1l-0.8,-0.64c-0.27,-0.22 -0.59,-0.34 -0.95,-0.34h-2.35c-0.51,0 -0.91,0.12 -1.19,0.37l-0.77,0.66c-0.28,0.23 -0.42,0.54 -0.42,0.92z" id="CompoundPath 1"/><path d="M376.43082,769.33271l-3.1,2.01v7.26c0,0.31 -0.11,0.57 -0.34,0.8c-0.22,0.23 -0.49,0.34 -0.8,0.34c-0.31,0 -0.57,-0.11 -0.8,-0.34c-0.23,-0.23 -0.34,-0.49 -0.34,-0.8v-10.77c0,-0.32 0.11,-0.59 0.33,-0.82c0.22,-0.23 0.49,-0.34 0.8,-0.34c0.31,0 0.57,0.11 0.8,0.34c0.23,0.23 0.34,0.5 0.34,0.82v0.76l2.07,-1.26c0.7,-0.44 1.48,-0.66 2.36,-0.66h1.06c0.9,0 1.68,0.32 2.34,0.96c0.66,0.64 1.01,1.43 1.04,2.37l0.31,8.61c0,0.31 -0.1,0.57 -0.32,0.8c-0.22,0.23 -0.5,0.34 -0.81,0.34c-0.3,0 -0.56,-0.1 -0.78,-0.3c-0.23,-0.2 -0.34,-0.48 -0.35,-0.83l-0.34,-8.47c-0.03,-0.79 -0.44,-1.19 -1.25,-1.19h-1.11c-0.34,0 -0.71,0.13 -1.11,0.39z" id="Path 1"/><path d="M399.21082,770.96271v2.74c0,0.31 -0.11,0.57 -0.34,0.8c-0.23,0.22 -0.49,0.34 -0.8,0.34h-8.03v0.66c0,0.39 0.17,0.72 0.5,0.99l0.66,0.55c0.36,0.28 0.7,0.42 1.03,0.42h5.84c0.31,0 0.57,0.11 0.8,0.33c0.22,0.22 0.34,0.49 0.34,0.8c0,0.31 -0.12,0.57 -0.34,0.8c-0.23,0.23 -0.49,0.34 -0.79,0.34h-5.99c-0.4,0 -0.81,-0.08 -1.25,-0.25c-0.44,-0.17 -0.76,-0.34 -0.97,-0.52l-1.01,-0.89c-0.32,-0.25 -0.58,-0.6 -0.79,-1.05c-0.21,-0.45 -0.32,-0.87 -0.32,-1.24v-5.2c0,-0.3 0.12,-0.7 0.34,-1.2c0.23,-0.5 0.52,-0.9 0.87,-1.18l0.95,-0.74c0.62,-0.5 1.31,-0.76 2.07,-0.76h3.19c0.8,0 1.56,0.33 2.27,1l0.85,0.81c0.61,0.55 0.92,1.37 0.92,2.46zM390.07082,770.78271v1.76h6.89v-1.58c0,-0.42 -0.13,-0.75 -0.39,-0.97l-0.66,-0.58c-0.34,-0.28 -0.65,-0.42 -0.92,-0.42h-2.85c-0.35,0 -0.67,0.12 -0.96,0.37l-0.66,0.55c-0.3,0.22 -0.45,0.52 -0.45,0.88z" id="CompoundPath 1"/><path d="M413.63082,768.83271c0,0.32 -0.11,0.58 -0.33,0.8c-0.22,0.22 -0.49,0.33 -0.8,0.33c-0.31,0 -0.58,-0.11 -0.8,-0.33c-0.22,-0.22 -0.33,-0.49 -0.33,-0.8v-4.76h-3.46c-0.32,0 -0.58,-0.11 -0.8,-0.34c-0.22,-0.23 -0.33,-0.5 -0.33,-0.82c0,-0.32 0.11,-0.57 0.34,-0.8c0.23,-0.22 0.49,-0.34 0.8,-0.34h4.6c0.32,0 0.58,0.11 0.8,0.34c0.22,0.23 0.33,0.5 0.33,0.83v5.89z" id="Path 1"/><path d="M424.39082,766.69271h5.2c0.81,0 1.53,0.24 2.15,0.72c0.62,0.48 0.93,0.95 0.93,1.41c0,0.33 -0.11,0.59 -0.34,0.8c-0.23,0.21 -0.48,0.31 -0.76,0.31c-0.36,0 -0.69,-0.16 -0.99,-0.49c-0.3,-0.32 -0.61,-0.49 -0.93,-0.49h-5.14c-0.5,0 -0.76,0.21 -0.76,0.63c0,0.29 0.17,0.52 0.5,0.67l6.04,2.69c0.61,0.27 1.12,0.71 1.51,1.3c0.39,0.6 0.59,1.26 0.59,1.99c0,0.97 -0.34,1.8 -1.03,2.47c-0.69,0.67 -1.47,1.01 -2.35,1.01h-4.6c-0.79,0 -1.53,-0.24 -2.21,-0.72c-0.68,-0.48 -1.02,-0.94 -1.02,-1.39c0,-0.3 0.11,-0.56 0.33,-0.79c0.22,-0.23 0.51,-0.34 0.86,-0.34c0.29,0 0.6,0.16 0.93,0.49c0.33,0.33 0.8,0.49 1.43,0.49h4.23c0.33,0 0.61,-0.13 0.84,-0.39c0.23,-0.26 0.34,-0.55 0.34,-0.88c0,-0.51 -0.25,-0.88 -0.76,-1.11l-6.1,-2.74c-0.59,-0.26 -1.04,-0.64 -1.35,-1.14c-0.32,-0.5 -0.47,-1 -0.47,-1.51c0,-0.81 0.28,-1.51 0.84,-2.11c0.56,-0.59 1.26,-0.89 2.09,-0.89z" id="Path 1"/><path d="M456.95082,778.44271v5.03c0,0.32 -0.11,0.6 -0.33,0.82c-0.22,0.23 -0.49,0.34 -0.8,0.34c-0.31,0 -0.59,-0.11 -0.82,-0.34c-0.23,-0.22 -0.34,-0.5 -0.34,-0.82v-16.19c0,-0.31 0.11,-0.57 0.34,-0.8c0.23,-0.23 0.5,-0.34 0.82,-0.34c0.31,0 0.57,0.11 0.8,0.34c0.23,0.23 0.34,0.49 0.34,0.8v0.73c1.1,-1.23 2.19,-1.84 3.26,-1.84h0.53c0.8,0 1.54,0.3 2.22,0.89l1.89,1.64c0.83,0.72 1.24,1.64 1.24,2.74v3.54c0,1.12 -0.45,2.06 -1.34,2.83l-1.85,1.59c-0.61,0.56 -1.39,0.84 -2.33,0.84h-0.5c-0.88,0 -1.63,-0.31 -2.24,-0.92l-0.88,-0.88zM460.15082,777.94271h0.58c0.28,0 0.58,-0.14 0.89,-0.42l1.77,-1.55c0.3,-0.23 0.45,-0.55 0.45,-0.96v-3.66c0,-0.36 -0.17,-0.68 -0.5,-0.96l-1.91,-1.64c-0.22,-0.19 -0.45,-0.28 -0.7,-0.28h-0.66c-0.25,0 -0.58,0.21 -0.99,0.62l-1.69,1.68c-0.3,0.3 -0.45,0.63 -0.45,1v2.91c0,0.35 0.17,0.69 0.5,1.03l1.64,1.63c0.41,0.41 0.76,0.61 1.07,0.61z" id="CompoundPath 1"/><path d="M474.76082,771.54271h4.45c0.24,0 0.59,0.05 1.06,0.16l-0.03,-1.61c0,-0.32 -0.11,-0.58 -0.33,-0.8c-0.22,-0.22 -0.49,-0.33 -0.81,-0.33h-4.32c-0.31,0 -0.57,-0.11 -0.8,-0.34c-0.23,-0.23 -0.34,-0.49 -0.34,-0.8c0,-0.31 0.11,-0.58 0.33,-0.8c0.22,-0.22 0.49,-0.33 0.81,-0.33h4.32c0.94,0 1.74,0.33 2.4,0.99c0.66,0.66 1.01,1.46 1.04,2.42l0.28,8.5c0,0.32 -0.11,0.58 -0.34,0.8c-0.22,0.22 -0.49,0.33 -0.8,0.33c-0.32,0 -0.6,-0.11 -0.83,-0.33c-0.22,-0.22 -0.34,-0.49 -0.34,-0.8l-1.92,1.14h-3.84c-0.96,0 -1.77,-0.33 -2.44,-1c-0.67,-0.67 -1,-1.48 -1,-2.43v-1.32c0,-0.95 0.34,-1.75 1.01,-2.43c0.67,-0.67 1.48,-1.01 2.43,-1.01zM480.44082,775.96271l-0.07,-0.96c0,-0.33 -0.12,-0.59 -0.34,-0.81c-0.22,-0.22 -0.48,-0.32 -0.8,-0.32h-4.48c-0.32,0 -0.58,0.11 -0.8,0.33c-0.22,0.22 -0.33,0.49 -0.33,0.8v1.27c0,0.31 0.11,0.57 0.34,0.8c0.23,0.23 0.49,0.34 0.8,0.34h3.21l2.48,-1.45z" id="CompoundPath 1"/><path d="M496.07082,779.73271h-2.27c-0.94,0 -1.74,-0.33 -2.42,-1c-0.68,-0.67 -1.01,-1.47 -1.01,-2.41v-7.37h-1.16c-0.32,0 -0.58,-0.11 -0.8,-0.32c-0.22,-0.22 -0.33,-0.49 -0.33,-0.81c0,-0.32 0.11,-0.58 0.33,-0.8c0.22,-0.22 0.49,-0.33 0.8,-0.33h1.19v-2.78c0,-0.32 0.11,-0.58 0.33,-0.8c0.22,-0.22 0.49,-0.33 0.8,-0.33c0.3,0 0.56,0.11 0.79,0.34c0.23,0.22 0.34,0.49 0.34,0.8v2.78h4.57c0.31,0 0.57,0.11 0.8,0.34c0.23,0.23 0.34,0.49 0.34,0.8c0,0.31 -0.11,0.58 -0.34,0.8c-0.23,0.22 -0.49,0.33 -0.8,0.33h-4.6v7.37c0,0.31 0.11,0.57 0.34,0.8c0.23,0.22 0.5,0.34 0.82,0.34h2.22c0.6,0 1,-0.33 1.2,-0.98c0.2,-0.65 0.58,-0.98 1.15,-0.98c0.33,0 0.61,0.11 0.82,0.33c0.21,0.22 0.32,0.5 0.32,0.83c0,0.68 -0.32,1.37 -0.97,2.05c-0.65,0.68 -1.47,1.02 -2.47,1.02z" id="Path 1"/><path d="M504.79082,778.60271v-15.69c0,-0.31 0.11,-0.57 0.33,-0.78c0.22,-0.22 0.49,-0.32 0.8,-0.32c0.31,0 0.58,0.11 0.8,0.33c0.22,0.22 0.33,0.49 0.33,0.8v5.73l1.82,-1.19c0.83,-0.52 1.57,-0.78 2.22,-0.78h1.41c0.93,0 1.73,0.33 2.39,0.99c0.67,0.66 1.01,1.47 1.04,2.41l0.28,8.5c0,0.32 -0.1,0.58 -0.32,0.8c-0.23,0.22 -0.5,0.33 -0.81,0.33c-0.31,0 -0.58,-0.12 -0.8,-0.34c-0.22,-0.23 -0.33,-0.49 -0.34,-0.79l-0.28,-8.53c0,-0.31 -0.13,-0.57 -0.35,-0.8c-0.23,-0.22 -0.5,-0.34 -0.81,-0.34h-1.27c-0.29,0 -0.6,0.11 -0.95,0.34l-3.23,2.11v7.22c0,0.32 -0.11,0.58 -0.33,0.8c-0.22,0.22 -0.49,0.33 -0.8,0.33c-0.31,0 -0.58,-0.11 -0.8,-0.33c-0.22,-0.22 -0.33,-0.49 -0.33,-0.8z" id="Path 1"/><path d="M527.43082,772.95271v-4.4c0,-0.57 -0.18,-1.09 -0.55,-1.55l-2.71,-3.44c-0.13,-0.17 -0.2,-0.38 -0.2,-0.63c0,-0.35 0.12,-0.63 0.36,-0.86c0.24,-0.22 0.51,-0.33 0.82,-0.33c0.31,0 0.57,0.12 0.76,0.35l2.77,3.49c0.67,0.84 1,1.75 1,2.74v4.85c0,1.01 -0.33,1.93 -1,2.76l-2.77,3.49c-0.19,0.23 -0.45,0.35 -0.77,0.35c-0.31,0 -0.58,-0.11 -0.81,-0.32c-0.23,-0.21 -0.35,-0.5 -0.35,-0.86c0,-0.27 0.07,-0.49 0.19,-0.65l2.71,-3.44c0.37,-0.45 0.55,-0.97 0.55,-1.56z" id="Path 1"/></g><circle cx="1097.12082" cy="212.64271" r="20" id="Shape 1" fill="#000000" stroke="none" stroke-width="0"/><circle cx="313.42082" cy="363.00271" r="20" id="Shape 1" fill="#000000" stroke="none" stroke-width="0"/><circle cx="717.81082" cy="-20.14729" r="20" id="Shape 1" fill="#000000" stroke="none" stroke-width="0"/><circle cx="893.51082" cy="-20.14729" r="20" id="Shape 1" fill="#000000" stroke="none" stroke-width="0"/><circle cx="1219.87082" cy="-29.05729" r="20" id="Shape 1" fill="#000000" stroke="none" stroke-width="0"/><circle cx="916.00082" cy="367.92271" r="20" id="Shape 1" fill="#000000" stroke="none" stroke-width="0"/><circle cx="1345.74082" cy="458.70271" r="20" id="Shape 1" fill="#000000" stroke="none" stroke-width="0"/><circle cx="916.00082" cy="506.21271" r="20" id="Shape 1" fill="#000000" stroke="none" stroke-width="0"/><circle cx="63.55082" cy="363.00271" r="20" id="Shape 1" fill="#000000" stroke="none" stroke-width="0"/><circle cx="-142.66918" cy="226.71271" r="20" id="Shape 1" fill="#000000" stroke="none" stroke-width="0"/><path d="M-142.66918,226.71271l206.22,136.29" id="Path 1" fill="none" stroke="#000000" stroke-width="5"/><path d="M717.81082,-20.14729l-860.48,246.86" id="Path 1" fill="none" stroke="#000000" stroke-width="5"/><path d="M313.42082,363.00271h-249.87" id="Path 1" fill="none" stroke="#000000" stroke-width="5"/><path d="M717.81082,-20.14729l-404.39,383.15" id="Path 1" fill="none" stroke="#000000" stroke-width="5"/><path d="M-142.66918,226.71271l456.09,136.29" id="Path 1" fill="none" stroke="#000000" stroke-width="5"/><path d="M916.00082,367.92271v138.29" id="Path 1" fill="none" stroke="#000000" stroke-width="5"/><path d="M1345.74082,458.70271l-429.74,47.51" id="Path 1" fill="none" stroke="#000000" stroke-width="5"/><path d="M916.00082,367.92271l429.74,90.78" id="Path 1" fill="none" stroke="#000000" stroke-width="5"/><path d="M893.51082,-20.14729l203.61,232.79" id="Path 1" fill="none" stroke="#000000" stroke-width="5"/><path d="M1219.87082,-29.05729l-326.27,8.91" id="Path 1" fill="none" stroke="#000000" stroke-width="5"/><path d="M1097.12082,212.64271l122.75,-241.7" id="Path 1" fill="none" stroke="#000000" stroke-width="5"/><path d="M313.42082,363.00271l602.58,143.21" id="Path 1" fill="none" stroke="#000000" stroke-width="5"/><path d="M916.00082,367.92271l-198.19,-388.07" id="Path 1" fill="none" stroke="#000000" stroke-width="5"/><path d="M893.60082,-20.14729h-175.79" id="Path 1" fill="none" stroke="#000000" stroke-width="5"/><path d="M1097.12082,212.64271l-181.12,155.28" id="Path 1" fill="none" stroke="#000000" stroke-width="5"/><path d="M1345.74082,458.70271l-248.62,-246.06" id="Path 1" fill="none" stroke="#000000" stroke-width="5"/><path d="M58.20082,370.40271h3.78v-14.52h-3.72c-0.34,0 -0.63,-0.12 -0.87,-0.36c-0.24,-0.24 -0.36,-0.53 -0.36,-0.87c0,-0.34 0.12,-0.63 0.36,-0.87c0.24,-0.24 0.53,-0.36 0.87,-0.36h6.18v16.98h2.46v-5.13c0,-0.33 0.12,-0.62 0.36,-0.86c0.24,-0.24 0.53,-0.37 0.87,-0.37c0.34,0 0.63,0.12 0.87,0.36c0.24,0.24 0.36,0.53 0.36,0.87v6.36c0,0.34 -0.12,0.63 -0.36,0.87c-0.24,0.24 -0.53,0.36 -0.87,0.36h-9.93c-0.34,0 -0.63,-0.12 -0.87,-0.37c-0.24,-0.25 -0.36,-0.54 -0.36,-0.89c0,-0.35 0.12,-0.62 0.36,-0.85c0.24,-0.23 0.53,-0.35 0.87,-0.35z" id="Path 1" fill="#ffffff" stroke="none" stroke-width="0"/><circle cx="-76.60918" cy="722.28271" r="20" id="Shape 1" fill="#000000" stroke="none" stroke-width="0"/><g id="Group 1" fill="#ffffff" stroke="none" stroke-width="0"><path d="M-87.95918,727.09271h2.95v-11.34h-2.91c-0.27,0 -0.49,-0.09 -0.68,-0.28c-0.19,-0.19 -0.28,-0.41 -0.28,-0.68c0,-0.27 0.09,-0.49 0.28,-0.68c0.19,-0.19 0.41,-0.28 0.68,-0.28h4.83v13.26h1.92v-4c0,-0.26 0.09,-0.48 0.28,-0.67c0.19,-0.19 0.41,-0.29 0.68,-0.29c0.27,0 0.49,0.09 0.68,0.28c0.19,0.19 0.28,0.41 0.28,0.68v4.96c0,0.27 -0.09,0.49 -0.28,0.68c-0.19,0.19 -0.41,0.28 -0.68,0.28h-7.76c-0.27,0 -0.49,-0.1 -0.68,-0.29c-0.19,-0.19 -0.28,-0.42 -0.28,-0.69c0,-0.27 0.09,-0.48 0.28,-0.66c0.19,-0.18 0.41,-0.27 0.68,-0.27z" id="Path 1"/><path d="M-65.01918,715.75271v3.6c0,0.84 -0.26,1.52 -0.78,2.04c0.53,0.59 0.8,1.24 0.8,1.94v3.75c0,0.53 -0.19,0.98 -0.57,1.36c-0.38,0.38 -0.84,0.57 -1.37,0.57h-6.79c-0.27,0 -0.49,-0.09 -0.68,-0.28c-0.19,-0.19 -0.28,-0.41 -0.28,-0.68c0,-0.27 0.09,-0.49 0.28,-0.68c0.19,-0.19 0.41,-0.28 0.68,-0.28h6.77v-3.75c0,-0.27 -0.09,-0.5 -0.28,-0.69c-0.19,-0.19 -0.41,-0.29 -0.68,-0.29h-3.87c-0.27,0 -0.49,-0.09 -0.68,-0.27c-0.19,-0.18 -0.28,-0.41 -0.28,-0.69c0,-0.28 0.09,-0.49 0.28,-0.68c0.19,-0.19 0.41,-0.28 0.68,-0.28h3.89c0.26,0 0.48,-0.09 0.67,-0.28c0.19,-0.19 0.29,-0.41 0.29,-0.68v-3.72h-6.86c-0.27,0 -0.49,-0.09 -0.68,-0.28c-0.19,-0.19 -0.28,-0.41 -0.28,-0.68c0,-0.27 0.09,-0.49 0.28,-0.68c0.19,-0.19 0.41,-0.28 0.68,-0.28h6.86c0.53,0 0.99,0.19 1.36,0.57c0.37,0.38 0.56,0.83 0.56,1.36z" id="Path 1"/></g><circle cx="367.94082" cy="612.51271" r="20" id="Shape 1" fill="#000000" stroke="none" stroke-width="0"/><g id="Group 1" fill="#ffffff" stroke="none" stroke-width="0"><path d="M357.25082,617.72271h2.9v-11.13h-2.85c-0.26,0 -0.49,-0.09 -0.67,-0.27c-0.18,-0.18 -0.27,-0.41 -0.27,-0.67c0,-0.26 0.09,-0.48 0.27,-0.67c0.18,-0.19 0.41,-0.28 0.67,-0.28h4.74v13.02h1.89v-3.93c0,-0.25 0.09,-0.48 0.28,-0.66c0.18,-0.19 0.41,-0.28 0.67,-0.28c0.26,0 0.49,0.09 0.67,0.28c0.18,0.19 0.27,0.41 0.27,0.67v4.87c0,0.26 -0.09,0.48 -0.27,0.67c-0.18,0.19 -0.41,0.28 -0.67,0.28h-7.61c-0.26,0 -0.49,-0.1 -0.67,-0.29c-0.18,-0.19 -0.27,-0.42 -0.27,-0.68c0,-0.26 0.09,-0.47 0.27,-0.65c0.18,-0.18 0.41,-0.27 0.67,-0.27z" id="Path 1"/><path d="M376.43082,618.66271v-3.93h-5.68v-9.09c0,-0.26 0.1,-0.49 0.29,-0.68c0.19,-0.19 0.42,-0.29 0.68,-0.29c0.26,0 0.48,0.09 0.66,0.29c0.19,0.19 0.28,0.42 0.28,0.68v7.18h3.77v-5.53c0,-0.26 0.09,-0.49 0.28,-0.68c0.18,-0.19 0.41,-0.29 0.67,-0.29c0.26,0 0.48,0.1 0.67,0.29c0.18,0.19 0.28,0.42 0.28,0.68v5.53c0.26,0 0.48,0.09 0.67,0.28c0.19,0.19 0.28,0.41 0.28,0.67c0,0.26 -0.09,0.48 -0.28,0.67c-0.19,0.19 -0.41,0.28 -0.67,0.28v3.95c0,0.26 -0.09,0.48 -0.28,0.67c-0.19,0.18 -0.41,0.28 -0.66,0.28c-0.25,0 -0.48,-0.09 -0.67,-0.28c-0.19,-0.19 -0.28,-0.41 -0.28,-0.67z" id="Path 1"/></g><circle cx="879.67082" cy="724.05271" r="20" id="Shape 1" fill="#000000" stroke="none" stroke-width="0"/><g id="Group 1" fill="#ffffff" stroke="none" stroke-width="0"><path d="M869.52082,730.02271h2.9v-11.13h-2.85c-0.26,0 -0.49,-0.09 -0.67,-0.27c-0.18,-0.18 -0.27,-0.41 -0.27,-0.67c0,-0.26 0.09,-0.48 0.27,-0.67c0.18,-0.19 0.41,-0.28 0.67,-0.28h4.74v13.02h1.89v-3.93c0,-0.25 0.09,-0.48 0.28,-0.66c0.18,-0.19 0.41,-0.28 0.67,-0.28c0.26,0 0.49,0.09 0.67,0.28c0.18,0.19 0.27,0.41 0.27,0.67v4.87c0,0.26 -0.09,0.48 -0.27,0.67c-0.18,0.19 -0.41,0.28 -0.67,0.28h-7.61c-0.26,0 -0.49,-0.1 -0.67,-0.29c-0.18,-0.19 -0.27,-0.42 -0.27,-0.68c0,-0.26 0.09,-0.47 0.27,-0.65c0.18,-0.18 0.41,-0.27 0.67,-0.27z" id="Path 1"/><path d="M883.41082,730.02271h2.9v-11.13h-2.85c-0.26,0 -0.49,-0.09 -0.67,-0.27c-0.18,-0.18 -0.27,-0.41 -0.27,-0.67c0,-0.26 0.09,-0.48 0.27,-0.67c0.18,-0.19 0.41,-0.28 0.67,-0.28h4.74v13.02h1.89v-3.93c0,-0.25 0.09,-0.48 0.28,-0.66c0.18,-0.19 0.41,-0.28 0.67,-0.28c0.26,0 0.49,0.09 0.67,0.28c0.18,0.19 0.27,0.41 0.27,0.67v4.87c0,0.26 -0.09,0.48 -0.27,0.67c-0.18,0.19 -0.41,0.28 -0.67,0.28h-7.61c-0.26,0 -0.49,-0.1 -0.67,-0.29c-0.18,-0.19 -0.27,-0.42 -0.27,-0.68c0,-0.26 0.09,-0.47 0.27,-0.65c0.18,-0.18 0.41,-0.27 0.67,-0.27z" id="Path 1"/></g><circle cx="1406.27082" cy="741.93271" r="20" id="Shape 1" fill="#000000" stroke="none" stroke-width="0"/><g id="Group 1" fill="#ffffff" stroke="none" stroke-width="0"><path d="M1395.12082,746.91271h2.9v-11.13h-2.85c-0.26,0 -0.48,-0.09 -0.67,-0.27c-0.19,-0.18 -0.28,-0.41 -0.28,-0.67c0,-0.26 0.09,-0.48 0.28,-0.67c0.19,-0.19 0.41,-0.28 0.67,-0.28h4.74v13.02h1.89v-3.93c0,-0.25 0.09,-0.48 0.28,-0.66c0.18,-0.19 0.41,-0.28 0.67,-0.28c0.26,0 0.49,0.09 0.67,0.28c0.18,0.19 0.27,0.41 0.27,0.67v4.87c0,0.26 -0.09,0.48 -0.27,0.67c-0.18,0.19 -0.41,0.28 -0.67,0.28h-7.61c-0.26,0 -0.48,-0.1 -0.67,-0.29c-0.18,-0.19 -0.28,-0.42 -0.28,-0.68c0,-0.26 0.09,-0.47 0.28,-0.65c0.19,-0.18 0.41,-0.27 0.67,-0.27z" id="Path 1"/><path d="M1416.69082,748.80271h-8.58v-6.51c0,-0.52 0.19,-0.97 0.56,-1.35c0.37,-0.37 0.81,-0.56 1.33,-0.56h5.73v-4.59h-6.74c-0.27,0 -0.49,-0.09 -0.67,-0.27c-0.18,-0.18 -0.27,-0.41 -0.27,-0.67c0,-0.26 0.09,-0.48 0.27,-0.67c0.18,-0.19 0.4,-0.28 0.67,-0.28h6.74c0.53,0 0.97,0.19 1.35,0.56c0.38,0.37 0.56,0.81 0.56,1.33v4.59c0,0.53 -0.19,0.98 -0.56,1.35c-0.37,0.37 -0.82,0.56 -1.35,0.56h-5.73v4.63h6.69c0.25,0 0.47,0.09 0.66,0.28c0.19,0.19 0.28,0.41 0.28,0.67c0,0.26 -0.09,0.48 -0.28,0.67c-0.19,0.19 -0.41,0.28 -0.66,0.28z" id="Path 1"/></g><path d="M318.48082,371.86271h-11.19v-8.5c0,-0.68 0.24,-1.27 0.73,-1.76c0.48,-0.49 1.06,-0.73 1.74,-0.73h7.47v-5.99h-8.79c-0.35,0 -0.64,-0.12 -0.88,-0.36c-0.24,-0.24 -0.35,-0.53 -0.35,-0.87c0,-0.34 0.12,-0.63 0.35,-0.87c0.23,-0.24 0.53,-0.36 0.88,-0.36h8.79c0.68,0 1.27,0.24 1.76,0.73c0.49,0.48 0.73,1.06 0.73,1.74v5.99c0,0.69 -0.24,1.28 -0.73,1.77c-0.49,0.48 -1.07,0.72 -1.76,0.72h-7.47v6.04h8.73c0.33,0 0.62,0.12 0.86,0.36c0.24,0.24 0.37,0.53 0.37,0.87c0,0.34 -0.12,0.63 -0.37,0.87c-0.24,0.24 -0.53,0.36 -0.86,0.36z" id="Path 1" fill="#ffffff" stroke="none" stroke-width="0"/><path d="M719.16082,-11.47729v-5.13h-7.41v-11.85c0,-0.34 0.12,-0.64 0.37,-0.89c0.25,-0.25 0.54,-0.37 0.89,-0.37c0.35,0 0.62,0.12 0.86,0.37c0.24,0.25 0.37,0.54 0.37,0.89v9.36h4.92v-7.21c0,-0.34 0.12,-0.64 0.36,-0.89c0.24,-0.25 0.53,-0.37 0.87,-0.37c0.34,0 0.63,0.12 0.87,0.37c0.24,0.25 0.36,0.54 0.36,0.89v7.21c0.34,0 0.63,0.12 0.87,0.36c0.24,0.24 0.36,0.53 0.36,0.87c0,0.34 -0.12,0.63 -0.36,0.87c-0.24,0.24 -0.53,0.36 -0.87,0.36v5.16c0,0.34 -0.12,0.63 -0.37,0.87c-0.24,0.24 -0.53,0.36 -0.86,0.36c-0.33,0 -0.63,-0.12 -0.87,-0.36c-0.24,-0.24 -0.36,-0.53 -0.36,-0.87z" id="Path 1" fill="#ffffff" stroke="none" stroke-width="0"/><path d="M886.91082,-12.92729v-14.72c0,-0.64 0.23,-1.2 0.7,-1.67c0.47,-0.47 1.03,-0.7 1.67,-0.7h7.68c0.63,0 1.18,0.23 1.65,0.7c0.46,0.47 0.7,1.03 0.7,1.67v14.72c0,0.65 -0.23,1.21 -0.7,1.68c-0.46,0.46 -1.02,0.7 -1.68,0.7h-7.65c-0.66,0 -1.23,-0.23 -1.69,-0.7c-0.46,-0.47 -0.69,-1.02 -0.69,-1.68zM896.87082,-13.01729v-14.52h-7.5v14.52z" id="CompoundPath 1" fill="#ffffff" stroke="none" stroke-width="0"/><path d="M1224.49082,-19.48729h-1.23c-0.33,0 -0.62,-0.12 -0.87,-0.36c-0.24,-0.24 -0.37,-0.53 -0.37,-0.87c0,-0.34 0.12,-0.63 0.36,-0.87c0.24,-0.24 0.53,-0.36 0.87,-0.36v-8.13h-8.67c-0.33,0 -0.62,-0.12 -0.87,-0.37c-0.25,-0.25 -0.37,-0.53 -0.37,-0.86v-6.39c0,-0.33 0.12,-0.62 0.37,-0.86c0.25,-0.24 0.53,-0.37 0.87,-0.37h9.9c0.33,0 0.62,0.12 0.86,0.37c0.24,0.25 0.37,0.53 0.37,0.86v16.98c0,0.34 -0.12,0.63 -0.36,0.87c-0.24,0.24 -0.53,0.36 -0.87,0.36zM1223.29082,-32.56729v-3.87h-7.47v3.87z" id="CompoundPath 1" fill="#ffffff" stroke="none" stroke-width="0"/><path d="M1090.47082,205.44271v-1.05c0,-0.34 0.12,-0.63 0.36,-0.87c0.24,-0.24 0.53,-0.36 0.87,-0.36h11.16v7.56c0,0.4 -0.15,0.73 -0.45,1l-4.53,3.87v5.73c0,0.34 -0.12,0.64 -0.36,0.89c-0.24,0.25 -0.53,0.37 -0.87,0.37c-0.34,0 -0.64,-0.12 -0.89,-0.37c-0.25,-0.24 -0.37,-0.53 -0.37,-0.86v-6.21c0,-0.47 0.15,-0.83 0.44,-1.08l4.54,-3.84v-4.58h-7.44c-0.18,0.7 -0.59,1.05 -1.23,1.05c-0.34,0 -0.63,-0.12 -0.87,-0.36c-0.24,-0.24 -0.36,-0.53 -0.36,-0.87z" id="Path 1" fill="#ffffff" stroke="none" stroke-width="0"/><path d="M911.08082,495.99271h1.23c0.34,0 0.63,0.12 0.87,0.37c0.24,0.24 0.36,0.53 0.36,0.86c0,0.33 -0.12,0.63 -0.36,0.87c-0.24,0.24 -0.53,0.36 -0.87,0.36v8.13h8.67c0.33,0 0.62,0.12 0.86,0.37c0.24,0.25 0.37,0.54 0.37,0.89v6.36c0,0.34 -0.12,0.63 -0.38,0.87c-0.25,0.24 -0.54,0.36 -0.88,0.36h-9.87c-0.34,0 -0.64,-0.12 -0.89,-0.37c-0.25,-0.24 -0.37,-0.53 -0.37,-0.86v-16.98c0,-0.34 0.12,-0.63 0.37,-0.87c0.24,-0.24 0.54,-0.36 0.89,-0.36zM912.28082,509.07271v3.9h7.44v-3.9z" id="CompoundPath 1" fill="#ffffff" stroke="none" stroke-width="0"/><path d="M1340.16082,465.43271v-6.01c0,-0.67 0.24,-1.25 0.73,-1.74c0.49,-0.48 1.07,-0.72 1.76,-0.72v-7.25c0,-0.34 0.12,-0.63 0.35,-0.87c0.23,-0.24 0.53,-0.36 0.88,-0.36h5.01c0.34,0 0.63,0.12 0.87,0.36c0.24,0.24 0.36,0.53 0.36,0.87v7.25c0.66,0 1.24,0.24 1.73,0.71c0.49,0.47 0.73,1.06 0.73,1.75v6.04c0,0.67 -0.24,1.25 -0.73,1.74c-0.49,0.48 -1.06,0.72 -1.73,0.72h-7.47c-0.69,0 -1.28,-0.25 -1.76,-0.76c-0.48,-0.51 -0.73,-1.08 -0.73,-1.73zM1342.65082,459.42271v6.04h7.47v-6.04zM1345.11082,450.94271v6.02h2.55v-6.02z" id="CompoundPath 1" fill="#ffffff" stroke="none" stroke-width="0"/><path d="M913.32082,375.39271h5.7v-6.04h-7.44v-10.94h8.67c0.33,0 0.62,0.12 0.87,0.37c0.25,0.25 0.37,0.53 0.37,0.86c0,0.33 -0.12,0.63 -0.36,0.87c-0.24,0.24 -0.53,0.36 -0.87,0.36h-6.18v6.02h4.95c0.66,0 1.24,0.24 1.73,0.73c0.49,0.49 0.73,1.06 0.73,1.73v6.04c0,0.67 -0.24,1.25 -0.72,1.74c-0.48,0.49 -1.06,0.72 -1.74,0.72h-5.7c-0.51,0 -1.05,-0.12 -1.63,-0.37l-1.86,-0.78c-0.5,-0.21 -0.75,-0.6 -0.75,-1.17c0,-0.34 0.11,-0.63 0.34,-0.87c0.23,-0.24 0.5,-0.36 0.82,-0.36c0.24,0 0.53,0.07 0.85,0.22l1.62,0.69c0.2,0.12 0.4,0.18 0.6,0.18z" id="Path 1" fill="#ffffff" stroke="none" stroke-width="0"/><path d="M-136.72918,218.80271v4.61c0,1.07 -0.33,1.94 -1,2.61c0.68,0.76 1.03,1.59 1.03,2.49v4.8c0,0.67 -0.24,1.25 -0.73,1.74c-0.49,0.48 -1.07,0.72 -1.76,0.72h-8.7c-0.34,0 -0.63,-0.12 -0.87,-0.36c-0.24,-0.24 -0.36,-0.53 -0.36,-0.87c0,-0.34 0.12,-0.63 0.36,-0.87c0.24,-0.24 0.53,-0.36 0.87,-0.36h8.67v-4.8c0,-0.34 -0.12,-0.64 -0.36,-0.89c-0.24,-0.25 -0.53,-0.37 -0.87,-0.37h-4.95c-0.34,0 -0.63,-0.12 -0.87,-0.35c-0.24,-0.23 -0.36,-0.53 -0.36,-0.88c0,-0.35 0.12,-0.63 0.36,-0.87c0.24,-0.24 0.53,-0.36 0.87,-0.36h4.98c0.33,0 0.62,-0.12 0.86,-0.36c0.24,-0.24 0.37,-0.53 0.37,-0.87v-4.76h-8.79c-0.34,0 -0.63,-0.12 -0.87,-0.36c-0.24,-0.24 -0.36,-0.53 -0.36,-0.87c0,-0.34 0.12,-0.63 0.36,-0.87c0.24,-0.24 0.53,-0.36 0.87,-0.36h8.79c0.68,0 1.26,0.24 1.74,0.73c0.48,0.48 0.72,1.06 0.72,1.74z" id="Path 1" fill="#ffffff" stroke="none" stroke-width="0"/><circle cx="296.26082" cy="100.79271" r="11.67" id="Shape 1" fill="#000000" stroke="none" stroke-width="0"/><circle cx="517.89082" cy="169.28271" r="11.67" id="Shape 1" fill="#000000" stroke="none" stroke-width="0"/><circle cx="94.22082" cy="296.86271" r="11.67" id="Shape 1" fill="#000000" stroke="none" stroke-width="0"/><circle cx="-36.52918" cy="296.86271" r="11.67" id="Shape 1" fill="#000000" stroke="none" stroke-width="0"/><circle cx="183.26082" cy="363.00271" r="11.67" id="Shape 1" fill="#000000" stroke="none" stroke-width="0"/><circle cx="-6.43918" cy="542.42271" r="11.67" id="Shape 1" fill="#000000" stroke="none" stroke-width="0"/><circle cx="150.38082" cy="667.15271" r="11.67" id="Shape 1" fill="#000000" stroke="none" stroke-width="0"/><circle cx="341.71082" cy="492.49271" r="11.67" id="Shape 1" fill="#000000" stroke="none" stroke-width="0"/><circle cx="817.06082" cy="174.18271" r="11.67" id="Shape 1" fill="#000000" stroke="none" stroke-width="0"/><circle cx="993.43082" cy="94.09271" r="11.67" id="Shape 1" fill="#000000" stroke="none" stroke-width="0"/><circle cx="802.32082" cy="-19.56729" r="11.67" id="Shape 1" fill="#000000" stroke="none" stroke-width="0"/><circle cx="1006.56082" cy="290.28271" r="11.67" id="Shape 1" fill="#000000" stroke="none" stroke-width="0"/><circle cx="1130.87082" cy="413.31271" r="11.67" id="Shape 1" fill="#000000" stroke="none" stroke-width="0"/><circle cx="1124.33082" cy="482.46271" r="11.67" id="Shape 1" fill="#000000" stroke="none" stroke-width="0"/><circle cx="916.00082" cy="439.40271" r="11.67" id="Shape 1" fill="#000000" stroke="none" stroke-width="0"/><circle cx="618.87082" cy="437.06271" r="11.67" id="Shape 1" fill="#000000" stroke="none" stroke-width="0"/><circle cx="634.66082" cy="562.06271" r="11.67" id="Shape 1" fill="#000000" stroke="none" stroke-width="0"/><circle cx="631.60082" cy="670.15271" r="11.67" id="Shape 1" fill="#000000" stroke="none" stroke-width="0"/><circle cx="1218.41082" cy="332.68271" r="11.67" id="Shape 1" fill="#000000" stroke="none" stroke-width="0"/><circle cx="1376.27082" cy="603.90271" r="11.67" id="Shape 1" fill="#000000" stroke="none" stroke-width="0"/><circle cx="1146.31082" cy="732.16271" r="11.67" id="Shape 1" fill="#000000" stroke="none" stroke-width="0"/><circle cx="896.00082" cy="614.98271" r="11.67" id="Shape 1" fill="#000000" stroke="none" stroke-width="0"/><circle cx="1065.45082" cy="-24.44729" r="11.67" id="Shape 1" fill="#000000" stroke="none" stroke-width="0"/><circle cx="1159.82082" cy="89.19271" r="11.67" id="Shape 1" fill="#000000" stroke="none" stroke-width="0"/><path d="M-39.70918,300.85271l2.64,-8.98c0.11,-0.33 0.33,-0.49 0.66,-0.49c0.33,0 0.53,0.14 0.62,0.41l2.62,9.11c0.02,0.07 0.03,0.13 0.03,0.2c0,0.18 -0.06,0.34 -0.19,0.46c-0.12,0.13 -0.27,0.19 -0.43,0.19c-0.34,0 -0.56,-0.16 -0.66,-0.48l-0.52,-1.78h-3l-0.57,1.91c-0.02,0.08 -0.08,0.16 -0.2,0.24c-0.12,0.08 -0.24,0.11 -0.38,0.11c-0.19,0 -0.35,-0.06 -0.48,-0.2c-0.13,-0.13 -0.19,-0.29 -0.19,-0.48c0,-0.08 0.01,-0.16 0.04,-0.24zM-36.40918,294.42271l-1.13,3.76h2.22z" id="CompoundPath 1" fill="#0096fa" stroke="none" stroke-width="0"/><path d="M97.62082,298.54271v0.58c0,0.72 -0.26,1.34 -0.77,1.86c-0.51,0.52 -1.13,0.78 -1.85,0.78h-4.01v-10.38h4.01c0.72,0 1.34,0.26 1.85,0.77c0.51,0.52 0.77,1.14 0.77,1.87v0.55c0,0.78 -0.3,1.44 -0.9,1.98c0.6,0.56 0.9,1.22 0.9,1.98zM96.28082,294.56271v-0.54c0,-0.36 -0.13,-0.68 -0.39,-0.94c-0.26,-0.26 -0.57,-0.39 -0.93,-0.39h-2.67v3.18h2.67c0.35,0 0.66,-0.13 0.92,-0.39c0.26,-0.26 0.39,-0.57 0.39,-0.93zM96.28082,299.12271v-0.55c0,-0.36 -0.13,-0.68 -0.39,-0.94c-0.26,-0.26 -0.57,-0.39 -0.93,-0.39h-2.65v3.19h2.65c0.35,0 0.66,-0.13 0.92,-0.39c0.26,-0.26 0.39,-0.57 0.39,-0.93z" id="CompoundPath 1" fill="#0096fa" stroke="none" stroke-width="0"/><path d="M182.64082,367.03271h2.37c0.18,0 0.34,0.06 0.47,0.19c0.13,0.13 0.2,0.28 0.2,0.46c0,0.18 -0.07,0.34 -0.2,0.46c-0.13,0.13 -0.29,0.19 -0.47,0.19h-2.45c-0.31,0 -0.64,-0.1 -0.97,-0.3c-0.33,-0.2 -0.56,-0.42 -0.7,-0.66l-1.51,-2.93c-0.2,-0.42 -0.3,-0.85 -0.3,-1.3c0,-0.49 0.1,-0.91 0.29,-1.27l1.53,-2.9c0.15,-0.27 0.37,-0.51 0.68,-0.71c0.31,-0.2 0.6,-0.31 0.89,-0.31h2.59c0.18,0 0.34,0.07 0.46,0.2c0.13,0.13 0.19,0.28 0.19,0.46c0,0.18 -0.06,0.34 -0.19,0.47c-0.13,0.13 -0.28,0.2 -0.46,0.2h-2.5c-0.21,0 -0.38,0.12 -0.51,0.37l-1.46,2.72c-0.11,0.21 -0.17,0.47 -0.17,0.76c0,0.31 0.06,0.58 0.19,0.81l1.39,2.67c0.13,0.28 0.34,0.41 0.64,0.41z" id="Path 1" fill="#0096fa" stroke="none" stroke-width="0"/><path d="M293.69082,94.90271h2.59c0.34,0 0.67,0.11 0.99,0.33c0.32,0.21 0.56,0.47 0.71,0.77l1.3,2.62c0.25,0.47 0.37,0.97 0.37,1.48c0,0.48 -0.13,0.97 -0.39,1.48l-1.3,2.59c-0.17,0.33 -0.41,0.6 -0.72,0.8c-0.31,0.2 -0.66,0.3 -1.05,0.3h-2.51c-0.18,0 -0.34,-0.06 -0.46,-0.2c-0.13,-0.13 -0.19,-0.28 -0.19,-0.46c0,-0.18 0.06,-0.34 0.19,-0.47c0.13,-0.13 0.28,-0.2 0.46,-0.2h0.69v-7.72h-0.67c-0.18,0 -0.34,-0.07 -0.46,-0.2c-0.12,-0.13 -0.19,-0.29 -0.19,-0.47c0,-0.18 0.06,-0.33 0.19,-0.46c0.13,-0.13 0.28,-0.2 0.46,-0.2zM295.67082,96.23271v7.74h0.46c0.29,0 0.51,-0.14 0.65,-0.43l1.3,-2.58c0.16,-0.34 0.24,-0.62 0.25,-0.85c0,-0.29 -0.07,-0.56 -0.2,-0.81l-1.34,-2.67c-0.14,-0.27 -0.37,-0.4 -0.69,-0.4z" id="CompoundPath 1" fill="#0096fa" stroke="none" stroke-width="0"/><path d="M520.52082,165.41271h-4.64v3.19h2c0.18,0 0.33,0.06 0.46,0.19c0.13,0.13 0.2,0.28 0.2,0.46c0,0.19 -0.06,0.35 -0.19,0.48c-0.13,0.13 -0.28,0.2 -0.46,0.2h-2v3.22h4.65c0.18,0 0.33,0.06 0.46,0.19c0.13,0.13 0.2,0.28 0.2,0.46c0,0.18 -0.07,0.34 -0.2,0.46c-0.13,0.13 -0.29,0.19 -0.47,0.19h-5.95v-10.38h5.95c0.18,0 0.34,0.07 0.47,0.2c0.13,0.13 0.2,0.29 0.2,0.47c0,0.18 -0.07,0.33 -0.2,0.46c-0.13,0.13 -0.29,0.2 -0.47,0.2z" id="Path 1" fill="#0096fa" stroke="none" stroke-width="0"/><path d="M817.49082,168.42271h2.18c0.18,0 0.34,0.06 0.46,0.19c0.13,0.13 0.19,0.28 0.19,0.46c0,0.19 -0.07,0.35 -0.21,0.48c-0.14,0.13 -0.29,0.19 -0.45,0.19h-2.08c-0.2,0 -0.38,0.09 -0.53,0.29l-1.84,2.37c-0.16,0.19 -0.23,0.45 -0.23,0.78v3.63c0,0.19 0.06,0.35 0.19,0.48c0.13,0.13 0.28,0.2 0.46,0.2h2.67c0.18,0 0.33,-0.06 0.46,-0.2c0.13,-0.13 0.2,-0.28 0.2,-0.46v-1.42h-1.36c-0.19,0 -0.34,-0.06 -0.47,-0.19c-0.12,-0.13 -0.19,-0.28 -0.19,-0.46c0,-0.18 0.06,-0.34 0.19,-0.46c0.12,-0.13 0.28,-0.19 0.47,-0.19h2.67v2.73c0,0.54 -0.19,1 -0.58,1.39c-0.38,0.39 -0.85,0.58 -1.39,0.58h-2.67c-0.55,0 -1.01,-0.19 -1.4,-0.58c-0.39,-0.39 -0.58,-0.85 -0.58,-1.39v-3.63c0,-0.65 0.17,-1.2 0.52,-1.65l1.94,-2.46c0.14,-0.19 0.34,-0.35 0.59,-0.48c0.25,-0.13 0.51,-0.2 0.78,-0.2z" id="Path 1" fill="#0096fa" stroke="none" stroke-width="0"/><path d="M799.10082,-15.23729v-9.72h5.95c0.17,0 0.32,0.06 0.46,0.2c0.13,0.13 0.2,0.28 0.2,0.46c0,0.18 -0.07,0.34 -0.2,0.47c-0.13,0.13 -0.28,0.2 -0.46,0.2h-4.64v2.06h3.33c0.18,0 0.34,0.06 0.46,0.19c0.13,0.13 0.19,0.28 0.19,0.46c0,0.18 -0.06,0.34 -0.19,0.46c-0.13,0.13 -0.28,0.19 -0.46,0.19h-3.33v5.02c0,0.18 -0.06,0.34 -0.19,0.46c-0.13,0.13 -0.28,0.19 -0.46,0.19c-0.18,0 -0.34,-0.06 -0.46,-0.19c-0.13,-0.13 -0.19,-0.28 -0.19,-0.46z" id="Path 1" fill="#0096fa" stroke="none" stroke-width="0"/><path d="M1062.87082,-29.51729h5.31c0.17,0 0.32,0.06 0.46,0.2c0.13,0.13 0.2,0.28 0.2,0.46c0,0.18 -0.07,0.34 -0.2,0.47c-0.13,0.13 -0.28,0.2 -0.46,0.2h-1.98v7.74h1.98c0.18,0 0.34,0.06 0.46,0.19c0.13,0.13 0.19,0.28 0.19,0.46c0,0.18 -0.07,0.34 -0.2,0.46c-0.13,0.13 -0.28,0.19 -0.46,0.19h-5.31c-0.18,0 -0.34,-0.06 -0.46,-0.19c-0.13,-0.13 -0.19,-0.28 -0.19,-0.46c0,-0.18 0.06,-0.34 0.19,-0.46c0.13,-0.12 0.28,-0.19 0.46,-0.19h2.01v-7.74h-2.01c-0.18,0 -0.34,-0.07 -0.46,-0.2c-0.13,-0.13 -0.19,-0.28 -0.19,-0.46c0,-0.19 0.06,-0.35 0.19,-0.48c0.13,-0.13 0.28,-0.2 0.46,-0.2z" id="Path 1" fill="#0096fa" stroke="none" stroke-width="0"/><path d="M990.19082,98.02271v-9.07c0,-0.18 0.06,-0.33 0.19,-0.46c0.13,-0.13 0.28,-0.2 0.46,-0.2c0.18,0 0.33,0.06 0.46,0.2c0.13,0.13 0.2,0.28 0.2,0.46v3.87h4v-3.87c0,-0.18 0.06,-0.33 0.19,-0.46c0.13,-0.13 0.28,-0.2 0.46,-0.2c0.18,0 0.34,0.06 0.46,0.2c0.13,0.13 0.19,0.29 0.19,0.48v9.05c0,0.18 -0.07,0.33 -0.2,0.46c-0.13,0.13 -0.29,0.2 -0.46,0.2c-0.19,0 -0.34,-0.06 -0.47,-0.19c-0.12,-0.13 -0.19,-0.28 -0.19,-0.46v-3.89h-3.98v3.89c0,0.18 -0.07,0.33 -0.2,0.46c-0.13,0.13 -0.29,0.2 -0.47,0.2c-0.18,0 -0.33,-0.06 -0.46,-0.19c-0.13,-0.13 -0.2,-0.28 -0.2,-0.46z" id="Path 1" fill="#0096fa" stroke="none" stroke-width="0"/><path d="M1157.24082,92.11271v-2.08c0,-0.18 0.06,-0.34 0.19,-0.46c0.13,-0.13 0.28,-0.19 0.46,-0.19c0.18,0 0.34,0.06 0.46,0.19c0.13,0.13 0.19,0.28 0.19,0.46v2.09c0,0.18 0.07,0.33 0.2,0.45c0.13,0.12 0.29,0.19 0.48,0.19h1.33c0.18,0 0.34,-0.06 0.47,-0.19c0.13,-0.13 0.2,-0.28 0.2,-0.46v-7.74c0,-0.18 0.06,-0.34 0.19,-0.46c0.12,-0.13 0.28,-0.19 0.45,-0.19c0.17,0 0.33,0.07 0.47,0.21c0.13,0.14 0.2,0.3 0.2,0.48v7.71c0,0.55 -0.2,1.02 -0.6,1.41c-0.4,0.39 -0.86,0.58 -1.38,0.58h-1.33c-0.55,0 -1.01,-0.2 -1.4,-0.59c-0.39,-0.39 -0.58,-0.86 -0.58,-1.4z" id="Path 1" fill="#0096fa" stroke="none" stroke-width="0"/><path d="M1217.83082,332.00271v-0.34l-1.36,-1.94v7.92c0,0.18 -0.06,0.34 -0.19,0.46c-0.13,0.13 -0.28,0.19 -0.46,0.19c-0.18,0 -0.34,-0.06 -0.46,-0.2c-0.13,-0.13 -0.19,-0.28 -0.19,-0.46v-9.72h1.7l1.61,2.35l1.67,-2.35h1.66v9.72c0,0.18 -0.07,0.34 -0.2,0.46c-0.13,0.13 -0.29,0.19 -0.47,0.19c-0.18,0 -0.33,-0.06 -0.46,-0.2c-0.13,-0.13 -0.2,-0.28 -0.2,-0.46v-7.89l-1.33,1.87v0.37c0,0.18 -0.06,0.33 -0.2,0.46c-0.13,0.13 -0.28,0.2 -0.46,0.2c-0.18,0 -0.34,-0.06 -0.46,-0.2c-0.13,-0.13 -0.19,-0.28 -0.19,-0.46z" id="Path 1" fill="#0096fa" stroke="none" stroke-width="0"/><path d="M1003.33082,294.85271v-9.05c0,-0.19 0.06,-0.35 0.19,-0.48c0.13,-0.13 0.28,-0.2 0.46,-0.2c0.18,0 0.34,0.06 0.46,0.19c0.13,0.13 0.19,0.28 0.19,0.46v3.1l4.2,-3.59c0.15,-0.12 0.31,-0.18 0.49,-0.17c0.18,0 0.34,0.07 0.46,0.2c0.12,0.13 0.19,0.29 0.19,0.46c0,0.18 -0.07,0.33 -0.21,0.45l-4.76,4.05l4.77,4.12c0.13,0.11 0.19,0.25 0.19,0.42c0,0.17 -0.06,0.33 -0.19,0.47c-0.13,0.14 -0.29,0.21 -0.47,0.21c-0.18,0 -0.33,-0.06 -0.48,-0.18l-4.19,-3.6v3.13c0,0.18 -0.06,0.34 -0.19,0.46c-0.13,0.13 -0.28,0.19 -0.46,0.19c-0.18,0 -0.33,-0.06 -0.46,-0.19c-0.13,-0.13 -0.2,-0.28 -0.2,-0.46z" id="Path 1" fill="#0096fa" stroke="none" stroke-width="0"/><path d="M1127.66082,417.83271v-9.72c0,-0.18 0.07,-0.33 0.2,-0.46c0.13,-0.13 0.28,-0.2 0.46,-0.2c0.18,0 0.33,0.07 0.46,0.2c0.13,0.13 0.2,0.28 0.2,0.46v8.41h4.64c0.18,0 0.34,0.06 0.47,0.19c0.13,0.13 0.2,0.28 0.2,0.46c0,0.18 -0.07,0.34 -0.2,0.46c-0.13,0.13 -0.29,0.19 -0.47,0.19h-5.95z" id="Path 1" fill="#0096fa" stroke="none" stroke-width="0"/><path d="M1125.97082,478.14271l1.44,2.94c0.2,0.4 0.3,0.83 0.3,1.3c0,0.47 -0.1,0.89 -0.3,1.3l-1.44,2.91c-0.31,0.64 -0.83,0.96 -1.56,0.96c-0.35,0 -0.66,-0.09 -0.94,-0.27c-0.28,-0.18 -0.49,-0.41 -0.63,-0.69l-1.45,-2.91c-0.19,-0.38 -0.29,-0.81 -0.29,-1.3c0,-0.49 0.1,-0.92 0.29,-1.3l1.45,-2.94c0.33,-0.64 0.85,-0.96 1.57,-0.96c0.72,0 1.25,0.32 1.56,0.96zM1123.97082,478.80271l-1.36,2.76c-0.12,0.28 -0.19,0.55 -0.19,0.81c0,0.29 0.06,0.56 0.19,0.82l1.4,2.79c0.07,0.17 0.21,0.26 0.4,0.26c0.17,0 0.29,-0.09 0.38,-0.26l1.41,-2.79c0.13,-0.28 0.2,-0.55 0.2,-0.82c0,-0.29 -0.07,-0.56 -0.2,-0.81l-1.38,-2.76c-0.09,-0.2 -0.23,-0.3 -0.41,-0.3c-0.18,0 -0.33,0.1 -0.44,0.3z" id="CompoundPath 1" fill="#0096fa" stroke="none" stroke-width="0"/><path d="M919.39082,435.03271v9.71h-1.76l-3.54,-8.06v7.4c0,0.18 -0.06,0.34 -0.19,0.46c-0.13,0.13 -0.28,0.19 -0.46,0.19c-0.18,0 -0.34,-0.06 -0.46,-0.19c-0.12,-0.13 -0.19,-0.28 -0.19,-0.46v-9.72h1.73l3.55,8.04v-7.37c0,-0.18 0.07,-0.34 0.2,-0.47c0.13,-0.13 0.29,-0.2 0.47,-0.2c0.18,0 0.34,0.06 0.46,0.2c0.13,0.13 0.19,0.29 0.19,0.48z" id="Path 1" fill="#0096fa" stroke="none" stroke-width="0"/><path d="M892.79082,618.97271v-9.72h4.65c0.54,0 1,0.2 1.39,0.58c0.39,0.39 0.58,0.86 0.58,1.4v2.46c0,0.54 -0.19,1 -0.58,1.39c-0.39,0.39 -0.85,0.58 -1.39,0.58h-3.33v3.31c0,0.18 -0.06,0.34 -0.19,0.46c-0.13,0.13 -0.28,0.19 -0.46,0.19c-0.18,0 -0.35,-0.06 -0.48,-0.19c-0.13,-0.13 -0.2,-0.28 -0.2,-0.46zM894.12082,614.35271h3.33c0.18,0 0.33,-0.06 0.46,-0.19c0.13,-0.13 0.2,-0.28 0.2,-0.46v-2.46c0,-0.18 -0.07,-0.34 -0.2,-0.46c-0.13,-0.12 -0.28,-0.19 -0.46,-0.19h-3.33v3.77z" id="CompoundPath 1" fill="#0096fa" stroke="none" stroke-width="0"/><path d="M631.09082,565.28271v-7.74c0,-0.18 0.07,-0.34 0.2,-0.47c0.13,-0.13 0.28,-0.2 0.46,-0.2c0.18,0 0.33,0.06 0.46,0.2c0.13,0.14 0.2,0.28 0.2,0.46v7.75c0,0.17 0.06,0.32 0.2,0.45c0.13,0.13 0.28,0.19 0.46,0.19h2.69c0.18,0 0.34,-0.06 0.46,-0.19c0.13,-0.12 0.19,-0.28 0.19,-0.45v-7.74c0,-0.19 0.06,-0.35 0.19,-0.48c0.13,-0.13 0.28,-0.2 0.46,-0.2c0.18,0 0.34,0.06 0.46,0.2c0.13,0.13 0.19,0.29 0.19,0.48v7.72c0,0.54 -0.19,1.01 -0.58,1.4c-0.39,0.39 -0.85,0.59 -1.39,0.59h-2.69c-0.54,0 -1,-0.19 -1.39,-0.58c-0.39,-0.38 -0.58,-0.85 -0.58,-1.39z" id="Path 1" fill="#0096fa" stroke="none" stroke-width="0"/><path d="M634.91082,666.20271v2.41l-2.67,6.8c-0.14,0.33 -0.35,0.49 -0.64,0.49c-0.31,0 -0.52,-0.16 -0.65,-0.49l-2.66,-6.8v-2.41c0,-0.19 0.06,-0.35 0.19,-0.48c0.13,-0.13 0.28,-0.2 0.46,-0.2c0.18,0 0.34,0.07 0.47,0.2c0.13,0.13 0.19,0.29 0.19,0.48v2.14l2,5.09l2,-5.08v-2.15c0,-0.19 0.06,-0.35 0.19,-0.48c0.13,-0.13 0.28,-0.2 0.47,-0.2c0.19,0 0.34,0.07 0.47,0.2c0.13,0.13 0.19,0.29 0.19,0.48z" id="Path 1" fill="#0096fa" stroke="none" stroke-width="0"/><path d="M150.38082,668.82271l-2.1,3.57c-0.12,0.21 -0.3,0.31 -0.55,0.31c-0.19,0 -0.35,-0.07 -0.48,-0.2c-0.13,-0.14 -0.2,-0.28 -0.2,-0.45c0,-0.12 0.04,-0.25 0.12,-0.38l2.45,-4.16l-2.4,-4.11c-0.09,-0.16 -0.14,-0.31 -0.14,-0.44c0,-0.17 0.07,-0.31 0.19,-0.44c0.13,-0.13 0.28,-0.19 0.45,-0.19c0.25,0 0.44,0.11 0.56,0.31l2.11,3.55l2.08,-3.54c0.13,-0.22 0.32,-0.33 0.56,-0.33c0.18,0 0.34,0.06 0.48,0.19c0.14,0.13 0.2,0.28 0.2,0.46c0,0.12 -0.03,0.24 -0.1,0.35l-2.46,4.19l2.45,4.2c0.06,0.1 0.09,0.21 0.09,0.33c0,0.19 -0.06,0.34 -0.19,0.46c-0.13,0.12 -0.28,0.19 -0.46,0.19c-0.26,0 -0.45,-0.1 -0.57,-0.31l-2.08,-3.57z" id="Path 1" fill="#0096fa" stroke="none" stroke-width="0"/><path d="M-5.66918,542.62271v4.32c0,0.18 -0.06,0.34 -0.2,0.47c-0.13,0.13 -0.28,0.19 -0.46,0.19c-0.19,0 -0.35,-0.06 -0.48,-0.19c-0.13,-0.13 -0.2,-0.28 -0.2,-0.46v-4.32l-2.64,-3.34v-1.39c0,-0.19 0.06,-0.35 0.19,-0.48c0.13,-0.13 0.28,-0.2 0.46,-0.2c0.18,0 0.34,0.07 0.47,0.2c0.13,0.13 0.2,0.29 0.2,0.47v0.9l1.97,2.53l2,-2.53v-0.91c0,-0.18 0.06,-0.34 0.2,-0.47c0.13,-0.13 0.28,-0.2 0.46,-0.2c0.18,0 0.32,0.06 0.46,0.18c0.13,0.12 0.2,0.28 0.2,0.49v1.38l-2.64,3.35z" id="Path 1" fill="#0096fa" stroke="none" stroke-width="0"/><path d="M338.94082,486.98271h3.42c0.42,0 0.81,0.18 1.18,0.53c0.37,0.35 0.56,0.78 0.56,1.28c0,0.19 -0.07,0.35 -0.2,0.48c-0.13,0.13 -0.28,0.2 -0.44,0.2c-0.22,0 -0.38,-0.05 -0.46,-0.15c-0.08,-0.1 -0.16,-0.29 -0.24,-0.57c-0.08,-0.28 -0.24,-0.41 -0.5,-0.41h-3.25c-0.16,0 -0.23,0.05 -0.23,0.15c0,0.06 0.03,0.14 0.09,0.22l4.88,6.22c0.24,0.3 0.35,0.62 0.35,0.97c0,0.39 -0.14,0.73 -0.43,1.03c-0.28,0.3 -0.6,0.45 -0.95,0.45h-3.54c-0.47,0 -0.88,-0.18 -1.22,-0.53c-0.35,-0.36 -0.52,-0.75 -0.52,-1.18c0,-0.49 0.23,-0.73 0.69,-0.73c0.18,0 0.33,0.06 0.45,0.19c0.12,0.13 0.19,0.28 0.19,0.45c0,0.14 0.05,0.26 0.14,0.35c0.1,0.09 0.22,0.14 0.36,0.14h3.26c0.14,0 0.21,-0.06 0.21,-0.17c0,-0.05 -0.03,-0.12 -0.1,-0.21l-4.87,-6.22c-0.23,-0.3 -0.34,-0.62 -0.34,-0.97c0,-0.41 0.15,-0.76 0.44,-1.06c0.29,-0.3 0.64,-0.45 1.05,-0.45z" id="Path 1" fill="#0096fa" stroke="none" stroke-width="0"/><path d="M615.64082,434.12271v-1.77h6.62v1.79c0,0.18 -0.07,0.34 -0.2,0.46c-0.13,0.13 -0.28,0.19 -0.46,0.19c-0.18,0 -0.34,-0.07 -0.47,-0.2c-0.13,-0.13 -0.2,-0.28 -0.2,-0.46v-0.48h-1.33v8.39c0,0.18 -0.06,0.34 -0.2,0.46c-0.13,0.13 -0.28,0.19 -0.46,0.19c-0.19,0 -0.35,-0.06 -0.48,-0.19c-0.13,-0.13 -0.2,-0.28 -0.2,-0.46v-8.39h-1.33v0.46c0,0.18 -0.06,0.34 -0.19,0.46c-0.13,0.12 -0.28,0.19 -0.46,0.19c-0.18,0 -0.34,-0.06 -0.46,-0.19c-0.13,-0.13 -0.19,-0.28 -0.19,-0.46z" id="Path 1" fill="#0096fa" stroke="none" stroke-width="0"/><path d="M1143.74082,729.28271l2.79,-2.41c0.38,-0.31 0.76,-0.46 1.16,-0.46c0.44,0 0.82,0.16 1.14,0.48c0.32,0.32 0.48,0.66 0.48,1.02v4.01c0,0.76 -0.33,1.42 -0.98,1.97l-0.89,0.75l0.34,0.84h0.88c0.18,0 0.34,0.06 0.46,0.19c0.12,0.13 0.19,0.28 0.19,0.46c0,0.18 -0.06,0.34 -0.19,0.46c-0.13,0.13 -0.28,0.19 -0.46,0.19h-1.8l-0.48,-1.24l-0.9,0.74c-0.39,0.33 -0.79,0.49 -1.19,0.49c-0.46,0 -0.84,-0.16 -1.15,-0.47c-0.31,-0.31 -0.46,-0.7 -0.46,-1.14v-3.66c0,-0.46 0.07,-0.85 0.21,-1.18c0.14,-0.33 0.42,-0.68 0.84,-1.04zM1147.40082,727.82271l-2.79,2.42c-0.24,0.21 -0.41,0.42 -0.49,0.61c-0.08,0.19 -0.12,0.47 -0.12,0.82v3.42c0,0.27 0.1,0.41 0.31,0.41c0.08,0 0.16,-0.04 0.24,-0.1l1.34,-1.14l-0.44,-1.14c-0.06,-0.15 -0.09,-0.28 -0.09,-0.39c0,-0.16 0.07,-0.31 0.2,-0.43c0.13,-0.13 0.28,-0.19 0.46,-0.19c0.31,0 0.51,0.13 0.61,0.38l0.34,0.88c0.38,-0.3 0.64,-0.54 0.79,-0.74c0.15,-0.2 0.23,-0.42 0.23,-0.69v-3.86c0,-0.22 -0.1,-0.33 -0.3,-0.33c-0.11,0 -0.21,0.03 -0.28,0.09z" id="CompoundPath 1" fill="#0096fa" stroke="none" stroke-width="0"/><path d="M1373.08082,608.59271v-9.72h4.64c0.54,0 1,0.2 1.39,0.59c0.39,0.39 0.58,0.86 0.58,1.4v0.75c0,0.55 -0.19,1.01 -0.58,1.4c-0.38,0.39 -0.85,0.58 -1.39,0.58h-0.84l2.68,4.61c0.08,0.13 0.12,0.27 0.12,0.41c0,0.18 -0.07,0.33 -0.2,0.46c-0.14,0.13 -0.29,0.19 -0.46,0.19c-0.26,0 -0.46,-0.12 -0.59,-0.35l-3.07,-5.31h-0.95v5.01c0,0.18 -0.07,0.34 -0.2,0.46c-0.13,0.13 -0.29,0.19 -0.47,0.19c-0.18,0 -0.34,-0.06 -0.46,-0.19c-0.13,-0.13 -0.19,-0.28 -0.19,-0.46zM1374.39082,602.27271h3.33c0.18,0 0.34,-0.06 0.46,-0.19c0.13,-0.13 0.19,-0.28 0.19,-0.46v-0.77c0,-0.18 -0.06,-0.34 -0.19,-0.46c-0.13,-0.13 -0.28,-0.19 -0.46,-0.19h-3.33v2.08z" id="CompoundPath 1" fill="#0096fa" stroke="none" stroke-width="0"/></g></g></g></g></g></g></svg>