<?xml version="1.0" encoding="UTF-8"?>
<svg id="intro" xmlns="http://www.w3.org/2000/svg" viewBox="0 0 1800 930">
  <defs>
    <style>
      .cls-1, .cls-2 {
        fill: #fff;
      }

      .cls-3 {
        stroke: #231f20;
      }

      .cls-3, .cls-4, .cls-5, .cls-6, .cls-7, .cls-8, .cls-9 {
        stroke-miterlimit: 10;
      }

      .cls-3, .cls-4, .cls-5, .cls-7, .cls-9 {
        fill: none;
      }

      .cls-3, .cls-9 {
        stroke-width: 5px;
      }

      .cls-10 {
        font-family: Pretendard-ExtraBold-KSCpc-EUC-H, Pretendard;
        font-size: 31.81px;
        font-weight: 700;
      }

      .cls-10, .cls-6, .cls-8, .cls-11 {
        fill: #0096fa;
      }

      .cls-4, .cls-6 {
        stroke: #fff;
      }

      .cls-4, .cls-6, .cls-7, .cls-8 {
        stroke-width: 4.17px;
      }

      .cls-5 {
        stroke-width: 6.71px;
      }

      .cls-5, .cls-7, .cls-8 {
        stroke: #0096fa;
      }

      .cls-9 {
        stroke: #000;
      }

      .cls-2 {
        font-family: OCRAExtended, 'OCR A Extended';
        font-size: 30px;
      }
    </style>
  </defs>
  <g id="bck">
    <rect class="cls-11" width="1800" height="930"/>
  </g>
  <g id="graphic">
    <path class="cls-1" d="m815.85,366.03v-115.26h-440.31c-43.49-46.24-184.78-46.24-184.78-46.24v46.24H1.11v367.26h379.69v-88.14h288.15v-74.36l41.39-21.85c-1.92,5.17-2.98,10.75-2.98,16.59,0,26.29,21.32,47.61,47.61,47.61s47.61-21.32,47.61-47.61c0-24.24-18.12-44.23-41.54-47.21v-37.02h54.81Z"/>
    <rect class="cls-1" x="1003.23" y="438.71" width="387.62" height="207.44" rx="103.72" ry="103.72"/>
    <rect class="cls-1" x="0" y="722.56" width="387.62" height="207.44" rx="103.72" ry="103.72"/>
    <polygon class="cls-1" points="1800.33 -.13 1460.25 -.13 1460.25 268.96 1333.14 268.96 1333.14 363.06 1707.88 363.06 1707.88 316.01 1800.33 316.01 1800.33 -.13"/>
    <polygon class="cls-1" points="1214.83 166.57 882.69 166.57 948.37 1.76 1280.51 1.76 1214.83 166.57"/>
    <polygon class="cls-1" points="1372.84 930 860.85 930 942.32 725.56 1454.31 725.56 1372.84 930"/>
    <polygon class="cls-1" points="1623.65 462.05 1448.61 562.68 1623.65 663.3 1798.69 562.68 1623.65 462.05"/>
    <rect class="cls-1" x="1557.89" y="761.2" width="242.11" height="168.8"/>
    <path class="cls-1" d="m483.64,655.04v142.29c26.96,59.47,141.92,60.85,171.17-1.42,26.24-55.85,137.64-59.43,166.19-2.08v-138.79h-337.37Z"/>
  </g>
  <g id="network">
    <line class="cls-9" x1="201.3" y1="826.01" x2="341.46" y2="466.73"/>
    <line class="cls-9" x1="201.3" y1="827.78" x2="645.85" y2="716.35"/>
    <line class="cls-9" x1="646.39" y1="716.96" x2="1193.91" y2="614.61"/>
    <line class="cls-9" x1="1155.62" y1="827.78" x2="1193.91" y2="609.94"/>
    <line class="cls-9" x1="1684.72" y1="842.27" x2="1623.65" y2="562.43"/>
    <line class="cls-9" x1="1157.58" y1="827.78" x2="1684.72" y2="842.27"/>
    <line class="cls-9" x1="645.85" y1="716.24" x2="591.33" y2="466.73"/>
    <line class="cls-9" x1="643.68" y1="716.24" x2="1158.12" y2="827.79"/>
  </g>
  <g id="number">
    <line class="cls-5" x1="1768.46" y1="85.37" x2="1585.73" y2="85.37"/>
    <polyline class="cls-5" points="1724.71 32.12 1768.46 85.23 1724.71 140.5"/>
    <circle class="cls-11" cx="1582.65" cy="85.37" r="9.21"/>
    <circle class="cls-11" cx="1725.62" cy="33.55" r="9.21"/>
    <circle class="cls-11" cx="1725.62" cy="139.29" r="9.21"/>
    <circle class="cls-11" cx="1766.79" cy="85.37" r="9.21"/>
    <text class="cls-10" transform="translate(1440.51 325.5)"><tspan x="0" y="0">전시 보러가기</tspan></text>
    <g>
      <circle class="cls-1" cx="1268.71" cy="326.61" r="7.5"/>
      <circle class="cls-1" cx="1238.84" cy="358.8" r="7.5"/>
      <circle class="cls-1" cx="1238.78" cy="293.94" r="7.5"/>
      <circle class="cls-1" cx="1072.46" cy="326.61" r="7.5"/>
      <circle class="cls-1" cx="802.28" cy="596.22" r="7.5"/>
      <g>
        <line class="cls-6" x1="1269.57" y1="326.61" x2="1072.46" y2="326.61"/>
        <line class="cls-6" x1="1072.92" y1="325.59" x2="804.42" y2="594.09"/>
        <polyline class="cls-4" points="1238.84 358.8 1269.71 326.61 1238.78 294.37"/>
      </g>
    </g>
    <g>
      <circle class="cls-11" cx="505.14" cy="303.21" r="7.5"/>
      <circle class="cls-11" cx="506.77" cy="347.09" r="7.5"/>
      <circle class="cls-11" cx="460.86" cy="301.27" r="7.5"/>
      <circle class="cls-11" cx="269.44" cy="538.91" r="7.5"/>
      <circle class="cls-11" cx="77.08" cy="538.91" r="7.5"/>
      <g>
        <line class="cls-8" x1="505.74" y1="302.6" x2="269.44" y2="538.91"/>
        <line class="cls-8" x1="269.44" y1="538.91" x2="77.08" y2="538.91"/>
        <polyline class="cls-7" points="506.77 347.09 505.84 302.5 461.17 301.58"/>
      </g>
    </g>
    <g>
      <path class="cls-1" d="m1262.75,685.08v4.36c0,.58.18,1.1.54,1.55l2.7,3.46c.13.15.19.37.19.65,0,.36-.12.65-.35.86s-.51.31-.83.31c-.33,0-.59-.12-.77-.35l-2.73-3.49c-.69-.85-1.03-1.77-1.03-2.76v-4.85c0-.96.34-1.87,1.03-2.74l2.73-3.49c.19-.23.44-.35.76-.35s.59.1.83.31c.24.21.36.49.36.86,0,.27-.07.48-.21.65l-2.69,3.44c-.35.46-.53.99-.53,1.58Z"/>
      <path class="cls-1" d="m1280.63,685.3v7.56l.66,1.11h.95l.69-1.14v-13.39c0-.32.12-.59.34-.82.23-.23.5-.34.82-.34s.57.11.8.34c.23.23.34.49.34.8v13.79c0,.17-.09.41-.28.72l-1.05,1.74c-.22.39-.54.58-.99.58h-2.14c-.68,0-1.11-.31-1.3-.92-.21.61-.62.92-1.24.92h-2c-.58,0-.99-.21-1.24-.64l-.97-1.63c-.18-.3-.27-.55-.27-.77v-13.76c0-.32.12-.59.34-.82.23-.23.5-.34.82-.34.3,0,.56.12.78.34.22.23.33.5.33.82v13.45l.66,1.08h.97l.72-1.14v-7.53c0-.32.11-.58.33-.8s.49-.33.8-.33.58.11.8.33.33.49.33.8Z"/>
      <path class="cls-1" d="m1301.92,687.46v2.74c0,.31-.11.57-.34.8-.23.22-.49.34-.8.34h-8.03v.66c0,.39.17.72.5.99l.66.55c.36.28.7.42,1.03.42h5.84c.31,0,.57.11.8.33.22.22.34.49.34.8s-.12.57-.34.8c-.23.23-.49.34-.79.34h-5.99c-.4,0-.81-.08-1.25-.25s-.76-.34-.97-.52l-1.01-.89c-.32-.25-.58-.6-.79-1.05-.21-.45-.32-.87-.32-1.24v-5.2c0-.3.12-.7.34-1.2.23-.5.52-.9.87-1.18l.95-.74c.62-.5,1.31-.76,2.07-.76h3.19c.8,0,1.56.33,2.27,1l.85.81c.61.55.92,1.37.92,2.46Zm-9.14-.18v1.76h6.89v-1.58c0-.42-.13-.75-.39-.97l-.66-.58c-.34-.28-.65-.42-.92-.42h-2.85c-.35,0-.67.12-.96.37l-.66.55c-.3.22-.45.52-.45.88Z"/>
      <path class="cls-1" d="m1327.31,688.04h4.45c.24,0,.59.05,1.06.16l-.03-1.61c0-.32-.11-.58-.33-.8-.22-.22-.49-.33-.81-.33h-4.32c-.31,0-.57-.11-.8-.34-.23-.23-.34-.49-.34-.8s.11-.58.33-.8c.22-.22.49-.33.81-.33h4.32c.94,0,1.74.33,2.4.99s1.01,1.46,1.04,2.42l.28,8.5c0,.32-.11.58-.34.8-.22.22-.49.33-.8.33-.32,0-.6-.11-.83-.33-.22-.22-.34-.49-.34-.8l-1.92,1.14h-3.84c-.96,0-1.77-.33-2.44-1-.67-.67-1-1.48-1-2.43v-1.32c0-.95.34-1.75,1.01-2.43.67-.67,1.48-1.01,2.43-1.01Zm5.68,4.42l-.07-.96c0-.33-.12-.59-.34-.81-.22-.22-.48-.32-.8-.32h-4.48c-.32,0-.58.11-.8.33s-.33.49-.33.8v1.27c0,.31.11.57.34.8.23.23.49.34.8.34h3.21l2.48-1.45Z"/>
      <path class="cls-1" d="m1340.64,695.1v-10.77c0-.32.11-.59.33-.82.22-.23.49-.34.8-.34s.58.11.8.34.33.5.33.82v1.42l1.85-1.58c.77-.65,1.51-.97,2.24-.97h1.66c.94,0,1.74.33,2.41,1s1,1.47,1,2.41v.61c0,.32-.11.6-.33.83-.22.22-.49.34-.8.34s-.58-.11-.8-.33c-.22-.22-.33-.49-.33-.8v-.64c0-.32-.11-.58-.33-.8s-.49-.33-.8-.33h-1.47c-.32,0-.67.17-1.05.5l-3.23,2.8v6.34c0,.32-.11.58-.34.8-.22.22-.49.33-.8.33s-.58-.11-.8-.33-.33-.49-.33-.8Z"/>
      <path class="cls-1" d="m1368.8,687.46v2.74c0,.31-.11.57-.34.8-.23.22-.49.34-.8.34h-8.03v.66c0,.39.17.72.5.99l.66.55c.36.28.7.42,1.03.42h5.84c.31,0,.57.11.8.33.22.22.34.49.34.8s-.12.57-.34.8c-.23.23-.49.34-.79.34h-5.99c-.4,0-.81-.08-1.25-.25s-.76-.34-.97-.52l-1.01-.89c-.32-.25-.58-.6-.79-1.05-.21-.45-.32-.87-.32-1.24v-5.2c0-.3.12-.7.34-1.2.23-.5.52-.9.87-1.18l.95-.74c.62-.5,1.31-.76,2.07-.76h3.19c.8,0,1.56.33,2.27,1l.85.81c.61.55.92,1.37.92,2.46Zm-9.14-.18v1.76h6.89v-1.58c0-.42-.13-.75-.39-.97l-.66-.58c-.34-.28-.65-.42-.92-.42h-2.85c-.35,0-.67.12-.96.37l-.66.55c-.3.22-.45.52-.45.88Z"/>
      <path class="cls-1" d="m1393.1,694.94v5.03c0,.32-.11.6-.33.82-.22.23-.49.34-.8.34s-.59-.11-.82-.34c-.23-.22-.34-.5-.34-.82v-16.19c0-.31.11-.57.34-.8s.5-.34.82-.34c.31,0,.57.11.8.34s.34.49.34.8v.73c1.1-1.23,2.19-1.84,3.26-1.84h.53c.8,0,1.54.3,2.22.89l1.89,1.64c.83.72,1.24,1.64,1.24,2.74v3.54c0,1.12-.45,2.06-1.34,2.83l-1.85,1.59c-.61.56-1.39.84-2.33.84h-.5c-.88,0-1.63-.31-2.24-.92l-.88-.88Zm3.2-.5h.58c.28,0,.58-.14.89-.42l1.77-1.55c.3-.23.45-.55.45-.96v-3.66c0-.36-.17-.68-.5-.96l-1.91-1.64c-.22-.19-.45-.28-.7-.28h-.66c-.25,0-.58.21-.99.62l-1.69,1.68c-.3.3-.45.63-.45,1v2.91c0,.35.17.69.5,1.03l1.64,1.63c.41.41.76.61,1.07.61Z"/>
      <path class="cls-1" d="m1410.91,688.04h4.45c.24,0,.59.05,1.06.16l-.03-1.61c0-.32-.11-.58-.33-.8-.22-.22-.49-.33-.81-.33h-4.32c-.31,0-.57-.11-.8-.34-.23-.23-.34-.49-.34-.8s.11-.58.33-.8c.22-.22.49-.33.81-.33h4.32c.94,0,1.74.33,2.4.99s1.01,1.46,1.04,2.42l.28,8.5c0,.32-.11.58-.34.8-.22.22-.49.33-.8.33-.32,0-.6-.11-.83-.33-.22-.22-.34-.49-.34-.8l-1.92,1.14h-3.84c-.96,0-1.77-.33-2.44-1-.67-.67-1-1.48-1-2.43v-1.32c0-.95.34-1.75,1.01-2.43.67-.67,1.48-1.01,2.43-1.01Zm5.68,4.42l-.07-.96c0-.33-.12-.59-.34-.81-.22-.22-.48-.32-.8-.32h-4.48c-.32,0-.58.11-.8.33s-.33.49-.33.8v1.27c0,.31.11.57.34.8.23.23.49.34.8.34h3.21l2.48-1.45Z"/>
      <path class="cls-1" d="m1432.22,696.24h-2.27c-.94,0-1.74-.33-2.42-1s-1.01-1.47-1.01-2.41v-7.37h-1.16c-.32,0-.58-.11-.8-.32-.22-.22-.33-.49-.33-.81s.11-.58.33-.8c.22-.22.49-.33.8-.33h1.19v-2.78c0-.32.11-.58.33-.8s.49-.33.8-.33c.3,0,.56.11.79.34.23.22.34.49.34.8v2.78h4.57c.31,0,.57.11.8.34.23.23.34.49.34.8s-.11.58-.34.8-.49.33-.8.33h-4.6v7.37c0,.31.11.57.34.8.23.22.5.34.82.34h2.22c.6,0,1-.33,1.2-.98s.58-.98,1.15-.98c.33,0,.61.11.82.33.21.22.32.5.32.83,0,.68-.32,1.37-.97,2.05s-1.47,1.02-2.47,1.02Z"/>
      <path class="cls-1" d="m1440.94,695.1v-15.69c0-.31.11-.57.33-.78.22-.22.49-.32.8-.32s.58.11.8.33c.22.22.33.49.33.8v5.73l1.82-1.19c.83-.52,1.57-.78,2.22-.78h1.41c.93,0,1.73.33,2.39.99.67.66,1.01,1.47,1.04,2.41l.28,8.5c0,.32-.1.58-.32.8-.23.22-.5.33-.81.33s-.58-.12-.8-.34c-.22-.23-.33-.49-.34-.79l-.28-8.53c0-.31-.13-.57-.35-.8-.23-.22-.5-.34-.81-.34h-1.27c-.29,0-.6.11-.95.34l-3.23,2.11v7.22c0,.32-.11.58-.33.8-.22.22-.49.33-.8.33s-.58-.11-.8-.33c-.22-.22-.33-.49-.33-.8Z"/>
      <path class="cls-1" d="m1462.86,685.46v9.64c0,.32-.11.58-.34.8s-.49.33-.8.33c-.33,0-.6-.11-.83-.33s-.34-.49-.34-.8v-9.64h-1.16c-.32,0-.58-.11-.8-.34-.22-.23-.33-.49-.33-.8s.1-.56.3-.79c.2-.23.48-.34.83-.34h1.19v-.88c0-1.16.4-2.13,1.2-2.89.8-.77,1.79-1.15,2.98-1.15h2.66c.32,0,.58.11.8.34.22.23.33.5.33.83,0,.31-.11.57-.34.8-.23.23-.49.34-.8.34h-2.66c-.54,0-.99.16-1.34.49-.36.32-.53.74-.53,1.26v.88h2.27c.31,0,.57.1.8.33s.34.5.34.81-.11.57-.34.8c-.23.22-.49.34-.8.34h-2.3Z"/>
      <path class="cls-1" d="m1483.57,696.21h-6.92c-.32,0-.58-.11-.8-.33s-.33-.49-.33-.8.11-.57.33-.8c.22-.22.49-.34.8-.34h2.32v-8.47h-2.3c-.32,0-.58-.11-.8-.34-.22-.23-.33-.49-.33-.8s.11-.59.33-.82c.22-.23.49-.34.8-.34h3.46c.32,0,.58.11.8.34.22.23.33.5.33.82v9.61h2.27c.31,0,.59.11.82.33s.34.49.34.8-.11.58-.34.8c-.23.22-.49.33-.8.33Zm-4.62-18.94h1.19c.32,0,.58.11.8.33s.33.49.33.8v.97c0,.32-.11.59-.33.82-.22.23-.49.34-.8.34h-1.22c-.32,0-.6-.12-.82-.35-.22-.23-.33-.5-.32-.78l.03-1c0-.32.11-.58.33-.8s.49-.33.8-.33Z"/>
      <path class="cls-1" d="m1496.5,685.83l-3.1,2.01v7.26c0,.31-.11.57-.34.8-.22.23-.49.34-.8.34s-.57-.11-.8-.34-.34-.49-.34-.8v-10.77c0-.32.11-.59.33-.82.22-.23.49-.34.8-.34s.57.11.8.34c.23.23.34.5.34.82v.76l2.07-1.26c.7-.44,1.48-.66,2.36-.66h1.06c.9,0,1.68.32,2.34.96.66.64,1.01,1.43,1.04,2.37l.31,8.61c0,.31-.1.57-.32.8s-.5.34-.81.34c-.3,0-.56-.1-.78-.3-.23-.2-.34-.48-.35-.83l-.34-8.47c-.03-.79-.44-1.19-1.25-1.19h-1.11c-.34,0-.71.13-1.11.39Z"/>
      <path class="cls-1" d="m1516.98,684.77v-5.37c0-.32.11-.58.32-.8.22-.22.48-.33.78-.33s.59.11.82.33c.23.22.34.49.34.8v15.69c0,.32-.11.58-.34.8-.23.22-.49.33-.8.33-.32,0-.59-.11-.81-.33-.22-.22-.32-.49-.32-.8v-.5c-1.11,1.09-2.15,1.64-3.11,1.64h-1.93c-.78,0-1.55-.33-2.33-1l-.95-.8c-.22-.21-.42-.55-.61-1.04-.19-.49-.29-.94-.29-1.37v-4.62c0-.51.11-1.01.32-1.49.22-.48.47-.84.76-1.09l.93-.8c.67-.58,1.45-.87,2.35-.87h1.63c.89,0,1.7.32,2.43.95l.78.66Zm-3.3.69h-1.58c-.33,0-.64.12-.91.36l-.73.64c-.25.23-.38.51-.38.87v4.81c0,.32.15.6.45.85l.74.64c.23.21.48.31.74.31h1.85c.24,0,.53-.14.87-.42l1.8-1.49c.3-.26.45-.58.45-.97v-2.46c0-.55-.16-.96-.47-1.22l-1.85-1.58c-.24-.23-.57-.34-.97-.34Z"/>
      <path class="cls-1" d="m1536,687.46v2.74c0,.31-.11.57-.34.8-.23.22-.49.34-.8.34h-8.03v.66c0,.39.17.72.5.99l.66.55c.36.28.7.42,1.03.42h5.84c.31,0,.57.11.8.33.22.22.34.49.34.8s-.12.57-.34.8c-.23.23-.49.34-.79.34h-5.99c-.4,0-.81-.08-1.25-.25s-.76-.34-.97-.52l-1.01-.89c-.32-.25-.58-.6-.79-1.05-.21-.45-.32-.87-.32-1.24v-5.2c0-.3.12-.7.34-1.2.23-.5.52-.9.87-1.18l.95-.74c.62-.5,1.31-.76,2.07-.76h3.19c.8,0,1.56.33,2.27,1l.85.81c.61.55.92,1.37.92,2.46Zm-9.14-.18v1.76h6.89v-1.58c0-.42-.13-.75-.39-.97l-.66-.58c-.34-.28-.65-.42-.92-.42h-2.85c-.35,0-.67.12-.96.37l-.66.55c-.3.22-.45.52-.45.88Z"/>
      <path class="cls-1" d="m1541.28,695.1v-10.77c0-.32.11-.59.33-.82.22-.23.49-.34.8-.34s.58.11.8.34.33.5.33.82v1.42l1.85-1.58c.77-.65,1.51-.97,2.24-.97h1.66c.94,0,1.74.33,2.41,1s1,1.47,1,2.41v.61c0,.32-.11.6-.33.83-.22.22-.49.34-.8.34s-.58-.11-.8-.33c-.22-.22-.33-.49-.33-.8v-.64c0-.32-.11-.58-.33-.8s-.49-.33-.8-.33h-1.47c-.32,0-.67.17-1.05.5l-3.23,2.8v6.34c0,.32-.11.58-.34.8-.22.22-.49.33-.8.33s-.58-.11-.8-.33-.33-.49-.33-.8Z"/>
      <path class="cls-1" d="m1561.18,683.19h5.2c.81,0,1.53.24,2.15.72.62.48.93.95.93,1.41,0,.33-.11.59-.34.8-.23.21-.48.31-.76.31-.36,0-.69-.16-.99-.49-.3-.32-.61-.49-.93-.49h-5.14c-.5,0-.76.21-.76.63,0,.29.17.52.5.67l6.04,2.69c.61.27,1.12.71,1.51,1.3.39.6.59,1.26.59,1.99,0,.97-.34,1.8-1.03,2.47s-1.47,1.01-2.35,1.01h-4.6c-.79,0-1.53-.24-2.21-.72-.68-.48-1.02-.94-1.02-1.39,0-.3.11-.56.33-.79.22-.23.51-.34.86-.34.29,0,.6.16.93.49.33.33.8.49,1.43.49h4.23c.33,0,.61-.13.84-.39s.34-.55.34-.88c0-.51-.25-.88-.76-1.11l-6.1-2.74c-.59-.26-1.04-.64-1.35-1.14-.32-.5-.47-1-.47-1.51,0-.81.28-1.51.84-2.11.56-.59,1.26-.89,2.09-.89Z"/>
      <path class="cls-1" d="m1580.62,689.45v-4.4c0-.57-.18-1.09-.55-1.55l-2.71-3.44c-.13-.17-.2-.38-.2-.63,0-.35.12-.63.36-.86.24-.22.51-.33.82-.33s.57.12.76.35l2.77,3.49c.67.84,1,1.75,1,2.74v4.85c0,1.01-.33,1.93-1,2.76l-2.77,3.49c-.19.23-.45.35-.77.35-.31,0-.58-.11-.81-.32s-.35-.5-.35-.86c0-.27.07-.49.19-.65l2.71-3.44c.37-.45.55-.97.55-1.56Z"/>
    </g>
    <g>
      <path class="cls-1" d="m487.47,872.31v4.36c0,.58.18,1.1.54,1.55l2.7,3.46c.13.15.19.37.19.65,0,.36-.12.65-.35.86s-.51.31-.83.31c-.33,0-.59-.12-.77-.35l-2.73-3.49c-.69-.85-1.03-1.77-1.03-2.76v-4.85c0-.96.34-1.87,1.03-2.74l2.73-3.49c.19-.23.44-.35.76-.35s.59.1.83.31c.24.21.36.49.36.86,0,.27-.07.48-.21.65l-2.69,3.44c-.35.46-.53.99-.53,1.58Z"/>
      <path class="cls-1" d="m498.48,882.33v-16.83h10.3c.3,0,.56.11.79.34.23.23.34.49.34.8s-.11.59-.34.82c-.23.23-.49.34-.8.34h-8.03v3.57h5.76c.32,0,.58.11.8.33.22.22.33.49.33.8s-.11.58-.33.8c-.22.22-.49.33-.8.33h-5.76v8.69c0,.32-.11.58-.33.8s-.49.33-.8.33-.58-.11-.8-.33-.33-.49-.33-.8Z"/>
      <path class="cls-1" d="m524.37,883.44h-6.92c-.32,0-.58-.11-.8-.33s-.33-.49-.33-.8.11-.57.33-.8c.22-.22.49-.34.8-.34h2.32v-8.47h-2.3c-.32,0-.58-.11-.8-.34-.22-.23-.33-.49-.33-.8s.11-.59.33-.82c.22-.23.49-.34.8-.34h3.46c.32,0,.58.11.8.34.22.23.33.5.33.82v9.61h2.27c.31,0,.59.11.82.33s.34.49.34.8-.11.58-.34.8c-.23.22-.49.33-.8.33Zm-4.62-18.94h1.19c.32,0,.58.11.8.33s.33.49.33.8v.97c0,.32-.11.59-.33.82-.22.23-.49.34-.8.34h-1.22c-.32,0-.6-.12-.82-.35-.22-.23-.33-.5-.32-.78l.03-1c0-.32.11-.58.33-.8s.49-.33.8-.33Z"/>
      <path class="cls-1" d="m537.3,873.06l-3.1,2.01v7.26c0,.31-.11.57-.34.8-.22.23-.49.34-.8.34s-.57-.11-.8-.34-.34-.49-.34-.8v-10.77c0-.32.11-.59.33-.82.22-.23.49-.34.8-.34s.57.11.8.34c.23.23.34.5.34.82v.76l2.07-1.26c.7-.44,1.48-.66,2.36-.66h1.06c.9,0,1.68.32,2.34.96.66.64,1.01,1.43,1.04,2.37l.31,8.61c0,.31-.1.57-.32.8s-.5.34-.81.34c-.3,0-.56-.1-.78-.3-.23-.2-.34-.48-.35-.83l-.34-8.47c-.03-.79-.44-1.19-1.25-1.19h-1.11c-.34,0-.71.13-1.11.39Z"/>
      <path class="cls-1" d="m557.78,872v-5.37c0-.32.11-.58.32-.8.22-.22.48-.33.78-.33s.59.11.82.33c.23.22.34.49.34.8v15.69c0,.32-.11.58-.34.8-.23.22-.49.33-.8.33-.32,0-.59-.11-.81-.33-.22-.22-.32-.49-.32-.8v-.5c-1.11,1.09-2.15,1.64-3.11,1.64h-1.93c-.78,0-1.55-.33-2.33-1l-.95-.8c-.22-.21-.42-.55-.61-1.04-.19-.49-.29-.94-.29-1.37v-4.62c0-.51.11-1.01.32-1.49.22-.48.47-.84.76-1.09l.93-.8c.67-.58,1.45-.87,2.35-.87h1.63c.89,0,1.7.32,2.43.95l.78.66Zm-3.3.69h-1.58c-.33,0-.64.12-.91.36l-.73.64c-.25.23-.38.51-.38.87v4.81c0,.32.15.6.45.85l.74.64c.23.21.48.31.74.31h1.85c.24,0,.53-.14.87-.42l1.8-1.49c.3-.26.45-.58.45-.97v-2.46c0-.55-.16-.96-.47-1.22l-1.85-1.58c-.24-.23-.57-.34-.97-.34Z"/>
      <path class="cls-1" d="m574.53,883.44h-6.92c-.32,0-.58-.11-.8-.33s-.33-.49-.33-.8.11-.57.33-.8c.22-.22.49-.34.8-.34h2.32v-8.47h-2.3c-.32,0-.58-.11-.8-.34-.22-.23-.33-.49-.33-.8s.11-.59.33-.82c.22-.23.49-.34.8-.34h3.46c.32,0,.58.11.8.34.22.23.33.5.33.82v9.61h2.27c.31,0,.59.11.82.33s.34.49.34.8-.11.58-.34.8c-.23.22-.49.33-.8.33Zm-4.62-18.94h1.19c.32,0,.58.11.8.33s.33.49.33.8v.97c0,.32-.11.59-.33.82-.22.23-.49.34-.8.34h-1.22c-.32,0-.6-.12-.82-.35-.22-.23-.33-.5-.32-.78l.03-1c0-.32.11-.58.33-.8s.49-.33.8-.33Z"/>
      <path class="cls-1" d="m587.46,873.06l-3.1,2.01v7.26c0,.31-.11.57-.34.8-.22.23-.49.34-.8.34s-.57-.11-.8-.34-.34-.49-.34-.8v-10.77c0-.32.11-.59.33-.82.22-.23.49-.34.8-.34s.57.11.8.34c.23.23.34.5.34.82v.76l2.07-1.26c.7-.44,1.48-.66,2.36-.66h1.06c.9,0,1.68.32,2.34.96.66.64,1.01,1.43,1.04,2.37l.31,8.61c0,.31-.1.57-.32.8s-.5.34-.81.34c-.3,0-.56-.1-.78-.3-.23-.2-.34-.48-.35-.83l-.34-8.47c-.03-.79-.44-1.19-1.25-1.19h-1.11c-.34,0-.71.13-1.11.39Z"/>
      <path class="cls-1" d="m605.94,888.33h-4.92c-.32,0-.58-.11-.8-.32-.22-.22-.33-.49-.33-.81s.11-.58.33-.8c.22-.22.49-.32.8-.32h4.92c.3,0,.58-.11.84-.34l.77-.66c.26-.2.39-.46.39-.78v-3.46c-1.06,1.07-2.1,1.61-3.11,1.61h-1.74c-.9,0-1.71-.31-2.43-.93l-.85-.76c-.28-.23-.52-.58-.72-1.03-.2-.45-.3-.89-.3-1.32v-3.76c0-.53.1-1.04.3-1.51.2-.48.44-.83.72-1.07l.93-.8c.67-.58,1.45-.87,2.35-.87h1.63c.89,0,1.7.32,2.43.95l.78.66-.03-.45c0-.31.11-.57.34-.8s.49-.34.8-.34.59.11.82.33.34.49.34.8v12.73c0,.96-.39,1.79-1.16,2.47l-.92.8c-.23.21-.57.39-.99.54s-.83.23-1.2.23Zm-1.3-15.67h-1.53c-.33,0-.65.13-.96.39l-.7.58c-.27.22-.41.53-.41.92v3.78c0,.31.15.59.45.87l.74.66c.23.2.48.3.74.3h1.85c.27,0,.57-.14.89-.41l1.8-1.53c.28-.24.42-.54.42-.89v-1.72c0-.41-.16-.75-.47-1.01l-1.85-1.58c-.26-.24-.59-.37-.97-.37Z"/>
      <path class="cls-1" d="m643.68,874.52v4.8c0,1.02-.48,1.96-1.44,2.83-.96.86-1.95,1.3-2.97,1.3h-2.66c-1.04,0-2.03-.44-2.97-1.32-.95-.88-1.42-1.81-1.42-2.8v-4.8c0-.99.46-1.93,1.39-2.8.92-.88,1.93-1.32,3.01-1.32h2.66c1.02-.02,2.01.41,2.97,1.27.96.87,1.44,1.82,1.44,2.85Zm-9.17.09v4.6c0,.42.15.74.45.99l.85.73c.19.16.46.24.8.24h2.64c.39,0,.74-.14,1.05-.42l.69-.61c.28-.22.42-.52.42-.91v-4.6c0-.45-.14-.78-.42-1l-.8-.64c-.27-.22-.59-.34-.95-.34h-2.35c-.51,0-.91.12-1.19.37l-.77.66c-.28.23-.42.54-.42.92Z"/>
      <path class="cls-1" d="m654.34,873.06l-3.1,2.01v7.26c0,.31-.11.57-.34.8-.22.23-.49.34-.8.34s-.57-.11-.8-.34-.34-.49-.34-.8v-10.77c0-.32.11-.59.33-.82.22-.23.49-.34.8-.34s.57.11.8.34c.23.23.34.5.34.82v.76l2.07-1.26c.7-.44,1.48-.66,2.36-.66h1.06c.9,0,1.68.32,2.34.96.66.64,1.01,1.43,1.04,2.37l.31,8.61c0,.31-.1.57-.32.8s-.5.34-.81.34c-.3,0-.56-.1-.78-.3-.23-.2-.34-.48-.35-.83l-.34-8.47c-.03-.79-.44-1.19-1.25-1.19h-1.11c-.34,0-.71.13-1.11.39Z"/>
      <path class="cls-1" d="m677.12,874.69v2.74c0,.31-.11.57-.34.8-.23.22-.49.34-.8.34h-8.03v.66c0,.39.17.72.5.99l.66.55c.36.28.7.42,1.03.42h5.84c.31,0,.57.11.8.33.22.22.34.49.34.8s-.12.57-.34.8c-.23.23-.49.34-.79.34h-5.99c-.4,0-.81-.08-1.25-.25s-.76-.34-.97-.52l-1.01-.89c-.32-.25-.58-.6-.79-1.05-.21-.45-.32-.87-.32-1.24v-5.2c0-.3.12-.7.34-1.2.23-.5.52-.9.87-1.18l.95-.74c.62-.5,1.31-.76,2.07-.76h3.19c.8,0,1.56.33,2.27,1l.85.81c.61.55.92,1.37.92,2.46Zm-9.14-.18v1.76h6.89v-1.58c0-.42-.13-.75-.39-.97l-.66-.58c-.34-.28-.65-.42-.92-.42h-2.85c-.35,0-.67.12-.96.37l-.66.55c-.3.22-.45.52-.45.88Z"/>
      <path class="cls-1" d="m691.54,872.56c0,.32-.11.58-.33.8s-.49.33-.8.33-.58-.11-.8-.33-.33-.49-.33-.8v-4.76h-3.46c-.32,0-.58-.11-.8-.34-.22-.23-.33-.5-.33-.82s.11-.57.34-.8c.23-.22.49-.34.8-.34h4.6c.32,0,.58.11.8.34.22.23.33.5.33.83v5.89Z"/>
      <path class="cls-1" d="m702.3,870.42h5.2c.81,0,1.53.24,2.15.72.62.48.93.95.93,1.41,0,.33-.11.59-.34.8-.23.21-.48.31-.76.31-.36,0-.69-.16-.99-.49-.3-.32-.61-.49-.93-.49h-5.14c-.5,0-.76.21-.76.63,0,.29.17.52.5.67l6.04,2.69c.61.27,1.12.71,1.51,1.3.39.6.59,1.26.59,1.99,0,.97-.34,1.8-1.03,2.47s-1.47,1.01-2.35,1.01h-4.6c-.79,0-1.53-.24-2.21-.72-.68-.48-1.02-.94-1.02-1.39,0-.3.11-.56.33-.79.22-.23.51-.34.86-.34.29,0,.6.16.93.49.33.33.8.49,1.43.49h4.23c.33,0,.61-.13.84-.39s.34-.55.34-.88c0-.51-.25-.88-.76-1.11l-6.1-2.74c-.59-.26-1.04-.64-1.35-1.14-.32-.5-.47-1-.47-1.51,0-.81.28-1.51.84-2.11.56-.59,1.26-.89,2.09-.89Z"/>
      <path class="cls-1" d="m734.86,882.17v5.03c0,.32-.11.6-.33.82-.22.23-.49.34-.8.34s-.59-.11-.82-.34c-.23-.22-.34-.5-.34-.82v-16.19c0-.31.11-.57.34-.8s.5-.34.82-.34c.31,0,.57.11.8.34s.34.49.34.8v.73c1.1-1.23,2.19-1.84,3.26-1.84h.53c.8,0,1.54.3,2.22.89l1.89,1.64c.83.72,1.24,1.64,1.24,2.74v3.54c0,1.12-.45,2.06-1.34,2.83l-1.85,1.59c-.61.56-1.39.84-2.33.84h-.5c-.88,0-1.63-.31-2.24-.92l-.88-.88Zm3.2-.5h.58c.28,0,.58-.14.89-.42l1.77-1.55c.3-.23.45-.55.45-.96v-3.66c0-.36-.17-.68-.5-.96l-1.91-1.64c-.22-.19-.45-.28-.7-.28h-.66c-.25,0-.58.21-.99.62l-1.69,1.68c-.3.3-.45.63-.45,1v2.91c0,.35.17.69.5,1.03l1.64,1.63c.41.41.76.61,1.07.61Z"/>
      <path class="cls-1" d="m752.67,875.27h4.45c.24,0,.59.05,1.06.16l-.03-1.61c0-.32-.11-.58-.33-.8-.22-.22-.49-.33-.81-.33h-4.32c-.31,0-.57-.11-.8-.34-.23-.23-.34-.49-.34-.8s.11-.58.33-.8c.22-.22.49-.33.81-.33h4.32c.94,0,1.74.33,2.4.99s1.01,1.46,1.04,2.42l.28,8.5c0,.32-.11.58-.34.8-.22.22-.49.33-.8.33-.32,0-.6-.11-.83-.33-.22-.22-.34-.49-.34-.8l-1.92,1.14h-3.84c-.96,0-1.77-.33-2.44-1-.67-.67-1-1.48-1-2.43v-1.32c0-.95.34-1.75,1.01-2.43.67-.67,1.48-1.01,2.43-1.01Zm5.68,4.42l-.07-.96c0-.33-.12-.59-.34-.81-.22-.22-.48-.32-.8-.32h-4.48c-.32,0-.58.11-.8.33s-.33.49-.33.8v1.27c0,.31.11.57.34.8.23.23.49.34.8.34h3.21l2.48-1.45Z"/>
      <path class="cls-1" d="m773.98,883.46h-2.27c-.94,0-1.74-.33-2.42-1s-1.01-1.47-1.01-2.41v-7.37h-1.16c-.32,0-.58-.11-.8-.32-.22-.22-.33-.49-.33-.81s.11-.58.33-.8c.22-.22.49-.33.8-.33h1.19v-2.78c0-.32.11-.58.33-.8s.49-.33.8-.33c.3,0,.56.11.79.34.23.22.34.49.34.8v2.78h4.57c.31,0,.57.11.8.34.23.23.34.49.34.8s-.11.58-.34.8-.49.33-.8.33h-4.6v7.37c0,.31.11.57.34.8.23.22.5.34.82.34h2.22c.6,0,1-.33,1.2-.98s.58-.98,1.15-.98c.33,0,.61.11.82.33.21.22.32.5.32.83,0,.68-.32,1.37-.97,2.05s-1.47,1.02-2.47,1.02Z"/>
      <path class="cls-1" d="m782.7,882.33v-15.69c0-.31.11-.57.33-.78.22-.22.49-.32.8-.32s.58.11.8.33c.22.22.33.49.33.8v5.73l1.82-1.19c.83-.52,1.57-.78,2.22-.78h1.41c.93,0,1.73.33,2.39.99.67.66,1.01,1.47,1.04,2.41l.28,8.5c0,.32-.1.58-.32.8-.23.22-.5.33-.81.33s-.58-.12-.8-.34c-.22-.23-.33-.49-.34-.79l-.28-8.53c0-.31-.13-.57-.35-.8-.23-.22-.5-.34-.81-.34h-1.27c-.29,0-.6.11-.95.34l-3.23,2.11v7.22c0,.32-.11.58-.33.8-.22.22-.49.33-.8.33s-.58-.11-.8-.33c-.22-.22-.33-.49-.33-.8Z"/>
      <path class="cls-1" d="m805.34,876.68v-4.4c0-.57-.18-1.09-.55-1.55l-2.71-3.44c-.13-.17-.2-.38-.2-.63,0-.35.12-.63.36-.86.24-.22.51-.33.82-.33s.57.12.76.35l2.77,3.49c.67.84,1,1.75,1,2.74v4.85c0,1.01-.33,1.93-1,2.76l-2.77,3.49c-.19.23-.45.35-.77.35-.31,0-.58-.11-.81-.32s-.35-.5-.35-.86c0-.27.07-.49.19-.65l2.71-3.44c.37-.45.55-.97.55-1.56Z"/>
    </g>
    <circle cx="1375.03" cy="316.37" r="20"/>
    <circle cx="591.33" cy="466.73" r="20"/>
    <circle cx="995.72" cy="83.58" r="20"/>
    <circle cx="1171.42" cy="83.58" r="20"/>
    <circle cx="1497.78" cy="74.67" r="20"/>
    <circle cx="1193.91" cy="471.65" r="20"/>
    <circle cx="1623.65" cy="562.43" r="20"/>
    <circle cx="1193.91" cy="609.94" r="20"/>
    <circle cx="341.46" cy="466.73" r="20"/>
    <circle cx="135.24" cy="330.44" r="20"/>
    <line class="cls-9" x1="135.24" y1="330.44" x2="341.46" y2="466.73"/>
    <line class="cls-9" x1="995.72" y1="83.58" x2="135.24" y2="330.44"/>
    <line class="cls-9" x1="591.33" y1="466.73" x2="341.46" y2="466.73"/>
    <line class="cls-9" x1="995.72" y1="83.58" x2="591.33" y2="466.73"/>
    <line class="cls-9" x1="135.24" y1="330.44" x2="591.33" y2="466.73"/>
    <line class="cls-9" x1="1193.91" y1="471.65" x2="1193.91" y2="609.94"/>
    <line class="cls-9" x1="1623.65" y1="562.43" x2="1193.91" y2="609.94"/>
    <line class="cls-9" x1="1193.91" y1="471.65" x2="1623.65" y2="562.43"/>
    <line class="cls-9" x1="1171.42" y1="83.58" x2="1375.03" y2="316.37"/>
    <line class="cls-9" x1="1497.78" y1="74.67" x2="1171.51" y2="83.58"/>
    <line class="cls-9" x1="1375.03" y1="316.37" x2="1497.78" y2="74.67"/>
    <line class="cls-3" x1="591.33" y1="466.73" x2="1193.91" y2="609.94"/>
    <line class="cls-3" x1="1193.91" y1="471.65" x2="995.72" y2="83.58"/>
    <line class="cls-3" x1="1171.51" y1="83.58" x2="995.72" y2="83.58"/>
    <line class="cls-3" x1="1375.03" y1="316.37" x2="1193.91" y2="471.65"/>
    <line class="cls-9" x1="1623.65" y1="562.43" x2="1375.03" y2="316.37"/>
    <text class="cls-2" transform="translate(332.94 476.62)"><tspan x="0" y="0">1</tspan></text>
    <circle cx="201.3" cy="826.01" r="20"/>
    <text class="cls-2" transform="translate(192.78 835.89)"><tspan x="0" y="0">A</tspan></text>
    <circle cx="645.85" cy="716.24" r="20"/>
    <text class="cls-2" transform="translate(637.33 726.12)"><tspan x="0" y="0">C</tspan></text>
    <circle cx="1157.58" cy="827.78" r="20"/>
    <text class="cls-2" transform="translate(1149.06 837.66)"><tspan x="0" y="0">G</tspan></text>
    <circle cx="1684.18" cy="845.66" r="20"/>
    <text class="cls-2" transform="translate(1675.66 855.55)"><tspan x="0" y="0">K</tspan></text>
    <text class="cls-2" transform="translate(582.2 476.62)"><tspan x="0" y="0">2</tspan></text>
    <text class="cls-2" transform="translate(985.99 93.51)"><tspan x="0" y="0">4</tspan></text>
    <text class="cls-2" transform="translate(1161.85 93.2)"><tspan x="0" y="0">0</tspan></text>
    <text class="cls-2" transform="translate(1488.21 84.29)"><tspan x="0" y="0">9</tspan></text>
    <text class="cls-2" transform="translate(1365.41 326.33)"><tspan x="0" y="0">7</tspan></text>
    <text class="cls-2" transform="translate(1184.7 619.19)"><tspan x="0" y="0">6</tspan></text>
    <text class="cls-2" transform="translate(1614.12 572.68)"><tspan x="0" y="0">8</tspan></text>
    <text class="cls-2" transform="translate(1184.7 481.61)"><tspan x="0" y="0">5</tspan></text>
    <text class="cls-2" transform="translate(125.75 339.54)"><tspan x="0" y="0">3</tspan></text>
    <g>
      <circle cx="574.17" cy="204.52" r="11.67"/>
      <path class="cls-11" d="m574.73,199.62h2.06c.17,0,.32.06.44.18s.18.27.18.44c0,.18-.07.33-.2.45s-.27.18-.43.18h-1.97c-.19,0-.36.09-.5.27l-1.74,2.24c-.15.18-.22.42-.22.74v3.43c0,.18.06.33.18.45s.27.18.44.18h2.52c.17,0,.31-.06.44-.18s.18-.27.18-.44v-1.34h-1.28c-.18,0-.32-.06-.44-.18s-.18-.27-.18-.44.06-.32.18-.44.27-.18.44-.18h2.52v2.58c0,.51-.18.95-.55,1.31s-.8.55-1.31.55h-2.52c-.52,0-.96-.18-1.32-.55s-.55-.8-.55-1.31v-3.43c0-.61.16-1.13.49-1.56l1.83-2.32c.13-.18.32-.33.56-.45s.49-.18.74-.18Z"/>
    </g>
    <g>
      <circle cx="795.8" cy="273.01" r="11.67"/>
      <path class="cls-11" d="m796.35,268.1h2.06c.17,0,.32.06.44.18s.18.27.18.44c0,.18-.07.33-.2.45s-.27.18-.43.18h-1.97c-.19,0-.36.09-.5.27l-1.74,2.24c-.15.18-.22.42-.22.74v3.43c0,.18.06.33.18.45s.27.18.44.18h2.52c.17,0,.31-.06.44-.18s.18-.27.18-.44v-1.34h-1.28c-.18,0-.32-.06-.44-.18s-.18-.27-.18-.44.06-.32.18-.44.27-.18.44-.18h2.52v2.58c0,.51-.18.95-.55,1.31s-.8.55-1.31.55h-2.52c-.52,0-.96-.18-1.32-.55s-.55-.8-.55-1.31v-3.43c0-.61.16-1.13.49-1.56l1.83-2.32c.13-.18.32-.33.56-.45s.49-.18.74-.18Z"/>
    </g>
    <g>
      <circle cx="372.13" cy="400.59" r="11.67"/>
      <path class="cls-11" d="m372.69,395.68h2.06c.17,0,.32.06.44.18s.18.27.18.44c0,.18-.07.33-.2.45s-.27.18-.43.18h-1.97c-.19,0-.36.09-.5.27l-1.74,2.24c-.15.18-.22.42-.22.74v3.43c0,.18.06.33.18.45s.27.18.44.18h2.52c.17,0,.31-.06.44-.18s.18-.27.18-.44v-1.34h-1.28c-.18,0-.32-.06-.44-.18s-.18-.27-.18-.44.06-.32.18-.44.27-.18.44-.18h2.52v2.58c0,.51-.18.95-.55,1.31s-.8.55-1.31.55h-2.52c-.52,0-.96-.18-1.32-.55s-.55-.8-.55-1.31v-3.43c0-.61.16-1.13.49-1.56l1.83-2.32c.13-.18.32-.33.56-.45s.49-.18.74-.18Z"/>
    </g>
    <g>
      <circle cx="241.38" cy="400.59" r="11.67"/>
      <path class="cls-11" d="m241.93,395.68h2.06c.17,0,.32.06.44.18s.18.27.18.44c0,.18-.07.33-.2.45s-.27.18-.43.18h-1.97c-.19,0-.36.09-.5.27l-1.74,2.24c-.15.18-.22.42-.22.74v3.43c0,.18.06.33.18.45s.27.18.44.18h2.52c.17,0,.31-.06.44-.18s.18-.27.18-.44v-1.34h-1.28c-.18,0-.32-.06-.44-.18s-.18-.27-.18-.44.06-.32.18-.44.27-.18.44-.18h2.52v2.58c0,.51-.18.95-.55,1.31s-.8.55-1.31.55h-2.52c-.52,0-.96-.18-1.32-.55s-.55-.8-.55-1.31v-3.43c0-.61.16-1.13.49-1.56l1.83-2.32c.13-.18.32-.33.56-.45s.49-.18.74-.18Z"/>
    </g>
    <g>
      <circle cx="461.17" cy="466.73" r="11.67"/>
      <path class="cls-11" d="m461.73,461.83h2.06c.17,0,.32.06.44.18s.18.27.18.44c0,.18-.07.33-.2.45s-.27.18-.43.18h-1.97c-.19,0-.36.09-.5.27l-1.74,2.24c-.15.18-.22.42-.22.74v3.43c0,.18.06.33.18.45s.27.18.44.18h2.52c.17,0,.31-.06.44-.18s.18-.27.18-.44v-1.34h-1.28c-.18,0-.32-.06-.44-.18s-.18-.27-.18-.44.06-.32.18-.44.27-.18.44-.18h2.52v2.58c0,.51-.18.95-.55,1.31s-.8.55-1.31.55h-2.52c-.52,0-.96-.18-1.32-.55s-.55-.8-.55-1.31v-3.43c0-.61.16-1.13.49-1.56l1.83-2.32c.13-.18.32-.33.56-.45s.49-.18.74-.18Z"/>
    </g>
    <g>
      <circle cx="271.47" cy="646.15" r="11.67"/>
      <path class="cls-11" d="m272.02,641.25h2.06c.17,0,.32.06.44.18s.18.27.18.44c0,.18-.07.33-.2.45s-.27.18-.43.18h-1.97c-.19,0-.36.09-.5.27l-1.74,2.24c-.15.18-.22.42-.22.74v3.43c0,.18.06.33.18.45s.27.18.44.18h2.52c.17,0,.31-.06.44-.18s.18-.27.18-.44v-1.34h-1.28c-.18,0-.32-.06-.44-.18s-.18-.27-.18-.44.06-.32.18-.44.27-.18.44-.18h2.52v2.58c0,.51-.18.95-.55,1.31s-.8.55-1.31.55h-2.52c-.52,0-.96-.18-1.32-.55s-.55-.8-.55-1.31v-3.43c0-.61.16-1.13.49-1.56l1.83-2.32c.13-.18.32-.33.56-.45s.49-.18.74-.18Z"/>
    </g>
    <g>
      <circle cx="428.29" cy="770.88" r="11.67"/>
      <path class="cls-11" d="m428.85,765.98h2.06c.17,0,.32.06.44.18s.18.27.18.44c0,.18-.07.33-.2.45s-.27.18-.43.18h-1.97c-.19,0-.36.09-.5.27l-1.74,2.24c-.15.18-.22.42-.22.74v3.43c0,.18.06.33.18.45s.27.18.44.18h2.52c.17,0,.31-.06.44-.18s.18-.27.18-.44v-1.34h-1.28c-.18,0-.32-.06-.44-.18s-.18-.27-.18-.44.06-.32.18-.44.27-.18.44-.18h2.52v2.58c0,.51-.18.95-.55,1.31s-.8.55-1.31.55h-2.52c-.52,0-.96-.18-1.32-.55s-.55-.8-.55-1.31v-3.43c0-.61.16-1.13.49-1.56l1.83-2.32c.13-.18.32-.33.56-.45s.49-.18.74-.18Z"/>
    </g>
    <g>
      <circle cx="619.62" cy="596.22" r="11.67"/>
      <path class="cls-11" d="m620.18,591.32h2.06c.17,0,.32.06.44.18s.18.27.18.44c0,.18-.07.33-.2.45s-.27.18-.43.18h-1.97c-.19,0-.36.09-.5.27l-1.74,2.24c-.15.18-.22.42-.22.74v3.43c0,.18.06.33.18.45s.27.18.44.18h2.52c.17,0,.31-.06.44-.18s.18-.27.18-.44v-1.34h-1.28c-.18,0-.32-.06-.44-.18s-.18-.27-.18-.44.06-.32.18-.44.27-.18.44-.18h2.52v2.58c0,.51-.18.95-.55,1.31s-.8.55-1.31.55h-2.52c-.52,0-.96-.18-1.32-.55s-.55-.8-.55-1.31v-3.43c0-.61.16-1.13.49-1.56l1.83-2.32c.13-.18.32-.33.56-.45s.49-.18.74-.18Z"/>
    </g>
    <g>
      <circle cx="1094.97" cy="277.91" r="11.67"/>
      <path class="cls-11" d="m1095.52,273.01h2.06c.17,0,.32.06.44.18s.18.27.18.44c0,.18-.07.33-.2.45s-.27.18-.43.18h-1.97c-.19,0-.36.09-.5.27l-1.74,2.24c-.15.18-.22.42-.22.74v3.43c0,.18.06.33.18.45s.27.18.44.18h2.52c.17,0,.31-.06.44-.18s.18-.27.18-.44v-1.34h-1.28c-.18,0-.32-.06-.44-.18s-.18-.27-.18-.44.06-.32.18-.44.27-.18.44-.18h2.52v2.58c0,.51-.18.95-.55,1.31s-.8.55-1.31.55h-2.52c-.52,0-.96-.18-1.32-.55s-.55-.8-.55-1.31v-3.43c0-.61.16-1.13.49-1.56l1.83-2.32c.13-.18.32-.33.56-.45s.49-.18.74-.18Z"/>
    </g>
    <g>
      <circle cx="1271.34" cy="197.82" r="11.67"/>
      <path class="cls-11" d="m1271.9,192.92h2.06c.17,0,.32.06.44.18s.18.27.18.44c0,.18-.07.33-.2.45s-.27.18-.43.18h-1.97c-.19,0-.36.09-.5.27l-1.74,2.24c-.15.18-.22.42-.22.74v3.43c0,.18.06.33.18.45s.27.18.44.18h2.52c.17,0,.31-.06.44-.18s.18-.27.18-.44v-1.34h-1.28c-.18,0-.32-.06-.44-.18s-.18-.27-.18-.44.06-.32.18-.44.27-.18.44-.18h2.52v2.58c0,.51-.18.95-.55,1.31s-.8.55-1.31.55h-2.52c-.52,0-.96-.18-1.32-.55s-.55-.8-.55-1.31v-3.43c0-.61.16-1.13.49-1.56l1.83-2.32c.13-.18.32-.33.56-.45s.49-.18.74-.18Z"/>
    </g>
    <g>
      <circle cx="1080.23" cy="84.16" r="11.67"/>
      <path class="cls-11" d="m1080.78,79.26h2.06c.17,0,.32.06.44.18s.18.27.18.44c0,.18-.07.33-.2.45s-.27.18-.43.18h-1.97c-.19,0-.36.09-.5.27l-1.74,2.24c-.15.18-.22.42-.22.74v3.43c0,.18.06.33.18.45s.27.18.44.18h2.52c.17,0,.31-.06.44-.18s.18-.27.18-.44v-1.34h-1.28c-.18,0-.32-.06-.44-.18s-.18-.27-.18-.44.06-.32.18-.44.27-.18.44-.18h2.52v2.58c0,.51-.18.95-.55,1.31s-.8.55-1.31.55h-2.52c-.52,0-.96-.18-1.32-.55s-.55-.8-.55-1.31v-3.43c0-.61.16-1.13.49-1.56l1.83-2.32c.13-.18.32-.33.56-.45s.49-.18.74-.18Z"/>
    </g>
    <g>
      <circle cx="1284.47" cy="394.01" r="11.67"/>
      <path class="cls-11" d="m1285.03,389.1h2.06c.17,0,.32.06.44.18s.18.27.18.44c0,.18-.07.33-.2.45s-.27.18-.43.18h-1.97c-.19,0-.36.09-.5.27l-1.74,2.24c-.15.18-.22.42-.22.74v3.43c0,.18.06.33.18.45s.27.18.44.18h2.52c.17,0,.31-.06.44-.18s.18-.27.18-.44v-1.34h-1.28c-.18,0-.32-.06-.44-.18s-.18-.27-.18-.44.06-.32.18-.44.27-.18.44-.18h2.52v2.58c0,.51-.18.95-.55,1.31s-.8.55-1.31.55h-2.52c-.52,0-.96-.18-1.32-.55s-.55-.8-.55-1.31v-3.43c0-.61.16-1.13.49-1.56l1.83-2.32c.13-.18.32-.33.56-.45s.49-.18.74-.18Z"/>
    </g>
    <g>
      <circle cx="1408.78" cy="517.04" r="11.67"/>
      <path class="cls-11" d="m1409.34,512.13h2.06c.17,0,.32.06.44.18s.18.27.18.44c0,.18-.07.33-.2.45s-.27.18-.43.18h-1.97c-.19,0-.36.09-.5.27l-1.74,2.24c-.15.18-.22.42-.22.74v3.43c0,.18.06.33.18.45s.27.18.44.18h2.52c.17,0,.31-.06.44-.18s.18-.27.18-.44v-1.34h-1.28c-.18,0-.32-.06-.44-.18s-.18-.27-.18-.44.06-.32.18-.44.27-.18.44-.18h2.52v2.58c0,.51-.18.95-.55,1.31s-.8.55-1.31.55h-2.52c-.52,0-.96-.18-1.32-.55s-.55-.8-.55-1.31v-3.43c0-.61.16-1.13.49-1.56l1.83-2.32c.13-.18.32-.33.56-.45s.49-.18.74-.18Z"/>
    </g>
    <g>
      <circle cx="1402.24" cy="586.19" r="11.67"/>
      <path class="cls-11" d="m1402.8,581.28h2.06c.17,0,.32.06.44.18s.18.27.18.44c0,.18-.07.33-.2.45s-.27.18-.43.18h-1.97c-.19,0-.36.09-.5.27l-1.74,2.24c-.15.18-.22.42-.22.74v3.43c0,.18.06.33.18.45s.27.18.44.18h2.52c.17,0,.31-.06.44-.18s.18-.27.18-.44v-1.34h-1.28c-.18,0-.32-.06-.44-.18s-.18-.27-.18-.44.06-.32.18-.44.27-.18.44-.18h2.52v2.58c0,.51-.18.95-.55,1.31s-.8.55-1.31.55h-2.52c-.52,0-.96-.18-1.32-.55s-.55-.8-.55-1.31v-3.43c0-.61.16-1.13.49-1.56l1.83-2.32c.13-.18.32-.33.56-.45s.49-.18.74-.18Z"/>
    </g>
    <g>
      <circle cx="1193.91" cy="543.13" r="11.67"/>
      <path class="cls-11" d="m1194.47,538.22h2.06c.17,0,.32.06.44.18s.18.27.18.44c0,.18-.07.33-.2.45s-.27.18-.43.18h-1.97c-.19,0-.36.09-.5.27l-1.74,2.24c-.15.18-.22.42-.22.74v3.43c0,.18.06.33.18.45s.27.18.44.18h2.52c.17,0,.31-.06.44-.18s.18-.27.18-.44v-1.34h-1.28c-.18,0-.32-.06-.44-.18s-.18-.27-.18-.44.06-.32.18-.44.27-.18.44-.18h2.52v2.58c0,.51-.18.95-.55,1.31s-.8.55-1.31.55h-2.52c-.52,0-.96-.18-1.32-.55s-.55-.8-.55-1.31v-3.43c0-.61.16-1.13.49-1.56l1.83-2.32c.13-.18.32-.33.56-.45s.49-.18.74-.18Z"/>
    </g>
    <g>
      <circle cx="896.78" cy="540.79" r="11.67"/>
      <path class="cls-11" d="m897.34,535.89h2.06c.17,0,.32.06.44.18s.18.27.18.44c0,.18-.07.33-.2.45s-.27.18-.43.18h-1.97c-.19,0-.36.09-.5.27l-1.74,2.24c-.15.18-.22.42-.22.74v3.43c0,.18.06.33.18.45s.27.18.44.18h2.52c.17,0,.31-.06.44-.18s.18-.27.18-.44v-1.34h-1.28c-.18,0-.32-.06-.44-.18s-.18-.27-.18-.44.06-.32.18-.44.27-.18.44-.18h2.52v2.58c0,.51-.18.95-.55,1.31s-.8.55-1.31.55h-2.52c-.52,0-.96-.18-1.32-.55s-.55-.8-.55-1.31v-3.43c0-.61.16-1.13.49-1.56l1.83-2.32c.13-.18.32-.33.56-.45s.49-.18.74-.18Z"/>
    </g>
    <g>
      <circle cx="912.57" cy="665.79" r="11.67"/>
      <path class="cls-11" d="m913.13,660.88h2.06c.17,0,.32.06.44.18s.18.27.18.44c0,.18-.07.33-.2.45s-.27.18-.43.18h-1.97c-.19,0-.36.09-.5.27l-1.74,2.24c-.15.18-.22.42-.22.74v3.43c0,.18.06.33.18.45s.27.18.44.18h2.52c.17,0,.31-.06.44-.18s.18-.27.18-.44v-1.34h-1.28c-.18,0-.32-.06-.44-.18s-.18-.27-.18-.44.06-.32.18-.44.27-.18.44-.18h2.52v2.58c0,.51-.18.95-.55,1.31s-.8.55-1.31.55h-2.52c-.52,0-.96-.18-1.32-.55s-.55-.8-.55-1.31v-3.43c0-.61.16-1.13.49-1.56l1.83-2.32c.13-.18.32-.33.56-.45s.49-.18.74-.18Z"/>
    </g>
    <g>
      <circle cx="909.51" cy="773.88" r="11.67"/>
      <path class="cls-11" d="m910.06,768.98h2.06c.17,0,.32.06.44.18s.18.27.18.44c0,.18-.07.33-.2.45s-.27.18-.43.18h-1.97c-.19,0-.36.09-.5.27l-1.74,2.24c-.15.18-.22.42-.22.74v3.43c0,.18.06.33.18.45s.27.18.44.18h2.52c.17,0,.31-.06.44-.18s.18-.27.18-.44v-1.34h-1.28c-.18,0-.32-.06-.44-.18s-.18-.27-.18-.44.06-.32.18-.44.27-.18.44-.18h2.52v2.58c0,.51-.18.95-.55,1.31s-.8.55-1.31.55h-2.52c-.52,0-.96-.18-1.32-.55s-.55-.8-.55-1.31v-3.43c0-.61.16-1.13.49-1.56l1.83-2.32c.13-.18.32-.33.56-.45s.49-.18.74-.18Z"/>
    </g>
    <g>
      <circle cx="1496.32" cy="436.41" r="11.67"/>
      <path class="cls-11" d="m1496.87,431.5h2.06c.17,0,.32.06.44.18s.18.27.18.44c0,.18-.07.33-.2.45s-.27.18-.43.18h-1.97c-.19,0-.36.09-.5.27l-1.74,2.24c-.15.18-.22.42-.22.74v3.43c0,.18.06.33.18.45s.27.18.44.18h2.52c.17,0,.31-.06.44-.18s.18-.27.18-.44v-1.34h-1.28c-.18,0-.32-.06-.44-.18s-.18-.27-.18-.44.06-.32.18-.44.27-.18.44-.18h2.52v2.58c0,.51-.18.95-.55,1.31s-.8.55-1.31.55h-2.52c-.52,0-.96-.18-1.32-.55s-.55-.8-.55-1.31v-3.43c0-.61.16-1.13.49-1.56l1.83-2.32c.13-.18.32-.33.56-.45s.49-.18.74-.18Z"/>
    </g>
    <g>
      <circle cx="1654.18" cy="707.63" r="11.67"/>
      <path class="cls-11" d="m1654.74,702.73h2.06c.17,0,.32.06.44.18s.18.27.18.44c0,.18-.07.33-.2.45s-.27.18-.43.18h-1.97c-.19,0-.36.09-.5.27l-1.74,2.24c-.15.18-.22.42-.22.74v3.43c0,.18.06.33.18.45s.27.18.44.18h2.52c.17,0,.31-.06.44-.18s.18-.27.18-.44v-1.34h-1.28c-.18,0-.32-.06-.44-.18s-.18-.27-.18-.44.06-.32.18-.44.27-.18.44-.18h2.52v2.58c0,.51-.18.95-.55,1.31s-.8.55-1.31.55h-2.52c-.52,0-.96-.18-1.32-.55s-.55-.8-.55-1.31v-3.43c0-.61.16-1.13.49-1.56l1.83-2.32c.13-.18.32-.33.56-.45s.49-.18.74-.18Z"/>
    </g>
    <g>
      <circle cx="1424.22" cy="835.89" r="11.67"/>
      <path class="cls-11" d="m1424.77,830.99h2.06c.17,0,.32.06.44.18s.18.27.18.44c0,.18-.07.33-.2.45s-.27.18-.43.18h-1.97c-.19,0-.36.09-.5.27l-1.74,2.24c-.15.18-.22.42-.22.74v3.43c0,.18.06.33.18.45s.27.18.44.18h2.52c.17,0,.31-.06.44-.18s.18-.27.18-.44v-1.34h-1.28c-.18,0-.32-.06-.44-.18s-.18-.27-.18-.44.06-.32.18-.44.27-.18.44-.18h2.52v2.58c0,.51-.18.95-.55,1.31s-.8.55-1.31.55h-2.52c-.52,0-.96-.18-1.32-.55s-.55-.8-.55-1.31v-3.43c0-.61.16-1.13.49-1.56l1.83-2.32c.13-.18.32-.33.56-.45s.49-.18.74-.18Z"/>
    </g>
    <g>
      <circle cx="1173.91" cy="718.71" r="11.67"/>
      <path class="cls-11" d="m1174.47,713.81h2.06c.17,0,.32.06.44.18s.18.27.18.44c0,.18-.07.33-.2.45s-.27.18-.43.18h-1.97c-.19,0-.36.09-.5.27l-1.74,2.24c-.15.18-.22.42-.22.74v3.43c0,.18.06.33.18.45s.27.18.44.18h2.52c.17,0,.31-.06.44-.18s.18-.27.18-.44v-1.34h-1.28c-.18,0-.32-.06-.44-.18s-.18-.27-.18-.44.06-.32.18-.44.27-.18.44-.18h2.52v2.58c0,.51-.18.95-.55,1.31s-.8.55-1.31.55h-2.52c-.52,0-.96-.18-1.32-.55s-.55-.8-.55-1.31v-3.43c0-.61.16-1.13.49-1.56l1.83-2.32c.13-.18.32-.33.56-.45s.49-.18.74-.18Z"/>
    </g>
    <g>
      <circle cx="1343.36" cy="79.28" r="11.67"/>
      <path class="cls-11" d="m1343.91,74.38h2.06c.17,0,.32.06.44.18s.18.27.18.44c0,.18-.07.33-.2.45s-.27.18-.43.18h-1.97c-.19,0-.36.09-.5.27l-1.74,2.24c-.15.18-.22.42-.22.74v3.43c0,.18.06.33.18.45s.27.18.44.18h2.52c.17,0,.31-.06.44-.18s.18-.27.18-.44v-1.34h-1.28c-.18,0-.32-.06-.44-.18s-.18-.27-.18-.44.06-.32.18-.44.27-.18.44-.18h2.52v2.58c0,.51-.18.95-.55,1.31s-.8.55-1.31.55h-2.52c-.52,0-.96-.18-1.32-.55s-.55-.8-.55-1.31v-3.43c0-.61.16-1.13.49-1.56l1.83-2.32c.13-.18.32-.33.56-.45s.49-.18.74-.18Z"/>
    </g>
    <g>
      <circle cx="1437.73" cy="192.92" r="11.67"/>
      <path class="cls-11" d="m1438.28,188.01h2.06c.17,0,.32.06.44.18s.18.27.18.44c0,.18-.07.33-.2.45s-.27.18-.43.18h-1.97c-.19,0-.36.09-.5.27l-1.74,2.24c-.15.18-.22.42-.22.74v3.43c0,.18.06.33.18.45s.27.18.44.18h2.52c.17,0,.31-.06.44-.18s.18-.27.18-.44v-1.34h-1.28c-.18,0-.32-.06-.44-.18s-.18-.27-.18-.44.06-.32.18-.44.27-.18.44-.18h2.52v2.58c0,.51-.18.95-.55,1.31s-.8.55-1.31.55h-2.52c-.52,0-.96-.18-1.32-.55s-.55-.8-.55-1.31v-3.43c0-.61.16-1.13.49-1.56l1.83-2.32c.13-.18.32-.33.56-.45s.49-.18.74-.18Z"/>
    </g>
  </g>
</svg>