<?xml version="1.0" encoding="UTF-8"?>
<svg id="node" xmlns="http://www.w3.org/2000/svg" viewBox="0 0 1800 930">
  <defs>
    <style>
      .cls-1, .cls-2 {
        stroke-width: 0px;
      }

      .cls-2 {
        fill: #fff;
      }
    </style>
  </defs>
  <circle class="cls-1" cx="591.33" cy="466.73" r="20"/>
  <circle class="cls-1" cx="341.46" cy="466.73" r="20"/>
  <path class="cls-2" d="m336.11,474.13h3.78v-14.52h-3.72c-.34,0-.63-.12-.87-.36s-.36-.53-.36-.87.12-.63.36-.87c.24-.24.53-.36.87-.36h6.18v16.98h2.46v-5.13c0-.33.12-.62.36-.86s.53-.37.87-.37.63.12.87.36c.24.24.36.53.36.87v6.36c0,.34-.12.63-.36.87s-.53.36-.87.36h-9.93c-.34,0-.63-.12-.87-.37-.24-.25-.36-.54-.36-.89s.12-.62.36-.85.53-.35.87-.35Z"/>
  <circle class="cls-1" cx="201.3" cy="826.01" r="20"/>
  <g>
    <path class="cls-2" d="m189.95,830.82h2.95v-11.34h-2.91c-.27,0-.49-.09-.68-.28-.19-.19-.28-.41-.28-.68s.09-.49.28-.68c.19-.19.41-.28.68-.28h4.83v13.26h1.92v-4c0-.26.09-.48.28-.67.19-.19.41-.29.68-.29s.49.09.68.28.28.41.28.68v4.96c0,.27-.09.49-.28.68-.19.19-.41.28-.68.28h-7.76c-.27,0-.49-.1-.68-.29-.19-.19-.28-.42-.28-.69s.09-.48.28-.66c.19-.18.41-.27.68-.27Z"/>
    <path class="cls-2" d="m212.89,819.48v3.6c0,.84-.26,1.52-.78,2.04.53.59.8,1.24.8,1.94v3.75c0,.53-.19.98-.57,1.36-.38.38-.84.57-1.37.57h-6.79c-.27,0-.49-.09-.68-.28s-.28-.41-.28-.68.09-.49.28-.68c.19-.19.41-.28.68-.28h6.77v-3.75c0-.27-.09-.5-.28-.69-.19-.19-.41-.29-.68-.29h-3.87c-.27,0-.49-.09-.68-.27-.19-.18-.28-.41-.28-.69s.09-.49.28-.68.41-.28.68-.28h3.89c.26,0,.48-.09.67-.28.19-.19.29-.41.29-.68v-3.72h-6.86c-.27,0-.49-.09-.68-.28-.19-.19-.28-.41-.28-.68s.09-.49.28-.68.41-.28.68-.28h6.86c.53,0,.99.19,1.36.57.37.38.56.83.56,1.36Z"/>
  </g>
  <circle class="cls-1" cx="645.85" cy="716.24" r="20"/>
  <g>
    <path class="cls-2" d="m635.16,721.45h2.9v-11.13h-2.85c-.26,0-.49-.09-.67-.27s-.27-.41-.27-.67.09-.48.27-.67.41-.28.67-.28h4.74v13.02h1.89v-3.93c0-.25.09-.48.28-.66.18-.19.41-.28.67-.28s.49.09.67.28.27.41.27.67v4.87c0,.26-.09.48-.27.67s-.41.28-.67.28h-7.61c-.26,0-.49-.1-.67-.29-.18-.19-.27-.42-.27-.68s.09-.47.27-.65.41-.27.67-.27Z"/>
    <path class="cls-2" d="m654.34,722.39v-3.93h-5.68v-9.09c0-.26.1-.49.29-.68s.42-.29.68-.29.48.09.66.29c.19.19.28.42.28.68v7.18h3.77v-5.53c0-.26.09-.49.28-.68.18-.19.41-.29.67-.29s.48.1.67.29c.18.19.28.42.28.68v5.53c.26,0,.48.09.67.28s.28.41.28.67-.09.48-.28.67-.41.28-.67.28v3.95c0,.26-.09.48-.28.67-.19.18-.41.28-.66.28s-.48-.09-.67-.28-.28-.41-.28-.67Z"/>
  </g>
  <path class="cls-2" d="m596.39,475.59h-11.19v-8.5c0-.68.24-1.27.73-1.76.48-.49,1.06-.73,1.74-.73h7.47v-5.99h-8.79c-.35,0-.64-.12-.88-.36s-.35-.53-.35-.87.12-.63.35-.87c.23-.24.53-.36.88-.36h8.79c.68,0,1.27.24,1.76.73.49.48.73,1.06.73,1.74v5.99c0,.69-.24,1.28-.73,1.77-.49.48-1.07.72-1.76.72h-7.47v6.04h8.73c.33,0,.62.12.86.36s.37.53.37.87-.12.63-.37.87c-.24.24-.53.36-.86.36Z"/>
  <circle class="cls-1" cx="1375.03" cy="316.37" r="20"/>
  <circle class="cls-1" cx="995.72" cy="83.58" r="20"/>
  <circle class="cls-1" cx="1171.42" cy="83.58" r="20"/>
  <circle class="cls-1" cx="1497.78" cy="74.67" r="20"/>
  <circle class="cls-1" cx="1193.91" cy="471.65" r="20"/>
  <circle class="cls-1" cx="1623.65" cy="562.43" r="20"/>
  <circle class="cls-1" cx="1193.91" cy="609.94" r="20"/>
  <circle class="cls-1" cx="135.24" cy="330.44" r="20"/>
  <circle class="cls-1" cx="1157.58" cy="827.78" r="20"/>
  <g>
    <path class="cls-2" d="m1147.43,833.75h2.9v-11.13h-2.85c-.26,0-.49-.09-.67-.27s-.27-.41-.27-.67.09-.48.27-.67.41-.28.67-.28h4.74v13.02h1.89v-3.93c0-.25.09-.48.28-.66.18-.19.41-.28.67-.28s.49.09.67.28.27.41.27.67v4.87c0,.26-.09.48-.27.67s-.41.28-.67.28h-7.61c-.26,0-.49-.1-.67-.29-.18-.19-.27-.42-.27-.68s.09-.47.27-.65.41-.27.67-.27Z"/>
    <path class="cls-2" d="m1161.32,833.75h2.9v-11.13h-2.85c-.26,0-.49-.09-.67-.27s-.27-.41-.27-.67.09-.48.27-.67.41-.28.67-.28h4.74v13.02h1.89v-3.93c0-.25.09-.48.28-.66.18-.19.41-.28.67-.28s.49.09.67.28.27.41.27.67v4.87c0,.26-.09.48-.27.67s-.41.28-.67.28h-7.61c-.26,0-.49-.1-.67-.29-.18-.19-.27-.42-.27-.68s.09-.47.27-.65.41-.27.67-.27Z"/>
  </g>
  <circle class="cls-1" cx="1684.18" cy="845.66" r="20"/>
  <g>
    <path class="cls-2" d="m1673.03,850.64h2.9v-11.13h-2.85c-.26,0-.48-.09-.67-.27s-.28-.41-.28-.67.09-.48.28-.67.41-.28.67-.28h4.74v13.02h1.89v-3.93c0-.25.09-.48.28-.66.18-.19.41-.28.67-.28s.49.09.67.28.27.41.27.67v4.87c0,.26-.09.48-.27.67s-.41.28-.67.28h-7.61c-.26,0-.48-.1-.67-.29-.18-.19-.28-.42-.28-.68s.09-.47.28-.65.41-.27.67-.27Z"/>
    <path class="cls-2" d="m1694.6,852.53h-8.58v-6.51c0-.52.19-.97.56-1.35.37-.37.81-.56,1.33-.56h5.73v-4.59h-6.74c-.27,0-.49-.09-.67-.27s-.27-.41-.27-.67.09-.48.27-.67.4-.28.67-.28h6.74c.53,0,.97.19,1.35.56.38.37.56.81.56,1.33v4.59c0,.53-.19.98-.56,1.35-.37.37-.82.56-1.35.56h-5.73v4.63h6.69c.25,0,.47.09.66.28s.28.41.28.67-.09.48-.28.67-.41.28-.66.28Z"/>
  </g>
  <path class="cls-2" d="m997.07,92.25v-5.13h-7.41v-11.85c0-.34.12-.64.37-.89s.54-.37.89-.37.62.12.86.37c.24.25.37.54.37.89v9.36h4.92v-7.21c0-.34.12-.64.36-.89.24-.25.53-.37.87-.37s.63.12.87.37c.24.25.36.54.36.89v7.21c.34,0,.63.12.87.36s.36.53.36.87-.12.63-.36.87c-.24.24-.53.36-.87.36v5.16c0,.34-.12.63-.37.87-.24.24-.53.36-.86.36s-.63-.12-.87-.36c-.24-.24-.36-.53-.36-.87Z"/>
  <path class="cls-2" d="m1164.82,90.8v-14.72c0-.64.23-1.2.7-1.67s1.03-.7,1.67-.7h7.68c.63,0,1.18.23,1.65.7.46.47.7,1.03.7,1.67v14.72c0,.65-.23,1.21-.7,1.68-.46.46-1.02.7-1.68.7h-7.65c-.66,0-1.23-.23-1.69-.7s-.69-1.02-.69-1.68Zm9.96-.09v-14.52h-7.5v14.52h7.5Z"/>
  <path class="cls-2" d="m1502.4,84.24h-1.23c-.33,0-.62-.12-.87-.36-.24-.24-.37-.53-.37-.87s.12-.63.36-.87c.24-.24.53-.36.87-.36v-8.13h-8.67c-.33,0-.62-.12-.87-.37s-.37-.53-.37-.86v-6.39c0-.33.12-.62.37-.86s.53-.37.87-.37h9.9c.33,0,.62.12.86.37s.37.53.37.86v16.98c0,.34-.12.63-.36.87s-.53.36-.87.36Zm-1.2-13.08v-3.87h-7.47v3.87h7.47Z"/>
  <path class="cls-2" d="m1368.38,309.17v-1.05c0-.34.12-.63.36-.87.24-.24.53-.36.87-.36h11.16v7.56c0,.4-.15.73-.45,1l-4.53,3.87v5.73c0,.34-.12.64-.36.89-.24.25-.53.37-.87.37s-.64-.12-.89-.37c-.25-.24-.37-.53-.37-.86v-6.21c0-.47.15-.83.44-1.08l4.54-3.84v-4.58h-7.44c-.18.7-.59,1.05-1.23,1.05-.34,0-.63-.12-.87-.36s-.36-.53-.36-.87Z"/>
  <path class="cls-2" d="m1188.99,599.72h1.23c.34,0,.63.12.87.37.24.24.36.53.36.86s-.12.63-.36.87c-.24.24-.53.36-.87.36v8.13h8.67c.33,0,.62.12.86.37.24.25.37.54.37.89v6.36c0,.34-.12.63-.38.87-.25.24-.54.36-.88.36h-9.87c-.34,0-.64-.12-.89-.37-.25-.24-.37-.53-.37-.86v-16.98c0-.34.12-.63.37-.87.24-.24.54-.36.89-.36Zm1.2,13.08v3.9h7.44v-3.9h-7.44Z"/>
  <path class="cls-2" d="m1618.07,569.16v-6.01c0-.67.24-1.25.73-1.74.49-.48,1.07-.72,1.76-.72v-7.25c0-.34.12-.63.35-.87.23-.24.53-.36.88-.36h5.01c.34,0,.63.12.87.36.24.24.36.53.36.87v7.25c.66,0,1.24.24,1.73.71s.73,1.06.73,1.75v6.04c0,.67-.24,1.25-.73,1.74-.49.48-1.06.72-1.73.72h-7.47c-.69,0-1.28-.25-1.76-.76-.48-.51-.73-1.08-.73-1.73Zm2.49-6.01v6.04h7.47v-6.04h-7.47Zm2.46-8.48v6.02h2.55v-6.02h-2.55Z"/>
  <path class="cls-2" d="m1191.23,479.12h5.7v-6.04h-7.44v-10.94h8.67c.33,0,.62.12.87.37s.37.53.37.86-.12.63-.36.87c-.24.24-.53.36-.87.36h-6.18v6.02h4.95c.66,0,1.24.24,1.73.73s.73,1.06.73,1.73v6.04c0,.67-.24,1.25-.72,1.74s-1.06.72-1.74.72h-5.7c-.51,0-1.05-.12-1.63-.37l-1.86-.78c-.5-.21-.75-.6-.75-1.17,0-.34.11-.63.34-.87s.5-.36.82-.36c.24,0,.53.07.85.22l1.62.69c.2.12.4.18.6.18Z"/>
  <path class="cls-2" d="m141.18,322.53v4.61c0,1.07-.33,1.94-1,2.61.68.76,1.03,1.59,1.03,2.49v4.8c0,.67-.24,1.25-.73,1.74-.49.48-1.07.72-1.76.72h-8.7c-.34,0-.63-.12-.87-.36-.24-.24-.36-.53-.36-.87s.12-.63.36-.87.53-.36.87-.36h8.67v-4.8c0-.34-.12-.64-.36-.89-.24-.25-.53-.37-.87-.37h-4.95c-.34,0-.63-.12-.87-.35s-.36-.53-.36-.88.12-.63.36-.87.53-.36.87-.36h4.98c.33,0,.62-.12.86-.36.24-.24.37-.53.37-.87v-4.76h-8.79c-.34,0-.63-.12-.87-.36s-.36-.53-.36-.87.12-.63.36-.87c.24-.24.53-.36.87-.36h8.79c.68,0,1.26.24,1.74.73.48.48.72,1.06.72,1.74Z"/>
</svg>