<?xml version="1.0" encoding="UTF-8"?>
<svg id="intro" xmlns="http://www.w3.org/2000/svg" viewBox="0 0 1800 930">
  <defs>
    <style>
      .cls-1 {
        font-family: Pretendard-ExtraBold-KSCpc-EUC-H, Pretendard;
        font-size: 31.81px;
        font-weight: 700;
      }

      .cls-1, .cls-2, .cls-3, .cls-4 {
        fill: #0096fa;
      }

      .cls-5, .cls-6, .cls-2, .cls-7, .cls-4, .cls-8 {
        stroke-miterlimit: 10;
      }

      .cls-5, .cls-6, .cls-7, .cls-8 {
        fill: none;
      }

      .cls-5, .cls-2 {
        stroke: #fff;
      }

      .cls-5, .cls-2, .cls-7, .cls-4 {
        stroke-width: 4.17px;
      }

      .cls-6 {
        stroke-width: 6.71px;
      }

      .cls-6, .cls-7, .cls-4 {
        stroke: #0096fa;
      }

      .cls-9, .cls-3, .cls-10 {
        stroke-width: 0px;
      }

      .cls-10 {
        fill: #fff;
      }

      .cls-8 {
        stroke: #000;
        stroke-width: 5px;
      }
    </style>
  </defs>
  <g id="bck">
    <rect class="cls-3" width="1800" height="930"/>
  </g>
  <g id="graphic">
    <path class="cls-10" d="m815.85,366.03v-115.26h-440.31c-43.49-46.24-184.78-46.24-184.78-46.24v46.24H1.11v367.26h379.69v-88.14h288.15v-74.36l41.39-21.85c-1.92,5.17-2.98,10.75-2.98,16.59,0,26.29,21.32,47.61,47.61,47.61s47.61-21.32,47.61-47.61c0-24.24-18.12-44.23-41.54-47.21v-37.02h54.81Z"/>
    <rect class="cls-10" x="1003.23" y="438.71" width="387.62" height="207.44" rx="103.72" ry="103.72"/>
    <rect class="cls-10" x="0" y="722.56" width="387.62" height="207.44" rx="103.72" ry="103.72"/>
    <polygon class="cls-10" points="1800.33 -.13 1460.25 -.13 1460.25 268.96 1333.14 268.96 1333.14 363.06 1707.88 363.06 1707.88 316.01 1800.33 316.01 1800.33 -.13"/>
    <polygon class="cls-10" points="1214.83 166.57 882.69 166.57 948.37 1.76 1280.51 1.76 1214.83 166.57"/>
    <polygon class="cls-10" points="1372.84 930 860.85 930 942.32 725.56 1454.31 725.56 1372.84 930"/>
    <polygon class="cls-10" points="1623.65 462.05 1448.61 562.68 1623.65 663.3 1798.69 562.68 1623.65 462.05"/>
    <rect class="cls-10" x="1557.89" y="761.2" width="242.11" height="168.8"/>
    <path class="cls-10" d="m483.64,655.04v142.29c26.96,59.47,141.92,60.85,171.17-1.42,26.24-55.85,137.64-59.43,166.19-2.08v-138.79h-337.37Z"/>
  </g>
  <g id="network">
    <line class="cls-8" x1="201.3" y1="826.01" x2="341.46" y2="466.73"/>
    <line class="cls-8" x1="201.3" y1="827.78" x2="645.85" y2="716.35"/>
    <line class="cls-8" x1="646.39" y1="716.96" x2="1193.91" y2="614.61"/>
    <line class="cls-8" x1="1155.62" y1="827.78" x2="1193.91" y2="609.94"/>
    <line class="cls-8" x1="1684.72" y1="842.27" x2="1623.65" y2="562.43"/>
    <line class="cls-8" x1="1157.58" y1="827.78" x2="1684.72" y2="842.27"/>
    <line class="cls-8" x1="645.85" y1="716.24" x2="591.33" y2="466.73"/>
    <line class="cls-8" x1="643.68" y1="716.24" x2="1158.12" y2="827.79"/>
  </g>
  <g id="number">
    <line class="cls-6" x1="1768.46" y1="85.37" x2="1585.73" y2="85.37"/>
    <polyline class="cls-6" points="1724.71 32.12 1768.46 85.23 1724.71 140.5"/>
    <circle class="cls-3" cx="1582.65" cy="85.37" r="9.21"/>
    <circle class="cls-3" cx="1725.62" cy="33.55" r="9.21"/>
    <circle class="cls-3" cx="1725.62" cy="139.29" r="9.21"/>
    <circle class="cls-3" cx="1766.79" cy="85.37" r="9.21"/>
    <text class="cls-1" transform="translate(1440.51 325.5)"><tspan x="0" y="0">전시 보러가기</tspan></text>
    <g>
      <circle class="cls-10" cx="1268.71" cy="326.61" r="7.5"/>
      <circle class="cls-10" cx="1238.84" cy="358.8" r="7.5"/>
      <circle class="cls-10" cx="1238.78" cy="293.94" r="7.5"/>
      <circle class="cls-10" cx="1072.46" cy="326.61" r="7.5"/>
      <circle class="cls-10" cx="802.28" cy="596.22" r="7.5"/>
      <g>
        <line class="cls-2" x1="1269.57" y1="326.61" x2="1072.46" y2="326.61"/>
        <line class="cls-2" x1="1072.92" y1="325.59" x2="804.42" y2="594.09"/>
        <polyline class="cls-5" points="1238.84 358.8 1269.71 326.61 1238.78 294.37"/>
      </g>
    </g>
    <g>
      <circle class="cls-3" cx="505.14" cy="303.21" r="7.5"/>
      <circle class="cls-3" cx="506.77" cy="347.09" r="7.5"/>
      <circle class="cls-3" cx="460.86" cy="301.27" r="7.5"/>
      <circle class="cls-3" cx="269.44" cy="538.91" r="7.5"/>
      <circle class="cls-3" cx="77.08" cy="538.91" r="7.5"/>
      <g>
        <line class="cls-4" x1="505.74" y1="302.6" x2="269.44" y2="538.91"/>
        <line class="cls-4" x1="269.44" y1="538.91" x2="77.08" y2="538.91"/>
        <polyline class="cls-7" points="506.77 347.09 505.84 302.5 461.17 301.58"/>
      </g>
    </g>
    <g>
      <path class="cls-10" d="m1262.75,685.08v4.36c0,.58.18,1.1.54,1.55l2.7,3.46c.13.15.19.37.19.65,0,.36-.12.65-.35.86s-.51.31-.83.31c-.33,0-.59-.12-.77-.35l-2.73-3.49c-.69-.85-1.03-1.77-1.03-2.76v-4.85c0-.96.34-1.87,1.03-2.74l2.73-3.49c.19-.23.44-.35.76-.35s.59.1.83.31c.24.21.36.49.36.86,0,.27-.07.48-.21.65l-2.69,3.44c-.35.46-.53.99-.53,1.58Z"/>
      <path class="cls-10" d="m1280.63,685.3v7.56l.66,1.11h.95l.69-1.14v-13.39c0-.32.12-.59.34-.82.23-.23.5-.34.82-.34s.57.11.8.34c.23.23.34.49.34.8v13.79c0,.17-.09.41-.28.72l-1.05,1.74c-.22.39-.54.58-.99.58h-2.14c-.68,0-1.11-.31-1.3-.92-.21.61-.62.92-1.24.92h-2c-.58,0-.99-.21-1.24-.64l-.97-1.63c-.18-.3-.27-.55-.27-.77v-13.76c0-.32.12-.59.34-.82.23-.23.5-.34.82-.34.3,0,.56.12.78.34.22.23.33.5.33.82v13.45l.66,1.08h.97l.72-1.14v-7.53c0-.32.11-.58.33-.8s.49-.33.8-.33.58.11.8.33.33.49.33.8Z"/>
      <path class="cls-10" d="m1301.92,687.46v2.74c0,.31-.11.57-.34.8-.23.22-.49.34-.8.34h-8.03v.66c0,.39.17.72.5.99l.66.55c.36.28.7.42,1.03.42h5.84c.31,0,.57.11.8.33.22.22.34.49.34.8s-.12.57-.34.8c-.23.23-.49.34-.79.34h-5.99c-.4,0-.81-.08-1.25-.25s-.76-.34-.97-.52l-1.01-.89c-.32-.25-.58-.6-.79-1.05-.21-.45-.32-.87-.32-1.24v-5.2c0-.3.12-.7.34-1.2.23-.5.52-.9.87-1.18l.95-.74c.62-.5,1.31-.76,2.07-.76h3.19c.8,0,1.56.33,2.27,1l.85.81c.61.55.92,1.37.92,2.46Zm-9.14-.18v1.76h6.89v-1.58c0-.42-.13-.75-.39-.97l-.66-.58c-.34-.28-.65-.42-.92-.42h-2.85c-.35,0-.67.12-.96.37l-.66.55c-.3.22-.45.52-.45.88Z"/>
      <path class="cls-10" d="m1327.31,688.04h4.45c.24,0,.59.05,1.06.16l-.03-1.61c0-.32-.11-.58-.33-.8-.22-.22-.49-.33-.81-.33h-4.32c-.31,0-.57-.11-.8-.34-.23-.23-.34-.49-.34-.8s.11-.58.33-.8c.22-.22.49-.33.81-.33h4.32c.94,0,1.74.33,2.4.99s1.01,1.46,1.04,2.42l.28,8.5c0,.32-.11.58-.34.8-.22.22-.49.33-.8.33-.32,0-.6-.11-.83-.33-.22-.22-.34-.49-.34-.8l-1.92,1.14h-3.84c-.96,0-1.77-.33-2.44-1-.67-.67-1-1.48-1-2.43v-1.32c0-.95.34-1.75,1.01-2.43.67-.67,1.48-1.01,2.43-1.01Zm5.68,4.42l-.07-.96c0-.33-.12-.59-.34-.81-.22-.22-.48-.32-.8-.32h-4.48c-.32,0-.58.11-.8.33s-.33.49-.33.8v1.27c0,.31.11.57.34.8.23.23.49.34.8.34h3.21l2.48-1.45Z"/>
      <path class="cls-10" d="m1340.64,695.1v-10.77c0-.32.11-.59.33-.82.22-.23.49-.34.8-.34s.58.11.8.34.33.5.33.82v1.42l1.85-1.58c.77-.65,1.51-.97,2.24-.97h1.66c.94,0,1.74.33,2.41,1s1,1.47,1,2.41v.61c0,.32-.11.6-.33.83-.22.22-.49.34-.8.34s-.58-.11-.8-.33c-.22-.22-.33-.49-.33-.8v-.64c0-.32-.11-.58-.33-.8s-.49-.33-.8-.33h-1.47c-.32,0-.67.17-1.05.5l-3.23,2.8v6.34c0,.32-.11.58-.34.8-.22.22-.49.33-.8.33s-.58-.11-.8-.33-.33-.49-.33-.8Z"/>
      <path class="cls-10" d="m1368.8,687.46v2.74c0,.31-.11.57-.34.8-.23.22-.49.34-.8.34h-8.03v.66c0,.39.17.72.5.99l.66.55c.36.28.7.42,1.03.42h5.84c.31,0,.57.11.8.33.22.22.34.49.34.8s-.12.57-.34.8c-.23.23-.49.34-.79.34h-5.99c-.4,0-.81-.08-1.25-.25s-.76-.34-.97-.52l-1.01-.89c-.32-.25-.58-.6-.79-1.05-.21-.45-.32-.87-.32-1.24v-5.2c0-.3.12-.7.34-1.2.23-.5.52-.9.87-1.18l.95-.74c.62-.5,1.31-.76,2.07-.76h3.19c.8,0,1.56.33,2.27,1l.85.81c.61.55.92,1.37.92,2.46Zm-9.14-.18v1.76h6.89v-1.58c0-.42-.13-.75-.39-.97l-.66-.58c-.34-.28-.65-.42-.92-.42h-2.85c-.35,0-.67.12-.96.37l-.66.55c-.3.22-.45.52-.45.88Z"/>
      <path class="cls-10" d="m1393.1,694.94v5.03c0,.32-.11.6-.33.82-.22.23-.49.34-.8.34s-.59-.11-.82-.34c-.23-.22-.34-.5-.34-.82v-16.19c0-.31.11-.57.34-.8s.5-.34.82-.34c.31,0,.57.11.8.34s.34.49.34.8v.73c1.1-1.23,2.19-1.84,3.26-1.84h.53c.8,0,1.54.3,2.22.89l1.89,1.64c.83.72,1.24,1.64,1.24,2.74v3.54c0,1.12-.45,2.06-1.34,2.83l-1.85,1.59c-.61.56-1.39.84-2.33.84h-.5c-.88,0-1.63-.31-2.24-.92l-.88-.88Zm3.2-.5h.58c.28,0,.58-.14.89-.42l1.77-1.55c.3-.23.45-.55.45-.96v-3.66c0-.36-.17-.68-.5-.96l-1.91-1.64c-.22-.19-.45-.28-.7-.28h-.66c-.25,0-.58.21-.99.62l-1.69,1.68c-.3.3-.45.63-.45,1v2.91c0,.35.17.69.5,1.03l1.64,1.63c.41.41.76.61,1.07.61Z"/>
      <path class="cls-10" d="m1410.91,688.04h4.45c.24,0,.59.05,1.06.16l-.03-1.61c0-.32-.11-.58-.33-.8-.22-.22-.49-.33-.81-.33h-4.32c-.31,0-.57-.11-.8-.34-.23-.23-.34-.49-.34-.8s.11-.58.33-.8c.22-.22.49-.33.81-.33h4.32c.94,0,1.74.33,2.4.99s1.01,1.46,1.04,2.42l.28,8.5c0,.32-.11.58-.34.8-.22.22-.49.33-.8.33-.32,0-.6-.11-.83-.33-.22-.22-.34-.49-.34-.8l-1.92,1.14h-3.84c-.96,0-1.77-.33-2.44-1-.67-.67-1-1.48-1-2.43v-1.32c0-.95.34-1.75,1.01-2.43.67-.67,1.48-1.01,2.43-1.01Zm5.68,4.42l-.07-.96c0-.33-.12-.59-.34-.81-.22-.22-.48-.32-.8-.32h-4.48c-.32,0-.58.11-.8.33s-.33.49-.33.8v1.27c0,.31.11.57.34.8.23.23.49.34.8.34h3.21l2.48-1.45Z"/>
      <path class="cls-10" d="m1432.22,696.24h-2.27c-.94,0-1.74-.33-2.42-1s-1.01-1.47-1.01-2.41v-7.37h-1.16c-.32,0-.58-.11-.8-.32-.22-.22-.33-.49-.33-.81s.11-.58.33-.8c.22-.22.49-.33.8-.33h1.19v-2.78c0-.32.11-.58.33-.8s.49-.33.8-.33c.3,0,.56.11.79.34.23.22.34.49.34.8v2.78h4.57c.31,0,.57.11.8.34.23.23.34.49.34.8s-.11.58-.34.8-.49.33-.8.33h-4.6v7.37c0,.31.11.57.34.8.23.22.5.34.82.34h2.22c.6,0,1-.33,1.2-.98s.58-.98,1.15-.98c.33,0,.61.11.82.33.21.22.32.5.32.83,0,.68-.32,1.37-.97,2.05s-1.47,1.02-2.47,1.02Z"/>
      <path class="cls-10" d="m1440.94,695.1v-15.69c0-.31.11-.57.33-.78.22-.22.49-.32.8-.32s.58.11.8.33c.22.22.33.49.33.8v5.73l1.82-1.19c.83-.52,1.57-.78,2.22-.78h1.41c.93,0,1.73.33,2.39.99.67.66,1.01,1.47,1.04,2.41l.28,8.5c0,.32-.1.58-.32.8-.23.22-.5.33-.81.33s-.58-.12-.8-.34c-.22-.23-.33-.49-.34-.79l-.28-8.53c0-.31-.13-.57-.35-.8-.23-.22-.5-.34-.81-.34h-1.27c-.29,0-.6.11-.95.34l-3.23,2.11v7.22c0,.32-.11.58-.33.8-.22.22-.49.33-.8.33s-.58-.11-.8-.33c-.22-.22-.33-.49-.33-.8Z"/>
      <path class="cls-10" d="m1462.86,685.46v9.64c0,.32-.11.58-.34.8s-.49.33-.8.33c-.33,0-.6-.11-.83-.33s-.34-.49-.34-.8v-9.64h-1.16c-.32,0-.58-.11-.8-.34-.22-.23-.33-.49-.33-.8s.1-.56.3-.79c.2-.23.48-.34.83-.34h1.19v-.88c0-1.16.4-2.13,1.2-2.89.8-.77,1.79-1.15,2.98-1.15h2.66c.32,0,.58.11.8.34.22.23.33.5.33.83,0,.31-.11.57-.34.8-.23.23-.49.34-.8.34h-2.66c-.54,0-.99.16-1.34.49-.36.32-.53.74-.53,1.26v.88h2.27c.31,0,.57.1.8.33s.34.5.34.81-.11.57-.34.8c-.23.22-.49.34-.8.34h-2.3Z"/>
      <path class="cls-10" d="m1483.57,696.21h-6.92c-.32,0-.58-.11-.8-.33s-.33-.49-.33-.8.11-.57.33-.8c.22-.22.49-.34.8-.34h2.32v-8.47h-2.3c-.32,0-.58-.11-.8-.34-.22-.23-.33-.49-.33-.8s.11-.59.33-.82c.22-.23.49-.34.8-.34h3.46c.32,0,.58.11.8.34.22.23.33.5.33.82v9.61h2.27c.31,0,.59.11.82.33s.34.49.34.8-.11.58-.34.8c-.23.22-.49.33-.8.33Zm-4.62-18.94h1.19c.32,0,.58.11.8.33s.33.49.33.8v.97c0,.32-.11.59-.33.82-.22.23-.49.34-.8.34h-1.22c-.32,0-.6-.12-.82-.35-.22-.23-.33-.5-.32-.78l.03-1c0-.32.11-.58.33-.8s.49-.33.8-.33Z"/>
      <path class="cls-10" d="m1496.5,685.83l-3.1,2.01v7.26c0,.31-.11.57-.34.8-.22.23-.49.34-.8.34s-.57-.11-.8-.34-.34-.49-.34-.8v-10.77c0-.32.11-.59.33-.82.22-.23.49-.34.8-.34s.57.11.8.34c.23.23.34.5.34.82v.76l2.07-1.26c.7-.44,1.48-.66,2.36-.66h1.06c.9,0,1.68.32,2.34.96.66.64,1.01,1.43,1.04,2.37l.31,8.61c0,.31-.1.57-.32.8s-.5.34-.81.34c-.3,0-.56-.1-.78-.3-.23-.2-.34-.48-.35-.83l-.34-8.47c-.03-.79-.44-1.19-1.25-1.19h-1.11c-.34,0-.71.13-1.11.39Z"/>
      <path class="cls-10" d="m1516.98,684.77v-5.37c0-.32.11-.58.32-.8.22-.22.48-.33.78-.33s.59.11.82.33c.23.22.34.49.34.8v15.69c0,.32-.11.58-.34.8-.23.22-.49.33-.8.33-.32,0-.59-.11-.81-.33-.22-.22-.32-.49-.32-.8v-.5c-1.11,1.09-2.15,1.64-3.11,1.64h-1.93c-.78,0-1.55-.33-2.33-1l-.95-.8c-.22-.21-.42-.55-.61-1.04-.19-.49-.29-.94-.29-1.37v-4.62c0-.51.11-1.01.32-1.49.22-.48.47-.84.76-1.09l.93-.8c.67-.58,1.45-.87,2.35-.87h1.63c.89,0,1.7.32,2.43.95l.78.66Zm-3.3.69h-1.58c-.33,0-.64.12-.91.36l-.73.64c-.25.23-.38.51-.38.87v4.81c0,.32.15.6.45.85l.74.64c.23.21.48.31.74.31h1.85c.24,0,.53-.14.87-.42l1.8-1.49c.3-.26.45-.58.45-.97v-2.46c0-.55-.16-.96-.47-1.22l-1.85-1.58c-.24-.23-.57-.34-.97-.34Z"/>
      <path class="cls-10" d="m1536,687.46v2.74c0,.31-.11.57-.34.8-.23.22-.49.34-.8.34h-8.03v.66c0,.39.17.72.5.99l.66.55c.36.28.7.42,1.03.42h5.84c.31,0,.57.11.8.33.22.22.34.49.34.8s-.12.57-.34.8c-.23.23-.49.34-.79.34h-5.99c-.4,0-.81-.08-1.25-.25s-.76-.34-.97-.52l-1.01-.89c-.32-.25-.58-.6-.79-1.05-.21-.45-.32-.87-.32-1.24v-5.2c0-.3.12-.7.34-1.2.23-.5.52-.9.87-1.18l.95-.74c.62-.5,1.31-.76,2.07-.76h3.19c.8,0,1.56.33,2.27,1l.85.81c.61.55.92,1.37.92,2.46Zm-9.14-.18v1.76h6.89v-1.58c0-.42-.13-.75-.39-.97l-.66-.58c-.34-.28-.65-.42-.92-.42h-2.85c-.35,0-.67.12-.96.37l-.66.55c-.3.22-.45.52-.45.88Z"/>
      <path class="cls-10" d="m1541.28,695.1v-10.77c0-.32.11-.59.33-.82.22-.23.49-.34.8-.34s.58.11.8.34.33.5.33.82v1.42l1.85-1.58c.77-.65,1.51-.97,2.24-.97h1.66c.94,0,1.74.33,2.41,1s1,1.47,1,2.41v.61c0,.32-.11.6-.33.83-.22.22-.49.34-.8.34s-.58-.11-.8-.33c-.22-.22-.33-.49-.33-.8v-.64c0-.32-.11-.58-.33-.8s-.49-.33-.8-.33h-1.47c-.32,0-.67.17-1.05.5l-3.23,2.8v6.34c0,.32-.11.58-.34.8-.22.22-.49.33-.8.33s-.58-.11-.8-.33-.33-.49-.33-.8Z"/>
      <path class="cls-10" d="m1561.18,683.19h5.2c.81,0,1.53.24,2.15.72.62.48.93.95.93,1.41,0,.33-.11.59-.34.8-.23.21-.48.31-.76.31-.36,0-.69-.16-.99-.49-.3-.32-.61-.49-.93-.49h-5.14c-.5,0-.76.21-.76.63,0,.29.17.52.5.67l6.04,2.69c.61.27,1.12.71,1.51,1.3.39.6.59,1.26.59,1.99,0,.97-.34,1.8-1.03,2.47s-1.47,1.01-2.35,1.01h-4.6c-.79,0-1.53-.24-2.21-.72-.68-.48-1.02-.94-1.02-1.39,0-.3.11-.56.33-.79.22-.23.51-.34.86-.34.29,0,.6.16.93.49.33.33.8.49,1.43.49h4.23c.33,0,.61-.13.84-.39s.34-.55.34-.88c0-.51-.25-.88-.76-1.11l-6.1-2.74c-.59-.26-1.04-.64-1.35-1.14-.32-.5-.47-1-.47-1.51,0-.81.28-1.51.84-2.11.56-.59,1.26-.89,2.09-.89Z"/>
      <path class="cls-10" d="m1580.62,689.45v-4.4c0-.57-.18-1.09-.55-1.55l-2.71-3.44c-.13-.17-.2-.38-.2-.63,0-.35.12-.63.36-.86.24-.22.51-.33.82-.33s.57.12.76.35l2.77,3.49c.67.84,1,1.75,1,2.74v4.85c0,1.01-.33,1.93-1,2.76l-2.77,3.49c-.19.23-.45.35-.77.35-.31,0-.58-.11-.81-.32s-.35-.5-.35-.86c0-.27.07-.49.19-.65l2.71-3.44c.37-.45.55-.97.55-1.56Z"/>
    </g>
    <g>
      <path class="cls-10" d="m487.47,872.31v4.36c0,.58.18,1.1.54,1.55l2.7,3.46c.13.15.19.37.19.65,0,.36-.12.65-.35.86s-.51.31-.83.31c-.33,0-.59-.12-.77-.35l-2.73-3.49c-.69-.85-1.03-1.77-1.03-2.76v-4.85c0-.96.34-1.87,1.03-2.74l2.73-3.49c.19-.23.44-.35.76-.35s.59.1.83.31c.24.21.36.49.36.86,0,.27-.07.48-.21.65l-2.69,3.44c-.35.46-.53.99-.53,1.58Z"/>
      <path class="cls-10" d="m498.48,882.33v-16.83h10.3c.3,0,.56.11.79.34.23.23.34.49.34.8s-.11.59-.34.82c-.23.23-.49.34-.8.34h-8.03v3.57h5.76c.32,0,.58.11.8.33.22.22.33.49.33.8s-.11.58-.33.8c-.22.22-.49.33-.8.33h-5.76v8.69c0,.32-.11.58-.33.8s-.49.33-.8.33-.58-.11-.8-.33-.33-.49-.33-.8Z"/>
      <path class="cls-10" d="m524.37,883.44h-6.92c-.32,0-.58-.11-.8-.33s-.33-.49-.33-.8.11-.57.33-.8c.22-.22.49-.34.8-.34h2.32v-8.47h-2.3c-.32,0-.58-.11-.8-.34-.22-.23-.33-.49-.33-.8s.11-.59.33-.82c.22-.23.49-.34.8-.34h3.46c.32,0,.58.11.8.34.22.23.33.5.33.82v9.61h2.27c.31,0,.59.11.82.33s.34.49.34.8-.11.58-.34.8c-.23.22-.49.33-.8.33Zm-4.62-18.94h1.19c.32,0,.58.11.8.33s.33.49.33.8v.97c0,.32-.11.59-.33.82-.22.23-.49.34-.8.34h-1.22c-.32,0-.6-.12-.82-.35-.22-.23-.33-.5-.32-.78l.03-1c0-.32.11-.58.33-.8s.49-.33.8-.33Z"/>
      <path class="cls-10" d="m537.3,873.06l-3.1,2.01v7.26c0,.31-.11.57-.34.8-.22.23-.49.34-.8.34s-.57-.11-.8-.34-.34-.49-.34-.8v-10.77c0-.32.11-.59.33-.82.22-.23.49-.34.8-.34s.57.11.8.34c.23.23.34.5.34.82v.76l2.07-1.26c.7-.44,1.48-.66,2.36-.66h1.06c.9,0,1.68.32,2.34.96.66.64,1.01,1.43,1.04,2.37l.31,8.61c0,.31-.1.57-.32.8s-.5.34-.81.34c-.3,0-.56-.1-.78-.3-.23-.2-.34-.48-.35-.83l-.34-8.47c-.03-.79-.44-1.19-1.25-1.19h-1.11c-.34,0-.71.13-1.11.39Z"/>
      <path class="cls-10" d="m557.78,872v-5.37c0-.32.11-.58.32-.8.22-.22.48-.33.78-.33s.59.11.82.33c.23.22.34.49.34.8v15.69c0,.32-.11.58-.34.8-.23.22-.49.33-.8.33-.32,0-.59-.11-.81-.33-.22-.22-.32-.49-.32-.8v-.5c-1.11,1.09-2.15,1.64-3.11,1.64h-1.93c-.78,0-1.55-.33-2.33-1l-.95-.8c-.22-.21-.42-.55-.61-1.04-.19-.49-.29-.94-.29-1.37v-4.62c0-.51.11-1.01.32-1.49.22-.48.47-.84.76-1.09l.93-.8c.67-.58,1.45-.87,2.35-.87h1.63c.89,0,1.7.32,2.43.95l.78.66Zm-3.3.69h-1.58c-.33,0-.64.12-.91.36l-.73.64c-.25.23-.38.51-.38.87v4.81c0,.32.15.6.45.85l.74.64c.23.21.48.31.74.31h1.85c.24,0,.53-.14.87-.42l1.8-1.49c.3-.26.45-.58.45-.97v-2.46c0-.55-.16-.96-.47-1.22l-1.85-1.58c-.24-.23-.57-.34-.97-.34Z"/>
      <path class="cls-10" d="m574.53,883.44h-6.92c-.32,0-.58-.11-.8-.33s-.33-.49-.33-.8.11-.57.33-.8c.22-.22.49-.34.8-.34h2.32v-8.47h-2.3c-.32,0-.58-.11-.8-.34-.22-.23-.33-.49-.33-.8s.11-.59.33-.82c.22-.23.49-.34.8-.34h3.46c.32,0,.58.11.8.34.22.23.33.5.33.82v9.61h2.27c.31,0,.59.11.82.33s.34.49.34.8-.11.58-.34.8c-.23.22-.49.33-.8.33Zm-4.62-18.94h1.19c.32,0,.58.11.8.33s.33.49.33.8v.97c0,.32-.11.59-.33.82-.22.23-.49.34-.8.34h-1.22c-.32,0-.6-.12-.82-.35-.22-.23-.33-.5-.32-.78l.03-1c0-.32.11-.58.33-.8s.49-.33.8-.33Z"/>
      <path class="cls-10" d="m587.46,873.06l-3.1,2.01v7.26c0,.31-.11.57-.34.8-.22.23-.49.34-.8.34s-.57-.11-.8-.34-.34-.49-.34-.8v-10.77c0-.32.11-.59.33-.82.22-.23.49-.34.8-.34s.57.11.8.34c.23.23.34.5.34.82v.76l2.07-1.26c.7-.44,1.48-.66,2.36-.66h1.06c.9,0,1.68.32,2.34.96.66.64,1.01,1.43,1.04,2.37l.31,8.61c0,.31-.1.57-.32.8s-.5.34-.81.34c-.3,0-.56-.1-.78-.3-.23-.2-.34-.48-.35-.83l-.34-8.47c-.03-.79-.44-1.19-1.25-1.19h-1.11c-.34,0-.71.13-1.11.39Z"/>
      <path class="cls-10" d="m605.94,888.33h-4.92c-.32,0-.58-.11-.8-.32-.22-.22-.33-.49-.33-.81s.11-.58.33-.8c.22-.22.49-.32.8-.32h4.92c.3,0,.58-.11.84-.34l.77-.66c.26-.2.39-.46.39-.78v-3.46c-1.06,1.07-2.1,1.61-3.11,1.61h-1.74c-.9,0-1.71-.31-2.43-.93l-.85-.76c-.28-.23-.52-.58-.72-1.03-.2-.45-.3-.89-.3-1.32v-3.76c0-.53.1-1.04.3-1.51.2-.48.44-.83.72-1.07l.93-.8c.67-.58,1.45-.87,2.35-.87h1.63c.89,0,1.7.32,2.43.95l.78.66-.03-.45c0-.31.11-.57.34-.8s.49-.34.8-.34.59.11.82.33.34.49.34.8v12.73c0,.96-.39,1.79-1.16,2.47l-.92.8c-.23.21-.57.39-.99.54s-.83.23-1.2.23Zm-1.3-15.67h-1.53c-.33,0-.65.13-.96.39l-.7.58c-.27.22-.41.53-.41.92v3.78c0,.31.15.59.45.87l.74.66c.23.2.48.3.74.3h1.85c.27,0,.57-.14.89-.41l1.8-1.53c.28-.24.42-.54.42-.89v-1.72c0-.41-.16-.75-.47-1.01l-1.85-1.58c-.26-.24-.59-.37-.97-.37Z"/>
      <path class="cls-10" d="m643.68,874.52v4.8c0,1.02-.48,1.96-1.44,2.83-.96.86-1.95,1.3-2.97,1.3h-2.66c-1.04,0-2.03-.44-2.97-1.32-.95-.88-1.42-1.81-1.42-2.8v-4.8c0-.99.46-1.93,1.39-2.8.92-.88,1.93-1.32,3.01-1.32h2.66c1.02-.02,2.01.41,2.97,1.27.96.87,1.44,1.82,1.44,2.85Zm-9.17.09v4.6c0,.42.15.74.45.99l.85.73c.19.16.46.24.8.24h2.64c.39,0,.74-.14,1.05-.42l.69-.61c.28-.22.42-.52.42-.91v-4.6c0-.45-.14-.78-.42-1l-.8-.64c-.27-.22-.59-.34-.95-.34h-2.35c-.51,0-.91.12-1.19.37l-.77.66c-.28.23-.42.54-.42.92Z"/>
      <path class="cls-10" d="m654.34,873.06l-3.1,2.01v7.26c0,.31-.11.57-.34.8-.22.23-.49.34-.8.34s-.57-.11-.8-.34-.34-.49-.34-.8v-10.77c0-.32.11-.59.33-.82.22-.23.49-.34.8-.34s.57.11.8.34c.23.23.34.5.34.82v.76l2.07-1.26c.7-.44,1.48-.66,2.36-.66h1.06c.9,0,1.68.32,2.34.96.66.64,1.01,1.43,1.04,2.37l.31,8.61c0,.31-.1.57-.32.8s-.5.34-.81.34c-.3,0-.56-.1-.78-.3-.23-.2-.34-.48-.35-.83l-.34-8.47c-.03-.79-.44-1.19-1.25-1.19h-1.11c-.34,0-.71.13-1.11.39Z"/>
      <path class="cls-10" d="m677.12,874.69v2.74c0,.31-.11.57-.34.8-.23.22-.49.34-.8.34h-8.03v.66c0,.39.17.72.5.99l.66.55c.36.28.7.42,1.03.42h5.84c.31,0,.57.11.8.33.22.22.34.49.34.8s-.12.57-.34.8c-.23.23-.49.34-.79.34h-5.99c-.4,0-.81-.08-1.25-.25s-.76-.34-.97-.52l-1.01-.89c-.32-.25-.58-.6-.79-1.05-.21-.45-.32-.87-.32-1.24v-5.2c0-.3.12-.7.34-1.2.23-.5.52-.9.87-1.18l.95-.74c.62-.5,1.31-.76,2.07-.76h3.19c.8,0,1.56.33,2.27,1l.85.81c.61.55.92,1.37.92,2.46Zm-9.14-.18v1.76h6.89v-1.58c0-.42-.13-.75-.39-.97l-.66-.58c-.34-.28-.65-.42-.92-.42h-2.85c-.35,0-.67.12-.96.37l-.66.55c-.3.22-.45.52-.45.88Z"/>
      <path class="cls-10" d="m691.54,872.56c0,.32-.11.58-.33.8s-.49.33-.8.33-.58-.11-.8-.33-.33-.49-.33-.8v-4.76h-3.46c-.32,0-.58-.11-.8-.34-.22-.23-.33-.5-.33-.82s.11-.57.34-.8c.23-.22.49-.34.8-.34h4.6c.32,0,.58.11.8.34.22.23.33.5.33.83v5.89Z"/>
      <path class="cls-10" d="m702.3,870.42h5.2c.81,0,1.53.24,2.15.72.62.48.93.95.93,1.41,0,.33-.11.59-.34.8-.23.21-.48.31-.76.31-.36,0-.69-.16-.99-.49-.3-.32-.61-.49-.93-.49h-5.14c-.5,0-.76.21-.76.63,0,.29.17.52.5.67l6.04,2.69c.61.27,1.12.71,1.51,1.3.39.6.59,1.26.59,1.99,0,.97-.34,1.8-1.03,2.47s-1.47,1.01-2.35,1.01h-4.6c-.79,0-1.53-.24-2.21-.72-.68-.48-1.02-.94-1.02-1.39,0-.3.11-.56.33-.79.22-.23.51-.34.86-.34.29,0,.6.16.93.49.33.33.8.49,1.43.49h4.23c.33,0,.61-.13.84-.39s.34-.55.34-.88c0-.51-.25-.88-.76-1.11l-6.1-2.74c-.59-.26-1.04-.64-1.35-1.14-.32-.5-.47-1-.47-1.51,0-.81.28-1.51.84-2.11.56-.59,1.26-.89,2.09-.89Z"/>
      <path class="cls-10" d="m734.86,882.17v5.03c0,.32-.11.6-.33.82-.22.23-.49.34-.8.34s-.59-.11-.82-.34c-.23-.22-.34-.5-.34-.82v-16.19c0-.31.11-.57.34-.8s.5-.34.82-.34c.31,0,.57.11.8.34s.34.49.34.8v.73c1.1-1.23,2.19-1.84,3.26-1.84h.53c.8,0,1.54.3,2.22.89l1.89,1.64c.83.72,1.24,1.64,1.24,2.74v3.54c0,1.12-.45,2.06-1.34,2.83l-1.85,1.59c-.61.56-1.39.84-2.33.84h-.5c-.88,0-1.63-.31-2.24-.92l-.88-.88Zm3.2-.5h.58c.28,0,.58-.14.89-.42l1.77-1.55c.3-.23.45-.55.45-.96v-3.66c0-.36-.17-.68-.5-.96l-1.91-1.64c-.22-.19-.45-.28-.7-.28h-.66c-.25,0-.58.21-.99.62l-1.69,1.68c-.3.3-.45.63-.45,1v2.91c0,.35.17.69.5,1.03l1.64,1.63c.41.41.76.61,1.07.61Z"/>
      <path class="cls-10" d="m752.67,875.27h4.45c.24,0,.59.05,1.06.16l-.03-1.61c0-.32-.11-.58-.33-.8-.22-.22-.49-.33-.81-.33h-4.32c-.31,0-.57-.11-.8-.34-.23-.23-.34-.49-.34-.8s.11-.58.33-.8c.22-.22.49-.33.81-.33h4.32c.94,0,1.74.33,2.4.99s1.01,1.46,1.04,2.42l.28,8.5c0,.32-.11.58-.34.8-.22.22-.49.33-.8.33-.32,0-.6-.11-.83-.33-.22-.22-.34-.49-.34-.8l-1.92,1.14h-3.84c-.96,0-1.77-.33-2.44-1-.67-.67-1-1.48-1-2.43v-1.32c0-.95.34-1.75,1.01-2.43.67-.67,1.48-1.01,2.43-1.01Zm5.68,4.42l-.07-.96c0-.33-.12-.59-.34-.81-.22-.22-.48-.32-.8-.32h-4.48c-.32,0-.58.11-.8.33s-.33.49-.33.8v1.27c0,.31.11.57.34.8.23.23.49.34.8.34h3.21l2.48-1.45Z"/>
      <path class="cls-10" d="m773.98,883.46h-2.27c-.94,0-1.74-.33-2.42-1s-1.01-1.47-1.01-2.41v-7.37h-1.16c-.32,0-.58-.11-.8-.32-.22-.22-.33-.49-.33-.81s.11-.58.33-.8c.22-.22.49-.33.8-.33h1.19v-2.78c0-.32.11-.58.33-.8s.49-.33.8-.33c.3,0,.56.11.79.34.23.22.34.49.34.8v2.78h4.57c.31,0,.57.11.8.34.23.23.34.49.34.8s-.11.58-.34.8-.49.33-.8.33h-4.6v7.37c0,.31.11.57.34.8.23.22.5.34.82.34h2.22c.6,0,1-.33,1.2-.98s.58-.98,1.15-.98c.33,0,.61.11.82.33.21.22.32.5.32.83,0,.68-.32,1.37-.97,2.05s-1.47,1.02-2.47,1.02Z"/>
      <path class="cls-10" d="m782.7,882.33v-15.69c0-.31.11-.57.33-.78.22-.22.49-.32.8-.32s.58.11.8.33c.22.22.33.49.33.8v5.73l1.82-1.19c.83-.52,1.57-.78,2.22-.78h1.41c.93,0,1.73.33,2.39.99.67.66,1.01,1.47,1.04,2.41l.28,8.5c0,.32-.1.58-.32.8-.23.22-.5.33-.81.33s-.58-.12-.8-.34c-.22-.23-.33-.49-.34-.79l-.28-8.53c0-.31-.13-.57-.35-.8-.23-.22-.5-.34-.81-.34h-1.27c-.29,0-.6.11-.95.34l-3.23,2.11v7.22c0,.32-.11.58-.33.8-.22.22-.49.33-.8.33s-.58-.11-.8-.33c-.22-.22-.33-.49-.33-.8Z"/>
      <path class="cls-10" d="m805.34,876.68v-4.4c0-.57-.18-1.09-.55-1.55l-2.71-3.44c-.13-.17-.2-.38-.2-.63,0-.35.12-.63.36-.86.24-.22.51-.33.82-.33s.57.12.76.35l2.77,3.49c.67.84,1,1.75,1,2.74v4.85c0,1.01-.33,1.93-1,2.76l-2.77,3.49c-.19.23-.45.35-.77.35-.31,0-.58-.11-.81-.32s-.35-.5-.35-.86c0-.27.07-.49.19-.65l2.71-3.44c.37-.45.55-.97.55-1.56Z"/>
    </g>
    <circle class="cls-9" cx="1375.03" cy="316.37" r="20"/>
    <circle class="cls-9" cx="591.33" cy="466.73" r="20"/>
    <circle class="cls-9" cx="995.72" cy="83.58" r="20"/>
    <circle class="cls-9" cx="1171.42" cy="83.58" r="20"/>
    <circle class="cls-9" cx="1497.78" cy="74.67" r="20"/>
    <circle class="cls-9" cx="1193.91" cy="471.65" r="20"/>
    <circle class="cls-9" cx="1623.65" cy="562.43" r="20"/>
    <circle class="cls-9" cx="1193.91" cy="609.94" r="20"/>
    <circle class="cls-9" cx="341.46" cy="466.73" r="20"/>
    <circle class="cls-9" cx="135.24" cy="330.44" r="20"/>
    <line class="cls-8" x1="135.24" y1="330.44" x2="341.46" y2="466.73"/>
    <line class="cls-8" x1="995.72" y1="83.58" x2="135.24" y2="330.44"/>
    <line class="cls-8" x1="591.33" y1="466.73" x2="341.46" y2="466.73"/>
    <line class="cls-8" x1="995.72" y1="83.58" x2="591.33" y2="466.73"/>
    <line class="cls-8" x1="135.24" y1="330.44" x2="591.33" y2="466.73"/>
    <line class="cls-8" x1="1193.91" y1="471.65" x2="1193.91" y2="609.94"/>
    <line class="cls-8" x1="1623.65" y1="562.43" x2="1193.91" y2="609.94"/>
    <line class="cls-8" x1="1193.91" y1="471.65" x2="1623.65" y2="562.43"/>
    <line class="cls-8" x1="1171.42" y1="83.58" x2="1375.03" y2="316.37"/>
    <line class="cls-8" x1="1497.78" y1="74.67" x2="1171.51" y2="83.58"/>
    <line class="cls-8" x1="1375.03" y1="316.37" x2="1497.78" y2="74.67"/>
    <line class="cls-8" x1="591.33" y1="466.73" x2="1193.91" y2="609.94"/>
    <line class="cls-8" x1="1193.91" y1="471.65" x2="995.72" y2="83.58"/>
    <line class="cls-8" x1="1171.51" y1="83.58" x2="995.72" y2="83.58"/>
    <line class="cls-8" x1="1375.03" y1="316.37" x2="1193.91" y2="471.65"/>
    <line class="cls-8" x1="1623.65" y1="562.43" x2="1375.03" y2="316.37"/>
    <path class="cls-10" d="m336.11,474.13h3.78v-14.52h-3.72c-.34,0-.63-.12-.87-.36s-.36-.53-.36-.87.12-.63.36-.87c.24-.24.53-.36.87-.36h6.18v16.98h2.46v-5.13c0-.33.12-.62.36-.86s.53-.37.87-.37.63.12.87.36c.24.24.36.53.36.87v6.36c0,.34-.12.63-.36.87s-.53.36-.87.36h-9.93c-.34,0-.63-.12-.87-.37-.24-.25-.36-.54-.36-.89s.12-.62.36-.85.53-.35.87-.35Z"/>
    <circle class="cls-9" cx="201.3" cy="826.01" r="20"/>
    <g>
      <path class="cls-10" d="m189.95,830.82h2.95v-11.34h-2.91c-.27,0-.49-.09-.68-.28-.19-.19-.28-.41-.28-.68s.09-.49.28-.68c.19-.19.41-.28.68-.28h4.83v13.26h1.92v-4c0-.26.09-.48.28-.67.19-.19.41-.29.68-.29s.49.09.68.28.28.41.28.68v4.96c0,.27-.09.49-.28.68-.19.19-.41.28-.68.28h-7.76c-.27,0-.49-.1-.68-.29-.19-.19-.28-.42-.28-.69s.09-.48.28-.66c.19-.18.41-.27.68-.27Z"/>
      <path class="cls-10" d="m212.89,819.48v3.6c0,.84-.26,1.52-.78,2.04.53.59.8,1.24.8,1.94v3.75c0,.53-.19.98-.57,1.36-.38.38-.84.57-1.37.57h-6.79c-.27,0-.49-.09-.68-.28s-.28-.41-.28-.68.09-.49.28-.68c.19-.19.41-.28.68-.28h6.77v-3.75c0-.27-.09-.5-.28-.69-.19-.19-.41-.29-.68-.29h-3.87c-.27,0-.49-.09-.68-.27-.19-.18-.28-.41-.28-.69s.09-.49.28-.68.41-.28.68-.28h3.89c.26,0,.48-.09.67-.28.19-.19.29-.41.29-.68v-3.72h-6.86c-.27,0-.49-.09-.68-.28-.19-.19-.28-.41-.28-.68s.09-.49.28-.68.41-.28.68-.28h6.86c.53,0,.99.19,1.36.57.37.38.56.83.56,1.36Z"/>
    </g>
    <circle class="cls-9" cx="645.85" cy="716.24" r="20"/>
    <g>
      <path class="cls-10" d="m635.16,721.45h2.9v-11.13h-2.85c-.26,0-.49-.09-.67-.27s-.27-.41-.27-.67.09-.48.27-.67.41-.28.67-.28h4.74v13.02h1.89v-3.93c0-.25.09-.48.28-.66.18-.19.41-.28.67-.28s.49.09.67.28.27.41.27.67v4.87c0,.26-.09.48-.27.67s-.41.28-.67.28h-7.61c-.26,0-.49-.1-.67-.29-.18-.19-.27-.42-.27-.68s.09-.47.27-.65.41-.27.67-.27Z"/>
      <path class="cls-10" d="m654.34,722.39v-3.93h-5.68v-9.09c0-.26.1-.49.29-.68s.42-.29.68-.29.48.09.66.29c.19.19.28.42.28.68v7.18h3.77v-5.53c0-.26.09-.49.28-.68.18-.19.41-.29.67-.29s.48.1.67.29c.18.19.28.42.28.68v5.53c.26,0,.48.09.67.28s.28.41.28.67-.09.48-.28.67-.41.28-.67.28v3.95c0,.26-.09.48-.28.67-.19.18-.41.28-.66.28s-.48-.09-.67-.28-.28-.41-.28-.67Z"/>
    </g>
    <circle class="cls-9" cx="1157.58" cy="827.78" r="20"/>
    <g>
      <path class="cls-10" d="m1147.43,833.75h2.9v-11.13h-2.85c-.26,0-.49-.09-.67-.27s-.27-.41-.27-.67.09-.48.27-.67.41-.28.67-.28h4.74v13.02h1.89v-3.93c0-.25.09-.48.28-.66.18-.19.41-.28.67-.28s.49.09.67.28.27.41.27.67v4.87c0,.26-.09.48-.27.67s-.41.28-.67.28h-7.61c-.26,0-.49-.1-.67-.29-.18-.19-.27-.42-.27-.68s.09-.47.27-.65.41-.27.67-.27Z"/>
      <path class="cls-10" d="m1161.32,833.75h2.9v-11.13h-2.85c-.26,0-.49-.09-.67-.27s-.27-.41-.27-.67.09-.48.27-.67.41-.28.67-.28h4.74v13.02h1.89v-3.93c0-.25.09-.48.28-.66.18-.19.41-.28.67-.28s.49.09.67.28.27.41.27.67v4.87c0,.26-.09.48-.27.67s-.41.28-.67.28h-7.61c-.26,0-.49-.1-.67-.29-.18-.19-.27-.42-.27-.68s.09-.47.27-.65.41-.27.67-.27Z"/>
    </g>
    <circle class="cls-9" cx="1684.18" cy="845.66" r="20"/>
    <g>
      <path class="cls-10" d="m1673.03,850.64h2.9v-11.13h-2.85c-.26,0-.48-.09-.67-.27s-.28-.41-.28-.67.09-.48.28-.67.41-.28.67-.28h4.74v13.02h1.89v-3.93c0-.25.09-.48.28-.66.18-.19.41-.28.67-.28s.49.09.67.28.27.41.27.67v4.87c0,.26-.09.48-.27.67s-.41.28-.67.28h-7.61c-.26,0-.48-.1-.67-.29-.18-.19-.28-.42-.28-.68s.09-.47.28-.65.41-.27.67-.27Z"/>
      <path class="cls-10" d="m1694.6,852.53h-8.58v-6.51c0-.52.19-.97.56-1.35.37-.37.81-.56,1.33-.56h5.73v-4.59h-6.74c-.27,0-.49-.09-.67-.27s-.27-.41-.27-.67.09-.48.27-.67.4-.28.67-.28h6.74c.53,0,.97.19,1.35.56.38.37.56.81.56,1.33v4.59c0,.53-.19.98-.56,1.35-.37.37-.82.56-1.35.56h-5.73v4.63h6.69c.25,0,.47.09.66.28s.28.41.28.67-.09.48-.28.67-.41.28-.66.28Z"/>
    </g>
    <path class="cls-10" d="m596.39,475.59h-11.19v-8.5c0-.68.24-1.27.73-1.76.48-.49,1.06-.73,1.74-.73h7.47v-5.99h-8.79c-.35,0-.64-.12-.88-.36s-.35-.53-.35-.87.12-.63.35-.87c.23-.24.53-.36.88-.36h8.79c.68,0,1.27.24,1.76.73.49.48.73,1.06.73,1.74v5.99c0,.69-.24,1.28-.73,1.77-.49.48-1.07.72-1.76.72h-7.47v6.04h8.73c.33,0,.62.12.86.36s.37.53.37.87-.12.63-.37.87c-.24.24-.53.36-.86.36Z"/>
    <path class="cls-10" d="m997.07,92.25v-5.13h-7.41v-11.85c0-.34.12-.64.37-.89s.54-.37.89-.37.62.12.86.37c.24.25.37.54.37.89v9.36h4.92v-7.21c0-.34.12-.64.36-.89.24-.25.53-.37.87-.37s.63.12.87.37c.24.25.36.54.36.89v7.21c.34,0,.63.12.87.36s.36.53.36.87-.12.63-.36.87c-.24.24-.53.36-.87.36v5.16c0,.34-.12.63-.37.87-.24.24-.53.36-.86.36s-.63-.12-.87-.36c-.24-.24-.36-.53-.36-.87Z"/>
    <path class="cls-10" d="m1164.82,90.8v-14.72c0-.64.23-1.2.7-1.67s1.03-.7,1.67-.7h7.68c.63,0,1.18.23,1.65.7.46.47.7,1.03.7,1.67v14.72c0,.65-.23,1.21-.7,1.68-.46.46-1.02.7-1.68.7h-7.65c-.66,0-1.23-.23-1.69-.7s-.69-1.02-.69-1.68Zm9.96-.09v-14.52h-7.5v14.52h7.5Z"/>
    <path class="cls-10" d="m1502.4,84.24h-1.23c-.33,0-.62-.12-.87-.36-.24-.24-.37-.53-.37-.87s.12-.63.36-.87c.24-.24.53-.36.87-.36v-8.13h-8.67c-.33,0-.62-.12-.87-.37s-.37-.53-.37-.86v-6.39c0-.33.12-.62.37-.86s.53-.37.87-.37h9.9c.33,0,.62.12.86.37s.37.53.37.86v16.98c0,.34-.12.63-.36.87s-.53.36-.87.36Zm-1.2-13.08v-3.87h-7.47v3.87h7.47Z"/>
    <path class="cls-10" d="m1368.38,309.17v-1.05c0-.34.12-.63.36-.87.24-.24.53-.36.87-.36h11.16v7.56c0,.4-.15.73-.45,1l-4.53,3.87v5.73c0,.34-.12.64-.36.89-.24.25-.53.37-.87.37s-.64-.12-.89-.37c-.25-.24-.37-.53-.37-.86v-6.21c0-.47.15-.83.44-1.08l4.54-3.84v-4.58h-7.44c-.18.7-.59,1.05-1.23,1.05-.34,0-.63-.12-.87-.36s-.36-.53-.36-.87Z"/>
    <path class="cls-10" d="m1188.99,599.72h1.23c.34,0,.63.12.87.37.24.24.36.53.36.86s-.12.63-.36.87c-.24.24-.53.36-.87.36v8.13h8.67c.33,0,.62.12.86.37.24.25.37.54.37.89v6.36c0,.34-.12.63-.38.87-.25.24-.54.36-.88.36h-9.87c-.34,0-.64-.12-.89-.37-.25-.24-.37-.53-.37-.86v-16.98c0-.34.12-.63.37-.87.24-.24.54-.36.89-.36Zm1.2,13.08v3.9h7.44v-3.9h-7.44Z"/>
    <path class="cls-10" d="m1618.07,569.16v-6.01c0-.67.24-1.25.73-1.74.49-.48,1.07-.72,1.76-.72v-7.25c0-.34.12-.63.35-.87.23-.24.53-.36.88-.36h5.01c.34,0,.63.12.87.36.24.24.36.53.36.87v7.25c.66,0,1.24.24,1.73.71s.73,1.06.73,1.75v6.04c0,.67-.24,1.25-.73,1.74-.49.48-1.06.72-1.73.72h-7.47c-.69,0-1.28-.25-1.76-.76-.48-.51-.73-1.08-.73-1.73Zm2.49-6.01v6.04h7.47v-6.04h-7.47Zm2.46-8.48v6.02h2.55v-6.02h-2.55Z"/>
    <path class="cls-10" d="m1191.23,479.12h5.7v-6.04h-7.44v-10.94h8.67c.33,0,.62.12.87.37s.37.53.37.86-.12.63-.36.87c-.24.24-.53.36-.87.36h-6.18v6.02h4.95c.66,0,1.24.24,1.73.73s.73,1.06.73,1.73v6.04c0,.67-.24,1.25-.72,1.74s-1.06.72-1.74.72h-5.7c-.51,0-1.05-.12-1.63-.37l-1.86-.78c-.5-.21-.75-.6-.75-1.17,0-.34.11-.63.34-.87s.5-.36.82-.36c.24,0,.53.07.85.22l1.62.69c.2.12.4.18.6.18Z"/>
    <path class="cls-10" d="m141.18,322.53v4.61c0,1.07-.33,1.94-1,2.61.68.76,1.03,1.59,1.03,2.49v4.8c0,.67-.24,1.25-.73,1.74-.49.48-1.07.72-1.76.72h-8.7c-.34,0-.63-.12-.87-.36-.24-.24-.36-.53-.36-.87s.12-.63.36-.87.53-.36.87-.36h8.67v-4.8c0-.34-.12-.64-.36-.89-.24-.25-.53-.37-.87-.37h-4.95c-.34,0-.63-.12-.87-.35s-.36-.53-.36-.88.12-.63.36-.87.53-.36.87-.36h4.98c.33,0,.62-.12.86-.36.24-.24.37-.53.37-.87v-4.76h-8.79c-.34,0-.63-.12-.87-.36s-.36-.53-.36-.87.12-.63.36-.87c.24-.24.53-.36.87-.36h8.79c.68,0,1.26.24,1.74.73.48.48.72,1.06.72,1.74Z"/>
    <circle class="cls-9" cx="574.17" cy="204.52" r="11.67"/>
    <circle class="cls-9" cx="795.8" cy="273.01" r="11.67"/>
    <circle class="cls-9" cx="372.13" cy="400.59" r="11.67"/>
    <circle class="cls-9" cx="241.38" cy="400.59" r="11.67"/>
    <circle class="cls-9" cx="461.17" cy="466.73" r="11.67"/>
    <circle class="cls-9" cx="271.47" cy="646.15" r="11.67"/>
    <circle class="cls-9" cx="428.29" cy="770.88" r="11.67"/>
    <circle class="cls-9" cx="619.62" cy="596.22" r="11.67"/>
    <circle class="cls-9" cx="1094.97" cy="277.91" r="11.67"/>
    <circle class="cls-9" cx="1271.34" cy="197.82" r="11.67"/>
    <circle class="cls-9" cx="1080.23" cy="84.16" r="11.67"/>
    <circle class="cls-9" cx="1284.47" cy="394.01" r="11.67"/>
    <circle class="cls-9" cx="1408.78" cy="517.04" r="11.67"/>
    <circle class="cls-9" cx="1402.24" cy="586.19" r="11.67"/>
    <circle class="cls-9" cx="1193.91" cy="543.13" r="11.67"/>
    <circle class="cls-9" cx="896.78" cy="540.79" r="11.67"/>
    <circle class="cls-9" cx="912.57" cy="665.79" r="11.67"/>
    <circle class="cls-9" cx="909.51" cy="773.88" r="11.67"/>
    <circle class="cls-9" cx="1496.32" cy="436.41" r="11.67"/>
    <circle class="cls-9" cx="1654.18" cy="707.63" r="11.67"/>
    <circle class="cls-9" cx="1424.22" cy="835.89" r="11.67"/>
    <circle class="cls-9" cx="1173.91" cy="718.71" r="11.67"/>
    <circle class="cls-9" cx="1343.36" cy="79.28" r="11.67"/>
    <circle class="cls-9" cx="1437.73" cy="192.92" r="11.67"/>
    <path class="cls-3" d="m238.2,404.58l2.64-8.98c.11-.33.33-.49.66-.49s.53.14.62.41l2.62,9.11c.02.07.03.13.03.2,0,.18-.06.34-.19.46-.12.13-.27.19-.43.19-.34,0-.56-.16-.66-.48l-.52-1.78h-3l-.57,1.91c-.02.08-.08.16-.2.24-.12.08-.24.11-.38.11-.19,0-.35-.06-.48-.2-.13-.13-.19-.29-.19-.48,0-.08.01-.16.04-.24Zm3.3-6.43l-1.13,3.76h2.22l-1.09-3.76Z"/>
    <path class="cls-3" d="m375.53,402.27v.58c0,.72-.26,1.34-.77,1.86-.51.52-1.13.78-1.85.78h-4.01v-10.38h4.01c.72,0,1.34.26,1.85.77.51.52.77,1.14.77,1.87v.55c0,.78-.3,1.44-.9,1.98.6.56.9,1.22.9,1.98Zm-1.34-3.98v-.54c0-.36-.13-.68-.39-.94s-.57-.39-.93-.39h-2.67v3.18h2.67c.35,0,.66-.13.92-.39.26-.26.39-.57.39-.93Zm0,4.56v-.55c0-.36-.13-.68-.39-.94s-.57-.39-.93-.39h-2.65v3.19h2.65c.35,0,.66-.13.92-.39.26-.26.39-.57.39-.93Z"/>
    <path class="cls-3" d="m460.55,470.76h2.37c.18,0,.34.06.47.19.13.13.2.28.2.46s-.07.34-.2.46c-.13.13-.29.19-.47.19h-2.45c-.31,0-.64-.1-.97-.3-.33-.2-.56-.42-.7-.66l-1.51-2.93c-.2-.42-.3-.85-.3-1.3,0-.49.1-.91.29-1.27l1.53-2.9c.15-.27.37-.51.68-.71s.6-.31.89-.31h2.59c.18,0,.34.07.46.2.13.13.19.28.19.46s-.06.34-.19.47c-.13.13-.28.2-.46.2h-2.5c-.21,0-.38.12-.51.37l-1.46,2.72c-.11.21-.17.47-.17.76,0,.31.06.58.19.81l1.39,2.67c.13.28.34.41.64.41Z"/>
    <path class="cls-3" d="m571.6,198.63h2.59c.34,0,.67.11.99.33.32.21.56.47.71.77l1.3,2.62c.25.47.37.97.37,1.48,0,.48-.13.97-.39,1.48l-1.3,2.59c-.17.33-.41.6-.72.8-.31.2-.66.3-1.05.3h-2.51c-.18,0-.34-.06-.46-.2-.13-.13-.19-.28-.19-.46s.06-.34.19-.47.28-.2.46-.2h.69v-7.72h-.67c-.18,0-.34-.07-.46-.2s-.19-.29-.19-.47.06-.33.19-.46c.13-.13.28-.2.46-.2Zm1.98,1.33v7.74h.46c.29,0,.51-.14.65-.43l1.3-2.58c.16-.34.24-.62.25-.85,0-.29-.07-.56-.2-.81l-1.34-2.67c-.14-.27-.37-.4-.69-.4h-.43Z"/>
    <path class="cls-3" d="m798.43,269.14h-4.64v3.19h2c.18,0,.33.06.46.19.13.13.2.28.2.46,0,.19-.06.35-.19.48-.13.13-.28.2-.46.2h-2v3.22h4.65c.18,0,.33.06.46.19s.2.28.2.46-.07.34-.2.46c-.13.13-.29.19-.47.19h-5.95v-10.38h5.95c.18,0,.34.07.47.2.13.13.2.29.2.47s-.07.33-.2.46c-.13.13-.29.2-.47.2Z"/>
    <path class="cls-3" d="m1095.4,272.15h2.18c.18,0,.34.06.46.19.13.13.19.28.19.46,0,.19-.07.35-.21.48-.14.13-.29.19-.45.19h-2.08c-.2,0-.38.09-.53.29l-1.84,2.37c-.16.19-.23.45-.23.78v3.63c0,.19.06.35.19.48.13.13.28.2.46.2h2.67c.18,0,.33-.06.46-.2.13-.13.2-.28.2-.46v-1.42h-1.36c-.19,0-.34-.06-.47-.19-.12-.13-.19-.28-.19-.46s.06-.34.19-.46c.12-.13.28-.19.47-.19h2.67v2.73c0,.54-.19,1-.58,1.39-.38.39-.85.58-1.39.58h-2.67c-.55,0-1.01-.19-1.4-.58s-.58-.85-.58-1.39v-3.63c0-.65.17-1.2.52-1.65l1.94-2.46c.14-.19.34-.35.59-.48.25-.13.51-.2.78-.2Z"/>
    <path class="cls-3" d="m1077.01,88.49v-9.72h5.95c.17,0,.32.06.46.2.13.13.2.28.2.46s-.07.34-.2.47-.28.2-.46.2h-4.64v2.06h3.33c.18,0,.34.06.46.19.13.13.19.28.19.46s-.06.34-.19.46c-.13.13-.28.19-.46.19h-3.33v5.02c0,.18-.06.34-.19.46-.13.13-.28.19-.46.19s-.34-.06-.46-.19c-.13-.13-.19-.28-.19-.46Z"/>
    <path class="cls-3" d="m1340.78,74.21h5.31c.17,0,.32.06.46.2.13.13.2.28.2.46s-.07.34-.2.47-.28.2-.46.2h-1.98v7.74h1.98c.18,0,.34.06.46.19.13.13.19.28.19.46s-.07.34-.2.46c-.13.13-.28.19-.46.19h-5.31c-.18,0-.34-.06-.46-.19-.13-.13-.19-.28-.19-.46s.06-.34.19-.46.28-.19.46-.19h2.01v-7.74h-2.01c-.18,0-.34-.07-.46-.2-.13-.13-.19-.28-.19-.46,0-.19.06-.35.19-.48.13-.13.28-.2.46-.2Z"/>
    <path class="cls-3" d="m1268.1,201.75v-9.07c0-.18.06-.33.19-.46.13-.13.28-.2.46-.2s.33.06.46.2c.13.13.2.28.2.46v3.87h4v-3.87c0-.18.06-.33.19-.46.13-.13.28-.2.46-.2s.34.06.46.2c.13.13.19.29.19.48v9.05c0,.18-.07.33-.2.46-.13.13-.29.2-.46.2-.19,0-.34-.06-.47-.19-.12-.13-.19-.28-.19-.46v-3.89h-3.98v3.89c0,.18-.07.33-.2.46-.13.13-.29.2-.47.2s-.33-.06-.46-.19c-.13-.13-.2-.28-.2-.46Z"/>
    <path class="cls-3" d="m1435.15,195.84v-2.08c0-.18.06-.34.19-.46.13-.13.28-.19.46-.19s.34.06.46.19c.13.13.19.28.19.46v2.09c0,.18.07.33.2.45.13.12.29.19.48.19h1.33c.18,0,.34-.06.47-.19.13-.13.2-.28.2-.46v-7.74c0-.18.06-.34.19-.46.12-.13.28-.19.45-.19s.33.07.47.21c.13.14.2.3.2.48v7.71c0,.55-.2,1.02-.6,1.41-.4.39-.86.58-1.38.58h-1.33c-.55,0-1.01-.2-1.4-.59-.39-.39-.58-.86-.58-1.4Z"/>
    <path class="cls-3" d="m1495.74,435.73v-.34l-1.36-1.94v7.92c0,.18-.06.34-.19.46-.13.13-.28.19-.46.19s-.34-.06-.46-.2c-.13-.13-.19-.28-.19-.46v-9.72h1.7l1.61,2.35,1.67-2.35h1.66v9.72c0,.18-.07.34-.2.46-.13.13-.29.19-.47.19s-.33-.06-.46-.2c-.13-.13-.2-.28-.2-.46v-7.89l-1.33,1.87v.37c0,.18-.06.33-.2.46-.13.13-.28.2-.46.2s-.34-.06-.46-.2c-.13-.13-.19-.28-.19-.46Z"/>
    <path class="cls-3" d="m1281.24,398.58v-9.05c0-.19.06-.35.19-.48.13-.13.28-.2.46-.2s.34.06.46.19c.13.13.19.28.19.46v3.1l4.2-3.59c.15-.12.31-.18.49-.17.18,0,.34.07.46.2.12.13.19.29.19.46,0,.18-.07.33-.21.45l-4.76,4.05,4.77,4.12c.13.11.19.25.19.42,0,.17-.06.33-.19.47-.13.14-.29.21-.47.21-.18,0-.33-.06-.48-.18l-4.19-3.6v3.13c0,.18-.06.34-.19.46-.13.13-.28.19-.46.19s-.33-.06-.46-.19c-.13-.13-.2-.28-.2-.46Z"/>
    <path class="cls-3" d="m1405.57,521.56v-9.72c0-.18.07-.33.2-.46s.28-.2.46-.2.33.07.46.2c.13.13.2.28.2.46v8.41h4.64c.18,0,.34.06.47.19.13.13.2.28.2.46s-.07.34-.2.46c-.13.13-.29.19-.47.19h-5.95Z"/>
    <path class="cls-3" d="m1403.88,581.87l1.44,2.94c.2.4.3.83.3,1.3s-.1.89-.3,1.3l-1.44,2.91c-.31.64-.83.96-1.56.96-.35,0-.66-.09-.94-.27s-.49-.41-.63-.69l-1.45-2.91c-.19-.38-.29-.81-.29-1.3s.1-.92.29-1.3l1.45-2.94c.33-.64.85-.96,1.57-.96s1.25.32,1.56.96Zm-2,.66l-1.36,2.76c-.12.28-.19.55-.19.81,0,.29.06.56.19.82l1.4,2.79c.07.17.21.26.4.26.17,0,.29-.09.38-.26l1.41-2.79c.13-.28.2-.55.2-.82,0-.29-.07-.56-.2-.81l-1.38-2.76c-.09-.2-.23-.3-.41-.3s-.33.1-.44.3Z"/>
    <path class="cls-3" d="m1197.3,538.76v9.71h-1.76l-3.54-8.06v7.4c0,.18-.06.34-.19.46-.13.13-.28.19-.46.19s-.34-.06-.46-.19-.19-.28-.19-.46v-9.72h1.73l3.55,8.04v-7.37c0-.18.07-.34.2-.47.13-.13.29-.2.47-.2s.34.06.46.2c.13.13.19.29.19.48Z"/>
    <path class="cls-3" d="m1170.7,722.7v-9.72h4.65c.54,0,1,.2,1.39.58.39.39.58.86.58,1.4v2.46c0,.54-.19,1-.58,1.39s-.85.58-1.39.58h-3.33v3.31c0,.18-.06.34-.19.46-.13.13-.28.19-.46.19s-.35-.06-.48-.19-.2-.28-.2-.46Zm1.33-4.62h3.33c.18,0,.33-.06.46-.19.13-.13.2-.28.2-.46v-2.46c0-.18-.07-.34-.2-.46s-.28-.19-.46-.19h-3.33v3.77Z"/>
    <path class="cls-3" d="m909,669.01v-7.74c0-.18.07-.34.2-.47.13-.13.28-.2.46-.2s.33.06.46.2.2.28.2.46v7.75c0,.17.06.32.2.45.13.13.28.19.46.19h2.69c.18,0,.34-.06.46-.19.13-.12.19-.28.19-.45v-7.74c0-.19.06-.35.19-.48.13-.13.28-.2.46-.2s.34.06.46.2c.13.13.19.29.19.48v7.72c0,.54-.19,1.01-.58,1.4s-.85.59-1.39.59h-2.69c-.54,0-1-.19-1.39-.58-.39-.38-.58-.85-.58-1.39Z"/>
    <path class="cls-3" d="m912.82,769.93v2.41l-2.67,6.8c-.14.33-.35.49-.64.49-.31,0-.52-.16-.65-.49l-2.66-6.8v-2.41c0-.19.06-.35.19-.48.13-.13.28-.2.46-.2s.34.07.47.2.19.29.19.48v2.14l2,5.09,2-5.08v-2.15c0-.19.06-.35.19-.48s.28-.2.47-.2.34.07.47.2.19.29.19.48Z"/>
    <path class="cls-3" d="m428.29,772.55l-2.1,3.57c-.12.21-.3.31-.55.31-.19,0-.35-.07-.48-.2-.13-.14-.2-.28-.2-.45,0-.12.04-.25.12-.38l2.45-4.16-2.4-4.11c-.09-.16-.14-.31-.14-.44,0-.17.07-.31.19-.44.13-.13.28-.19.45-.19.25,0,.44.11.56.31l2.11,3.55,2.08-3.54c.13-.22.32-.33.56-.33.18,0,.34.06.48.19.14.13.2.28.2.46,0,.12-.03.24-.1.35l-2.46,4.19,2.45,4.2c.06.1.09.21.09.33,0,.19-.06.34-.19.46-.13.12-.28.19-.46.19-.26,0-.45-.1-.57-.31l-2.08-3.57Z"/>
    <path class="cls-3" d="m272.24,646.35v4.32c0,.18-.06.34-.2.47-.13.13-.28.19-.46.19-.19,0-.35-.06-.48-.19s-.2-.28-.2-.46v-4.32l-2.64-3.34v-1.39c0-.19.06-.35.19-.48.13-.13.28-.2.46-.2s.34.07.47.2.2.29.2.47v.9l1.97,2.53,2-2.53v-.91c0-.18.06-.34.2-.47.13-.13.28-.2.46-.2s.32.06.46.18c.13.12.2.28.2.49v1.38l-2.64,3.35Z"/>
    <path class="cls-3" d="m616.85,590.71h3.42c.42,0,.81.18,1.18.53.37.35.56.78.56,1.28,0,.19-.07.35-.2.48s-.28.2-.44.2c-.22,0-.38-.05-.46-.15-.08-.1-.16-.29-.24-.57-.08-.28-.24-.41-.5-.41h-3.25c-.16,0-.23.05-.23.15,0,.06.03.14.09.22l4.88,6.22c.24.3.35.62.35.97,0,.39-.14.73-.43,1.03-.28.3-.6.45-.95.45h-3.54c-.47,0-.88-.18-1.22-.53-.35-.36-.52-.75-.52-1.18,0-.49.23-.73.69-.73.18,0,.33.06.45.19.12.13.19.28.19.45,0,.14.05.26.14.35.1.09.22.14.36.14h3.26c.14,0,.21-.06.21-.17,0-.05-.03-.12-.1-.21l-4.87-6.22c-.23-.3-.34-.62-.34-.97,0-.41.15-.76.44-1.06.29-.3.64-.45,1.05-.45Z"/>
    <path class="cls-3" d="m893.55,537.85v-1.77h6.62v1.79c0,.18-.07.34-.2.46-.13.13-.28.19-.46.19s-.34-.07-.47-.2-.2-.28-.2-.46v-.48h-1.33v8.39c0,.18-.06.34-.2.46-.13.13-.28.19-.46.19-.19,0-.35-.06-.48-.19-.13-.13-.2-.28-.2-.46v-8.39h-1.33v.46c0,.18-.06.34-.19.46s-.28.19-.46.19-.34-.06-.46-.19c-.13-.13-.19-.28-.19-.46Z"/>
    <path class="cls-3" d="m1421.65,833.01l2.79-2.41c.38-.31.76-.46,1.16-.46.44,0,.82.16,1.14.48.32.32.48.66.48,1.02v4.01c0,.76-.33,1.42-.98,1.97l-.89.75.34.84h.88c.18,0,.34.06.46.19s.19.28.19.46-.06.34-.19.46c-.13.13-.28.19-.46.19h-1.8l-.48-1.24-.9.74c-.39.33-.79.49-1.19.49-.46,0-.84-.16-1.15-.47s-.46-.7-.46-1.14v-3.66c0-.46.07-.85.21-1.18.14-.33.42-.68.84-1.04Zm3.66-1.46l-2.79,2.42c-.24.21-.41.42-.49.61-.08.19-.12.47-.12.82v3.42c0,.27.1.41.31.41.08,0,.16-.04.24-.1l1.34-1.14-.44-1.14c-.06-.15-.09-.28-.09-.39,0-.16.07-.31.2-.43.13-.13.28-.19.46-.19.31,0,.51.13.61.38l.34.88c.38-.3.64-.54.79-.74s.23-.42.23-.69v-3.86c0-.22-.1-.33-.3-.33-.11,0-.21.03-.28.09Z"/>
    <path class="cls-3" d="m1650.99,712.32v-9.72h4.64c.54,0,1,.2,1.39.59s.58.86.58,1.4v.75c0,.55-.19,1.01-.58,1.4-.38.39-.85.58-1.39.58h-.84l2.68,4.61c.08.13.12.27.12.41,0,.18-.07.33-.2.46-.14.13-.29.19-.46.19-.26,0-.46-.12-.59-.35l-3.07-5.31h-.95v5.01c0,.18-.07.34-.2.46-.13.13-.29.19-.47.19s-.34-.06-.46-.19c-.13-.13-.19-.28-.19-.46Zm1.31-6.32h3.33c.18,0,.34-.06.46-.19.13-.13.19-.28.19-.46v-.77c0-.18-.06-.34-.19-.46-.13-.13-.28-.19-.46-.19h-3.33v2.08Z"/>
  </g>
</svg>